<svg width="98" height="103" viewBox="0 0 98 103" fill="none" xmlns="http://www.w3.org/2000/svg">
<path d="M48.9919 0C21.9345 0 0 22.8422 0 51.0191C0 79.1961 21.9345 102.038 48.9919 102.038C76.0492 102.038 97.9838 79.1961 97.9838 51.0191C97.9838 22.8422 76.0492 0 48.9919 0ZM23.5639 24.5389C30.3557 17.466 39.3875 13.5702 48.9919 13.5702C58.5981 13.5702 67.628 17.466 74.4199 24.5389C75.9481 26.1303 77.3227 27.8402 78.5348 29.6499C77.74 30.0863 76.956 30.5434 76.1468 30.9497C73.775 32.1404 71.3545 33.2409 68.9015 34.2379C63.9991 36.2281 58.9377 37.6257 53.7354 38.4459C51.0728 38.8654 48.403 39.093 45.7134 39.1908C43.1393 39.2848 40.5616 39.3244 37.9876 39.4504C33.5114 39.6686 29.1094 40.2799 24.7199 41.2167C22.5108 41.6908 20.3106 42.2212 18.1285 42.8213C16.6076 43.2408 15.1138 43.728 13.6181 44.2246C14.9151 36.8074 18.3363 29.9828 23.5639 24.5389ZM23.5639 77.4993C18.665 72.3978 15.354 66.083 13.889 59.2057C14.6405 58.9197 15.3937 58.6338 16.1506 58.3592C20.7767 56.6869 25.6538 55.4999 30.5563 55.2667C31.7376 55.2121 32.9226 55.214 34.1003 55.3062C35.3846 55.4059 36.6346 55.7181 37.5324 56.7452C38.3687 57.7008 38.6252 58.9968 38.7246 60.2478C38.8239 61.5138 38.8691 62.7835 38.9341 64.0514C39.1942 69.0513 39.4778 74.0908 40.5743 78.9817C41.1126 81.3782 41.8514 83.7277 42.8611 85.9567C43.1899 86.681 43.5494 87.3939 43.9233 88.0993C36.2408 86.9801 29.1455 83.3119 23.5639 77.4993ZM74.4199 77.4993C71.5008 80.5392 68.1681 82.9921 64.5536 84.8018C64.4506 84.6851 64.3513 84.5685 64.2519 84.45C63.4011 83.4398 62.563 82.409 61.8694 81.2728C61.1992 80.1724 60.6158 79.0136 60.1046 77.8248C59.0533 75.385 58.2874 72.791 57.7274 70.1838C57.1277 67.3922 56.9164 64.5235 57.0085 61.6661C57.0843 59.3336 57.2722 56.8486 58.5276 54.834C59.8481 52.7178 62.3101 52.1572 64.5012 51.5552C67.1186 50.8329 69.6891 49.9507 72.2396 48.9988C74.7432 48.0639 77.2288 47.0669 79.6439 45.9044C81.1955 45.1576 82.7905 44.3751 84.2013 43.3424C84.698 45.8405 84.9527 48.4082 84.9527 51.0191C84.9527 61.0228 81.2118 70.4264 74.4199 77.4993Z" fill="white" fill-opacity="0.6"/>
<path d="M46.9028 36.2094C52.0639 36.2094 56.2478 31.8524 56.2478 26.4777C56.2478 21.1031 52.0639 16.7461 46.9028 16.7461C41.7417 16.7461 37.5579 21.1031 37.5579 26.4777C37.5579 31.8524 41.7417 36.2094 46.9028 36.2094Z" fill="white" fill-opacity="0.6"/>
</svg>
