<svg width="1030" height="1221" viewBox="0 0 1030 1221" fill="none" xmlns="http://www.w3.org/2000/svg">
<path d="M803.5 -388C359.741 -388 0 -27.8281 0 416.462C0 860.753 359.741 1220.92 803.5 1220.92C1247.26 1220.92 1607 860.753 1607 416.462C1607 -27.8281 1247.26 -388 803.5 -388ZM386.463 -1.07404C497.855 -112.599 645.982 -174.027 803.5 -174.027C961.048 -174.027 1109.15 -112.599 1220.54 -1.07404C1245.6 24.019 1268.14 50.9809 1288.02 79.5146C1274.99 86.3958 1262.13 93.6036 1248.86 100.01C1209.96 118.786 1170.26 136.137 1130.03 151.858C1049.63 183.239 966.618 205.277 881.297 218.209C837.628 224.823 793.842 228.412 749.73 229.955C707.514 231.438 665.238 232.061 623.022 234.048C549.61 237.488 477.413 247.128 405.424 261.899C369.192 269.374 333.108 277.738 297.32 287.2C272.376 293.815 247.876 301.497 223.346 309.327C244.617 192.374 300.727 84.7644 386.463 -1.07404ZM386.463 833.998C306.119 753.558 251.816 653.987 227.79 545.546C240.114 541.038 252.468 536.529 264.881 532.199C340.751 505.831 420.74 487.115 501.143 483.437C520.518 482.576 539.952 482.606 559.268 484.06C580.332 485.632 600.833 490.555 615.557 506.75C629.273 521.818 633.48 542.254 635.109 561.979C636.739 581.94 637.479 601.961 638.546 621.953C642.812 700.791 647.463 780.253 665.446 857.371C674.274 895.159 686.391 932.206 702.952 967.354C708.343 978.773 714.239 990.014 720.371 1001.14C594.374 983.489 478.006 925.65 386.463 833.998ZM1220.54 833.998C1172.66 881.93 1118 920.608 1058.72 949.142C1057.03 947.303 1055.4 945.464 1053.78 943.595C1039.82 927.667 1026.08 911.413 1014.7 893.498C1003.71 876.146 994.14 857.875 985.755 839.13C968.514 800.66 955.952 759.757 946.769 718.647C936.933 674.631 933.467 629.398 934.978 584.343C936.222 547.563 939.303 508.381 959.892 476.615C981.549 443.246 1021.93 434.407 1057.86 424.915C1100.79 413.526 1142.95 399.615 1184.78 384.606C1225.84 369.865 1266.6 354.145 1306.21 335.814C1331.66 324.039 1357.82 311.7 1380.96 295.416C1389.11 334.806 1393.28 375.293 1393.28 416.462C1393.28 574.199 1331.93 722.473 1220.54 833.998Z" fill="#0EC696"/>
<path d="M769.253 183.001C853.898 183.001 922.517 114.301 922.517 29.5542C922.517 -55.1924 853.898 -123.893 769.253 -123.893C684.608 -123.893 615.989 -55.1924 615.989 29.5542C615.989 114.301 684.608 183.001 769.253 183.001Z" fill="#0EC696"/>
</svg>
