<?xml version="1.0" encoding="UTF-8"?>
<svg id="Layer_1" data-name="Layer 1" xmlns="http://www.w3.org/2000/svg" viewBox="0 0 768 768.000000000001819">
  <defs>
    <style>
      .cls-1 {
        fill: #fff;
      }

      .cls-1, .cls-2 {
        stroke-width: 0px;
      }

      .cls-2 {
        fill: #0ec696;
      }
    </style>
  </defs>
  <path class="cls-1" d="m593.301113552530296,592.4000244140625c-.029968261719659.339965820319776.5.72998046875.059997558600116.109985351569776-.019958496100116-.030029296880457-.039978027350116-.070068359380457-.059997558600116-.109985351569776Zm.260009765629547-.2900390625c-.179992675779431.049926757819776-.25.160034179689319-.260009765629547.27001953125.090026855469659-.119995117180224.179992675780341-.220092773430224.260009765629547-.27001953125Z"/>
  <path class="cls-1" d="m487.967780219199994,592.4000244140625c-.029968261719659.339965820319776.5.72998046875.059997558590112.109985351569776-.019958496090112-.030029296880457-.039978027340112-.070068359380457-.059997558590112-.109985351569776Zm.260009765620453-.2900390625c-.179992675780341.049926757819776-.25.160034179689319-.260009765620453.27001953125.090026855469659-.119995117180224.179992675780341-.220092773430224.260009765620453-.27001953125Z"/>
  <g>
    <path class="cls-2" d="m384.000030517579944,112.780029296871362c-149.7900390625,0-271.220031738280341,121.429931640625-271.220031738280341,271.219970703128638,0,149.7900390625,121.429992675780341,271.219970703130457,271.220031738280341,271.219970703130457,149.789978027340112,0,271.219970703120453-121.429931640630457,271.219970703120453-271.219970703130457,0-149.790039062503638-121.429992675780341-271.219970703128638-271.219970703120453-271.219970703128638Zm-140.77001953125,130.449951171875c37.599975585940228-37.5999755859375,87.599975585940228-58.31005859375,140.77001953125-58.31005859375,53.179992675780341,0,103.169982910159888,20.7100830078125,140.769958496090112,58.31005859375,8.460021972659888,8.4599609375,16.070007324219659,17.550048828125,22.780029296879547,27.1700439453125-4.400024414059772,2.3199462890625-8.739990234379547,4.75-13.220031738279431,6.9100341796875-13.129943847659888,6.3299560546875-26.529968261720569,12.179931640625-40.109985351569776,17.47998046875-27.140014648430224,10.5799560546875-55.159973144530341,18.010009765625-83.9599609375,22.369873046875-14.740051269530341,2.2301025390625-29.52001953125,3.4400634765625-44.410034179680224,3.9600830078125-14.25.5-28.52001953125.710083007816138-42.77001953125,1.380004882816138-24.779968261720569,1.159912109375-49.149963378909888,4.409912109375-73.449951171880457,9.3900146484375-12.230041503899884,2.5198974609375-24.410034179689319,5.3399658203125-36.490051269529431,8.5299072265625-8.419982910159888,2.2301025390625-16.68994140625,4.820068359375-24.969970703120453,7.4600830078125,7.179992675780341-39.430053710941138,26.119995117180224-75.710083007816138,55.059997558590112-104.650024414066138Zm0,281.540039062503638c-27.119995117190228-27.119995117189319-45.450012207030341-60.68994140625-53.559997558590112-97.25,4.159973144530341-1.52001953125,8.330017089840112-3.0400390625,12.52001953125-4.5,25.609985351559772-8.8900146484375,52.609985351559772-15.199951171875,79.75-16.43994140625,6.539978027340112-.2900390625,13.099975585930224-.280029296875,19.619995117180224.2099609375,7.109985351569776.530029296875,14.029968261719659,2.18994140625,19,7.64990234375,4.630004882819776,5.080078125,6.049987792969659,11.969970703130457,6.599975585940228,18.6201171875.549987792969659,6.72998046875.799987792969659,13.47998046875,1.160034179689319,20.219970703130457,1.440002441400793,26.579956054680224,3.009948730470569,53.369995117180224,9.079956054690228,79.369995117180224,2.980041503899884,12.739990234378638,7.070007324210565,25.22998046875,12.660034179680224,37.079956054689319,1.820007324219659,3.85009765625,3.809997558600116,7.640014648439319,5.880004882819776,11.390014648439319-42.530029296879547-5.950073242189319-81.809997558600116-25.450073242189319-112.710021972659888-56.349975585939319Zm281.539978027340112,0c-16.159973144530341,16.159912109380457-34.609985351559772,29.199951171880457-54.619995117180224,38.820068359380457-.570007324219659-.6201171875-1.119995117190228-1.240112304691138-1.669982910159888-1.8701171875-4.710021972659888-5.369995117191138-9.349975585940228-10.849975585941138-13.190002441409888-16.889892578130457-3.710021972649884-5.85009765625-6.940002441399884-12.010009765619543-9.77001953125-18.330078125-5.819946289059772-12.969970703119543-10.059997558590112-26.760009765619543-13.159973144530341-40.619995117189319-3.320007324219659-14.839965820310681-4.489990234369543-30.089965820310681-3.97998046875-45.280029296871362.419982910159888-12.400024414058862,1.4599609375-25.609985351564319,8.409973144530341-36.319946289064319,7.309997558600116-11.25,20.940002441409888-14.22998046875,33.070007324219659-17.4300537109375,14.489990234380457-3.8399658203125,28.719970703130457-8.5299072265625,42.840026855470569-13.5899658203125,13.859985351559772-4.969970703125,27.619995117189319-10.27001953125,40.989990234379547-16.449951171875,8.589965820309772-3.969970703125,17.419982910149884-8.130126953125,25.22998046875-13.6201171875,2.75,13.280029296875,4.159973144530341,26.9300537109375,4.159973144530341,40.81005859375,0,53.179931640630457-20.7099609375,103.169921875-58.309997558600116,140.77001953125Z"/>
    <circle class="cls-2" cx="372.437653392270477" cy="253.557358621861567" r="51.733892159348216"/>
  </g>
</svg>