<?xml version="1.0" encoding="UTF-8"?>
<svg id="Layer_1" data-name="Layer 1" xmlns="http://www.w3.org/2000/svg" viewBox="0 0 3338.666666666659694 1329.777777777791925">
  <defs>
    <style>
      .cls-1 {
        fill: #0ec696;
        stroke-width: 0px;
      }
    </style>
  </defs>
  <g>
    <path class="cls-1" d="m556.912365515233432,341.850613064239951c-165.439286243306924,0-299.555622967332965,134.116269312251461-299.555622967332965,299.555555555551109,0,165.439286243310562,134.116336724026041,299.555555555560204,299.555622967332965,299.555555555560204,165.439218831530525,0,299.555555555554747-134.116269312249642,299.555555555554747-299.555555555560204,0-165.439286243299648-134.116336724024222-299.555555555551109-299.555555555554747-299.555555555551109Zm-155.476904215165632,144.078651340390934c41.5282161793657-41.528216179369338,96.751943764575117-64.401975825179761,155.476904215165632-64.401975825179761,58.735948570214532,0,113.948620624021714,22.873759645810424,155.476836803389233,64.401975825179761,9.34387897565648,9.343811563880081,17.748914135299856,19.38358231183156,25.15996264547357,30.008622106281109-4.859714992207955,2.562321637589775-9.653096796009777,5.246254120589583-14.601188627651936,7.631956902869206-14.501688845042736,6.991275375810801-29.301674802589332,13.452424538570995-44.300458090028769,19.306193592021373-29.975455512078042,11.685292220548945-60.922786610821277,19.891597462079517-92.731640217545646,24.706955505129372-16.280011518012543,2.463091502080715-32.60411033807577,3.799462566110378-49.049752591778088,4.373810904759011-15.73876236178512.552237275851439-31.499635786372892.784268611731022-47.238398148156193,1.524180274300306-27.368844337106566,1.281093407020307-54.284883769194494,4.870635700050116-81.123601893252271,10.371032219331028-13.507769607349474,2.783162618499773-26.960261557693229,5.897856355499243-40.30233301757653,9.421065460130194-9.299656850052997,2.46309150208981-18.433615552638003,5.323642840408866-27.578697198401642,8.239471835730001,7.930119191823906-43.549490896060888,28.848869897570694-83.61985998954151,60.81236612036264-115.5832888005516Zm0,310.953808430331264c-29.953344449275392-29.953344449269935-50.198381857311688-67.030495827621053-59.155654292806503-107.41015015323137,4.594584473908981-1.678822890358788,9.200291890992958-3.357645780719395,13.828042959105005-4.970135482668411,28.285577090318839-9.818794943481407,58.106389986331124-16.787959256480462,88.081845498409166-18.157496914711373,7.223239299906709-.320340763530112,14.468589662614249-.309285232129696,21.669785311494707.231896512321327,7.852797883790117.585403870059963,15.495742906285159,2.418734552929891,20.985016482378342,8.449122461688603,5.113722567333753,5.610817009741368,6.682057555455685,13.220528026251486,7.289505076536443,20.565445583350083.607447521082577,7.433092161199966.883566159009206,14.888295385200763,1.281228230573106,22.332443077801145,1.590446050924584,29.35688504781865,3.324411774736291,58.945801431509608,10.028580392994627,87.662139775819014,3.291380004086022,14.070995002830387,7.808643169961215,27.865871367730506,13.982685575168944,40.95386784070979,2.010151773514735,4.252334882910873,4.208045345523715,8.43820175385008,6.49431575696326,12.579981322740423-46.973335041631799-6.57170447676981-90.357060378448296-28.108958234999591-124.485350990817096-62.237114023819231Zm310.953741018554865,0c-17.848279094358986,17.848211682579858-38.225848055655661,32.250602980338954-60.326394621139116,42.875777598350396-.629558583885228-.684903652670982-1.237006104967804-1.369672481780071-1.844453626048562-2.06549684230049-5.202099406766138-5.931022949709586-10.326810093723907-11.983521921280044-14.568022033450688-18.654456533560733-4.09762485506144-6.461283986309354-7.665056085298602-13.264750151849512-10.790737941917541-20.245104819809058-6.427982568555308-14.325002577950727-11.111011293673073-29.555749789491529-14.534855439245803-44.863750897280624-3.666863601070872-16.390364596689324-4.959079951267995-33.233601510179142-4.395787144014321-50.010640058819263.463860436419054-13.69551140584008,1.612489701950835-28.285577090320658,9.288601318650763-40.114456395531306,8.073706276485609-12.425338706669208,23.127699809156184-15.716651298978832,36.524981514270621-19.251050758570273,16.003825468309515-4.241144527948563,31.720476767291984-9.421065460128375,47.315719456188162-15.009771407059816,15.308001107794553-5.489206164318603,30.50558172512865-11.342975217779895,45.272401088472179-18.168552446119065,9.487398648541784-4.384731612610267,19.239927815388-8.979518321850264,27.865871367726868-15.043072824821138,3.037305017185645,14.667454404290766,4.594584473907162,29.743558999760353,4.594584473907162,45.073671170350281,0,58.735881158439952-22.873624822255806,113.948553212250772-64.401908413399724,155.476904215171089Z"/>
    <circle class="cls-1" cx="544.142014223120896" cy="497.335590760571449" r="57.138767350605804"/>
  </g>
  <path class="cls-1" d="m1190.576525681260136,530.46622721354106v75.086914062510914h-74.7705078125v122.0947265625c0,25.8701171875,12.9345703125,38.805664062489086,38.8046875,38.805664062489086h35.9658203125v83.2890625h-64.990234375c-29.8681640625,0-54.0576171875-9.46484375-72.5634765625-28.39453125-18.509765625-18.9287109375-27.7626953125-44.798828125-27.7626953125-77.610351562489086v-138.1845703125h-45.746093750010914v-75.086914062510914h45.746093750010914v-81.396484374989086h90.5458984375v81.396484374989086h74.7705078125Zm287.412109375,305.7099609375c-26.5009765625,15.1435546875-56.6845703125,22.7158203125-90.5458984375,22.7158203125-33.8662109375,0-64.044921875-7.572265625-90.5458984375-22.7158203125s-46.80078125-35.4921875-60.8896484375-61.046875c-14.09375-25.554687499989086-21.1376953125-53.894531249989086-21.1376953125-85.024414062489086,0-31.125,7.0439453125-59.470703125,21.1376953125-85.025390625,14.0888671875-25.554687500010914,34.388671875-45.849609375010914,60.8896484375-60.889648437510914,26.5009765625-15.0341796875,56.6796875-22.556640625,90.5458984375-22.556640625,33.861328125,0,64.044921875,7.5224609375,90.5458984375,22.556640625,26.5009765625,15.0400390625,46.7958984375,35.3349609375,60.8896484375,60.889648437510914,14.087890625,25.5546875,21.1376953125,53.900390625,21.1376953125,85.025390625,0,31.1298828125-7.0498046875,59.4697265625-21.1376953125,85.024414062489086-14.09375,25.5546875-34.388671875,45.9033203125-60.8896484375,61.046875Zm-149.2275390625-84.866210937489086c15.5625,15.567382812489086,35.123046875,23.345703124989086,58.681640625,23.345703124989086,23.5537109375,0,43.11328125-7.7783203125,58.6806640625-23.345703124989086,15.5625-15.5625,23.3466796875-35.9658203125,23.3466796875-61.205078125s-7.7841796875-45.6376953125-23.3466796875-61.205078125c-15.5673828125-15.5625-35.126953125-23.3466796875-58.6806640625-23.3466796875-23.55859375,0-43.119140625,7.7841796875-58.681640625,23.3466796875-15.5673828125,15.5673828125-23.345703125,35.9658203125-23.345703125,61.205078125s7.7783203125,45.642578125,23.345703125,61.205078125Zm432.538085937503638,236.6171875c-46.274414062503638,0-83.60546875-11.515625-111.999023437503638-34.5458984375-28.39453125-23.03125-43.22265625-52.0068359375-44.484375-86.91796875h94.961914062503638c1.8935546875,13.4580078125,8.306640624996362,24.396484375,19.245117187496362,32.8115234375,10.933593750003638,8.4091796875,25.658203125003638,12.619140625,44.168945312503638,12.619140625,21.660156249996362,0,38.5927734375-5.8359375,50.7939453125-17.509765625,12.1953125-11.6728515625,18.298828125-26.5546875,18.298828125-44.641601562510914v-49.216796875c-20.8232421875,27.556640625-51.849609375003638,41.3291015625-93.0703125,41.3291015625-29.024414062503638,0-54.94921875-7.3046875-77.768554687503638-21.92578125-22.823242187496362-14.6162109375-40.3330078125-34.01953125-52.5283203125-58.2080078125-12.201171875-24.184570312489086-18.298828125-50.793945312489086-18.298828125-79.819335937489086,0-28.6015625,6.728515625-55.2109375,20.19140625-79.819335937510914,13.458007812503638-24.607421875,31.755859375003638-44.16796875,54.895507812503638-58.6806640625,23.1337890625-14.5126953125,48.269531249996362-21.7685546875,75.40234375-21.7685546875,43.744140624996362,0,76.3486328125,13.77734375,97.801757812496362,41.3291015625v-32.49609375h83.919921875003638v312.966796875c0,19.560546875010914-3.366210937503638,37.908203125010914-10.095703125003638,55.052734375010914-6.7333984375,17.1396484375-16.562499999996362,32.44140625-29.498046874996362,45.904296875-12.935546875003638,13.45703125-29.868164062503638,24.080078125-50.7939453125,31.8642578125-20.9306640625,7.7783203125-44.641601562503638,11.6728515625-71.142578125,11.6728515625Zm-2.5244140625-229.992187500010914c21.872070312496362,0,40.224609375-7.414062499989086,55.052734375-22.242187499989086s22.242187499996362-32.7568359375,22.242187499996362-53.791015625c0-22.083984375-7.364257812496362-40.328125-22.083984374996362-54.7373046875-14.724609375-14.404296875-33.126953125003638-21.611328125-55.2109375-21.611328125-22.083984375,0-40.540039062503638,7.20703125-55.3681640625,21.611328125-14.828125,14.4091796875-22.2421875,32.6533203125-22.2421875,54.7373046875s7.4140625,40.279296875,22.2421875,54.580078125c14.828124999996362,14.3056640625,33.2841796875,21.453124999989086,55.3681640625,21.453124999989086Zm474.813476562496362,78.2412109375c-26.5009765625,15.1435546875-56.6845703125,22.7158203125-90.5458984375,22.7158203125-33.8662109375,0-64.044921875-7.572265625-90.5458984375-22.7158203125-26.500976562496362-15.1435546875-46.800781249996362-35.4921875-60.889648437496362-61.046875-14.093750000003638-25.554687499989086-21.137695312503638-53.894531249989086-21.137695312503638-85.024414062489086,0-31.125,7.0439453125-59.470703125,21.137695312503638-85.025390625,14.0888671875-25.554687500010914,34.388671875-45.849609375010914,60.889648437496362-60.889648437510914,26.5009765625-15.0341796875,56.6796875-22.556640625,90.5458984375-22.556640625,33.861328125,0,64.044921875,7.5224609375,90.5458984375,22.556640625,26.5009765625,15.0400390625,46.7958984375,35.3349609375,60.8896484375,60.889648437510914,14.087890625,25.5546875,21.1376953125,53.900390625,21.1376953125,85.025390625,0,31.1298828125-7.0498046875,59.4697265625-21.1376953125,85.024414062489086-14.09375,25.5546875-34.388671875,45.9033203125-60.8896484375,61.046875Zm-149.2275390625-84.866210937489086c15.5625,15.567382812489086,35.123046875,23.345703124989086,58.681640625,23.345703124989086,23.5537109375,0,43.11328125-7.7783203125,58.6806640625-23.345703124989086,15.5625-15.5625,23.3466796875-35.9658203125,23.3466796875-61.205078125s-7.7841796875-45.6376953125-23.3466796875-61.205078125c-15.5673828125-15.5625-35.126953125-23.3466796875-58.6806640625-23.3466796875-23.55859375,0-43.119140625,7.7841796875-58.681640625,23.3466796875-15.5673828125,15.5673828125-23.345703125,35.9658203125-23.345703125,61.205078125s7.7783203125,45.642578125,23.345703125,61.205078125Zm417.7099609375,107.582031249989086c-29.44921875,0-56.1083984375-7.5224609375-79.9775390625-22.5576171875-23.873046875-15.03515625-42.4873046875-35.4384765625-55.841796875-61.205078125-13.3583984375-25.761718749989086-20.033203125-54.106445312489086-20.033203125-85.024414062489086s6.728515625-59.2041015625,20.19140625-84.8671875c13.4580078125-25.658203125010914,32.337890625-46.007812500010914,56.630859375-61.047851562510914,24.2919921875-15.0341796875,51.4736328125-22.556640625,81.5537109375-22.556640625,21.453125,0,40.1708984375,3.3125,56.1572265625,9.9375,15.9814453125,6.625,28.498046875,15.30078125,37.5439453125,26.0283203125v-160.269531249992724h90.544921875v452.413085937492724h-84.2353515625v-38.8056640625c-23.9775390625,31.9736328125-58.1591796875,47.955078125-102.5341796875,47.955078125Zm-41.171875-107.740234374989086c16.08984375,15.670898437489086,36.015625,23.503906249989086,59.78515625,23.503906249989086,23.765625,0,43.6953125-7.8330078125,59.7861328125-23.503906249989086,16.08984375-15.666015625,24.134765625-36.0146484375,24.134765625-61.046875,0-25.02734375-8.044921875-45.376953125-24.134765625-61.0478515625-16.0908203125-15.666015625-36.0205078125-23.50390625-59.7861328125-23.50390625-23.76953125,0-43.6953125,7.837890625-59.78515625,23.50390625-16.08984375,15.6708984375-24.134765625,36.0205078125-24.134765625,61.0478515625,0,25.0322265625,8.044921875,45.380859375,24.134765625,61.046875Zm538.3837890625,85.024414062489086c-26.5009765625,15.1435546875-56.6845703125,22.7158203125-90.5458984375,22.7158203125-33.8662109375,0-64.044921875-7.572265625-90.5458984375-22.7158203125s-46.80078125-35.4921875-60.8896484375-61.046875c-14.09375-25.554687499989086-21.1376953125-53.894531249989086-21.1376953125-85.024414062489086,0-31.125,7.0439453125-59.470703125,21.1376953125-85.025390625,14.0888671875-25.554687500010914,34.388671875-45.849609375010914,60.8896484375-60.889648437510914,26.5009765625-15.0341796875,56.6796875-22.556640625,90.5458984375-22.556640625,33.861328125,0,64.044921875,7.5224609375,90.5458984375,22.556640625,26.5009765625,15.0400390625,46.7958984375,35.3349609375,60.8896484375,60.889648437510914,14.087890625,25.5546875,21.1376953125,53.900390625,21.1376953125,85.025390625,0,31.1298828125-7.0498046875,59.4697265625-21.1376953125,85.024414062489086-14.09375,25.5546875-34.388671875,45.9033203125-60.8896484375,61.046875Zm-149.2275390625-84.866210937489086c15.5625,15.567382812489086,35.123046875,23.345703124989086,58.681640625,23.345703124989086,23.5537109375,0,43.11328125-7.7783203125,58.6806640625-23.345703124989086,15.5625-15.5625,23.3466796875-35.9658203125,23.3466796875-61.205078125s-7.7841796875-45.6376953125-23.3466796875-61.205078125c-15.5673828125-15.5625-35.126953125-23.3466796875-58.6806640625-23.3466796875-23.55859375,0-43.119140625,7.7841796875-58.681640625,23.3466796875-15.5673828125,15.5673828125-23.345703125,35.9658203125-23.345703125,61.205078125s7.7783203125,45.642578125,23.345703125,61.205078125Z"/>
</svg>