<svg width="326" height="130" viewBox="0 0 326 130" fill="none" xmlns="http://www.w3.org/2000/svg">
<path d="M54.3786 33.4196C38.2245 33.4196 25.1289 46.5309 25.1289 62.7043C25.1289 78.8778 38.2245 91.9891 54.3786 91.9891C70.5327 91.9891 83.6284 78.8778 83.6284 62.7043C83.6284 46.5309 70.5327 33.4196 54.3786 33.4196ZM39.1973 47.5048C43.2523 43.445 48.6445 41.2088 54.3786 41.2088C60.1138 41.2088 65.505 43.445 69.56 47.5048C70.4724 48.4182 71.2931 49.3997 72.0167 50.4384C71.5422 50.6889 71.0741 50.9513 70.591 51.1846C69.175 51.868 67.7299 52.4997 66.2653 53.0719C63.3384 54.2143 60.3166 55.0166 57.2107 55.4873C55.621 55.7281 54.0271 55.8587 52.4213 55.9149C50.8845 55.9689 49.3455 55.9916 47.8087 56.0639C45.1363 56.1891 42.5081 56.5401 39.8875 57.0778C38.5686 57.3499 37.255 57.6544 35.9522 57.9988C35.0442 58.2396 34.1523 58.5192 33.2593 58.8043C34.0337 54.5469 36.0763 50.6296 39.1973 47.5048ZM39.1973 77.9038C36.2725 74.9756 34.2957 71.3509 33.4211 67.4034C33.8697 67.2392 34.3195 67.0751 34.7713 66.9175C37.5332 65.9576 40.4451 65.2763 43.372 65.1424C44.0773 65.1111 44.7847 65.1121 45.4879 65.1651C46.2547 65.2223 47.001 65.4015 47.537 65.991C48.0363 66.5396 48.1894 67.2835 48.2487 68.0015C48.308 68.7282 48.335 69.457 48.3738 70.1848C48.5291 73.0547 48.6984 75.9474 49.3531 78.7547C49.6744 80.1303 50.1155 81.4789 50.7184 82.7584C50.9147 83.1741 51.1293 83.5833 51.3525 83.9882C46.7659 83.3457 42.5297 81.2402 39.1973 77.9038ZM69.56 77.9038C67.8172 79.6487 65.8275 81.0567 63.6695 82.0954C63.608 82.0285 63.5487 81.9615 63.4894 81.8935C62.9814 81.3137 62.481 80.722 62.0669 80.0698C61.6668 79.4382 61.3185 78.773 61.0133 78.0906C60.3856 76.6902 59.9283 75.2012 59.594 73.7047C59.236 72.1024 59.1098 70.4558 59.1648 68.8156C59.2101 67.4768 59.3223 66.0504 60.0718 64.894C60.8601 63.6793 62.3301 63.3576 63.6382 63.012C65.2009 62.5974 66.7355 62.091 68.2583 61.5447C69.753 61.008 71.237 60.4358 72.6789 59.7685C73.6053 59.3398 74.5575 58.8907 75.3998 58.2979C75.6964 59.7318 75.8484 61.2056 75.8484 62.7043C75.8484 68.4464 73.615 73.844 69.56 77.9038Z" fill="#0EC696"/>
<path d="M53.132 54.2058C56.2133 54.2058 58.7112 51.7049 58.7112 48.6199C58.7112 45.5348 56.2133 43.0339 53.132 43.0339C50.0506 43.0339 47.5527 45.5348 47.5527 48.6199C47.5527 51.7049 50.0506 54.2058 53.132 54.2058Z" fill="#0EC696"/>
<path d="M116.252 51.8587V59.1993H108.952V71.1354C108.952 73.6644 110.215 74.929 112.741 74.929H116.252V83.0714H109.907C106.99 83.0714 104.628 82.1461 102.821 80.2955C101.014 78.4451 100.11 75.916 100.11 72.7083V59.1993H95.6436V51.8587H100.11V43.9014H108.952V51.8587H116.252ZM144.316 81.7452C141.729 83.2256 138.782 83.9659 135.475 83.9659C132.168 83.9659 129.222 83.2256 126.634 81.7452C124.046 80.2647 122.064 78.2754 120.689 75.7772C119.312 73.2789 118.625 70.5084 118.625 67.4651C118.625 64.4223 119.312 61.6512 120.689 59.153C122.064 56.6547 124.046 54.6707 126.634 53.2004C129.222 51.7306 132.168 50.9952 135.475 50.9952C138.782 50.9952 141.729 51.7306 144.316 53.2004C146.904 54.6707 148.886 56.6547 150.262 59.153C151.638 61.6512 152.326 64.4223 152.326 67.4651C152.326 70.5084 151.638 73.2789 150.262 75.7772C148.886 78.2754 146.904 80.2647 144.316 81.7452ZM129.745 73.4486C131.265 74.9705 133.175 75.7309 135.475 75.7309C137.775 75.7309 139.685 74.9705 141.205 73.4486C142.725 71.9272 143.485 69.9325 143.485 67.4651C143.485 64.9977 142.725 63.0036 141.205 61.4817C139.685 59.9603 137.775 59.1993 135.475 59.1993C133.175 59.1993 131.265 59.9603 129.745 61.4817C128.225 63.0036 127.466 64.9977 127.466 67.4651C127.466 69.9325 128.225 71.9272 129.745 73.4486ZM171.98 96.5804C167.462 96.5804 163.816 95.4547 161.044 93.2032C158.271 90.9516 156.824 88.119 156.7 84.706H165.973C166.158 86.0217 166.784 87.0911 167.852 87.9137C168.92 88.7358 170.357 89.1474 172.165 89.1474C174.28 89.1474 175.933 88.5769 177.125 87.4356C178.315 86.2945 178.911 84.8396 178.911 83.0714V78.2599C176.878 80.9539 173.848 82.3003 169.824 82.3003C166.989 82.3003 164.458 81.5862 162.23 80.1568C160.001 78.7279 158.292 76.8311 157.101 74.4664C155.909 72.1021 155.314 69.5007 155.314 66.6632C155.314 63.8671 155.971 61.2657 157.286 58.86C158.6 56.4544 160.386 54.5421 162.646 53.1233C164.905 51.7046 167.359 50.9952 170.008 50.9952C174.28 50.9952 177.463 52.3421 179.558 55.0356V51.8587H187.752V82.4546C187.752 84.3668 187.424 86.1605 186.767 87.8366C186.109 89.5122 185.149 91.0081 183.886 92.3242C182.623 93.6398 180.97 94.6783 178.927 95.4393C176.883 96.1997 174.568 96.5804 171.98 96.5804ZM171.734 74.0962C173.869 74.0962 175.661 73.3714 177.109 71.9218C178.557 70.4722 179.281 68.7195 179.281 66.6632C179.281 64.5042 178.562 62.7207 177.125 61.312C175.687 59.9039 173.89 59.1993 171.734 59.1993C169.577 59.1993 167.775 59.9039 166.327 61.312C164.879 62.7207 164.155 64.5042 164.155 66.6632C164.155 68.8221 164.879 70.6009 166.327 71.999C167.775 73.3975 169.577 74.0962 171.734 74.0962ZM218.096 81.7452C215.508 83.2256 212.561 83.9659 209.255 83.9659C205.948 83.9659 203.001 83.2256 200.414 81.7452C197.826 80.2647 195.844 78.2754 194.468 75.7772C193.092 73.2789 192.404 70.5084 192.404 67.4651C192.404 64.4223 193.092 61.6512 194.468 59.153C195.844 56.6547 197.826 54.6707 200.414 53.2004C203.001 51.7306 205.948 50.9952 209.255 50.9952C212.561 50.9952 215.508 51.7306 218.096 53.2004C220.684 54.6707 222.665 56.6547 224.042 59.153C225.417 61.6512 226.106 64.4223 226.106 67.4651C226.106 70.5084 225.417 73.2789 224.042 75.7772C222.665 78.2754 220.684 80.2647 218.096 81.7452ZM203.525 73.4486C205.045 74.9705 206.954 75.7309 209.255 75.7309C211.555 75.7309 213.465 74.9705 214.985 73.4486C216.504 71.9272 217.264 69.9325 217.264 67.4651C217.264 64.9977 216.504 63.0036 214.985 61.4817C213.465 59.9603 211.555 59.1993 209.255 59.1993C206.954 59.1993 205.045 59.9603 203.525 61.4817C202.005 63.0036 201.245 64.9977 201.245 67.4651C201.245 69.9325 202.005 71.9272 203.525 73.4486ZM244.312 83.9659C241.436 83.9659 238.833 83.2305 236.502 81.7606C234.171 80.2908 232.354 78.2961 231.05 75.7772C229.745 73.2587 229.094 70.4877 229.094 67.4651C229.094 64.4426 229.751 61.6773 231.065 59.1685C232.379 56.6601 234.223 54.6707 236.595 53.2004C238.967 51.7306 241.621 50.9952 244.558 50.9952C246.653 50.9952 248.481 51.3191 250.042 51.9667C251.602 52.6144 252.824 53.4625 253.707 54.5113V38.8432H262.549V83.0714H254.324V79.2777C251.982 82.4035 248.645 83.9659 244.312 83.9659ZM240.292 73.4331C241.863 74.9651 243.808 75.7309 246.129 75.7309C248.45 75.7309 250.396 74.9651 251.967 73.4331C253.538 71.9016 254.324 69.9123 254.324 67.4651C254.324 65.0184 253.538 63.029 251.967 61.497C250.396 59.9655 248.45 59.1993 246.129 59.1993C243.808 59.1993 241.863 59.9655 240.292 61.497C238.72 63.029 237.935 65.0184 237.935 67.4651C237.935 69.9123 238.72 71.9016 240.292 73.4331ZM292.861 81.7452C290.274 83.2256 287.326 83.9659 284.02 83.9659C280.713 83.9659 277.767 83.2256 275.179 81.7452C272.591 80.2647 270.609 78.2754 269.233 75.7772C267.857 73.2789 267.169 70.5084 267.169 67.4651C267.169 64.4223 267.857 61.6512 269.233 59.153C270.609 56.6547 272.591 54.6707 275.179 53.2004C277.767 51.7306 280.713 50.9952 284.02 50.9952C287.326 50.9952 290.274 51.7306 292.861 53.2004C295.449 54.6707 297.431 56.6547 298.807 59.153C300.182 61.6512 300.871 64.4223 300.871 67.4651C300.871 70.5084 300.182 73.2789 298.807 75.7772C297.431 78.2754 295.449 80.2647 292.861 81.7452ZM278.29 73.4486C279.81 74.9705 281.72 75.7309 284.02 75.7309C286.32 75.7309 288.23 74.9705 289.75 73.4486C291.269 71.9272 292.03 69.9325 292.03 67.4651C292.03 64.9977 291.269 63.0036 289.75 61.4817C288.23 59.9603 286.32 59.1993 284.02 59.1993C281.72 59.1993 279.81 59.9603 278.29 61.4817C276.77 63.0036 276.011 64.9977 276.011 67.4651C276.011 69.9325 276.77 71.9272 278.29 73.4486Z" fill="#0EC696"/>
<path d="M23 7.6189C23 7.6189 41.8964 5.48081 54 6.1189C70.4823 6.98781 78.9951 14.2019 95.5 14.1189C109.978 14.0461 132 7.6189 132 7.6189" stroke="#E0E0E0" stroke-width="5"/>
<path d="M306 7.73779C306 7.73779 287.104 5.59971 275 6.23779C258.518 7.10671 250.005 14.3208 233.5 14.2378C219.022 14.165 197 7.73779 197 7.73779" stroke="#E0E0E0" stroke-width="5"/>
</svg>
