<?xml version="1.0" encoding="UTF-8"?>
<svg id="Layer_1" data-name="Layer 1" xmlns="http://www.w3.org/2000/svg" viewBox="0 0 3338.666666666659694 1329.777777777791925">
  <defs>
    <style>
      .cls-1 {
        fill: #fff;
        stroke-width: 0px;
      }
    </style>
  </defs>
  <g>
    <path class="cls-1" d="m556.912365515233432,341.85061306424177c-165.439286243306924,0-299.555622967332965,134.116269312248733-299.555622967332965,299.555555555554747,0,165.439286243307834,134.116336724026041,299.555555555556566,299.555622967332965,299.555555555556566,165.439218831530525,0,299.555555555554747-134.116269312248733,299.555555555554747-299.555555555556566,0-165.439286243306015-134.116336724024222-299.555555555554747-299.555555555554747-299.555555555554747Zm-155.476904215165632,144.078651340389115c41.5282161793657-41.528216179366609,96.751943764575117-64.401975825177033,155.476904215165632-64.401975825177033,58.735948570214532,0,113.948620624021714,22.873759645810424,155.476836803389233,64.401975825177033,9.34387897565648,9.34381156388099,17.748914135299856,19.383582311829741,25.15996264547357,30.008622106282019-4.859714992207955,2.562321637589775-9.653096796009777,5.24625412059504-14.601188627651936,7.631956902871025-14.501688845042736,6.991275375808073-29.301674802589332,13.452424538566447-44.300458090028769,19.306193592020463-29.975455512078042,11.685292220550764-60.922786610821277,19.891597462076788-92.731640217545646,24.706955505126643-16.280011518012543,2.463091502086172-32.60411033807577,3.799462566109469-49.049752591778088,4.373810904764468-15.73876236178512.552237275852349-31.499635786372892.784268611727384-47.238398148156193,1.52418027429394-27.368844337106566,1.281093407018489-54.284883769194494,4.870635700057392-81.123601893252271,10.371032219329209-13.507769607349474,2.783162618508868-26.960261557693229,5.89785635550561-40.30233301757653,9.421065460135651-9.299656850052997,2.463091502086172-18.433615552638003,5.323642840404318-27.578697198401642,8.239471835730001,7.930119191823906-43.549490896059069,28.848869897570694-83.619859989540601,60.81236612036264-115.583288800553419Zm0,310.953808430333083c-29.953344449275392-29.953344449275392-50.198381857311688-67.030495827621053-59.155654292806503-107.41015015323137,4.594584473908981-1.678822890359697,9.200291890992958-3.357645780718485,13.828042959105005-4.97013548266932,28.285577090318839-9.818794943477769,58.106389986331124-16.787959256482281,88.081845498409166-18.157496914711373,7.223239299906709-.320340763531021,14.468589662614249-.309285232129696,21.669785311494707.231896512320418,7.852797883790117.585403870056325,15.495742906285159,2.418734552928072,20.985016482378342,8.449122461694969,5.113722567333753,5.610817009731363,6.682057555455685,13.220528026246029,7.289505076536443,20.565445583342807.607447521082577,7.433092161200875.883566159009206,14.888295385203492,1.281228230573106,22.332443077805692,1.590446050924584,29.35688504781956,3.324411774736291,58.945801431510517,10.028580392994627,87.662139775819014,3.291380004086022,14.070995002826749,7.808643169961215,27.865871367728687,13.982685575168944,40.953867840712519,2.010151773514735,4.252334882903597,4.208045345523715,8.438201753845533,6.49431575696326,12.579981322736785-46.973335041631799-6.571704476772538-90.357060378448296-28.108958235004138-124.485350990817096-62.237114023820141Zm310.953741018554865,0c-17.848279094358986,17.848211682580768-38.225848055655661,32.250602980339863-60.326394621139116,42.875777598346758-.629558583885228-.684903652668254-1.237006104967804-1.3696724817828-1.844453626048562-2.065496842299581-5.202099406766138-5.931022949708677-10.326810093723907-11.983521921278225-14.568022033450688-18.654456533555276-4.09762485506144-6.461283986312992-7.665056085298602-13.264750151851331-10.790737941917541-20.245104819812695-6.427982568555308-14.325002577949817-11.111011293673073-29.555749789487891-14.534855439245803-44.863750897281534-3.666863601070872-16.390364596694781-4.959079951267995-33.233601510183689-4.395787144014321-50.010640058818353.463860436419054-13.695511405842808,1.612489701950835-28.28557709031702,9.288601318650763-40.114456395531306,8.073706276485609-12.425338706672846,23.127699809156184-15.71665129898247,36.524981514270621-19.251050758568454,16.003825468309515-4.241144527948563,31.720476767291984-9.42106546013656,47.315719456188162-15.009771407064363,15.308001107794553-5.489206164316784,30.50558172512865-11.3429752177708,45.272401088472179-18.168552446111789,9.487398648541784-4.384731612613905,19.239927815388-8.979518321851174,27.865871367726868-15.043072824823867,3.037305017185645,14.667454404284399,4.594584473907162,29.743558999757624,4.594584473907162,45.073671170353009,0,58.735881158439042-22.873624822255806,113.948553212247134-64.401908413399724,155.476904215167451Z"/>
    <circle class="cls-1" cx="544.142014223120896" cy="497.335590760571222" r="57.138767350608646"/>
  </g>
  <path class="cls-1" d="m1190.576525681260136,530.466227213546517v75.086914062502728h-74.7705078125v122.094726562500909c0,25.8701171875,12.9345703125,38.805664062496362,38.8046875,38.805664062496362h35.9658203125v83.2890625h-64.990234375c-29.8681640625,0-54.0576171875-9.46484375-72.5634765625-28.39453125-18.509765625-18.9287109375-27.7626953125-44.798828125-27.7626953125-77.610351562496362v-138.184570312500909h-45.746093750010914v-75.086914062502728h45.746093750010914v-81.396484374998181h90.5458984375v81.396484374998181h74.7705078125Zm287.412109375,305.7099609375c-26.5009765625,15.1435546875-56.6845703125,22.7158203125-90.5458984375,22.7158203125-33.8662109375,0-64.044921875-7.572265625-90.5458984375-22.7158203125s-46.80078125-35.4921875-60.8896484375-61.046875c-14.09375-25.554687499996362-21.1376953125-53.894531249996362-21.1376953125-85.024414062496362,0-31.125000000000909,7.0439453125-59.470703125000909,21.1376953125-85.025390625000909,14.0888671875-25.554687500003638,34.388671875-45.849609375002728,60.8896484375-60.889648437502728,26.5009765625-15.0341796875,56.6796875-22.556640625,90.5458984375-22.556640625,33.861328125,0,64.044921875,7.5224609375,90.5458984375,22.556640625,26.5009765625,15.0400390625,46.7958984375,35.334960937499091,60.8896484375,60.889648437502728,14.087890625,25.5546875,21.1376953125,53.900390625,21.1376953125,85.025390625000909,0,31.1298828125-7.0498046875,59.4697265625-21.1376953125,85.024414062496362-14.09375,25.5546875-34.388671875,45.9033203125-60.8896484375,61.046875Zm-149.2275390625-84.866210937496362c15.5625,15.567382812496362,35.123046875,23.345703124996362,58.681640625,23.345703124996362,23.5537109375,0,43.11328125-7.7783203125,58.6806640625-23.345703124996362,15.5625-15.5625,23.3466796875-35.9658203125,23.3466796875-61.205078125s-7.7841796875-45.637695312500909-23.3466796875-61.205078125000909c-15.5673828125-15.5625-35.126953125-23.3466796875-58.6806640625-23.3466796875-23.55859375,0-43.119140625,7.7841796875-58.681640625,23.3466796875-15.5673828125,15.5673828125-23.345703125,35.965820312500909-23.345703125,61.205078125000909s7.7783203125,45.642578125,23.345703125,61.205078125Zm432.538085937503638,236.6171875c-46.274414062503638,0-83.60546875-11.515625-111.999023437503638-34.5458984375-28.39453125-23.03125-43.22265625-52.0068359375-44.484375-86.91796875h94.961914062503638c1.8935546875,13.4580078125,8.306640624996362,24.396484375,19.245117187496362,32.8115234375,10.933593750003638,8.4091796875,25.658203125003638,12.619140625,44.168945312503638,12.619140625,21.660156249996362,0,38.5927734375-5.8359375,50.7939453125-17.509765625,12.1953125-11.6728515625,18.298828125-26.5546875,18.298828125-44.641601562503638v-49.216796875c-20.8232421875,27.556640625-51.849609375003638,41.3291015625-93.0703125,41.3291015625-29.024414062503638,0-54.94921875-7.3046875-77.768554687503638-21.92578125-22.823242187496362-14.6162109375-40.3330078125-34.01953125-52.5283203125-58.2080078125-12.201171875-24.184570312496362-18.298828125-50.793945312496362-18.298828125-79.819335937496362,0-28.601562500000909,6.728515625-55.210937500000909,20.19140625-79.819335937504547,13.458007812503638-24.607421875,31.755859375003638-44.167968749999091,54.895507812503638-58.680664062499091,23.1337890625-14.5126953125,48.269531249996362-21.7685546875,75.40234375-21.7685546875,43.744140624996362,0,76.3486328125,13.77734375,97.801757812496362,41.3291015625v-32.49609375h83.919921875003638v312.966796875c0,19.560546875003638-3.366210937503638,37.908203125003638-10.095703125003638,55.052734375003638-6.7333984375,17.1396484375-16.562499999996362,32.44140625-29.498046874996362,45.904296875-12.935546875003638,13.45703125-29.868164062503638,24.080078125-50.7939453125,31.8642578125-20.9306640625,7.7783203125-44.641601562503638,11.6728515625-71.142578125,11.6728515625Zm-2.5244140625-229.992187500003638c21.872070312496362,0,40.224609375-7.414062499996362,55.052734375-22.242187499996362s22.242187499996362-32.7568359375,22.242187499996362-53.791015625c0-22.083984375000909-7.364257812496362-40.328125000000909-22.083984374996362-54.737304687500909-14.724609375-14.404296875-33.126953125003638-21.611328125-55.2109375-21.611328125-22.083984375,0-40.540039062503638,7.20703125-55.3681640625,21.611328125-14.828125,14.4091796875-22.2421875,32.6533203125-22.2421875,54.737304687500909,0,22.083984375,7.4140625,40.279296875,22.2421875,54.580078125,14.828124999996362,14.3056640625,33.2841796875,21.453124999996362,55.3681640625,21.453124999996362Zm474.813476562496362,78.2412109375c-26.5009765625,15.1435546875-56.6845703125,22.7158203125-90.5458984375,22.7158203125-33.8662109375,0-64.044921875-7.572265625-90.5458984375-22.7158203125-26.500976562496362-15.1435546875-46.800781249996362-35.4921875-60.889648437496362-61.046875-14.093750000003638-25.554687499996362-21.137695312503638-53.894531249996362-21.137695312503638-85.024414062496362,0-31.125000000000909,7.0439453125-59.470703125000909,21.137695312503638-85.025390625000909,14.0888671875-25.554687500003638,34.388671875-45.849609375002728,60.889648437496362-60.889648437502728,26.5009765625-15.0341796875,56.6796875-22.556640625,90.5458984375-22.556640625,33.861328125,0,64.044921875,7.5224609375,90.5458984375,22.556640625,26.5009765625,15.0400390625,46.7958984375,35.334960937499091,60.8896484375,60.889648437502728,14.087890625,25.5546875,21.1376953125,53.900390625,21.1376953125,85.025390625000909,0,31.1298828125-7.0498046875,59.4697265625-21.1376953125,85.024414062496362-14.09375,25.5546875-34.388671875,45.9033203125-60.8896484375,61.046875Zm-149.2275390625-84.866210937496362c15.5625,15.567382812496362,35.123046875,23.345703124996362,58.681640625,23.345703124996362,23.5537109375,0,43.11328125-7.7783203125,58.6806640625-23.345703124996362,15.5625-15.5625,23.3466796875-35.9658203125,23.3466796875-61.205078125s-7.7841796875-45.637695312500909-23.3466796875-61.205078125000909c-15.5673828125-15.5625-35.126953125-23.3466796875-58.6806640625-23.3466796875-23.55859375,0-43.119140625,7.7841796875-58.681640625,23.3466796875-15.5673828125,15.5673828125-23.345703125,35.965820312500909-23.345703125,61.205078125000909s7.7783203125,45.642578125,23.345703125,61.205078125Zm417.7099609375,107.582031249996362c-29.44921875,0-56.1083984375-7.5224609375-79.9775390625-22.5576171875-23.873046875-15.03515625-42.4873046875-35.4384765625-55.841796875-61.205078125-13.3583984375-25.761718749996362-20.033203125-54.106445312496362-20.033203125-85.024414062496362,0-30.917968750000909,6.728515625-59.204101562500909,20.19140625-84.867187500000909,13.4580078125-25.658203125003638,32.337890625-46.007812500002728,56.630859375-61.047851562502728,24.2919921875-15.0341796875,51.4736328125-22.556640625,81.5537109375-22.556640625,21.453125,0,40.1708984375,3.3125,56.1572265625,9.9375,15.9814453125,6.625,28.498046875,15.30078125,37.5439453125,26.0283203125v-160.269531249998181h90.544921875v452.413085937498181h-84.2353515625v-38.8056640625c-23.9775390625,31.9736328125-58.1591796875,47.955078125-102.5341796875,47.955078125Zm-41.171875-107.740234374996362c16.08984375,15.670898437496362,36.015625,23.503906249996362,59.78515625,23.503906249996362,23.765625,0,43.6953125-7.8330078125,59.7861328125-23.503906249996362,16.08984375-15.666015625,24.134765625-36.0146484375,24.134765625-61.046875,0-25.02734375-8.044921875-45.376953125000909-24.134765625-61.047851562500909-16.0908203125-15.666015625-36.0205078125-23.50390625-59.7861328125-23.50390625-23.76953125,0-43.6953125,7.837890625-59.78515625,23.50390625-16.08984375,15.6708984375-24.134765625,36.020507812500909-24.134765625,61.047851562500909,0,25.0322265625,8.044921875,45.380859375,24.134765625,61.046875Zm538.3837890625,85.024414062496362c-26.5009765625,15.1435546875-56.6845703125,22.7158203125-90.5458984375,22.7158203125-33.8662109375,0-64.044921875-7.572265625-90.5458984375-22.7158203125s-46.80078125-35.4921875-60.8896484375-61.046875c-14.09375-25.554687499996362-21.1376953125-53.894531249996362-21.1376953125-85.024414062496362,0-31.125000000000909,7.0439453125-59.470703125000909,21.1376953125-85.025390625000909,14.0888671875-25.554687500003638,34.388671875-45.849609375002728,60.8896484375-60.889648437502728,26.5009765625-15.0341796875,56.6796875-22.556640625,90.5458984375-22.556640625,33.861328125,0,64.044921875,7.5224609375,90.5458984375,22.556640625,26.5009765625,15.0400390625,46.7958984375,35.334960937499091,60.8896484375,60.889648437502728,14.087890625,25.5546875,21.1376953125,53.900390625,21.1376953125,85.025390625000909,0,31.1298828125-7.0498046875,59.4697265625-21.1376953125,85.024414062496362-14.09375,25.5546875-34.388671875,45.9033203125-60.8896484375,61.046875Zm-149.2275390625-84.866210937496362c15.5625,15.567382812496362,35.123046875,23.345703124996362,58.681640625,23.345703124996362,23.5537109375,0,43.11328125-7.7783203125,58.6806640625-23.345703124996362,15.5625-15.5625,23.3466796875-35.9658203125,23.3466796875-61.205078125s-7.7841796875-45.637695312500909-23.3466796875-61.205078125000909c-15.5673828125-15.5625-35.126953125-23.3466796875-58.6806640625-23.3466796875-23.55859375,0-43.119140625,7.7841796875-58.681640625,23.3466796875-15.5673828125,15.5673828125-23.345703125,35.965820312500909-23.345703125,61.205078125000909s7.7783203125,45.642578125,23.345703125,61.205078125Z"/>
</svg>