<svg width="100" height="28" viewBox="0 0 100 28" fill="none" xmlns="http://www.w3.org/2000/svg">
<path d="M10.3362 6.31196V9.8718H6.7946V15.6603C6.7946 16.8868 7.40727 17.5 8.63265 17.5H10.3362V21.4487H7.25786C5.8431 21.4487 4.69732 21 3.82075 20.1026C2.944 19.2051 2.50572 17.9787 2.50572 16.4231V9.8718H0.338867V6.31196H2.50572V2.45298H6.7946V6.31196H10.3362ZM23.9501 20.8055C22.6948 21.5235 21.2651 21.8825 19.6612 21.8825C18.057 21.8825 16.6276 21.5235 15.3723 20.8055C14.117 20.0876 13.1555 19.1229 12.4882 17.9113C11.8206 16.6998 11.4869 15.3562 11.4869 13.8804C11.4869 12.4047 11.8206 11.0609 12.4882 9.84935C13.1555 8.63781 14.117 7.67563 15.3723 6.96259C16.6276 6.24983 18.057 5.89319 19.6612 5.89319C21.2651 5.89319 22.6948 6.24983 23.9501 6.96259C25.2053 7.67563 26.1666 8.63781 26.8342 9.84935C27.5015 11.0609 27.8354 12.4047 27.8354 13.8804C27.8354 15.3562 27.5015 16.6998 26.8342 17.9113C26.1666 19.1229 25.2053 20.0876 23.9501 20.8055ZM16.8816 16.7821C17.6188 17.5201 18.5453 17.8889 19.6612 17.8889C20.7768 17.8889 21.7033 17.5201 22.4407 16.7821C23.1779 16.0443 23.5466 15.0769 23.5466 13.8804C23.5466 12.6838 23.1779 11.7167 22.4407 10.9787C21.7033 10.2408 20.7768 9.8718 19.6612 9.8718C18.5453 9.8718 17.6188 10.2408 16.8816 10.9787C16.1442 11.7167 15.7758 12.6838 15.7758 13.8804C15.7758 15.0769 16.1442 16.0443 16.8816 16.7821ZM37.3696 28C35.1777 28 33.4095 27.454 32.0646 26.3622C30.7196 25.2703 30.0172 23.8966 29.9575 22.2414H34.4555C34.5452 22.8795 34.849 23.3981 35.3671 23.797C35.885 24.1957 36.5825 24.3953 37.4592 24.3953C38.4852 24.3953 39.2873 24.1186 39.8652 23.5652C40.4429 23.0118 40.732 22.3062 40.732 21.4487V19.1154C39.7456 20.4218 38.276 21.0748 36.3235 21.0748C34.9487 21.0748 33.7207 20.7285 32.6399 20.0353C31.5588 19.3423 30.7294 18.4224 30.1518 17.2757C29.5738 16.1291 29.285 14.8675 29.285 13.4915C29.285 12.1355 29.6037 10.8739 30.2414 9.70726C30.8789 8.54063 31.7456 7.61327 32.8416 6.92523C33.9374 6.23719 35.128 5.89319 36.4132 5.89319C38.4852 5.89319 40.0296 6.54637 41.0458 7.85259V6.31196H45.0208V21.1496C45.0208 22.0769 44.8613 22.9468 44.5426 23.7596C44.2237 24.5722 43.7581 25.2977 43.1454 25.9359C42.5326 26.5739 41.7306 27.0776 40.7394 27.4466C39.748 27.8154 38.6249 28 37.3696 28ZM37.25 17.0962C38.286 17.0962 39.1553 16.7447 39.8577 16.0417C40.5601 15.3387 40.9113 14.4887 40.9113 13.4915C40.9113 12.4445 40.5624 11.5795 39.8652 10.8964C39.1677 10.2135 38.2961 9.8718 37.25 9.8718C36.204 9.8718 35.3298 10.2135 34.6274 10.8964C33.9251 11.5795 33.5739 12.4445 33.5739 13.4915C33.5739 14.5385 33.9251 15.4011 34.6274 16.0791C35.3298 16.7573 36.204 17.0962 37.25 17.0962ZM59.7405 20.8055C58.4852 21.5235 57.0555 21.8825 55.4516 21.8825C53.8475 21.8825 52.418 21.5235 51.1627 20.8055C49.9074 20.0876 48.9459 19.1229 48.2786 17.9113C47.611 16.6998 47.2773 15.3562 47.2773 13.8804C47.2773 12.4047 47.611 11.0609 48.2786 9.84935C48.9459 8.63781 49.9074 7.67563 51.1627 6.96259C52.418 6.24983 53.8475 5.89319 55.4516 5.89319C57.0555 5.89319 58.4852 6.24983 59.7405 6.96259C60.9957 7.67563 61.957 8.63781 62.6246 9.84935C63.2919 11.0609 63.6258 12.4047 63.6258 13.8804C63.6258 15.3562 63.2919 16.6998 62.6246 17.9113C61.957 19.1229 60.9957 20.0876 59.7405 20.8055ZM52.672 16.7821C53.4092 17.5201 54.3357 17.8889 55.4516 17.8889C56.5673 17.8889 57.4937 17.5201 58.2311 16.7821C58.9683 16.0443 59.337 15.0769 59.337 13.8804C59.337 12.6838 58.9683 11.7167 58.2311 10.9787C57.4937 10.2408 56.5673 9.8718 55.4516 9.8718C54.3357 9.8718 53.4092 10.2408 52.672 10.9787C51.9346 11.7167 51.5662 12.6838 51.5662 13.8804C51.5662 15.0769 51.9346 16.0443 52.672 16.7821ZM72.4576 21.8825C71.0627 21.8825 69.8 21.5259 68.6694 20.813C67.5386 20.1002 66.6569 19.1329 66.0243 17.9113C65.3916 16.69 65.0754 15.3462 65.0754 13.8804C65.0754 12.4146 65.3941 11.0735 66.0318 9.85685C66.6693 8.6404 67.5635 7.67563 68.7142 6.96259C69.8649 6.24983 71.1524 5.89319 72.5772 5.89319C73.5933 5.89319 74.4799 6.05024 75.2372 6.36432C75.9942 6.67841 76.587 7.08973 77.0155 7.59832V0H81.3043V21.4487H77.3144V19.609C76.1786 21.1248 74.5596 21.8825 72.4576 21.8825ZM70.5075 16.7746C71.2696 17.5175 72.2134 17.8889 73.3393 17.8889C74.465 17.8889 75.409 17.5175 76.1712 16.7746C76.9333 16.0319 77.3144 15.0671 77.3144 13.8804C77.3144 12.6938 76.9333 11.7291 76.1712 10.9861C75.409 10.2434 74.465 9.8718 73.3393 9.8718C72.2134 9.8718 71.2696 10.2434 70.5075 10.9861C69.7453 11.7291 69.3643 12.6938 69.3643 13.8804C69.3643 15.0671 69.7453 16.0319 70.5075 16.7746ZM96.009 20.8055C94.7538 21.5235 93.3241 21.8825 91.7201 21.8825C90.116 21.8825 88.6865 21.5235 87.4313 20.8055C86.176 20.0876 85.2145 19.1229 84.5471 17.9113C83.8795 16.6998 83.5459 15.3562 83.5459 13.8804C83.5459 12.4047 83.8795 11.0609 84.5471 9.84935C85.2145 8.63781 86.176 7.67563 87.4313 6.96259C88.6865 6.24983 90.116 5.89319 91.7201 5.89319C93.3241 5.89319 94.7538 6.24983 96.009 6.96259C97.2643 7.67563 98.2256 8.63781 98.8932 9.84935C99.5605 11.0609 99.8944 12.4047 99.8944 13.8804C99.8944 15.3562 99.5605 16.6998 98.8932 17.9113C98.2256 19.1229 97.2643 20.0876 96.009 20.8055ZM88.9406 16.7821C89.6777 17.5201 90.6043 17.8889 91.7201 17.8889C92.8358 17.8889 93.7623 17.5201 94.4997 16.7821C95.2368 16.0443 95.6055 15.0769 95.6055 13.8804C95.6055 12.6838 95.2368 11.7167 94.4997 10.9787C93.7623 10.2408 92.8358 9.8718 91.7201 9.8718C90.6043 9.8718 89.6777 10.2408 88.9406 10.9787C88.2032 11.7167 87.8348 12.6838 87.8348 13.8804C87.8348 15.0769 88.2032 16.0443 88.9406 16.7821Z" fill="white"/>
</svg>
