<svg width="26" height="26" viewBox="0 0 26 26" fill="none" xmlns="http://www.w3.org/2000/svg">
<path d="M12.6693 0C5.67229 0 0 5.67229 0 12.6693C0 19.6664 5.67229 25.3387 12.6693 25.3387C19.6664 25.3387 25.3387 19.6664 25.3387 12.6693C25.3387 5.67229 19.6664 0 12.6693 0ZM6.09364 6.09363C7.85002 4.33725 10.1856 3.36983 12.6693 3.36983C15.1535 3.36983 17.4887 4.33725 19.2451 6.09363C19.6402 6.48882 19.9957 6.91344 20.3092 7.36281C20.1036 7.47118 19.9009 7.5847 19.6916 7.6856C19.0783 7.98129 18.4523 8.25455 17.818 8.50213C16.5502 8.99634 15.2413 9.34342 13.896 9.54708C13.2075 9.65125 12.5171 9.70777 11.8215 9.73207C11.1559 9.75542 10.4893 9.76524 9.82362 9.79653C8.66609 9.85071 7.52771 10.0025 6.3926 10.2352C5.8213 10.3529 5.25235 10.4846 4.68806 10.6336C4.29474 10.7378 3.90843 10.8588 3.52165 10.9821C3.85705 9.14022 4.74178 7.44549 6.09364 6.09363ZM6.09364 19.2451C4.8268 17.9782 3.97056 16.4101 3.59172 14.7023C3.78604 14.6313 3.98083 14.5603 4.17656 14.4921C5.37286 14.0768 6.6341 13.782 7.90188 13.7241C8.20737 13.7106 8.51381 13.711 8.81837 13.7339C9.1505 13.7587 9.47375 13.8362 9.70591 14.0913C9.92219 14.3286 9.98852 14.6504 10.0142 14.9611C10.0399 15.2754 10.0516 15.5907 10.0684 15.9056C10.1357 17.1472 10.209 18.3986 10.4925 19.6131C10.6318 20.2083 10.8228 20.7917 11.0839 21.3452C11.1689 21.5251 11.2619 21.7021 11.3586 21.8773C9.37191 21.5994 7.53705 20.6885 6.09364 19.2451ZM19.2451 19.2451C18.4902 19.9999 17.6283 20.6091 16.6936 21.0584C16.667 21.0295 16.6413 21.0005 16.6156 20.9711C16.3956 20.7202 16.1789 20.4642 15.9995 20.1821C15.8262 19.9088 15.6753 19.6211 15.5431 19.3259C15.2712 18.72 15.0732 18.0758 14.9284 17.4284C14.7733 16.7352 14.7186 16.0228 14.7424 15.3133C14.7621 14.734 14.8106 14.117 15.1353 13.6167C15.4768 13.0912 16.1135 12.952 16.6801 12.8025C17.3569 12.6231 18.0217 12.404 18.6812 12.1677C19.3287 11.9355 19.9714 11.6879 20.596 11.3992C20.9972 11.2138 21.4097 11.0195 21.7745 10.763C21.903 11.3833 21.9689 12.021 21.9689 12.6693C21.9689 15.1535 21.0014 17.4887 19.2451 19.2451Z" fill="white"/>
<path d="M12.129 8.99253C13.4637 8.99253 14.5456 7.91058 14.5456 6.57592C14.5456 5.24126 13.4637 4.1593 12.129 4.1593C10.7944 4.1593 9.7124 5.24126 9.7124 6.57592C9.7124 7.91058 10.7944 8.99253 12.129 8.99253Z" fill="white"/>
</svg>
