<svg width="24" height="24" viewBox="0 0 24 24" fill="none" xmlns="http://www.w3.org/2000/svg">
<g clip-path="url(#clip0_1480_14843)">
<path d="M8.52002 15.5032V23.9999H18.7144C19.2414 23.9999 19.7491 23.9219 20.2286 23.7794L8.52002 15.5032Z" fill="#E4E1DA"/>
<path d="M0 9.48096V18.7144C0 21.0167 1.45777 22.9652 3.50399 23.6935V11.9578L0 9.48096Z" fill="#FFCCD5"/>
<path d="M3.50428 0.306641C2.01288 0.837431 0.834776 2.01679 0.305176 3.50858L3.50428 5.76983V0.306641Z" fill="#E4E1DA"/>
<path d="M8.52002 0V9.31537L23.8093 20.1227C23.9325 19.6745 24 19.2028 24 18.7144V13.4182C21.1174 13.4146 18.9458 12.6093 17.4043 11.7298C16.6318 11.2891 16.0166 10.8301 15.5469 10.4471C15.0772 10.0641 14.7365 9.74831 14.5866 9.63862C13.6336 8.94166 12.6901 7.57014 11.947 5.86425C11.2038 4.15837 10.6791 2.11945 10.6791 0.101997C10.6791 0.0677095 10.6805 0.0340702 10.6809 0H8.52002Z" fill="#9DDF7B"/>
<path d="M0.439492 3.16846C0.157406 3.81625 0 4.53173 0 5.28571V9.9164L19.7748 23.8943C21.857 23.4735 23.487 21.8362 23.8985 19.7506L0.439492 3.16846Z" fill="#FCAB1A"/>
<path d="M0.304868 3.50854C0.107914 4.06359 0 4.66143 0 5.28567V9.48098L20.2293 23.7801C21.9698 23.2635 23.3287 21.879 23.81 20.1233L0.304868 3.50854Z" fill="#FFD634"/>
<path opacity="0.125" d="M5.28573 0C4.50998 0 3.7752 0.166948 3.11279 0.464622V23.5354C3.7752 23.833 4.50998 24 5.28573 24H8.9114V0H5.28573Z" fill="black"/>
<path d="M5.28601 0C4.66011 0 4.06069 0.108412 3.50439 0.306374V23.6936C4.06069 23.8916 4.66011 24 5.28601 24H8.52038V0H5.28601Z" fill="white"/>
<path d="M10.681 0C10.6807 0.0340702 10.6792 0.0677023 10.6792 0.101997C10.6792 2.11945 11.2039 4.15837 11.9471 5.86425C12.6902 7.57014 13.6338 8.94166 14.5867 9.63863C14.7367 9.74831 15.0774 10.0641 15.5471 10.4471C16.0168 10.8301 16.632 11.2891 17.4044 11.7298C18.9459 12.6093 21.1175 13.4147 24.0001 13.4182V12.6819C21.254 12.6783 19.2211 11.9189 17.7693 11.0906C17.0417 10.6755 16.4608 10.2426 16.0119 9.87656C15.563 9.51052 15.2627 9.22018 15.0219 9.04406C14.264 8.48973 13.3294 7.19454 12.6217 5.57006C11.914 3.94558 11.4155 1.99091 11.4155 0.101997C11.4155 0.0676733 11.4166 0.0340375 11.4173 0H10.681Z" fill="#90C36C"/>
<path d="M11.0492 0C11.0488 0.0339613 11.0474 0.0675866 11.0474 0.101809C11.0474 4.00817 13.0934 8.08995 14.8043 9.34125C15.5849 9.91218 18.3653 13.0428 24.0002 13.05V5.28562C24.0002 2.35734 21.6429 0 18.7146 0H11.0492Z" fill="#F4EFEB"/>
<path d="M16.1201 0C16.1846 2.49817 16.8105 4.22895 18.3482 5.6715C19.0851 6.36286 19.8006 6.96187 20.8505 7.36725C21.6588 7.67935 22.6515 7.87495 24 7.94868V7.1025C22.7383 7.0298 21.8481 6.84646 21.1545 6.57862C20.2422 6.22639 19.6422 5.72723 18.9257 5.055C17.5463 3.76093 17.0204 2.35257 16.964 0H16.1201Z" fill="#90C36C"/>
<path d="M16.542 0C16.6026 2.4255 17.1785 3.99487 18.6369 5.36306C19.9198 6.56659 20.9891 7.35669 24 7.52568V5.28562C24 2.35734 21.6426 0 18.7143 0H16.542Z" fill="#9DDF7B"/>
<path d="M5.2856 0C5.03852 0 4.79599 0.0181404 4.55811 0.050625V10.3189C5.03273 10.1422 5.53497 10.0512 6.04141 10.0502C6.52696 10.052 7.00865 10.1364 7.46584 10.2999V0H5.2856Z" fill="#3394E3"/>
<path d="M18.0655 15.2179C17.9972 15.2201 17.9303 15.2405 17.8728 15.2773C17.2674 15.6637 16.5704 15.8688 15.8586 15.8698C15.341 15.8694 14.8282 15.7607 14.3521 15.5509C14.1673 15.4695 13.9467 15.5508 13.8582 15.7324C13.5487 16.3675 13.387 17.0648 13.3848 17.7713V17.7726C13.3851 20.3568 15.4875 22.4597 18.0719 22.4597C20.6565 22.4597 22.7598 20.3566 22.7598 17.772C22.7598 17.7718 22.7598 17.7715 22.7598 17.7712C22.7587 17.0632 22.5969 16.3646 22.2871 15.7281C22.1985 15.5463 21.9766 15.4656 21.7917 15.5475C21.3163 15.7584 20.8047 15.8681 20.2872 15.8698C19.5785 15.8669 18.8844 15.6622 18.2817 15.2775C18.2496 15.257 18.2102 15.2577 18.1739 15.2477C18.1416 15.227 18.1038 15.2167 18.0655 15.2179Z" fill="#0078D9"/>
<path d="M18.0712 15.4077C18.0371 15.4088 18.0038 15.4191 17.975 15.4375C17.3394 15.8433 16.6064 16.0585 15.8582 16.0595C15.3141 16.0591 14.7757 15.9453 14.2757 15.725C14.2307 15.7052 14.1799 15.7036 14.1338 15.7205C14.0878 15.7373 14.05 15.7714 14.0285 15.8155C13.7316 16.425 13.5763 17.0936 13.5742 17.7715C13.5742 17.7718 13.5742 17.772 13.5742 17.7723C13.5742 20.2541 15.5902 22.27 18.072 22.27C20.5538 22.27 22.5697 20.2541 22.5697 17.7723V17.7719C22.5686 17.0926 22.4135 16.4224 22.1162 15.8116C22.0946 15.7674 22.0568 15.7333 22.0106 15.7165C21.9645 15.6996 21.9136 15.7013 21.8687 15.7212C21.3689 15.9429 20.8305 16.058 20.2862 16.0597C19.5414 16.0568 18.8121 15.8416 18.1794 15.4377C18.1472 15.4171 18.1095 15.4067 18.0712 15.4079V15.4077Z" fill="white"/>
<path d="M18.0773 15.5974C17.4114 16.0225 16.6427 16.2483 15.8581 16.2492C15.2876 16.2487 14.7233 16.1295 14.1993 15.8985C14.0167 16.2746 13.8899 16.6752 13.8228 17.0879H22.3189C22.2532 16.674 22.1274 16.272 21.9456 15.8944C21.4217 16.1268 20.8571 16.2475 20.2862 16.2492C19.5051 16.2463 18.7402 16.0206 18.0773 15.5974Z" fill="#DE1C25"/>
<path d="M13.7878 17.3877C13.7742 17.5153 13.7663 17.6435 13.7642 17.7719C13.7642 18.9144 14.218 20.0102 15.0259 20.8181C15.8338 21.626 16.9296 22.0799 18.0721 22.0799C18.6379 22.0799 19.1981 21.9685 19.7207 21.752C20.2434 21.5355 20.7183 21.2181 21.1184 20.8181C21.5184 20.4181 21.8357 19.9432 22.0522 19.4205C22.2687 18.8978 22.3801 18.3376 22.3801 17.7719C22.3792 17.6436 22.3726 17.5154 22.3603 17.3877H13.7878Z" fill="#0078D9"/>
<path d="M16.8316 19.8841V20.3045H15.0571C15.0763 20.1455 15.134 19.9952 15.2301 19.8535C15.3262 19.7107 15.5159 19.5217 15.7994 19.2865C16.0276 19.0965 16.1675 18.9676 16.2191 18.9C16.2888 18.8066 16.3236 18.7142 16.3236 18.623C16.3236 18.522 16.293 18.4447 16.2317 18.391C16.1717 18.3363 16.0882 18.3089 15.9813 18.3089C15.8756 18.3089 15.7916 18.3373 15.7291 18.3942C15.6666 18.4511 15.6306 18.5456 15.621 18.6777L15.1166 18.6326C15.1466 18.3835 15.2409 18.2047 15.3994 18.0963C15.558 17.9878 15.7561 17.9336 15.9939 17.9336C16.2545 17.9336 16.4593 17.9964 16.6082 18.122C16.7572 18.2477 16.8316 18.4039 16.8316 18.5907C16.8316 18.697 16.81 18.7985 16.7668 18.8951C16.7247 18.9907 16.6575 19.0911 16.565 19.1963C16.5038 19.2661 16.3933 19.3665 16.2335 19.4975C16.0738 19.6285 15.9723 19.7155 15.9291 19.7585C15.887 19.8014 15.8528 19.8433 15.8264 19.8841H16.8316Z" fill="white"/>
<path d="M17.6098 19.0304C17.4789 18.9811 17.3834 18.9134 17.3234 18.8275C17.2645 18.7405 17.2351 18.6455 17.2351 18.5424C17.2351 18.3663 17.3036 18.2208 17.4405 18.1059C17.5786 17.991 17.7744 17.9336 18.0278 17.9336C18.2788 17.9336 18.4734 17.991 18.6115 18.1059C18.7508 18.2208 18.8205 18.3663 18.8205 18.5424C18.8205 18.6519 18.7886 18.7497 18.725 18.8356C18.6613 18.9204 18.5719 18.9853 18.4566 19.0304C18.6031 19.0831 18.7142 19.1598 18.7898 19.2608C18.8667 19.3617 18.9051 19.4782 18.9051 19.6103C18.9051 19.8283 18.8271 20.0054 18.6709 20.1418C18.516 20.2782 18.3094 20.3463 18.0512 20.3463C17.811 20.3463 17.611 20.29 17.4513 20.1772C17.2627 20.0441 17.1685 19.8615 17.1685 19.6296C17.1685 19.5018 17.2039 19.3848 17.2747 19.2785C17.3456 19.1711 17.4573 19.0884 17.6098 19.0304ZM17.7143 18.5746C17.7143 18.6648 17.7425 18.7352 17.799 18.7856C17.8566 18.8361 17.9329 18.8613 18.0278 18.8613C18.1239 18.8613 18.2007 18.8361 18.2584 18.7856C18.316 18.7341 18.3449 18.6632 18.3449 18.573C18.3449 18.4882 18.316 18.4205 18.2584 18.3701C18.2019 18.3185 18.1269 18.2928 18.0332 18.2928C17.9359 18.2928 17.8584 18.3185 17.8008 18.3701C17.7431 18.4216 17.7143 18.4898 17.7143 18.5746ZM17.6675 19.5861C17.6675 19.7107 17.7029 19.8078 17.7738 19.8776C17.8458 19.9474 17.9353 19.9823 18.0422 19.9823C18.1467 19.9823 18.2332 19.9491 18.3016 19.8825C18.3701 19.8148 18.4043 19.7177 18.4043 19.5909C18.4043 19.4804 18.3695 19.3918 18.2998 19.3252C18.2302 19.2575 18.1419 19.2237 18.035 19.2237C17.9113 19.2237 17.8188 19.2618 17.7576 19.3381C17.6975 19.4143 17.6675 19.497 17.6675 19.5861Z" fill="white"/>
<path d="M20.0851 17.9336C20.3409 17.9336 20.5409 18.0152 20.685 18.1784C20.8567 18.3717 20.9426 18.6922 20.9426 19.14C20.9426 19.5867 20.8561 19.9077 20.6832 20.1031C20.5403 20.2642 20.3409 20.3447 20.0851 20.3447C19.828 20.3447 19.6209 20.2567 19.4635 20.0806C19.3062 19.9034 19.2275 19.5883 19.2275 19.1351C19.2275 18.6906 19.314 18.3706 19.487 18.1752C19.6299 18.0141 19.8293 17.9336 20.0851 17.9336ZM20.0851 18.3089C20.0238 18.3089 19.9692 18.3266 19.9211 18.362C19.8731 18.3964 19.8359 18.4587 19.8094 18.5489C19.7746 18.6659 19.7572 18.8629 19.7572 19.14C19.7572 19.417 19.7728 19.6076 19.804 19.7117C19.8353 19.8148 19.8743 19.8836 19.9211 19.9179C19.9692 19.9523 20.0238 19.9695 20.0851 19.9695C20.1463 19.9695 20.201 19.9523 20.249 19.9179C20.297 19.8825 20.3343 19.8197 20.3607 19.7295C20.3955 19.6135 20.4129 19.417 20.4129 19.14C20.4129 18.8629 20.3973 18.6729 20.3661 18.5698C20.3349 18.4656 20.2952 18.3964 20.2472 18.362C20.2004 18.3266 20.1463 18.3089 20.0851 18.3089Z" fill="white"/>
<path d="M6.04171 18.6035C8.40359 18.6035 10.3183 16.6888 10.3183 14.3269C10.3183 11.965 8.40359 10.0503 6.04171 10.0503C3.67983 10.0503 1.76514 11.965 1.76514 14.3269C1.76514 16.6888 3.67983 18.6035 6.04171 18.6035Z" fill="#0179DA"/>
<path d="M6.02333 11.6736C6.02043 11.6738 6.01749 11.6747 6.01452 11.675C6.00682 11.6757 5.99931 11.6772 5.99165 11.6788C5.98066 11.6809 5.96981 11.6831 5.95922 11.6865C5.95668 11.6872 5.9544 11.6872 5.95211 11.6883C5.94837 11.6897 5.9451 11.6915 5.94144 11.6931C5.93048 11.6974 5.91989 11.7023 5.90955 11.7079C5.90283 11.7116 5.89652 11.7156 5.89025 11.7198C5.88255 11.7248 5.87522 11.7301 5.86811 11.7359C5.86064 11.742 5.85367 11.7484 5.84692 11.7552C5.84137 11.7608 5.83608 11.7666 5.831 11.7728C5.82436 11.7807 5.81844 11.789 5.81281 11.7976C5.80886 11.8036 5.80505 11.8096 5.80156 11.8159C5.79601 11.826 5.79137 11.8364 5.78712 11.847C5.78567 11.8509 5.78332 11.8543 5.78187 11.8583L5.39206 12.9863C5.39097 12.9877 5.3906 12.9892 5.38988 12.9908L5.09833 13.8347L4.90108 14.4053L4.14526 16.5932C4.10008 16.6927 4.11674 16.8132 4.19738 16.897C4.24284 16.9442 4.30098 16.9705 4.36108 16.9782C4.36108 16.9782 4.36216 16.9784 4.36216 16.9784C4.37816 16.9802 4.39409 16.9809 4.41016 16.9802C4.41488 16.98 4.41937 16.9794 4.42401 16.9791C4.43555 16.978 4.44695 16.9762 4.45834 16.9735C4.46574 16.9716 4.47293 16.9697 4.48011 16.9675C4.48885 16.9646 4.49734 16.9616 4.5058 16.9579C4.5153 16.9538 4.52438 16.9491 4.53338 16.944C4.53846 16.9411 4.54361 16.9382 4.54858 16.9348C4.56081 16.9268 4.57206 16.9176 4.58291 16.9077C4.584 16.9066 4.58545 16.9059 4.58686 16.9048L4.60243 16.89V16.8892L6.04187 15.5036L7.48129 16.8892C7.48274 16.8907 7.48419 16.8918 7.48542 16.8934L7.49721 16.9046C7.4983 16.9057 7.49976 16.9064 7.50118 16.9075C7.51203 16.9175 7.5233 16.9267 7.53549 16.9347C7.5405 16.938 7.54554 16.9409 7.5507 16.9439C7.55962 16.949 7.56877 16.9537 7.57828 16.9577C7.58673 16.9614 7.59526 16.9645 7.60397 16.9673C7.61115 16.9695 7.61834 16.9716 7.6257 16.9733C7.63695 16.9758 7.64819 16.9777 7.65962 16.9789C7.66441 16.9793 7.66905 16.98 7.67388 16.98C7.68995 16.9807 7.70592 16.9803 7.72188 16.9782C7.72188 16.9782 7.72297 16.978 7.72297 16.978C7.78306 16.9704 7.8412 16.9441 7.88666 16.8968C7.96731 16.8131 7.98396 16.6926 7.93879 16.5931L6.69398 12.9906C6.69398 12.9896 6.69289 12.9885 6.69253 12.9874L6.30233 11.8583C6.30088 11.8538 6.29817 11.85 6.29635 11.8457C6.2924 11.8358 6.28808 11.8262 6.28303 11.8168C6.2793 11.81 6.27526 11.8035 6.27102 11.7971C6.26543 11.7887 6.25966 11.7807 6.2532 11.7729C6.24783 11.7665 6.24222 11.7604 6.23634 11.7546C6.2301 11.7482 6.22356 11.7423 6.21663 11.7366C6.20905 11.7303 6.20117 11.7247 6.19301 11.7193C6.18688 11.7153 6.18078 11.7115 6.17425 11.7079C6.16406 11.7023 6.15357 11.6976 6.14276 11.6933C6.13902 11.6918 6.13576 11.6895 6.13188 11.6882C6.12934 11.6875 6.12716 11.6871 6.12477 11.6864C6.11421 11.6831 6.10346 11.6808 6.0925 11.6787C6.08481 11.6773 6.07727 11.6758 6.06965 11.675C6.06061 11.6743 6.05147 11.6739 6.04225 11.6739C6.03612 11.6739 6.02981 11.6728 6.02372 11.6732L6.02333 11.6736Z" fill="white"/>
<path opacity="0.24" d="M23.8096 20.1228C23.8031 20.1461 23.7968 20.1694 23.79 20.1926C23.7968 20.1694 23.8039 20.1466 23.8103 20.1234L23.8096 20.1228Z" fill="black"/>
<path opacity="0.24" d="M20.2285 23.7794L20.2296 23.7802C20.2801 23.7652 20.3303 23.7494 20.3802 23.7329C20.3302 23.7494 20.2795 23.7645 20.2288 23.7796L20.2285 23.7794Z" fill="black"/>
</g>
<defs>
<clipPath id="clip0_1480_14843">
<rect width="24" height="24" fill="white"/>
</clipPath>
</defs>
</svg>
