<svg width="24" height="24" viewBox="0 0 24 24" fill="none" xmlns="http://www.w3.org/2000/svg">
<rect width="24" height="24" rx="6" fill="#1769FF"/>
<path fill-rule="evenodd" clip-rule="evenodd" d="M11.2891 7.86097C11.6147 8.30436 11.7779 8.83406 11.7779 9.45193C11.7779 10.0877 11.6145 10.6006 11.2849 10.9873C11.1003 11.2036 10.8295 11.4019 10.4715 11.5805C11.0151 11.7749 11.4248 12.0813 11.7038 12.5009C11.9796 12.9195 12.1186 13.4293 12.1186 14.0285C12.1186 14.6465 11.9603 15.2009 11.6428 15.6909C11.442 16.0153 11.1904 16.289 10.8883 16.5112C10.5485 16.7661 10.1479 16.9396 9.68443 17.0348C9.22098 17.129 8.71992 17.1747 8.1783 17.1747H3.375V6.75H8.52626C9.82648 6.76884 10.7464 7.13876 11.2891 7.86097ZM5.49984 8.5602V10.8604H8.09218C8.55362 10.8604 8.92988 10.7741 9.22003 10.6015C9.50803 10.4289 9.65317 10.1234 9.65317 9.68706C9.65317 9.20011 9.46248 8.87962 9.08109 8.72291C8.75051 8.61484 8.33058 8.5602 7.82036 8.5602H5.49984ZM5.49984 12.5852V15.3655H8.08814C8.55066 15.3655 8.91169 15.304 9.16828 15.1819C9.63578 14.9537 9.86906 14.5213 9.86906 13.8806C9.86906 13.337 9.64387 12.965 9.19052 12.7617C8.93703 12.6487 8.58098 12.5891 8.12453 12.5851H5.49984V12.5852ZM18.563 9.62253C19.1138 9.8626 19.5672 10.2435 19.9242 10.7632C20.2498 11.2214 20.4586 11.7531 20.5541 12.3571C20.6098 12.7102 20.6321 13.2219 20.6231 13.8875H14.8794C14.9139 14.6602 15.1857 15.2027 15.7049 15.5132C16.0193 15.7067 16.3976 15.8038 16.8419 15.8038C17.3094 15.8038 17.6919 15.6857 17.985 15.4507C18.1463 15.3227 18.2882 15.1462 18.4099 14.9201H20.5144C20.4586 15.3763 20.2031 15.8415 19.7507 16.3137C19.0448 17.0626 18.0559 17.4375 16.7851 17.4375C15.7354 17.4375 14.8094 17.1221 14.0092 16.4893C13.2049 15.8575 12.8053 14.8279 12.8053 13.4035C12.8053 12.0674 13.1674 11.0428 13.8906 10.3296C14.6158 9.61852 15.5539 9.26036 16.7091 9.26036C17.3957 9.26049 18.0133 9.3814 18.563 9.62253ZM15.4797 11.3642C15.1886 11.6578 15.0051 12.0555 14.93 12.5575H18.4828C18.4454 12.0219 18.2608 11.6171 17.9341 11.3384C17.6035 11.0617 17.1968 10.9239 16.7099 10.9239C16.1827 10.9239 15.7708 11.0707 15.4797 11.3642ZM14.3976 8.53334H18.9657V7.23601H14.3976V8.53334Z" fill="white"/>
</svg>
