<svg width="24" height="24" viewBox="0 0 24 24" fill="none" xmlns="http://www.w3.org/2000/svg">
<g filter="url(#filter0_b_1684_48657)">
<path d="M3.94871 10.8345C3.94871 9.89685 4.70885 9.13672 5.64652 9.13672C6.5842 9.13672 7.34434 9.89685 7.34434 10.8345V18.3645C7.34434 19.3022 6.5842 20.0623 5.64652 20.0623C4.70885 20.0623 3.94871 19.3022 3.94871 18.3645V10.8345ZM5.64746 3.69922C6.03692 3.69922 6.41764 3.81473 6.74144 4.03114C7.06523 4.24756 7.31757 4.55514 7.46653 4.91499C7.61548 5.27485 7.65436 5.67079 7.57824 6.05274C7.50213 6.43469 7.31444 6.78549 7.03891 7.06075C6.76339 7.33601 6.41242 7.52337 6.0304 7.59912C5.64837 7.67487 5.25246 7.63561 4.89275 7.48632C4.53304 7.33702 4.2257 7.08439 4.00959 6.76038C3.79349 6.43638 3.67834 6.05556 3.67871 5.66609C3.67921 5.14427 3.88685 4.644 4.25601 4.27519C4.62517 3.90638 5.12564 3.69922 5.64746 3.69922ZM9.47434 10.7642C9.47434 9.86537 10.203 9.13672 11.1018 9.13672H11.9793C12.3935 9.13672 12.7293 9.4725 12.7293 9.88672V10.6086C12.7293 10.6241 12.7419 10.6367 12.7574 10.6367C12.7678 10.6367 12.7773 10.6311 12.7822 10.6219C13.2408 9.76759 14.3438 8.87234 15.9862 8.87234C19.425 8.86484 20.0625 11.128 20.0625 14.0623V18.3645C20.0625 19.3022 19.3023 20.0623 18.3646 20.0623C17.427 20.0623 16.6668 19.3022 16.6668 18.3645V14.7467C16.6668 13.4811 16.6443 11.8517 14.9025 11.8517C13.1606 11.8517 12.8643 13.2317 12.8643 14.6642V18.3673C12.8643 19.3035 12.1055 20.0623 11.1693 20.0623C10.2332 20.0623 9.47434 19.3035 9.47434 18.3673V10.7642Z" fill="#0EC696"/>
</g>
<defs>
<filter id="filter0_b_1684_48657" x="-8.32129" y="-8.30078" width="40.3838" height="40.3633" filterUnits="userSpaceOnUse" color-interpolation-filters="sRGB">
<feFlood flood-opacity="0" result="BackgroundImageFix"/>
<feGaussianBlur in="BackgroundImageFix" stdDeviation="6"/>
<feComposite in2="SourceAlpha" operator="in" result="effect1_backgroundBlur_1684_48657"/>
<feBlend mode="normal" in="SourceGraphic" in2="effect1_backgroundBlur_1684_48657" result="shape"/>
</filter>
</defs>
</svg>
