<svg width="24" height="24" viewBox="0 0 24 24" fill="none" xmlns="http://www.w3.org/2000/svg">
<rect width="24" height="24" rx="6" fill="white"/>
<path d="M11.9997 20.2797C16.5726 20.2797 20.2797 16.5726 20.2797 11.9997C20.2797 7.42681 16.5726 3.71973 11.9997 3.71973C7.42681 3.71973 3.71973 7.42681 3.71973 11.9997C3.71973 16.5726 7.42681 20.2797 11.9997 20.2797Z" fill="#EA4C89"/>
<path fill-rule="evenodd" clip-rule="evenodd" d="M12 3.375C7.23849 3.375 3.375 7.23849 3.375 12C3.375 16.7615 7.23849 20.625 12 20.625C16.7522 20.625 20.625 16.7615 20.625 12C20.625 7.23849 16.7522 3.375 12 3.375ZM17.697 7.35079C18.726 8.60434 19.3435 10.2039 19.3621 11.9344C19.1189 11.8877 16.6866 11.3919 14.2358 11.7007C14.1797 11.5791 14.1328 11.448 14.0767 11.3171C13.927 10.9617 13.7586 10.5969 13.5903 10.2507C16.3032 9.14684 17.5379 7.55658 17.697 7.35079ZM12 4.64719C13.871 4.64719 15.5828 5.34891 16.8831 6.49951C16.7522 6.68649 15.6389 8.17394 13.0196 9.15618C11.8128 6.93918 10.4753 5.12433 10.2695 4.84368C10.8213 4.71275 11.4012 4.64719 12 4.64719ZM8.86619 5.33944C9.06268 5.60146 10.3723 7.42565 11.5977 9.59588C8.1553 10.5125 5.11499 10.4939 4.78761 10.4939C5.26455 8.21137 6.80809 6.31232 8.86619 5.33944ZM4.62856 12.0093V11.7849C4.94664 11.7942 8.52015 11.8409 12.1965 10.7371C12.4116 11.1487 12.6081 11.5696 12.795 11.9907C12.7016 12.0188 12.5988 12.0468 12.5051 12.0749C8.70714 13.3003 6.68649 16.6492 6.51814 16.9299C5.34891 15.6296 4.62856 13.899 4.62856 12.0093ZM12 19.3714C10.2974 19.3714 8.72594 18.7915 7.48171 17.8186C7.61264 17.5473 9.10941 14.6662 13.2629 13.2161C13.2815 13.2068 13.291 13.2068 13.3096 13.1973C14.3481 15.8821 14.769 18.1367 14.8813 18.7822C13.9925 19.1657 13.0196 19.3714 12 19.3714ZM16.1067 18.1086C16.0319 17.6595 15.6391 15.5079 14.6755 12.8606C16.9861 12.4958 19.0066 13.0945 19.2592 13.1787C18.9412 15.2273 17.7625 16.9954 16.1067 18.1086Z" fill="#C32361"/>
</svg>
