<svg width="24" height="24" viewBox="0 0 24 24" fill="none" xmlns="http://www.w3.org/2000/svg">
<g clip-path="url(#clip0_1649_39616)">
<rect width="24" height="24" rx="6" fill="#0A0B09"/>
<path d="M9.60483 23.2739C9.60483 23.593 9.225 24.017 8.625 23.9063V24.0001L16.3125 24.0014V23.8544C15.7035 23.9727 15.5538 23.5964 15.5538 23.2741C15.5538 22.8786 15.5688 21.5798 15.5688 19.9692C15.5688 18.845 15.1848 18.1101 14.7543 17.7381C17.4273 17.44 20.2331 16.4211 20.2331 11.7935C20.2331 10.478 19.7688 9.40283 18.9993 8.5602C19.1231 8.25533 19.5348 7.03095 18.8801 5.37214C18.8801 5.37214 17.8743 5.04833 15.5838 6.60701C14.6253 6.33964 13.5986 6.20633 12.5793 6.20108C11.5586 6.20651 10.5326 6.33964 9.57483 6.60701C7.28283 5.04833 6.27483 5.37214 6.27483 5.37214C5.62233 7.03095 6.03408 8.25533 6.15783 8.5602C5.38983 9.40283 4.92258 10.478 4.92258 11.7935C4.92258 16.4099 7.72383 17.443 10.3886 17.7471C10.0458 18.0483 9.73533 18.5793 9.62658 19.3578C8.94258 19.6666 7.20483 20.1981 6.13383 18.3571C6.13383 18.3571 5.50008 17.2006 4.29633 17.1155C4.29633 17.1155 3.12408 17.1003 4.21383 17.848C4.21383 17.848 5.00058 18.2185 5.54583 19.61C5.54583 19.61 6.25008 21.9531 9.58833 21.2251C9.59433 22.2303 9.60483 22.9878 9.60483 23.2739Z" fill="white"/>
</g>
<defs>
<clipPath id="clip0_1649_39616">
<rect width="24" height="24" rx="6" fill="white"/>
</clipPath>
</defs>
</svg>
