<svg width="18" height="18" viewBox="0 0 18 18" fill="none" xmlns="http://www.w3.org/2000/svg">
<path d="M9.00081 6.49984C8.33777 6.49984 7.70189 6.76323 7.23305 7.23207C6.76421 7.70091 6.50081 8.3368 6.50081 8.99984C6.50081 9.66288 6.76421 10.2988 7.23305 10.7676C7.70189 11.2364 8.33777 11.4998 9.00081 11.4998C9.66385 11.4998 10.2997 11.2364 10.7686 10.7676C11.2374 10.2988 11.5008 9.66288 11.5008 8.99984C11.5008 8.3368 11.2374 7.70091 10.7686 7.23207C10.2997 6.76323 9.66385 6.49984 9.00081 6.49984ZM9.00081 4.83317C10.1059 4.83317 11.1657 5.27216 11.9471 6.05356C12.7285 6.83496 13.1675 7.89477 13.1675 8.99984C13.1675 10.1049 12.7285 11.1647 11.9471 11.9461C11.1657 12.7275 10.1059 13.1665 9.00081 13.1665C7.89574 13.1665 6.83594 12.7275 6.05454 11.9461C5.27313 11.1647 4.83415 10.1049 4.83415 8.99984C4.83415 7.89477 5.27313 6.83496 6.05454 6.05356C6.83594 5.27216 7.89574 4.83317 9.00081 4.83317ZM14.4175 4.62484C14.4175 4.9011 14.3077 5.16606 14.1124 5.36141C13.917 5.55676 13.6521 5.6665 13.3758 5.6665C13.0995 5.6665 12.8346 5.55676 12.6392 5.36141C12.4439 5.16606 12.3341 4.9011 12.3341 4.62484C12.3341 4.34857 12.4439 4.08362 12.6392 3.88827C12.8346 3.69292 13.0995 3.58317 13.3758 3.58317C13.6521 3.58317 13.917 3.69292 14.1124 3.88827C14.3077 4.08362 14.4175 4.34857 14.4175 4.62484ZM9.00081 2.33317C6.93915 2.33317 6.60248 2.339 5.64331 2.3815C4.98998 2.41234 4.55165 2.49984 4.14498 2.65817C3.80466 2.78312 3.49699 2.98339 3.24498 3.244C2.98415 3.496 2.78361 3.80366 2.65831 4.144C2.49998 4.55234 2.41248 4.98984 2.38248 5.64234C2.33915 6.56234 2.33331 6.884 2.33331 8.99984C2.33331 11.0623 2.33915 11.3982 2.38165 12.3573C2.41248 13.0098 2.49998 13.449 2.65748 13.8548C2.79915 14.2173 2.96581 14.4782 3.24248 14.7548C3.52331 15.0348 3.78415 15.2023 4.14248 15.3407C4.55415 15.4998 4.99248 15.5882 5.64248 15.6182C6.56248 15.6615 6.88415 15.6665 8.99998 15.6665C11.0625 15.6665 11.3983 15.6607 12.3575 15.6182C13.0091 15.5873 13.4475 15.4998 13.855 15.3423C14.195 15.2168 14.5025 15.0166 14.755 14.7565C15.0358 14.4765 15.2033 14.2157 15.3416 13.8565C15.5 13.4465 15.5883 13.0082 15.6183 12.3565C15.6616 11.4373 15.6666 11.1148 15.6666 8.99984C15.6666 6.93817 15.6608 6.6015 15.6183 5.64234C15.5875 4.99067 15.4991 4.55067 15.3416 4.144C15.216 3.80402 15.0159 3.49649 14.7558 3.244C14.5039 2.98304 14.1962 2.78248 13.8558 2.65734C13.4475 2.499 13.0091 2.4115 12.3575 2.3815C11.4383 2.33817 11.1175 2.33317 9.00081 2.33317ZM9.00081 0.666504C11.265 0.666504 11.5475 0.674837 12.4366 0.716504C13.3233 0.758171 13.9283 0.897337 14.4591 1.104C15.0091 1.31567 15.4725 1.60234 15.9358 2.06484C16.3596 2.48142 16.6874 2.98533 16.8966 3.5415C17.1025 4.07234 17.2425 4.67734 17.2841 5.56484C17.3233 6.45317 17.3341 6.73567 17.3341 8.99984C17.3341 11.264 17.3258 11.5465 17.2841 12.4348C17.2425 13.3223 17.1025 13.9265 16.8966 14.4582C16.688 15.0146 16.3601 15.5187 15.9358 15.9348C15.5191 16.3584 15.0152 16.6863 14.4591 16.8957C13.9283 17.1015 13.3233 17.2415 12.4366 17.2832C11.5475 17.3223 11.265 17.3332 9.00081 17.3332C6.73665 17.3332 6.45415 17.3248 5.56498 17.2832C4.67831 17.2415 4.07415 17.1015 3.54248 16.8957C2.98609 16.6869 2.48209 16.359 2.06581 15.9348C1.64201 15.5183 1.31411 15.0144 1.10498 14.4582C0.898314 13.9273 0.759147 13.3223 0.717481 12.4348C0.677481 11.5465 0.66748 11.264 0.66748 8.99984C0.66748 6.73567 0.675814 6.45317 0.717481 5.56484C0.759147 4.6765 0.898314 4.07317 1.10498 3.5415C1.31351 2.98499 1.64148 2.48094 2.06581 2.06484C2.48221 1.64086 2.98617 1.31295 3.54248 1.104C4.07331 0.897337 4.67748 0.758171 5.56498 0.716504C6.45415 0.677337 6.73665 0.666504 9.00081 0.666504Z" fill="white"/>
</svg>
