<svg width="24" height="24" viewBox="0 0 24 24" fill="none" xmlns="http://www.w3.org/2000/svg">
<rect width="24" height="24" rx="6" fill="#0078B5"/>
<path d="M5.83397 9.75651H8.45389V18.188H5.83397V9.75651ZM7.14491 5.56543C7.98273 5.56543 8.66285 6.24554 8.66285 7.08534C8.66285 7.92513 7.98273 8.60524 7.14491 8.60524C6.30512 8.60524 5.625 7.92513 5.625 7.08534C5.62303 6.24752 6.30315 5.56543 7.14491 5.56543Z" fill="white"/>
<path d="M10.0981 9.75634H12.6116V10.9076H12.6471C12.996 10.2452 13.8496 9.54541 15.127 9.54541C17.7805 9.54541 18.2713 11.292 18.2713 13.561V18.1878H15.6514V14.0894C15.6514 13.1096 15.6337 11.8539 14.2892 11.8539C12.9251 11.8539 12.7161 12.9184 12.7161 14.0184V18.1898H10.0981V9.75634Z" fill="white"/>
</svg>
