<?xml version="1.0" encoding="UTF-8"?>
<!DOCTYPE svg PUBLIC "-//W3C//DTD SVG 1.1//EN" "http://www.w3.org/Graphics/SVG/1.1/DTD/svg11.dtd">
<svg xmlns="http://www.w3.org/2000/svg" version="1.1" width="1024px" height="1024px" style="shape-rendering:geometricPrecision; text-rendering:geometricPrecision; image-rendering:optimizeQuality; fill-rule:evenodd; clip-rule:evenodd" xmlns:xlink="http://www.w3.org/1999/xlink">
<g><path style="opacity:0.998" fill="#000000" d="M 195.5,-0.5 C 405.833,-0.5 616.167,-0.5 826.5,-0.5C 907.504,12.0565 966.337,54.7232 1003,127.5C 1013.43,151.616 1020.27,176.616 1023.5,202.5C 1023.5,408.167 1023.5,613.833 1023.5,819.5C 1016.52,877.288 992.189,926.121 950.5,966C 912.817,998.975 868.817,1018.14 818.5,1023.5C 613.5,1023.5 408.5,1023.5 203.5,1023.5C 114.497,1011.92 51.6641,965.584 15,884.5C 7.61962,865.637 2.45295,846.304 -0.5,826.5C -0.5,616.167 -0.5,405.833 -0.5,195.5C 10.8994,120.48 49.2327,63.9805 114.5,26C 140.111,12.6859 167.111,3.85256 195.5,-0.5 Z"/></g>
<g><path style="opacity:1" fill="#6ac8ce" d="M 597.5,270.5 C 597.5,272.5 597.5,274.5 597.5,276.5C 576.757,276.167 556.757,276.501 537.5,277.5C 537.667,392.167 537.5,506.834 537,621.5C 527.361,665.796 499.861,686.63 454.5,684C 442.418,681.79 431.418,677.123 421.5,670C 416.898,665.906 412.898,661.406 409.5,656.5C 418.63,661.574 428.463,663.907 439,663.5C 479.769,661.607 504.102,640.607 512,600.5C 512.5,485.834 512.667,371.167 512.5,256.5C 540.5,256.5 568.5,256.5 596.5,256.5C 596.283,261.23 596.617,265.897 597.5,270.5 Z"/></g>
<g><path style="opacity:1" fill="#6fa5a9" d="M 597.5,270.5 C 598.461,272.265 598.795,274.265 598.5,276.5C 598.5,276.833 598.5,277.167 598.5,277.5C 578.167,277.5 557.833,277.5 537.5,277.5C 556.757,276.501 576.757,276.167 597.5,276.5C 597.5,274.5 597.5,272.5 597.5,270.5 Z"/></g>
<g><path style="opacity:1" fill="#fefefe" d="M 537.5,277.5 C 557.833,277.5 578.167,277.5 598.5,277.5C 605.169,311.136 622.835,337.136 651.5,355.5C 651.833,356.5 652.5,357.167 653.5,357.5C 669.725,376.119 690.058,387.785 714.5,392.5C 714.5,392.833 714.5,393.167 714.5,393.5C 714.5,415.167 714.5,436.833 714.5,458.5C 709.167,458.5 703.833,458.5 698.5,458.5C 692.074,456.754 685.407,455.754 678.5,455.5C 678.167,455.5 677.833,455.5 677.5,455.5C 666.65,452.334 655.65,449.334 644.5,446.5C 627.996,440.583 612.663,432.583 598.5,422.5C 598.44,421.957 598.107,421.624 597.5,421.5C 596.5,481.163 596.167,540.83 596.5,600.5C 591.408,662.547 561.074,707.38 505.5,735C 488.017,742.037 470.017,746.537 451.5,748.5C 439.438,748.74 427.438,748.073 415.5,746.5C 394.247,742.617 374.581,734.95 356.5,723.5C 355.5,723.167 354.833,722.5 354.5,721.5C 321.632,685.692 307.465,643.358 312,594.5C 325.557,521.612 368.39,476.778 440.5,460C 447.823,459.279 455.156,458.779 462.5,458.5C 462.5,480.5 462.5,502.5 462.5,524.5C 422.842,515.913 393.676,529.58 375,565.5C 364.146,599.59 372.313,628.09 399.5,651C 402.528,652.844 405.528,654.678 408.5,656.5C 408.833,656.5 409.167,656.5 409.5,656.5C 412.898,661.406 416.898,665.906 421.5,670C 431.418,677.123 442.418,681.79 454.5,684C 499.861,686.63 527.361,665.796 537,621.5C 537.5,506.834 537.667,392.167 537.5,277.5 Z"/></g>
<g><path style="opacity:1" fill="#e52051" d="M 598.5,276.5 C 606.167,276.5 613.833,276.5 621.5,276.5C 621.792,306.713 631.792,333.046 651.5,355.5C 622.835,337.136 605.169,311.136 598.5,277.5C 598.5,277.167 598.5,276.833 598.5,276.5 Z"/></g>
<g><path style="opacity:1" fill="#69c4cb" d="M 653.5,357.5 C 672.142,368.913 692.475,374.579 714.5,374.5C 714.5,380.5 714.5,386.5 714.5,392.5C 690.058,387.785 669.725,376.119 653.5,357.5 Z"/></g>
<g><path style="opacity:1" fill="#ec1e52" d="M 714.5,393.5 C 722.455,394.661 730.455,395.328 738.5,395.5C 738.5,423.167 738.5,450.833 738.5,478.5C 734.5,478.5 730.5,478.5 726.5,478.5C 688.889,476.186 654.556,464.519 623.5,443.5C 623.217,442.711 622.717,442.044 622,441.5C 621.5,499.166 621.333,556.832 621.5,614.5C 620.861,627.638 619.195,640.638 616.5,653.5C 614.928,656.215 613.928,659.215 613.5,662.5C 591.94,720.726 550.606,755.392 489.5,766.5C 478.202,767.709 466.868,768.376 455.5,768.5C 446.345,768.202 437.345,766.869 428.5,764.5C 426.485,763.076 424.152,762.41 421.5,762.5C 396.185,755.352 374.518,742.352 356.5,723.5C 374.581,734.95 394.247,742.617 415.5,746.5C 427.39,749.452 439.39,750.118 451.5,748.5C 470.017,746.537 488.017,742.037 505.5,735C 561.074,707.38 591.408,662.547 596.5,600.5C 597.167,541.167 597.833,481.833 598.5,422.5C 612.663,432.583 627.996,440.583 644.5,446.5C 655.032,450.895 666.032,453.895 677.5,455.5C 677.833,455.5 678.167,455.5 678.5,455.5C 684.899,457.415 691.565,458.415 698.5,458.5C 703.833,458.5 709.167,458.5 714.5,458.5C 714.5,436.833 714.5,415.167 714.5,393.5 Z"/></g>
<g><path style="opacity:1" fill="#6f0d26" d="M 738.5,395.5 C 739.498,423.328 739.831,451.328 739.5,479.5C 734.968,479.818 730.634,479.485 726.5,478.5C 730.5,478.5 734.5,478.5 738.5,478.5C 738.5,450.833 738.5,423.167 738.5,395.5 Z"/></g>
<g><path style="opacity:1" fill="#69c7ce" d="M 462.5,458.5 C 455.156,458.779 447.823,459.279 440.5,460C 368.39,476.778 325.557,521.612 312,594.5C 307.465,643.358 321.632,685.692 354.5,721.5C 331.55,706.715 314.05,687.048 302,662.5C 274.942,601.108 281.942,544.108 323,491.5C 360.51,450.492 407.01,432.825 462.5,438.5C 462.5,445.167 462.5,451.833 462.5,458.5 Z"/></g>
<g><path style="opacity:1" fill="#a8878d" d="M 644.5,446.5 C 655.65,449.334 666.65,452.334 677.5,455.5C 666.032,453.895 655.032,450.895 644.5,446.5 Z"/></g>
<g><path style="opacity:1" fill="#977f83" d="M 678.5,455.5 C 685.407,455.754 692.074,456.754 698.5,458.5C 691.565,458.415 684.899,457.415 678.5,455.5 Z"/></g>
<g><path style="opacity:1" fill="#ea1f51" d="M 487.5,459.5 C 488.158,488.186 487.492,516.52 485.5,544.5C 445.531,536.568 416.697,550.901 399,587.5C 393.987,601.571 393.154,615.905 396.5,630.5C 396.345,633.716 397.345,636.383 399.5,638.5C 401.988,644.81 404.988,650.81 408.5,656.5C 405.528,654.678 402.528,652.844 399.5,651C 372.313,628.09 364.146,599.59 375,565.5C 393.676,529.58 422.842,515.913 462.5,524.5C 462.5,502.5 462.5,480.5 462.5,458.5C 470.809,457.574 479.142,457.907 487.5,459.5 Z"/></g>
<g><path style="opacity:1" fill="#420716" d="M 487.5,459.5 C 488.498,487.995 488.831,516.662 488.5,545.5C 487.209,545.737 486.209,545.404 485.5,544.5C 487.492,516.52 488.158,488.186 487.5,459.5 Z"/></g>
<g><path style="opacity:1" fill="#e1abb8" d="M 598.5,422.5 C 597.833,481.833 597.167,541.167 596.5,600.5C 596.167,540.83 596.5,481.163 597.5,421.5C 598.107,421.624 598.44,421.957 598.5,422.5 Z"/></g>
<g><path style="opacity:1" fill="#27050d" d="M 623.5,443.5 C 622.833,500.5 622.167,557.5 621.5,614.5C 621.333,556.832 621.5,499.166 622,441.5C 622.717,442.044 623.217,442.711 623.5,443.5 Z"/></g>
<g><path style="opacity:1" fill="#83102d" d="M 396.5,630.5 C 397.871,632.936 398.871,635.603 399.5,638.5C 397.345,636.383 396.345,633.716 396.5,630.5 Z"/></g>
<g><path style="opacity:1" fill="#4a0e1b" d="M 616.5,653.5 C 616.472,656.916 615.472,659.916 613.5,662.5C 613.928,659.215 614.928,656.215 616.5,653.5 Z"/></g>
<g><path style="opacity:1" fill="#f2879f" d="M 415.5,746.5 C 427.438,748.073 439.438,748.74 451.5,748.5C 439.39,750.118 427.39,749.452 415.5,746.5 Z"/></g>
<g><path style="opacity:1" fill="#720e27" d="M 421.5,762.5 C 424.152,762.41 426.485,763.076 428.5,764.5C 425.848,764.59 423.515,763.924 421.5,762.5 Z"/></g>
<g><path style="opacity:1" fill="#86102e" d="M 489.5,766.5 C 478.268,769.302 466.935,769.968 455.5,768.5C 466.868,768.376 478.202,767.709 489.5,766.5 Z"/></g>
</svg>
