<svg width="24" height="24" viewBox="0 0 24 24" fill="none" xmlns="http://www.w3.org/2000/svg">
<rect width="24" height="24" rx="6" fill="#FF0000"/>
<path d="M19.637 8.13819C19.4546 7.44699 18.9146 6.90459 18.2282 6.71979C16.985 6.38379 12.0026 6.38379 12.0026 6.38379C12.0026 6.38379 7.01783 6.38379 5.77703 6.71979C5.09063 6.90459 4.55063 7.44699 4.36823 8.13819C4.03223 9.38859 4.03223 11.9998 4.03223 11.9998C4.03223 11.9998 4.03223 14.611 4.36583 15.8614C4.54823 16.5526 5.08823 17.095 5.77463 17.2798C7.01783 17.6158 12.0002 17.6158 12.0002 17.6158C12.0002 17.6158 16.985 17.6158 18.2258 17.2798C18.9122 17.095 19.4522 16.5526 19.6346 15.8614C19.9682 14.611 19.9682 11.9998 19.9682 11.9998C19.9682 11.9998 19.9682 9.38859 19.637 8.13819ZM10.3706 14.3686V9.63099L14.5346 11.9998L10.3706 14.3686Z" fill="white"/>
</svg>
