<svg width="96" height="95" viewBox="0 0 96 95" fill="none" xmlns="http://www.w3.org/2000/svg">
<g clip-path="url(#clip0_4260_44791)">
<rect x="1.5" y="1" width="93" height="93" rx="31" stroke="#0EC696" stroke-width="2" stroke-linecap="round" stroke-linejoin="round" stroke-dasharray="16 16"/>
<path d="M65.5781 47.5C65.5781 48.0594 65.3559 48.596 64.9603 48.9916C64.5647 49.3871 64.0282 49.6094 63.4688 49.6094H50.1094V62.9688C50.1094 63.5282 49.8871 64.0647 49.4916 64.4603C49.096 64.8559 48.5594 65.0781 48 65.0781C47.4406 65.0781 46.904 64.8559 46.5084 64.4603C46.1129 64.0647 45.8906 63.5282 45.8906 62.9688V49.6094H32.5312C31.9718 49.6094 31.4353 49.3871 31.0397 48.9916C30.6441 48.596 30.4219 48.0594 30.4219 47.5C30.4219 46.9406 30.6441 46.404 31.0397 46.0084C31.4353 45.6129 31.9718 45.3906 32.5312 45.3906H45.8906V32.0312C45.8906 31.4718 46.1129 30.9353 46.5084 30.5397C46.904 30.1441 47.4406 29.9219 48 29.9219C48.5594 29.9219 49.096 30.1441 49.4916 30.5397C49.8871 30.9353 50.1094 31.4718 50.1094 32.0312V45.3906H63.4688C64.0282 45.3906 64.5647 45.6129 64.9603 46.0084C65.3559 46.404 65.5781 46.9406 65.5781 47.5Z" fill="#0EC696"/>
</g>
<defs>
<clipPath id="clip0_4260_44791">
<rect width="95" height="95" fill="white" transform="translate(0.5)"/>
</clipPath>
</defs>
</svg>
