<svg width="20" height="21" viewBox="0 0 20 21" fill="none" xmlns="http://www.w3.org/2000/svg">
<path d="M13.859 11.4425C13.8119 11.4908 13.6342 11.6975 13.4685 11.8675C12.4976 12.9367 9.96473 14.6867 8.63902 15.2208C8.43769 15.3067 7.92868 15.4883 7.65672 15.5C7.39613 15.5 7.14771 15.44 6.91066 15.3183C6.61516 15.1483 6.37811 14.8808 6.24821 14.565C6.1646 14.3458 6.03471 13.69 6.03471 13.6783C5.90481 12.9608 5.83337 11.795 5.83337 10.5067C5.83337 9.27917 5.90481 8.16083 6.01116 7.4325C6.02334 7.42083 6.15323 6.60583 6.2953 6.32667C6.55589 5.81667 7.06491 5.5 7.60964 5.5H7.65672C8.01149 5.5125 8.75755 5.82917 8.75755 5.84083C10.0118 6.37583 12.4862 8.04 13.4807 9.14583C13.4807 9.14583 13.7608 9.43 13.8826 9.6075C14.0725 9.8625 14.1667 10.1783 14.1667 10.4942C14.1667 10.8467 14.0604 11.175 13.859 11.4425Z" fill="#0EC696"/>
</svg>
