<svg width="20" height="21" viewBox="0 0 20 21" fill="none" xmlns="http://www.w3.org/2000/svg">
<path d="M6.14105 9.5575C6.18814 9.50917 6.36593 9.3025 6.53154 9.1325C7.50248 8.06333 10.0354 6.31333 11.3611 5.77917C11.5624 5.69333 12.0714 5.51167 12.3434 5.5C12.604 5.5 12.8524 5.56 13.0894 5.68167C13.3849 5.85167 13.622 6.11917 13.7519 6.435C13.8355 6.65417 13.9654 7.31 13.9654 7.32167C14.0953 8.03917 14.1667 9.205 14.1667 10.4933C14.1667 11.7208 14.0953 12.8392 13.9889 13.5675C13.9767 13.5792 13.8469 14.3942 13.7048 14.6733C13.4442 15.1833 12.9352 15.5 12.3904 15.5H12.3434C11.9886 15.4875 11.2425 15.1708 11.2425 15.1592C9.98827 14.6242 7.51384 12.96 6.51936 11.8542C6.51936 11.8542 6.23928 11.57 6.11751 11.3925C5.92755 11.1375 5.83337 10.8217 5.83337 10.5058C5.83337 10.1533 5.93972 9.825 6.14105 9.5575Z" fill="#9E9E9E"/>
</svg>
