<svg width="15" height="18" viewBox="0 0 15 18" fill="none" xmlns="http://www.w3.org/2000/svg">
<path d="M13.0667 9.35034L7.91672 14.5087C7.24156 15.1087 6.36267 15.4281 5.45982 15.4015C4.55697 15.3749 3.69839 15.0044 3.0597 14.3657C2.42101 13.727 2.05048 12.8684 2.0239 11.9656C1.99732 11.0627 2.3167 10.1838 2.91672 9.50867L9.58338 2.84201C9.98141 2.46392 10.5094 2.25311 11.0584 2.25311C11.6074 2.25311 12.1354 2.46392 12.5334 2.84201C12.9212 3.235 13.1386 3.7649 13.1386 4.31701C13.1386 4.86912 12.9212 5.39901 12.5334 5.79201L6.78338 11.5337C6.72648 11.595 6.65806 11.6444 6.58203 11.6793C6.50601 11.7141 6.42386 11.7336 6.34029 11.7367C6.25672 11.7398 6.17335 11.7264 6.09496 11.6973C6.01656 11.6682 5.94467 11.6239 5.88339 11.567C5.8221 11.5101 5.77263 11.4417 5.73779 11.3657C5.70294 11.2896 5.68342 11.2075 5.68032 11.1239C5.67723 11.0403 5.69062 10.957 5.71974 10.8786C5.74887 10.8002 5.79315 10.7283 5.85005 10.667L10.1251 6.40034C10.282 6.24342 10.3701 6.03059 10.3701 5.80867C10.3701 5.58675 10.282 5.37393 10.1251 5.21701C9.96813 5.06009 9.7553 4.97193 9.53339 4.97193C9.31147 4.97193 9.09864 5.06009 8.94172 5.21701L4.66672 9.50034C4.45281 9.71259 4.28302 9.96509 4.16716 10.2433C4.0513 10.5215 3.99165 10.8198 3.99165 11.1212C3.99165 11.4225 4.0513 11.7209 4.16716 11.9991C4.28302 12.2773 4.45281 12.5298 4.66672 12.742C5.1037 13.1582 5.68406 13.3904 6.28755 13.3904C6.89104 13.3904 7.47141 13.1582 7.90839 12.742L13.6501 6.99201C14.3125 6.28113 14.6731 5.3409 14.6559 4.36939C14.6388 3.39789 14.2452 2.47096 13.5582 1.7839C12.8711 1.09683 11.9442 0.703272 10.9727 0.686131C10.0012 0.66899 9.06093 1.02961 8.35005 1.69201L1.68339 8.35867C0.784385 9.35437 0.304242 10.6585 0.342996 11.9995C0.381751 13.3404 0.936413 14.6147 1.89142 15.5568C2.84642 16.4989 4.12812 17.0362 5.46946 17.0567C6.8108 17.0773 8.10833 16.5795 9.09172 15.667L14.2501 10.517C14.3278 10.4393 14.3894 10.3471 14.4314 10.2455C14.4735 10.144 14.4951 10.0352 14.4951 9.92534C14.4951 9.81546 14.4735 9.70665 14.4314 9.60513C14.3894 9.50361 14.3278 9.41137 14.2501 9.33367C14.1724 9.25597 14.0801 9.19434 13.9786 9.15229C13.8771 9.11024 13.7683 9.0886 13.6584 9.0886C13.5485 9.0886 13.4397 9.11024 13.3382 9.15229C13.2367 9.19434 13.1444 9.25597 13.0667 9.33367V9.35034Z" fill="#9E9E9E"/>
</svg>
