<svg width="21" height="20" viewBox="0 0 21 20" fill="none" xmlns="http://www.w3.org/2000/svg">
    <path d="m8.834 14.625-1.475 1.433a2.062 2.062 0 1 1-2.917-2.916L8.225 9.35a2.05 2.05 0 0 1 2.825-.075l.1.083a.834.834 0 1 0 1.167-1.191 2.308 2.308 0 0 0-.15-.175 3.717 3.717 0 0 0-5.075.183l-3.833 3.792a3.733 3.733 0 0 0 5.275 5.275l1.441-1.409a.833.833 0 0 0-1.141-1.208zm8.908-11.867a3.742 3.742 0 0 0-5.275 0l-1.442 1.409a.833.833 0 0 0 1.142 1.208l1.441-1.433a2.063 2.063 0 0 1 2.917 2.916l-3.783 3.792a2.05 2.05 0 0 1-2.825.075l-.1-.083a.834.834 0 0 0-1.167 1.191c.06.062.125.12.192.175a3.725 3.725 0 0 0 5.075-.183l3.792-3.792a3.742 3.742 0 0 0 .033-5.275z" fill="#fff"/>
</svg>
