<svg width="20" height="20" viewBox="0 0 20 20" fill="none" xmlns="http://www.w3.org/2000/svg">
<path d="M2.03008 4.28918C1.66675 4.70252 1.66675 5.41252 1.66675 6.83085V14.6592C1.66675 15.6642 1.66675 16.1667 1.92925 16.545C2.19091 16.9234 2.64925 17.0825 3.56591 17.4L4.64425 17.7742C5.22841 17.9767 5.67758 18.1325 6.05508 18.2325C6.30175 18.2983 6.52758 18.105 6.52758 17.85V5.22502C6.5247 5.12381 6.48839 5.02641 6.42432 4.94802C6.36024 4.86963 6.27202 4.81465 6.17341 4.79168C5.84925 4.70918 5.45925 4.57418 4.92508 4.38918C3.63091 3.94002 2.98341 3.71585 2.49175 3.94335C2.3154 4.02512 2.15813 4.14293 2.03008 4.28918ZM10.5167 2.90085L9.23675 3.78835C8.77425 4.10918 8.43425 4.34502 8.14508 4.51252C8.07694 4.55058 8.01999 4.60587 7.97992 4.67285C7.93985 4.73982 7.91807 4.81615 7.91675 4.89418V17.4334C7.91675 17.7417 8.23675 17.935 8.49675 17.7684C8.77591 17.59 9.09591 17.3684 9.48341 17.1L10.7634 16.2125C11.2259 15.8917 11.5659 15.6559 11.8551 15.4884C11.9232 15.4503 11.9802 15.395 12.0202 15.328C12.0603 15.261 12.0821 15.1847 12.0834 15.1067V2.56668C12.0834 2.25752 11.7634 2.06502 11.5034 2.23085C11.2242 2.41002 10.9042 2.63168 10.5167 2.90085ZM16.4334 2.60002L15.3559 2.22668C14.7717 2.02418 14.3226 1.86835 13.9451 1.76835C13.6984 1.70252 13.4726 1.89585 13.4726 2.15085V14.7759C13.4755 14.8771 13.5118 14.9745 13.5758 15.0528C13.6399 15.1312 13.7281 15.1862 13.8267 15.2092C14.1509 15.2917 14.5409 15.4258 15.0751 15.6117C16.3692 16.0609 17.0167 16.285 17.5084 16.0575C17.6848 15.9757 17.842 15.8579 17.9701 15.7117C18.3334 15.2984 18.3334 14.5884 18.3334 13.17V5.34168C18.3334 4.33668 18.3334 3.83335 18.0709 3.45585C17.8092 3.07752 17.3509 2.91835 16.4342 2.60085L16.4334 2.60002Z" fill="black"/>
</svg>
