<svg width="22" height="26" viewBox="0 0 22 26" fill="none" xmlns="http://www.w3.org/2000/svg">
<path fill-rule="evenodd" clip-rule="evenodd" d="M18.8246 9.26108C18.8246 10.7263 19.2119 11.59 20.0641 12.5852C20.7099 13.3184 20.9163 14.2596 20.9163 15.2807C20.9163 16.3006 20.5812 17.2689 19.9099 18.055C19.031 18.9973 17.7915 19.5989 16.5265 19.7035C14.6933 19.8598 12.8589 19.9914 11.0003 19.9914C9.14041 19.9914 7.30723 19.9127 5.47405 19.7035C4.20787 19.5989 2.96836 18.9973 2.09062 18.055C1.41926 17.2689 1.08301 16.3006 1.08301 15.2807C1.08301 14.2596 1.29056 13.3184 1.93524 12.5852C2.81415 11.59 3.17591 10.7263 3.17591 9.26108V8.76405C3.17591 6.80176 3.66523 5.51864 4.67284 4.26254C6.17092 2.43068 8.57225 1.33203 10.9481 1.33203H11.0524C13.4793 1.33203 15.9583 2.48355 17.4309 4.39414C18.3863 5.62439 18.8246 6.85346 18.8246 8.76405V9.26108ZM7.58563 22.403C7.58563 21.8155 8.1248 21.5464 8.62338 21.4313C9.20662 21.3079 12.7605 21.3079 13.3437 21.4313C13.8423 21.5464 14.3815 21.8155 14.3815 22.403C14.3525 22.9623 14.0244 23.4582 13.571 23.7731C12.9831 24.2313 12.2932 24.5216 11.572 24.6261C11.1731 24.6778 10.7812 24.679 10.3963 24.6261C9.6739 24.5216 8.98399 24.2313 8.39728 23.7719C7.94275 23.4582 7.61461 22.9623 7.58563 22.403Z" fill="#20C6A5" fill-opacity="0.08"/>
<path d="M20.0641 12.5852L19.6843 12.9105L19.6889 12.9157L20.0641 12.5852ZM19.9099 18.055L20.2755 18.396L20.283 18.388L20.2901 18.3797L19.9099 18.055ZM16.5265 19.7035L16.4853 19.2052L16.484 19.2053L16.5265 19.7035ZM5.47405 19.7035L5.53073 19.2067L5.52298 19.2058L5.51521 19.2052L5.47405 19.7035ZM2.09062 18.055L1.71041 18.3797L1.7174 18.3879L1.72474 18.3957L2.09062 18.055ZM1.93524 12.5852L1.56046 12.2543L1.55975 12.2551L1.93524 12.5852ZM4.67284 4.26254L4.28577 3.94599L4.28281 3.94967L4.67284 4.26254ZM17.4309 4.39414L17.0348 4.69937L17.036 4.70082L17.4309 4.39414ZM8.62338 21.4313L8.51989 20.942L8.51087 20.9441L8.62338 21.4313ZM7.58563 22.403H7.08563V22.416L7.0863 22.4289L7.58563 22.403ZM13.3437 21.4313L13.4563 20.944L13.4472 20.9421L13.3437 21.4313ZM14.3815 22.403L14.8808 22.4289L14.8815 22.416V22.403H14.3815ZM13.571 23.7731L13.2858 23.3624L13.2744 23.3703L13.2636 23.3787L13.571 23.7731ZM11.572 24.6261L11.6363 25.1221L11.6438 25.121L11.572 24.6261ZM10.3963 24.6261L10.3246 25.121L10.3282 25.1215L10.3963 24.6261ZM8.39728 23.7719L8.70555 23.3782L8.6937 23.369L8.68131 23.3604L8.39728 23.7719ZM20.4439 12.26C20.0399 11.7883 19.767 11.3719 19.5908 10.9184C19.4151 10.4661 19.3246 9.94811 19.3246 9.26108H18.3246C18.3246 10.0393 18.4277 10.6858 18.6587 11.2805C18.8892 11.8739 19.236 12.3869 19.6843 12.9104L20.4439 12.26ZM21.4163 15.2807C21.4163 14.199 21.1984 13.1165 20.4393 12.2547L19.6889 12.9157C20.2215 13.5203 20.4163 14.3202 20.4163 15.2807H21.4163ZM20.2901 18.3797C21.043 17.4981 21.4163 16.4131 21.4163 15.2807H20.4163C20.4163 16.1882 20.1195 17.0396 19.5297 17.7302L20.2901 18.3797ZM16.5676 20.2018C17.9578 20.0869 19.3126 19.4284 20.2755 18.396L19.5442 17.7139C18.7494 18.5662 17.6252 19.111 16.4853 19.2052L16.5676 20.2018ZM11.0003 20.4914C12.8811 20.4914 14.7328 20.3582 16.5689 20.2017L16.484 19.2053C14.6537 19.3613 12.8368 19.4914 11.0003 19.4914V20.4914ZM5.41737 20.2003C7.27374 20.4121 9.12645 20.4914 11.0003 20.4914V19.4914C9.15436 19.4914 7.34072 19.4132 5.53073 19.2067L5.41737 20.2003ZM1.72474 18.3957C2.68669 19.4285 4.04169 20.0869 5.4329 20.2018L5.51521 19.2052C4.37406 19.111 3.25004 18.5661 2.45649 17.7142L1.72474 18.3957ZM0.583008 15.2807C0.583008 16.4135 0.957787 17.4984 1.71041 18.3797L2.47083 17.7302C1.88074 17.0393 1.58301 16.1878 1.58301 15.2807H0.583008ZM1.55975 12.2551C0.802304 13.1165 0.583008 14.1986 0.583008 15.2807H1.58301C1.58301 14.3207 1.77881 13.5203 2.31074 12.9154L1.55975 12.2551ZM2.67591 9.26108C2.67591 9.95191 2.5907 10.4699 2.41819 10.9207C2.24575 11.3714 1.97444 11.7855 1.56046 12.2543L2.31002 12.9162C2.77495 12.3897 3.12398 11.8744 3.35215 11.2781C3.58025 10.682 3.67591 10.0355 3.67591 9.26108H2.67591ZM2.67591 8.76405V9.26108H3.67591V8.76405H2.67591ZM4.28281 3.94967C3.20083 5.29848 2.67591 6.6932 2.67591 8.76405H3.67591C3.67591 6.91032 4.12962 5.73879 5.06286 4.5754L4.28281 3.94967ZM10.9481 0.832031C8.42813 0.832031 5.88249 1.99355 4.28578 3.94601L5.05989 4.57907C6.45934 2.86781 8.71637 1.83203 10.9481 1.83203V0.832031ZM11.0524 0.832031H10.9481V1.83203H11.0524V0.832031ZM17.8269 4.08891C16.2538 2.04793 13.6245 0.832031 11.0524 0.832031V1.83203C13.334 1.83203 15.6628 2.91918 17.0348 4.69937L17.8269 4.08891ZM19.3246 8.76405C19.3246 6.75242 18.8552 5.41302 17.8258 4.08746L17.036 4.70082C17.9174 5.83576 18.3246 6.95451 18.3246 8.76405H19.3246ZM19.3246 9.26108V8.76405H18.3246V9.26108H19.3246ZM8.51087 20.9441C8.22667 21.0097 7.88701 21.1278 7.60835 21.3471C7.31306 21.5794 7.08563 21.9296 7.08563 22.403H8.08563C8.08563 22.2889 8.12778 22.2108 8.22673 22.1329C8.34229 22.042 8.52151 21.968 8.7359 21.9184L8.51087 20.9441ZM13.4472 20.9421C13.2508 20.9005 12.8728 20.8772 12.4603 20.8622C12.0284 20.8465 11.5049 20.8387 10.9836 20.8387C10.4622 20.8387 9.93875 20.8465 9.50681 20.8622C9.09431 20.8772 8.71632 20.9005 8.5199 20.9421L8.72686 21.9204C8.82206 21.9003 9.10703 21.8774 9.54313 21.8615C9.95981 21.8464 10.4706 21.8387 10.9836 21.8387C11.4965 21.8387 12.0073 21.8464 12.424 21.8615C12.8601 21.8774 13.1451 21.9003 13.2402 21.9204L13.4472 20.9421ZM14.8815 22.403C14.8815 21.9296 14.6541 21.5794 14.3588 21.3471C14.0801 21.1278 13.7404 21.0097 13.4562 20.9441L13.2312 21.9184C13.4456 21.968 13.6248 22.042 13.7404 22.1329C13.8393 22.2108 13.8815 22.2889 13.8815 22.403H14.8815ZM13.8562 24.1837C14.4112 23.7983 14.8423 23.1712 14.8808 22.4289L13.8822 22.3771C13.8627 22.7534 13.6376 23.1181 13.2858 23.3624L13.8562 24.1837ZM11.6438 25.121C12.4502 25.004 13.2215 24.6795 13.8784 24.1674L13.2636 23.3787C12.7448 23.7832 12.1362 24.0391 11.5003 24.1313L11.6438 25.121ZM10.3282 25.1215C10.76 25.1808 11.1966 25.179 11.6363 25.122L11.5077 24.1303C11.1497 24.1767 10.8024 24.1772 10.4643 24.1308L10.3282 25.1215ZM8.08901 24.1656C8.74531 24.6795 9.51703 25.0041 10.3246 25.121L10.4679 24.1313C9.83076 24.0391 9.22267 23.7832 8.70555 23.3782L8.08901 24.1656ZM7.0863 22.4289C7.12477 23.1713 7.55607 23.7988 8.11325 24.1834L8.68131 23.3604C8.32944 23.1175 8.10446 22.7534 8.08496 22.3771L7.0863 22.4289Z" fill="#0EC696"/>
</svg>
