<svg width="24" height="24" viewBox="0 0 24 24" fill="none" xmlns="http://www.w3.org/2000/svg">
<path fill-rule="evenodd" clip-rule="evenodd" d="M2 10.6699C2 5.88166 5.84034 2 10.5776 2C12.8526 2 15.0343 2.91344 16.6429 4.53936C18.2516 6.16529 19.1553 8.37052 19.1553 10.6699C19.1553 15.4582 15.3149 19.3399 10.5776 19.3399C5.84034 19.3399 2 15.4582 2 10.6699ZM19.0134 17.6543L21.568 19.7164H21.6124C22.1292 20.2388 22.1292 21.0858 21.6124 21.6082C21.0955 22.1306 20.2576 22.1306 19.7407 21.6082L17.6207 19.1785C17.4203 18.9766 17.3076 18.7024 17.3076 18.4164C17.3076 18.1304 17.4203 17.8562 17.6207 17.6543C18.0072 17.2704 18.6268 17.2704 19.0134 17.6543Z" fill="#20C6A5" fill-opacity="0.08"/>
<path d="M16.6429 4.53936L16.9984 4.18771V4.18771L16.6429 4.53936ZM21.568 19.7164L21.254 20.1055L21.3914 20.2164H21.568V19.7164ZM19.0134 17.6543L18.661 18.009L18.6793 18.0272L18.6993 18.0433L19.0134 17.6543ZM21.6124 19.7164L21.9678 19.3648L21.821 19.2164H21.6124V19.7164ZM19.7407 21.6082L19.364 21.9369L19.3743 21.9487L19.3853 21.9599L19.7407 21.6082ZM17.6207 19.1785L17.9975 18.8497L17.9869 18.8376L17.9755 18.8262L17.6207 19.1785ZM17.6207 17.6543L17.2683 17.2995L17.2659 17.302L17.6207 17.6543ZM10.5776 1.5C5.55917 1.5 1.5 5.61057 1.5 10.6699H2.5C2.5 6.15274 6.12151 2.5 10.5776 2.5V1.5ZM16.9984 4.18771C15.2964 2.46743 12.9869 1.5 10.5776 1.5V2.5C12.7182 2.5 14.7722 3.35944 16.2875 4.89102L16.9984 4.18771ZM19.6553 10.6699C19.6553 8.23963 18.7002 5.9078 16.9984 4.18771L16.2875 4.89102C17.803 6.42278 18.6553 8.50141 18.6553 10.6699H19.6553ZM10.5776 19.8399C15.5961 19.8399 19.6553 15.7293 19.6553 10.6699H18.6553C18.6553 15.1871 15.0338 18.8399 10.5776 18.8399V19.8399ZM1.5 10.6699C1.5 15.7293 5.55917 19.8399 10.5776 19.8399V18.8399C6.12151 18.8399 2.5 15.1871 2.5 10.6699H1.5ZM21.8821 19.3274L19.3274 17.2652L18.6993 18.0433L21.254 20.1055L21.8821 19.3274ZM21.6124 19.2164H21.568V20.2164H21.6124V19.2164ZM21.9678 21.9599C22.6774 21.2426 22.6774 20.082 21.9678 19.3648L21.2569 20.0681C21.581 20.3957 21.581 20.929 21.2569 21.2565L21.9678 21.9599ZM19.3853 21.9599C20.0978 22.68 21.2553 22.68 21.9678 21.9599L21.2569 21.2565C20.9358 21.5812 20.4173 21.5812 20.0962 21.2565L19.3853 21.9599ZM17.244 19.5072L19.364 21.9369L20.1175 21.2795L17.9975 18.8497L17.244 19.5072ZM16.8076 18.4164C16.8076 18.8336 16.9719 19.2346 17.2659 19.5307L17.9755 18.8262C17.8687 18.7185 17.8076 18.5712 17.8076 18.4164H16.8076ZM17.2659 17.302C16.9719 17.5981 16.8076 17.9992 16.8076 18.4164H17.8076C17.8076 18.2616 17.8687 18.1142 17.9755 18.0066L17.2659 17.302ZM19.3657 17.2995C18.7842 16.722 17.8499 16.722 17.2684 17.2995L17.9731 18.009C18.1646 17.8188 18.4695 17.8188 18.661 18.009L19.3657 17.2995Z" fill="#0EC696"/>
</svg>
