<svg width="26" height="22" viewBox="0 0 26 22" fill="none" xmlns="http://www.w3.org/2000/svg">
<path fill-rule="evenodd" clip-rule="evenodd" d="M18.7628 0.5C20.3273 0.5 21.8323 1.11833 22.9395 2.22783C24.0478 3.335 24.6673 4.82833 24.6673 6.39167V15.6083C24.6673 18.8633 22.019 21.5 18.7628 21.5H7.23732C3.98115 21.5 1.33398 18.8633 1.33398 15.6083V6.39167C1.33398 3.13667 3.96948 0.5 7.23732 0.5H18.7628ZM20.619 8.13L20.7123 8.03667C20.9912 7.69833 20.9912 7.20833 20.6995 6.87C20.5373 6.69617 20.3145 6.59 20.0823 6.56667C19.8373 6.55383 19.604 6.63667 19.4278 6.8L14.1673 11C13.4907 11.5612 12.5212 11.5612 11.834 11L6.58398 6.8C6.22115 6.53167 5.71948 6.56667 5.41732 6.88167C5.10232 7.19667 5.06732 7.69833 5.33448 8.04833L5.48732 8.2L10.7957 12.3417C11.449 12.855 12.2412 13.135 13.0707 13.135C13.8978 13.135 14.704 12.855 15.3562 12.3417L20.619 8.13Z" fill="#20C6A5" fill-opacity="0.08"/>
<path d="M22.9395 2.22783L22.5856 2.58101L22.5861 2.58157L22.9395 2.22783ZM20.7123 8.03667L21.0659 8.39022L21.0829 8.37322L21.0982 8.35466L20.7123 8.03667ZM20.619 8.13L20.9314 8.52038L20.953 8.50311L20.9725 8.48355L20.619 8.13ZM20.6995 6.87L21.0782 6.54353L21.0718 6.5361L21.0651 6.52893L20.6995 6.87ZM20.0823 6.56667L20.1323 6.06917L20.1204 6.06798L20.1085 6.06735L20.0823 6.56667ZM19.4278 6.8L19.7398 7.19074L19.7542 7.17921L19.7678 7.16666L19.4278 6.8ZM14.1673 11L13.8553 10.6092L13.8481 10.6151L14.1673 11ZM11.834 11L12.1503 10.6127L12.1463 10.6096L11.834 11ZM6.58398 6.8L6.89633 6.40957L6.88892 6.40364L6.88129 6.39799L6.58398 6.8ZM5.41732 6.88167L5.77095 7.2353L5.77814 7.22779L5.41732 6.88167ZM5.33448 8.04833L4.93704 8.35171L4.95789 8.37903L4.98229 8.40324L5.33448 8.04833ZM5.48732 8.2L5.13512 8.5549L5.15626 8.57589L5.17975 8.59421L5.48732 8.2ZM10.7957 12.3417L11.1046 11.9485L11.1032 11.9475L10.7957 12.3417ZM15.3562 12.3417L15.6654 12.7346L15.6686 12.7321L15.3562 12.3417ZM23.2934 1.87465C22.0916 0.670332 20.4589 0 18.7628 0V1C20.1957 1 21.573 1.56633 22.5856 2.58101L23.2934 1.87465ZM25.1673 6.39167C25.1673 4.69538 24.4949 3.07487 23.2929 1.87409L22.5861 2.58157C23.6007 3.59513 24.1673 4.96128 24.1673 6.39167H25.1673ZM25.1673 15.6083V6.39167H24.1673V15.6083H25.1673ZM18.7628 22C22.2938 22 25.1673 19.1408 25.1673 15.6083H24.1673C24.1673 18.5858 21.7442 21 18.7628 21V22ZM7.23732 22H18.7628V21H7.23732V22ZM0.833984 15.6083C0.833984 19.1407 3.70623 22 7.23732 22V21C4.25607 21 1.83398 18.586 1.83398 15.6083H0.833984ZM0.833984 6.39167V15.6083H1.83398V6.39167H0.833984ZM7.23732 0C3.69392 0 0.833984 2.85994 0.833984 6.39167H1.83398C1.83398 3.41339 4.24505 1 7.23732 1V0ZM18.7628 0H7.23732V1H18.7628V0ZM20.3588 7.68311L20.2654 7.77644L20.9725 8.48355L21.0659 8.39022L20.3588 7.68311ZM20.3208 7.19647C20.4516 7.34818 20.4523 7.56599 20.3265 7.71867L21.0982 8.35466C21.53 7.83067 21.5307 7.06849 21.0782 6.54353L20.3208 7.19647ZM20.0323 7.06416C20.1485 7.07583 20.2576 7.12931 20.3339 7.21107L21.0651 6.52893C20.817 6.26302 20.4805 6.10417 20.1323 6.06917L20.0323 7.06416ZM19.7678 7.16666C19.8419 7.0979 19.9421 7.06001 20.0562 7.06598L20.1085 6.06735C19.7326 6.04766 19.3661 6.17543 19.0879 6.43334L19.7678 7.16666ZM14.4793 11.3907L19.7398 7.19074L19.1159 6.40926L13.8554 10.6093L14.4793 11.3907ZM11.5177 11.3873C12.3875 12.0976 13.6233 12.1007 14.4865 11.3849L13.8481 10.6151C13.358 11.0216 12.6548 11.0248 12.1502 10.6127L11.5177 11.3873ZM6.27164 7.19043L11.5216 11.3904L12.1463 10.6096L6.89633 6.40957L6.27164 7.19043ZM5.77814 7.22779C5.89714 7.10375 6.11534 7.07529 6.28668 7.20201L6.88129 6.39799C6.32696 5.98804 5.54183 6.02958 5.05649 6.53554L5.77814 7.22779ZM5.73193 7.74495C5.61875 7.59669 5.63057 7.37552 5.77087 7.23522L5.06376 6.52811C4.57407 7.01781 4.51588 7.79997 4.93704 8.35171L5.73193 7.74495ZM5.83951 7.84509L5.68668 7.69343L4.98229 8.40324L5.13512 8.5549L5.83951 7.84509ZM11.1032 11.9475L5.79489 7.80579L5.17975 8.59421L10.4881 12.7359L11.1032 11.9475ZM13.0707 12.635C12.3557 12.635 11.6718 12.3942 11.1046 11.9485L10.4867 12.7348C11.2261 13.3158 12.1266 13.635 13.0707 13.635V12.635ZM15.0469 11.9488C14.4825 12.393 13.7851 12.635 13.0707 12.635V13.635C14.0105 13.635 14.9255 13.317 15.6654 12.7346L15.0469 11.9488ZM20.3066 7.73962L15.0437 11.9513L15.6686 12.7321L20.9314 8.52038L20.3066 7.73962Z" fill="#0EC696"/>
</svg>
