<svg width="24" height="24" viewBox="0 0 24 24" fill="none" xmlns="http://www.w3.org/2000/svg">
<path d="M21.068 8.63121L16.242 3.80521C15.9339 3.49715 15.5569 3.26672 15.1423 3.1329C14.7276 2.99909 14.2871 2.96572 13.857 3.03554C13.4269 3.10537 13.0196 3.27639 12.6685 3.53452C12.3175 3.79265 12.0329 4.13049 11.838 4.52021L9.403 9.39021C9.3154 9.56581 9.16246 9.70008 8.977 9.76421L4.811 11.2042C4.61075 11.2734 4.43136 11.3924 4.28971 11.5499C4.14805 11.7075 4.04876 11.8984 4.00117 12.1049C3.95358 12.3114 3.95925 12.5265 4.01764 12.7302C4.07604 12.9339 4.18524 13.1193 4.335 13.2692L7.439 16.3732L3 20.8132V21.8732H4.06L8.5 17.4332L11.604 20.5382C11.7539 20.6882 11.9394 20.7976 12.1432 20.8561C12.347 20.9147 12.5623 20.9204 12.7689 20.8728C12.9755 20.8252 13.1667 20.7258 13.3243 20.584C13.4819 20.4422 13.6009 20.2627 13.67 20.0622L15.11 15.8962C15.1739 15.7109 15.3078 15.558 15.483 15.4702L20.353 13.0352C20.7427 12.8404 21.0806 12.5557 21.3387 12.2047C21.5968 11.8536 21.7678 11.4463 21.8377 11.0162C21.9075 10.5861 21.8741 10.1456 21.7403 9.73094C21.6065 9.31628 21.3761 8.93935 21.068 8.63121Z" fill="#FAFAFA"/>
</svg>
