<svg width="24" height="24" viewBox="0 0 24 24" fill="none" xmlns="http://www.w3.org/2000/svg">
<path d="M14.69 6.63079H7.68999L10.61 3.71079C10.7037 3.61783 10.7781 3.50723 10.8289 3.38537C10.8796 3.26351 10.9058 3.1328 10.9058 3.00079C10.9058 2.86878 10.8796 2.73808 10.8289 2.61622C10.7781 2.49436 10.7037 2.38376 10.61 2.29079C10.4226 2.10454 10.1692 2 9.90499 2C9.6408 2 9.38735 2.10454 9.19999 2.29079L4.60999 6.92079C4.51536 7.015 4.44055 7.12721 4.38999 7.25079C4.28997 7.49425 4.28997 7.76733 4.38999 8.01079C4.44434 8.13232 4.51871 8.24387 4.60999 8.34079L9.23999 13.0008C9.42462 13.1892 9.67622 13.297 9.93999 13.3008C10.1386 13.3019 10.3331 13.2439 10.4986 13.1341C10.6641 13.0243 10.7932 12.8677 10.8694 12.6843C10.9455 12.5008 10.9653 12.2989 10.9263 12.1041C10.8872 11.9094 10.791 11.7307 10.65 11.5908L7.72999 8.63079H14.73C15.5256 8.63079 16.2887 8.94686 16.8513 9.50947C17.4139 10.0721 17.73 10.8351 17.73 11.6308V21.0008C17.73 21.266 17.8353 21.5204 18.0229 21.7079C18.2104 21.8954 18.4648 22.0008 18.73 22.0008C18.9952 22.0008 19.2496 21.8954 19.4371 21.7079C19.6246 21.5204 19.73 21.266 19.73 21.0008V11.6308C19.73 10.9708 19.5994 10.3173 19.3456 9.70809C19.0918 9.09884 18.7199 8.54586 18.2514 8.08104C17.7829 7.61622 17.2269 7.24876 16.6157 6.99985C16.0044 6.75094 15.35 6.62551 14.69 6.63079Z" fill="#FAFAFA"/>
</svg>
