<svg width="18" height="18" viewBox="0 0 18 18" fill="none" xmlns="http://www.w3.org/2000/svg">
<path d="M10.9668 10.8587C10.4097 11.3078 9.71566 11.5527 9.00008 11.5527C8.28451 11.5527 7.59049 11.3078 7.03342 10.8587C6.86324 10.7172 6.64384 10.6492 6.42348 10.6695C6.20313 10.6898 5.99987 10.7968 5.85842 10.967C5.71697 11.1372 5.64892 11.3566 5.66923 11.5769C5.68955 11.7973 5.79657 12.0005 5.96675 12.142C6.81787 12.8525 7.89139 13.2417 9.00008 13.2417C10.1088 13.2417 11.1823 12.8525 12.0334 12.142C12.2036 12.0005 12.3106 11.7973 12.3309 11.5769C12.3513 11.3566 12.2832 11.1372 12.1418 10.967C12.0717 10.8827 11.9858 10.8131 11.8888 10.762C11.7919 10.711 11.6858 10.6795 11.5767 10.6695C11.3563 10.6492 11.1369 10.7172 10.9668 10.8587ZM6.50008 8.16699C6.6649 8.16699 6.82602 8.11812 6.96306 8.02655C7.1001 7.93498 7.20691 7.80483 7.26998 7.65256C7.33306 7.50029 7.34956 7.33273 7.31741 7.17108C7.28525 7.00943 7.20588 6.86095 7.08934 6.7444C6.9728 6.62786 6.82431 6.54849 6.66266 6.51634C6.50101 6.48418 6.33345 6.50069 6.18118 6.56376C6.02891 6.62683 5.89876 6.73364 5.80719 6.87068C5.71563 7.00772 5.66675 7.16884 5.66675 7.33366C5.66675 7.55467 5.75455 7.76663 5.91083 7.92291C6.06711 8.0792 6.27907 8.16699 6.50008 8.16699ZM11.5001 6.50033C11.3353 6.50033 11.1742 6.5492 11.0371 6.64077C10.9001 6.73234 10.7933 6.86248 10.7302 7.01476C10.6671 7.16703 10.6506 7.33458 10.6828 7.49623C10.7149 7.65789 10.7943 7.80637 10.9108 7.92291C11.0274 8.03946 11.1759 8.11883 11.3375 8.15098C11.4992 8.18313 11.6667 8.16663 11.819 8.10356C11.9713 8.04049 12.1014 7.93368 12.193 7.79663C12.2845 7.65959 12.3334 7.49848 12.3334 7.33366C12.3334 7.11265 12.2456 6.90068 12.0893 6.7444C11.9331 6.58812 11.7211 6.50033 11.5001 6.50033ZM9.00008 0.666992C7.35191 0.666992 5.74074 1.15573 4.37033 2.07141C2.99992 2.98709 1.93182 4.28858 1.30109 5.8113C0.670359 7.33401 0.505331 9.00957 0.826874 10.6261C1.14842 12.2426 1.94209 13.7274 3.10753 14.8929C4.27297 16.0583 5.75782 16.852 7.37433 17.1735C8.99084 17.4951 10.6664 17.3301 12.1891 16.6993C13.7118 16.0686 15.0133 15.0005 15.929 13.6301C16.8447 12.2597 17.3334 10.6485 17.3334 9.00033C17.3334 7.90598 17.1179 6.82234 16.6991 5.8113C16.2803 4.80025 15.6665 3.88159 14.8926 3.10777C14.1188 2.33395 13.2002 1.72012 12.1891 1.30133C11.1781 0.88254 10.0944 0.666992 9.00008 0.666992ZM9.00008 15.667C7.68154 15.667 6.39261 15.276 5.29628 14.5435C4.19996 13.8109 3.34547 12.7697 2.84089 11.5515C2.3363 10.3334 2.20428 8.99293 2.46152 7.69972C2.71875 6.40652 3.35369 5.21863 4.28604 4.28628C5.21839 3.35393 6.40628 2.71899 7.69948 2.46176C8.99269 2.20452 10.3331 2.33654 11.5513 2.84113C12.7695 3.34571 13.8107 4.2002 14.5432 5.29652C15.2758 6.39285 15.6668 7.68178 15.6668 9.00033C15.6668 10.7684 14.9644 12.4641 13.7141 13.7144C12.4639 14.9646 10.7682 15.667 9.00008 15.667Z" fill="#9E9E9E"/>
</svg>
