<svg width="42" height="42" viewBox="0 0 42 42" fill="none" xmlns="http://www.w3.org/2000/svg">
<path d="M15.0849 6.15359C11.723 6.55737 8.50538 7.57481 6.2193 9.80769C3.33784 12.6221 2.22592 16.9248 2.67736 20.9274C3.5117 28.3245 9.72602 34.7778 17.0865 35.8905C24.5152 37.0135 31.931 32.3499 36.351 26.6515C38.1736 24.3018 39.4202 21.3965 39.3018 18.4251C39.1586 14.8277 36.9911 11.4981 34.0581 9.41058C31.1249 7.32297 27.5062 6.36957 23.9151 6.11388C21.2348 5.92301 18.1017 5.79132 15.0849 6.15359Z" fill="#35383F"/>
<path d="M38.5891 16.5005C38.6437 16.7966 38.9268 16.9927 39.2228 16.9406L39.4139 17.9761C39.1188 18.0332 38.9244 18.3175 38.9791 18.6135C39.0337 18.9095 39.3168 19.1058 39.6128 19.0538L39.8038 20.0893C39.5088 20.1462 39.3144 20.4305 39.3691 20.7266C39.4237 21.0227 39.7068 21.2189 40.0027 21.1667L40.1939 22.2023C39.8988 22.2593 39.7044 22.5436 39.759 22.8397C39.8137 23.1356 40.0968 23.3319 40.3927 23.2799L40.5839 24.3154C40.2888 24.3723 40.0944 24.6566 40.149 24.9527C40.2037 25.2488 40.4867 25.445 40.7827 25.3928L40.9739 26.4284C40.6789 26.4854 40.4845 26.7698 40.5391 27.0658C40.5921 27.3532 40.8603 27.5465 41.1467 27.51C41.1962 28.5914 40.5238 29.0894 39.6292 29.2544L35.0808 30.0939L8.45076 35.0088C7.45447 35.1971 6.58485 35.019 6.31275 33.5371L5.7239 30.3466C6.96278 30.1172 7.78144 28.9272 7.55279 27.6881C7.32414 26.449 6.13451 25.6297 4.89537 25.8576L4.18797 22.0249C4.06998 21.3855 4.49259 20.7716 5.13184 20.6536L37.6049 14.6602C38.2441 14.5422 38.8581 14.9649 38.9761 15.6041L39.0239 15.8632C38.7288 15.9201 38.5345 16.2044 38.5891 16.5005Z" fill="#79408C"/>
<path d="M8.43799 34.9429L35.0684 30.0279L39.6167 29.1884C40.0855 29.102 40.4476 28.9307 40.693 28.6794C40.9575 28.4085 41.0877 28.0403 41.0804 27.5844C40.7861 27.5861 40.5264 27.3763 40.4717 27.0797C40.4147 26.7707 40.6013 26.4703 40.8948 26.3791L40.7271 25.4699C40.4202 25.4895 40.1386 25.2755 40.0816 24.9666C40.0246 24.6576 40.2113 24.3572 40.5049 24.2661L40.337 23.3569C40.0303 23.3765 39.7487 23.1625 39.6916 22.8535C39.6346 22.5446 39.8213 22.2442 40.1148 22.153L39.947 21.2438C39.6403 21.2634 39.3587 21.0495 39.3017 20.7405C39.2446 20.4316 39.4313 20.1311 39.7248 20.0399L39.557 19.1308C39.2503 19.1503 38.9687 18.9364 38.9117 18.6274C38.8546 18.3184 39.0413 18.0181 39.3348 17.9269L39.167 17.0177C38.8603 17.0373 38.5787 16.8233 38.5217 16.5144C38.4647 16.2054 38.6513 15.905 38.9448 15.8138L38.9087 15.618C38.7977 15.0169 38.2185 14.6182 37.6174 14.7291L5.1443 20.7225C4.54323 20.8335 4.14448 21.4127 4.25542 22.0138L4.95057 25.7802C5.54572 25.6881 6.14384 25.8246 6.64192 26.1677C7.15886 26.5238 7.50631 27.0599 7.62024 27.6771C7.73417 28.2944 7.601 28.9192 7.24519 29.4363C6.90238 29.9346 6.39241 30.2756 5.80361 30.402L6.3802 33.5261C6.49301 34.1404 6.71101 34.551 7.04675 34.7812C7.37778 35.0083 7.81992 35.06 8.43799 34.9429ZM39.6416 29.3233L35.0933 30.1628L8.46322 35.0777C8.45688 35.0789 8.45044 35.0801 8.4441 35.0813C7.79786 35.2005 7.3288 35.141 6.96913 34.8944C6.6018 34.6424 6.36505 34.203 6.24532 33.5509L5.64404 30.2931L5.71142 30.2806C6.29261 30.173 6.79718 29.8455 7.13216 29.3586C7.46728 28.8715 7.59263 28.2832 7.48538 27.702C7.37812 27.1207 7.05093 26.6159 6.56413 26.2807C6.07734 25.9453 5.48911 25.8195 4.9078 25.9265L4.84039 25.9389L4.12055 22.0387C3.99589 21.3633 4.44397 20.7123 5.11941 20.5876L37.5925 14.5942C38.2679 14.4695 38.9189 14.9177 39.0436 15.5931L39.1037 15.919L39.0369 15.9319C38.7796 15.9816 38.6089 16.2317 38.6565 16.4895C38.7041 16.7472 38.9527 16.92 39.2109 16.8745L39.2779 16.8627L39.4936 18.032L39.4269 18.0449C39.1696 18.0945 38.9989 18.3447 39.0465 18.6025C39.0942 18.8604 39.3428 19.033 39.6009 18.9876L39.6679 18.9758L39.8837 20.1452L39.8169 20.158C39.5596 20.2077 39.389 20.4579 39.4365 20.7156C39.4841 20.9734 39.7328 21.1461 39.9909 21.1006L40.0579 21.0888L40.2737 22.2581L40.2069 22.271C39.9496 22.3207 39.779 22.5708 39.8265 22.8286C39.8741 23.0865 40.1228 23.2592 40.3809 23.2138L40.4478 23.2019L40.6637 24.3713L40.597 24.3842C40.3396 24.4338 40.169 24.6839 40.2165 24.9417C40.2641 25.1994 40.5128 25.3722 40.7708 25.3267L40.8378 25.3149L41.0537 26.4842L40.9869 26.4971C40.7296 26.5468 40.5589 26.7969 40.6066 27.0548C40.6527 27.3048 40.8861 27.4755 41.1381 27.4434L41.2119 27.434L41.2153 27.5082C41.2605 28.4974 40.7163 29.1249 39.6416 29.3233Z" fill="#AC73BF"/>
<path d="M35.8384 28.2241L35.8706 28.3984L39.4814 27.7319L39.4493 27.5577L35.8384 28.2241Z" fill="#AC73BF"/>
<path d="M35.7902 27.9625L35.8223 28.1367L39.4331 27.4703L39.4009 27.296L35.7902 27.9625Z" fill="#AC73BF"/>
<path d="M35.2301 24.9272L35.2622 25.1016L38.8731 24.4351L38.8409 24.2608L35.2301 24.9272Z" fill="#AC73BF"/>
<path d="M35.1307 24.3883L35.163 24.5625L38.7737 23.8961L38.7415 23.7218L35.1307 24.3883Z" fill="#AC73BF"/>
<path d="M34.8719 22.9858L34.9041 23.1602L38.5148 22.4937L38.4827 22.3194L34.8719 22.9858Z" fill="#AC73BF"/>
<path d="M34.8221 22.7163L34.8543 22.8906L38.4652 22.2241L38.4329 22.0499L34.8221 22.7163Z" fill="#AC73BF"/>
<path d="M34.7681 22.4234L34.8002 22.5977L38.4111 21.9313L38.3788 21.7569L34.7681 22.4234Z" fill="#AC73BF"/>
<path d="M34.4697 20.8062L34.502 20.9805L38.1127 20.3141L38.0806 20.1397L34.4697 20.8062Z" fill="#AC73BF"/>
<path d="M34.2122 19.4117L34.2443 19.5859L37.8551 18.9196L37.8229 18.7453L34.2122 19.4117Z" fill="#AC73BF"/>
<path d="M34.1079 18.8453L34.14 19.0195L37.7508 18.3532L37.7187 18.1788L34.1079 18.8453Z" fill="#AC73BF"/>
<path d="M34.0596 18.5875L34.0918 18.7617L37.7026 18.0953L37.6703 17.9211L34.0596 18.5875Z" fill="#AC73BF"/>
<path d="M34.0092 18.31L34.0414 18.4844L37.6522 17.8179L37.62 17.6437L34.0092 18.31Z" fill="#AC73BF"/>
<path d="M33.8556 17.4781L33.8878 17.6523L37.4986 16.986L37.4665 16.8116L33.8556 17.4781Z" fill="#AC73BF"/>
<path d="M35.432 26.0211L35.4641 26.1953L39.0749 25.5289L39.0428 25.3546L35.432 26.0211Z" fill="#AC73BF"/>
<path d="M35.4875 26.3224L35.5621 26.7266L39.1729 26.0601L39.0983 25.6561L35.4875 26.3224Z" fill="#AC73BF"/>
<path d="M35.2821 25.2093L35.3567 25.6133L38.9674 24.9469L38.8929 24.5429L35.2821 25.2093Z" fill="#AC73BF"/>
<path d="M35.0305 23.846L35.1051 24.25L38.7158 23.5836L38.6413 23.1795L35.0305 23.846Z" fill="#AC73BF"/>
<path d="M34.9282 23.2912L35.0028 23.6953L38.6137 23.0288L38.539 22.6248L34.9282 23.2912Z" fill="#AC73BF"/>
<path d="M34.6211 21.6272L34.6957 22.0312L38.3064 21.3649L38.2319 20.9609L34.6211 21.6272Z" fill="#AC73BF"/>
<path d="M34.5217 21.0882L34.5963 21.4922L38.2072 20.8257L38.1325 20.4217L34.5217 21.0882Z" fill="#AC73BF"/>
<path d="M34.3652 20.2405L34.4399 20.6445L38.0507 19.9782L37.9761 19.574L34.3652 20.2405Z" fill="#AC73BF"/>
<path d="M34.2666 19.7053L34.3412 20.1094L37.9519 19.4429L37.8774 19.0389L34.2666 19.7053Z" fill="#AC73BF"/>
<path d="M33.9091 17.7677L33.9836 18.1719L37.5944 17.5054L37.5198 17.1014L33.9091 17.7677Z" fill="#AC73BF"/>
<path d="M33.7566 16.9435L33.8311 17.3477L37.4419 16.6812L37.3674 16.2772L33.7566 16.9435Z" fill="#AC73BF"/>
<path d="M35.5942 26.8999L35.6264 27.0742L39.2372 26.4077L39.205 26.2335L35.5942 26.8999Z" fill="#AC73BF"/>
<path d="M35.6936 27.4398L35.7667 27.8359L39.3775 27.1696L39.3044 26.7734L35.6936 27.4398Z" fill="#AC73BF"/>
<path d="M32.3759 16.0405L32.2048 16.0721L32.1366 15.7023L32.3075 15.6708L32.3759 16.0405ZM32.5123 16.78L32.3413 16.8115L32.273 16.4418L32.4441 16.4102L32.5123 16.78ZM32.6488 17.5193L32.4777 17.5509L32.4095 17.1813L32.5805 17.1497L32.6488 17.5193ZM32.7852 18.2588L32.6143 18.2904L32.546 17.9206L32.717 17.8891L32.7852 18.2588ZM32.9217 18.9983L32.7507 19.0298L32.6825 18.6601L32.8534 18.6285L32.9217 18.9983ZM33.0582 19.7376L32.8872 19.7692L32.8189 19.3996L32.99 19.368L33.0582 19.7376ZM33.1947 20.4771L33.0236 20.5086L32.9554 20.1389L33.1264 20.1073L33.1947 20.4771ZM33.3311 21.2165L33.1601 21.2481L33.0919 20.8784L33.2629 20.8468L33.3311 21.2165ZM33.4675 21.9559L33.2966 21.9874L33.2284 21.6177L33.3993 21.5863L33.4675 21.9559ZM33.6041 22.6953L33.433 22.7269L33.3648 22.3572L33.5359 22.3256L33.6041 22.6953ZM33.7405 23.4348L33.5695 23.4664L33.5013 23.0966L33.6723 23.0651L33.7405 23.4348ZM33.877 24.1742L33.706 24.2057L33.6378 23.836L33.8088 23.8044L33.877 24.1742ZM34.0134 24.9136L33.8425 24.9452L33.7743 24.5755L33.9452 24.5439L34.0134 24.9136ZM34.15 25.6531L33.9789 25.6845L33.9107 25.3149L34.0818 25.2834L34.15 25.6531ZM34.2864 26.3924L34.1154 26.424L34.0471 26.0543L34.2182 26.0227L34.2864 26.3924ZM34.4229 27.1319L34.2519 27.1635L34.1837 26.7937L34.3546 26.7622L34.4229 27.1319ZM34.5593 27.8713L34.3884 27.9028L34.3201 27.5332L34.4911 27.5016L34.5593 27.8713ZM34.6959 28.6107L34.5248 28.6423L34.4566 28.2725L34.6276 28.241L34.6959 28.6107ZM34.8323 29.3502L34.6612 29.3817L34.593 29.012L34.7641 28.9804L34.8323 29.3502ZM34.9688 30.0895L34.7978 30.1211L34.7296 29.7515L34.9005 29.7199L34.9688 30.0895Z" fill="#AC73BF"/>
<path d="M18.2037 25.7748C18.6662 28.2805 17.0099 30.6867 14.5041 31.1491C11.9985 31.6116 9.59229 29.9553 9.12979 27.4495C8.6674 24.9439 10.3237 22.5377 12.8295 22.0752C15.3351 21.6128 17.7413 23.2691 18.2037 25.7748Z" fill="#F4D06F"/>
<path d="M13.4754 26.2656L11.2721 25.9651L11.4082 25.641L13.8686 25.3287L13.4754 26.2656Z" fill="white"/>
<path d="M14.2404 26.5795L15.9982 27.9414L16.1342 27.6173L14.6335 25.6426L14.2404 26.5795Z" fill="white"/>
<path d="M12.7567 25.5117C12.7554 25.4751 12.7567 25.4317 12.7618 25.381C12.7618 25.381 12.8862 25.2728 13.0392 25.3559C13.0392 25.3559 13.0602 25.4024 13.0742 25.4645L12.7567 25.5117Z" fill="white"/>
<path d="M12.1085 25.5977C12.1077 25.563 12.1092 25.5229 12.1138 25.4765C12.1138 25.4765 12.2382 25.3681 12.3912 25.4513C12.3912 25.4513 12.4117 25.4966 12.4257 25.5575L12.1085 25.5977Z" fill="white"/>
<path d="M15.4962 26.8021C15.528 26.7821 15.5731 26.7521 15.621 26.7305C15.621 26.7305 15.777 26.7841 15.7814 26.9582C15.7814 26.9582 15.7423 27.013 15.6912 27.0586L15.4962 26.8021Z" fill="white"/>
<path d="M15.1007 26.2809C15.1299 26.2634 15.1649 26.245 15.2064 26.2263C15.2064 26.2263 15.3624 26.2799 15.3668 26.4539C15.3668 26.4539 15.3385 26.4932 15.2938 26.5352L15.1007 26.2809Z" fill="white"/>
<path d="M12.7729 28.6836L12.0521 28.5916C12.0431 28.5903 12.0376 28.5812 12.0406 28.5726L12.0826 28.4511C12.0871 28.4381 12.0957 28.4269 12.1072 28.4191C12.1138 28.4147 12.1213 28.4114 12.1291 28.4097L12.5449 28.3184L12.8092 28.2676L12.7729 28.6836Z" fill="white"/>
<path d="M13.0004 28.7774L13.569 29.2275C13.5762 29.233 13.5866 29.2305 13.5906 29.2225L13.6482 29.1076C13.6543 29.0952 13.6563 29.0812 13.6538 29.0676C13.6524 29.0597 13.6494 29.0521 13.6452 29.0452L13.4199 28.6842L13.2716 28.4601L13.0004 28.7774Z" fill="white"/>
<path d="M13.5011 26.1552C12.9186 27.543 12.6237 28.7425 12.8425 28.8342C13.0612 28.9261 13.7108 27.8755 14.2933 26.4876L14.9084 25.0219C15.1512 24.4435 15.1707 23.9002 14.9519 23.8084C14.733 23.7165 14.359 24.111 14.1162 24.6895L13.5011 26.1552Z" fill="white"/>
<path d="M19.2985 20.7266L30.1047 18.7321L19.2985 20.7266Z" fill="#D6B9DF"/>
<path d="M30.148 18.967L19.3418 20.9614C19.2208 20.9837 19.1035 20.8965 19.0795 20.7669C19.0555 20.6371 19.1341 20.5138 19.255 20.4915L30.0614 18.4971C30.1822 18.4747 30.2996 18.5618 30.3236 18.6916C30.3475 18.8214 30.269 18.9446 30.148 18.967Z" fill="#D6B9DF"/>
<path d="M19.8551 23.8633L29.6041 22.064L19.8551 23.8633Z" fill="#D6B9DF"/>
<path d="M29.6474 22.2995L19.8985 24.0987C19.7894 24.1189 19.6816 24.03 19.6576 23.9003C19.6336 23.7705 19.7026 23.649 19.8117 23.6289L29.5607 21.8296C29.6698 21.8095 29.7776 21.8983 29.8015 22.0281C29.8254 22.1578 29.7564 22.2794 29.6474 22.2995Z" fill="#D6B9DF"/>
<path d="M20.4677 26.9883L31.9171 24.8751L20.4677 26.9883Z" fill="#D6B9DF"/>
<path d="M31.9605 25.1096L20.511 27.2227C20.383 27.2463 20.2597 27.1603 20.2358 27.0305C20.2118 26.9008 20.2962 26.7764 20.4244 26.7528L31.8738 24.6397C32.0019 24.6161 32.1251 24.7021 32.1491 24.8318C32.173 24.9616 32.0886 25.0859 31.9605 25.1096Z" fill="#D6B9DF"/>
<path d="M21.0292 30.125L31.6559 28.1638L21.0292 30.125Z" fill="#D6B9DF"/>
<path d="M31.6992 28.3986L21.0725 30.3599C20.9535 30.3819 20.8378 30.2944 20.8138 30.1646C20.7898 30.035 20.8669 29.912 20.9857 29.89L31.6125 27.9287C31.7314 27.9068 31.8472 27.9942 31.8712 28.124C31.895 28.2536 31.8181 28.3766 31.6992 28.3986Z" fill="#D6B9DF"/>
<path d="M32.7101 8.55136C32.8384 8.82368 33.1621 8.94123 33.435 8.81542L33.8838 9.76803C33.613 9.89837 33.4975 10.2228 33.6257 10.4952C33.754 10.7675 34.0777 10.8851 34.3507 10.7593L34.7994 11.712C34.5286 11.8423 34.4131 12.1668 34.5414 12.4391C34.6697 12.7114 34.9934 12.8291 35.2663 12.7031L35.7151 13.6559C35.4442 13.7861 35.3287 14.1107 35.457 14.383C35.5853 14.6553 35.909 14.773 36.182 14.6472L36.6307 15.5998C36.3598 15.73 36.2443 16.0545 36.3726 16.3268C36.5009 16.5992 36.8246 16.7168 37.0976 16.591L37.5463 17.5436C37.2754 17.6739 37.16 17.9985 37.2882 18.2708C37.4128 18.5351 37.7214 18.6538 37.989 18.5454C38.3125 19.5787 37.7892 20.2314 36.9661 20.6191L32.7819 22.59L8.28363 34.1291C7.36824 34.5651 6.48194 34.6144 5.8412 33.2509L4.45871 30.3159C5.5982 29.7782 6.08663 28.4189 5.5497 27.2789C5.01278 26.1391 3.65369 25.65 2.51354 26.1861L0.85272 22.6602C0.575715 22.0721 0.827921 21.3708 1.416 21.0937L31.2895 7.02265C31.8776 6.74558 32.5789 6.99776 32.856 7.58585L32.9682 7.82422C32.6973 7.95444 32.5818 8.27892 32.7101 8.55136Z" fill="#79408C"/>
<path d="M8.25421 34.0682L32.7527 22.5289L36.9369 20.5581C37.3681 20.3549 37.6746 20.097 37.8479 19.7915C38.0347 19.462 38.0668 19.0729 37.9435 18.634C37.6593 18.7104 37.3547 18.5738 37.2262 18.301C37.0924 18.0168 37.1962 17.6787 37.4569 17.5157L37.0628 16.6793C36.7713 16.7764 36.4444 16.6413 36.3106 16.3571C36.1768 16.0729 36.2807 15.7348 36.5413 15.5718L36.1472 14.7355C35.8557 14.8326 35.5288 14.6974 35.395 14.4132C35.2611 14.129 35.365 13.7909 35.6256 13.6279L35.2316 12.7915C34.9401 12.8886 34.6132 12.7534 34.4794 12.4694C34.3455 12.185 34.4494 11.847 34.7101 11.6841L34.316 10.8476C34.0244 10.9447 33.6976 10.8096 33.5637 10.5253C33.4298 10.2411 33.5338 9.90306 33.7943 9.74003L33.4004 8.90373C33.1088 9.0008 32.782 8.86571 32.6481 8.58151C32.5142 8.29731 32.6181 7.95926 32.8787 7.79623L32.7938 7.61611C32.5334 7.0631 31.8717 6.82517 31.3187 7.08562L1.4452 21.1568C0.892247 21.4172 0.654286 22.079 0.91475 22.6319L2.54679 26.0968C3.09884 25.8561 3.71199 25.8357 4.28105 26.0405C4.87168 26.2531 5.34426 26.6829 5.61173 27.2507C5.87921 27.8185 5.90964 28.4566 5.69739 29.0474C5.49289 29.6166 5.08665 30.0763 4.54953 30.3486L5.90322 33.2226C6.16888 33.788 6.48431 34.1293 6.8676 34.2664C7.24559 34.4016 7.68626 34.339 8.25421 34.0682ZM36.9953 20.6821L32.8112 22.6529L8.31281 34.1921C8.30704 34.1949 8.30116 34.1978 8.29539 34.2005C7.70085 34.4805 7.23201 34.5425 6.82144 34.3955C6.402 34.2455 6.06107 33.881 5.77913 33.281L4.36748 30.284L4.42945 30.2547C4.964 30.0025 5.36847 29.5573 5.56832 29.001C5.76819 28.4447 5.73954 27.8439 5.48767 27.3092C5.23579 26.7744 4.79078 26.3697 4.23461 26.1696C3.67845 25.9693 3.07759 25.9976 2.54271 26.2492L2.4807 26.2783L0.790673 22.6904C0.497999 22.069 0.765398 21.3254 1.38677 21.0327L31.2603 6.9615C31.8816 6.66882 32.6253 6.93627 32.918 7.55762L33.0592 7.85744L32.9978 7.88696C32.7617 8.00056 32.6605 8.28588 32.7721 8.52302C32.8839 8.76015 33.1683 8.86379 33.4064 8.75405L33.468 8.72565L33.9748 9.80136L33.9135 9.83077C33.6773 9.94436 33.5761 10.2298 33.6877 10.4669C33.7995 10.7041 34.084 10.8077 34.322 10.698L34.3838 10.6696L34.8904 11.7453L34.8292 11.7747C34.593 11.8884 34.4917 12.1737 34.6035 12.4109C34.7151 12.648 34.9996 12.7516 35.2376 12.6419L35.2994 12.6134L35.806 13.6891L35.7447 13.7186C35.5086 13.8322 35.4073 14.1175 35.519 14.3548C35.6308 14.5919 35.9152 14.6955 36.1532 14.5858L36.215 14.5573L36.7216 15.6331L36.6604 15.6625C36.4242 15.7761 36.3229 16.0614 36.4346 16.2986C36.5464 16.5357 36.8308 16.6395 37.0688 16.5297L37.1306 16.5012L37.6372 17.5769L37.576 17.6064C37.3398 17.72 37.2385 18.0054 37.3503 18.2425C37.4586 18.4725 37.7279 18.5781 37.9633 18.4828L38.0322 18.455L38.0545 18.5259C38.3502 19.4708 37.984 20.2164 36.9953 20.6821Z" fill="#AC73BF"/>
<path d="M33.0375 20.5897L33.1131 20.75L36.4348 19.1854L36.3592 19.025L33.0375 20.5897Z" fill="#AC73BF"/>
<path d="M32.9242 20.3475L32.9997 20.5078L36.3215 18.9432L36.2459 18.7829L32.9242 20.3475Z" fill="#AC73BF"/>
<path d="M31.6093 17.5584L31.6848 17.7188L35.0065 16.1541L34.9311 15.9938L31.6093 17.5584Z" fill="#AC73BF"/>
<path d="M31.3759 17.0622L31.4514 17.2227L34.7731 15.658L34.6976 15.4977L31.3759 17.0622Z" fill="#AC73BF"/>
<path d="M30.7682 15.7693L30.8438 15.9297L34.1655 14.365L34.09 14.2047L30.7682 15.7693Z" fill="#AC73BF"/>
<path d="M30.6516 15.5233L30.7271 15.6836L34.0489 14.119L33.9733 13.9587L30.6516 15.5233Z" fill="#AC73BF"/>
<path d="M30.5245 15.2537L30.6001 15.4141L33.9218 13.8494L33.8462 13.6891L30.5245 15.2537Z" fill="#AC73BF"/>
<path d="M29.8242 13.7655L29.8998 13.9258L33.2215 12.3612L33.146 12.2009L29.8242 13.7655Z" fill="#AC73BF"/>
<path d="M29.2191 12.4803L29.2947 12.6406L32.6164 11.0759L32.5409 10.9156L29.2191 12.4803Z" fill="#AC73BF"/>
<path d="M28.9746 11.9647L29.0502 12.125L32.3719 10.5603L32.2964 10.4L28.9746 11.9647Z" fill="#AC73BF"/>
<path d="M28.8613 11.7225L28.9369 11.8828L32.2586 10.3182L32.183 10.1578L28.8613 11.7225Z" fill="#AC73BF"/>
<path d="M28.7429 11.4724L28.8185 11.6328L32.1402 10.0681L32.0647 9.90781L28.7429 11.4724Z" fill="#AC73BF"/>
<path d="M28.3824 10.7068L28.458 10.8672L31.7797 9.3025L31.7043 9.14219L28.3824 10.7068Z" fill="#AC73BF"/>
<path d="M32.0831 18.5623L32.1586 18.7227L35.4804 17.158L35.4048 16.9977L32.0831 18.5623Z" fill="#AC73BF"/>
<path d="M32.2136 18.8392L32.3886 19.2109L35.7103 17.6463L35.5353 17.2746L32.2136 18.8392Z" fill="#AC73BF"/>
<path d="M31.7312 17.8158L31.9062 18.1875L35.2279 16.6228L35.0529 16.2512L31.7312 17.8158Z" fill="#AC73BF"/>
<path d="M31.1407 16.5619L31.3158 16.9336L34.6375 15.3689L34.4624 14.9973L31.1407 16.5619Z" fill="#AC73BF"/>
<path d="M30.9005 16.0501L31.0755 16.4219L34.3972 14.8572L34.2222 14.4855L30.9005 16.0501Z" fill="#AC73BF"/>
<path d="M30.1796 14.5189L30.3546 14.8906L33.6763 13.3259L33.5013 12.9543L30.1796 14.5189Z" fill="#AC73BF"/>
<path d="M29.946 14.0229L30.1212 14.3945L33.4429 12.83L33.2679 12.4583L29.946 14.0229Z" fill="#AC73BF"/>
<path d="M29.5789 13.2454L29.7539 13.6172L33.0756 12.0525L32.9006 11.6808L29.5789 13.2454Z" fill="#AC73BF"/>
<path d="M29.3472 12.7533L29.5222 13.125L32.8439 11.5604L32.6689 11.1888L29.3472 12.7533Z" fill="#AC73BF"/>
<path d="M28.5078 10.9721L28.6828 11.3438L32.0047 9.77918L31.8295 9.40741L28.5078 10.9721Z" fill="#AC73BF"/>
<path d="M28.1499 10.2103L28.3249 10.582L31.6466 9.01735L31.4716 8.64569L28.1499 10.2103Z" fill="#AC73BF"/>
<path d="M32.4641 19.3709L32.5396 19.5312L35.8614 17.9667L35.7858 17.8063L32.4641 19.3709Z" fill="#AC73BF"/>
<path d="M32.6975 19.8661L32.8691 20.2305L36.1908 18.6659L36.0192 18.3015L32.6975 19.8661Z" fill="#AC73BF"/>
<path d="M26.5844 9.68907L26.427 9.76318L26.2668 9.42309L26.4242 9.34899L26.5844 9.68907ZM26.9048 10.3693L26.7475 10.4434L26.5872 10.1033L26.7446 10.0292L26.9048 10.3693ZM27.2252 11.0495L27.0679 11.1237L26.9077 10.7836L27.065 10.7095L27.2252 11.0495ZM27.5456 11.7297L27.3883 11.8038L27.2281 11.4637L27.3854 11.3896L27.5456 11.7297ZM27.866 12.41L27.7087 12.4841L27.5485 12.1439L27.7058 12.0698L27.866 12.41ZM28.1864 13.0902L28.0291 13.1643L27.8689 12.8242L28.0262 12.7501L28.1864 13.0902ZM28.5068 13.7704L28.3495 13.8445L28.1893 13.5044L28.3466 13.4303L28.5068 13.7704ZM28.8272 14.4507L28.6699 14.5248L28.5097 14.1847L28.667 14.1106L28.8272 14.4507ZM29.1477 15.1309L28.9903 15.205L28.8301 14.8649L28.9875 14.7908L29.1477 15.1309ZM29.4681 15.8111L29.3107 15.8853L29.1505 15.5452L29.3079 15.4711L29.4681 15.8111ZM29.7885 16.4913L29.6311 16.5654L29.4709 16.2253L29.6283 16.1512L29.7885 16.4913ZM30.1089 17.1716L29.9515 17.2457L29.7913 16.9055L29.9487 16.8314L30.1089 17.1716ZM30.4293 17.8518L30.2719 17.9259L30.1117 17.5858L30.2691 17.5117L30.4293 17.8518ZM30.7497 18.5321L30.5923 18.6061L30.4321 18.266L30.5895 18.1919L30.7497 18.5321ZM31.0701 19.2123L30.9127 19.2864L30.7525 18.9463L30.9099 18.8722L31.0701 19.2123ZM31.3905 19.8925L31.2331 19.9666L31.0729 19.6265L31.2303 19.5524L31.3905 19.8925ZM31.7109 20.5727L31.5535 20.6468L31.3933 20.3068L31.5507 20.2327L31.7109 20.5727ZM32.0313 21.2529L31.8739 21.327L31.7137 20.9869L31.8711 20.9128L32.0313 21.2529ZM32.3517 21.9332L32.1943 22.0073L32.0341 21.6671L32.1915 21.5931L32.3517 21.9332ZM32.6721 22.6134L32.5147 22.6875L32.3545 22.3474L32.5119 22.2733L32.6721 22.6134Z" fill="#AC73BF"/>
<path d="M15.3606 22.7123C16.4463 25.0174 15.4579 27.7663 13.1528 28.852C10.8476 29.9378 8.09875 28.9493 7.01309 26.6442C5.92728 24.3391 6.91579 21.5902 9.22084 20.5045C11.526 19.4187 14.2748 20.4072 15.3606 22.7123Z" fill="#1F222A"/>
<path d="M15.1329 17.5547L25.0743 12.8722L15.1329 17.5547Z" fill="#D6B9DF"/>
<path d="M25.176 13.0866L15.2348 17.7691C15.1236 17.8215 14.9878 17.7672 14.9317 17.6478C14.8754 17.5285 14.92 17.3893 15.0311 17.3369L24.9725 12.6544C25.0837 12.602 25.2193 12.6563 25.2756 12.7757C25.3318 12.8951 25.2872 13.0342 25.176 13.0866Z" fill="#D6B9DF"/>
<path d="M16.4706 20.4453L25.4392 16.2209L16.4706 20.4453Z" fill="#D6B9DF"/>
<path d="M25.541 16.4351L16.5724 20.6594C16.472 20.7067 16.3452 20.6482 16.2889 20.5288C16.2327 20.4095 16.2685 20.2744 16.3688 20.2272L25.3373 16.0028C25.4377 15.9555 25.5646 16.014 25.6208 16.1333C25.6771 16.2527 25.6413 16.3878 25.541 16.4351Z" fill="#D6B9DF"/>
<path d="M17.8596 23.3125L28.3926 18.3512L17.8596 23.3125Z" fill="#D6B9DF"/>
<path d="M28.4944 18.5673L17.9615 23.5285C17.8436 23.584 17.7025 23.5322 17.6463 23.4129C17.59 23.2935 17.64 23.1517 17.7578 23.0963L28.2908 18.135C28.4085 18.0796 28.5496 18.1313 28.6058 18.2506C28.6621 18.37 28.6122 18.5118 28.4944 18.5673Z" fill="#D6B9DF"/>
<path d="M19.2017 26.1992L28.9777 21.5944L19.2017 26.1992Z" fill="#D6B9DF"/>
<path d="M29.0795 21.8134L19.3034 26.4182C19.1941 26.4697 19.0598 26.4147 19.0036 26.2953C18.9473 26.176 18.9904 26.0374 19.0998 25.9859L28.8759 21.3812C28.9853 21.3296 29.1195 21.3847 29.1757 21.5041C29.2319 21.6234 29.1888 21.7619 29.0795 21.8134Z" fill="#D6B9DF"/>
<g clip-path="url(#clip0_239_27337)">
<path d="M11.0629 22.9919L11.352 23.15L11.5102 23.4392C11.5191 23.4554 11.536 23.4654 11.5545 23.4654C11.573 23.4654 11.5899 23.4554 11.5988 23.4392L11.757 23.15L12.0461 22.9919C12.0623 22.983 12.0724 22.966 12.0724 22.9476C12.0724 22.9291 12.0623 22.9121 12.0461 22.9033L11.757 22.7451L11.5988 22.456C11.5899 22.4398 11.573 22.4297 11.5545 22.4297C11.536 22.4297 11.5191 22.4398 11.5102 22.456L11.352 22.7451L11.0629 22.9033C11.0467 22.9121 11.0366 22.9291 11.0366 22.9476C11.0366 22.966 11.0467 22.983 11.0629 22.9919Z" fill="#55E7C0"/>
<path d="M10.85 23.6817C10.9261 23.6817 10.9877 23.62 10.9877 23.544C10.9877 23.4679 10.9261 23.4062 10.85 23.4062C10.7739 23.4062 10.7123 23.4679 10.7123 23.544C10.7123 23.62 10.7739 23.6817 10.85 23.6817Z" fill="#55E7C0"/>
<path d="M12.1747 25.1575C12.121 25.2113 12.121 25.2985 12.1747 25.3523C12.2285 25.4061 12.3157 25.4061 12.3695 25.3523C12.4233 25.2985 12.4233 25.2113 12.3695 25.1575C12.3157 25.1037 12.2285 25.1037 12.1747 25.1575Z" fill="#0EC696"/>
<path d="M12.2241 23.7403C12.3002 23.7403 12.3619 23.6786 12.3619 23.6026C12.3619 23.5265 12.3002 23.4648 12.2241 23.4648C12.1481 23.4648 12.0864 23.5265 12.0864 23.6026C12.0864 23.6786 12.1481 23.7403 12.2241 23.7403Z" fill="#0EC696"/>
<path d="M10.033 23.1942C10.0483 23.1996 10.0638 23.2022 10.0792 23.2022C10.1358 23.2022 10.1889 23.167 10.2089 23.1105L10.3537 22.7034C10.3791 22.6318 10.3417 22.553 10.27 22.5275C10.1984 22.502 10.1196 22.5395 10.0942 22.6112L9.9494 23.0183C9.92392 23.0899 9.96136 23.1687 10.033 23.1942Z" fill="#55E7C0"/>
<path d="M13.1679 23.723C13.0941 23.7044 13.0193 23.7491 13.0007 23.8228L12.9053 24.201C12.8298 24.1552 12.7572 24.1044 12.6885 24.0492C12.6338 24.0054 12.5598 23.9951 12.4953 24.0225C12.4309 24.0498 12.387 24.11 12.3805 24.1797C12.3706 24.2871 12.3628 24.3957 12.3572 24.504C12.2838 24.4665 12.2108 24.4263 12.1394 24.3869C12.0867 24.3579 12.0323 24.3279 11.978 24.2991C11.919 24.2679 11.8495 24.2696 11.7921 24.3039C11.7347 24.3381 11.7 24.3985 11.6995 24.4653C11.6984 24.5895 11.6983 24.7155 11.6991 24.8399C11.6996 24.9157 11.7612 24.9768 11.8368 24.9768H11.8377C11.9138 24.9763 11.9751 24.9142 11.9746 24.8382C11.9741 24.7626 11.9739 24.6864 11.9741 24.6103C11.985 24.6163 11.9958 24.6223 12.0065 24.6282C12.1195 24.6905 12.2364 24.7549 12.3578 24.8106C12.4157 24.8372 12.4827 24.8331 12.5369 24.7996C12.591 24.7662 12.6246 24.7084 12.6268 24.6449C12.6301 24.5497 12.6353 24.4538 12.6422 24.3583C12.716 24.4096 12.793 24.4567 12.8721 24.4989C12.918 24.5234 12.9696 24.5277 13.0173 24.511C13.0706 24.4924 13.1141 24.4493 13.1399 24.3897C13.1429 24.3829 13.1453 24.3758 13.1471 24.3686L13.2678 23.8902C13.2863 23.8164 13.2416 23.7415 13.1679 23.723Z" fill="#55E7C0"/>
<path d="M12.854 23.1781C13.0834 23.1781 13.2693 22.9922 13.2693 22.7629C13.2693 22.5336 13.0834 22.3477 12.854 22.3477C12.6247 22.3477 12.4388 22.5336 12.4388 22.7629C12.4388 22.9922 12.6247 23.1781 12.854 23.1781Z" fill="#0FB78B"/>
<path d="M11.1386 24.2055C11.1552 24.2055 11.1721 24.2025 11.1885 24.1961L11.5912 24.0396C11.6621 24.012 11.6972 23.9322 11.6697 23.8613C11.6421 23.7904 11.5623 23.7553 11.4914 23.7828L11.0887 23.9394C11.0178 23.9669 10.9827 24.0467 11.0102 24.1176C11.0314 24.1721 11.0835 24.2055 11.1386 24.2055Z" fill="#0EC696"/>
<path d="M9 25.9495L10.0685 26.4413L10.7532 26.1417L9.24547 25.3906L9 25.9495Z" fill="#0EC696"/>
<path d="M9.35938 25.1303L11.0102 25.9526L9.61223 24.5547L9.35938 25.1303Z" fill="#0EC696"/>
<path d="M10.0624 23.7419C10.0026 23.6822 9.92435 23.6523 9.84607 23.6523C9.76778 23.6523 9.68949 23.6822 9.62976 23.7419C9.51029 23.8614 9.51029 24.0551 9.62976 24.1746L11.4704 26.0152C11.5302 26.075 11.6084 26.1048 11.6867 26.1048C11.765 26.1048 11.8433 26.075 11.903 26.0152C12.0225 25.8958 12.0225 25.7021 11.903 25.5826L10.0624 23.7419Z" fill="#0EC696"/>
<path d="M8.57633 26.9167C8.54147 26.9961 8.62222 27.0769 8.70164 27.0422L9.72198 26.5956L8.88632 26.2109L8.57633 26.9167Z" fill="#0EC696"/>
</g>
<defs>
<clipPath id="clip0_239_27337">
<rect width="4.704" height="4.704" fill="white" transform="translate(8.56799 22.3438)"/>
</clipPath>
</defs>
</svg>
