<svg width="20" height="20" viewBox="0 0 20 20" fill="none" xmlns="http://www.w3.org/2000/svg">
<path d="M9.99996 1.66675C8.7217 1.66669 7.46055 1.9607 6.31409 2.52602C5.16764 3.09135 4.1666 3.91284 3.38842 4.92694C2.61024 5.94103 2.07578 7.12056 1.8264 8.37426C1.57701 9.62796 1.61938 10.9222 1.95022 12.1569C2.28106 13.3916 2.89151 14.5337 3.73435 15.4947C4.57718 16.4558 5.6298 17.21 6.81077 17.6992C7.99175 18.1883 9.26942 18.3992 10.5449 18.3156C11.8205 18.2319 13.0597 17.8559 14.1666 17.2167C14.2662 17.1647 14.3542 17.093 14.4254 17.006C14.4966 16.919 14.5494 16.8185 14.5807 16.7105C14.612 16.6026 14.6212 16.4894 14.6076 16.3779C14.5941 16.2663 14.5581 16.1586 14.5018 16.0613C14.4456 15.964 14.3702 15.8791 14.2803 15.8117C14.1904 15.7442 14.0878 15.6957 13.9786 15.6689C13.8695 15.6422 13.756 15.6378 13.6451 15.6561C13.5342 15.6743 13.4281 15.7148 13.3333 15.7751C12.0624 16.5088 10.5849 16.8027 9.12997 16.6112C7.67502 16.4197 6.32392 15.7535 5.28618 14.7159C4.24844 13.6783 3.58207 12.3272 3.3904 10.8723C3.19873 9.41738 3.49248 7.93987 4.22608 6.66889C4.95969 5.39792 6.09216 4.40452 7.44787 3.84274C8.80358 3.28096 10.3068 3.18221 11.7243 3.56178C13.1419 3.94136 14.3946 4.77806 15.2882 5.94213C16.1818 7.1062 16.6663 8.53258 16.6666 10.0001V10.6251C16.6666 11.0119 16.513 11.3828 16.2395 11.6563C15.966 11.9298 15.5951 12.0834 15.2083 12.0834C14.8215 12.0834 14.4506 11.9298 14.1771 11.6563C13.9036 11.3828 13.75 11.0119 13.75 10.6251V7.08342C13.75 6.8624 13.6622 6.65044 13.5059 6.49416C13.3496 6.33788 13.1376 6.25008 12.9166 6.25008C12.7228 6.24577 12.5336 6.30915 12.3815 6.42931C12.2294 6.54947 12.124 6.71889 12.0833 6.90842C11.4707 6.48473 10.7448 6.25533 9.99996 6.25008C9.3726 6.24258 8.75338 6.3926 8.19902 6.68641C7.64466 6.98022 7.17288 7.40843 6.82688 7.9318C6.48089 8.45518 6.27174 9.05701 6.21859 9.68216C6.16545 10.3073 6.27 10.9358 6.52268 11.5101C6.77536 12.0844 7.16809 12.5861 7.6649 12.9692C8.16171 13.3524 8.74672 13.6048 9.36634 13.7033C9.98597 13.8018 10.6204 13.7433 11.2115 13.5331C11.8027 13.3229 12.3316 12.9677 12.75 12.5001C13.1459 13.0128 13.6918 13.3895 14.3117 13.5776C14.9317 13.7657 15.5948 13.756 16.209 13.5497C16.8231 13.3435 17.3577 12.951 17.7384 12.4268C18.1192 11.9027 18.3271 11.2729 18.3333 10.6251V10.0001C18.3333 8.90573 18.1177 7.8221 17.699 6.81105C17.2802 5.80001 16.6663 4.88135 15.8925 4.10753C15.1187 3.3337 14.2 2.71987 13.189 2.30109C12.1779 1.8823 11.0943 1.66675 9.99996 1.66675V1.66675ZM9.99996 12.0834C9.58792 12.0834 9.18512 11.9612 8.84252 11.7323C8.49992 11.5034 8.23289 11.178 8.07521 10.7973C7.91753 10.4167 7.87627 9.99777 7.95666 9.59364C8.03704 9.18952 8.23546 8.8183 8.52682 8.52694C8.81818 8.23558 9.18939 8.03717 9.59352 7.95678C9.99765 7.87639 10.4165 7.91765 10.7972 8.07533C11.1779 8.23302 11.5033 8.50004 11.7322 8.84264C11.9611 9.18525 12.0833 9.58804 12.0833 10.0001C12.0833 10.5526 11.8638 11.0825 11.4731 11.4732C11.0824 11.8639 10.5525 12.0834 9.99996 12.0834V12.0834Z" fill="#9E9E9E"/>
</svg>
