<svg width="236" height="160" viewBox="0 0 236 160" fill="none" xmlns="http://www.w3.org/2000/svg">
<g clip-path="url(#clip0_1828_13016)">
<path d="M117.998 159.826C169.36 159.826 213.723 133.275 234.599 94.8086C213.723 56.337 169.361 29.7876 117.998 29.7876C66.6346 29.7876 22.2819 56.337 1.40112 94.8074C22.2819 133.274 66.6405 159.825 117.998 159.825V159.826Z" fill="white"/>
<path d="M118.004 31.1953C105.371 31.1917 92.9417 32.8245 81.1724 35.9517C69.3994 39.073 58.2878 43.6793 48.2197 49.4798C38.148 55.2767 29.1211 62.2653 21.4261 70.0621C17.578 73.96 14.0605 78.0572 10.896 82.2987C10.5067 82.8336 10.1186 83.3673 9.73172 83.8999C9.34831 84.4359 8.94615 84.9556 8.58972 85.5057C7.86395 86.5966 7.1159 87.6663 6.4171 88.7607C5.73589 89.8657 5.04295 90.9565 4.37815 92.0568C3.85171 92.9788 3.32643 93.8961 2.80468 94.8086C3.32878 95.7412 3.85053 96.6678 4.36995 97.591C5.02654 98.69 5.70189 99.7704 6.362 100.853C7.03617 101.926 7.75374 102.963 8.44198 104.011C8.78083 104.537 9.14899 105.043 9.51363 105.549C9.8771 106.055 10.2406 106.56 10.6017 107.064C13.5329 111.065 16.6576 114.785 19.8995 118.231C20.7238 119.079 21.5187 119.946 22.3512 120.764C23.1883 121.58 24.0196 122.389 24.845 123.194C26.544 124.753 28.2148 126.297 29.9453 127.728C33.3796 130.615 36.8442 133.279 40.3558 135.638C43.8557 138.012 47.3391 140.177 50.8156 142.069C52.5321 143.055 54.2791 143.909 55.9722 144.787C56.821 145.222 57.6852 145.607 58.5282 146.013C59.377 146.406 60.2036 146.827 61.0514 147.179C67.7603 150.161 74.1515 152.385 80.0245 154.044C91.788 157.355 101.395 158.504 107.927 159.096C111.202 159.352 113.721 159.523 115.421 159.59C117.121 159.681 118 159.759 118 159.824C118 159.888 117.121 159.939 115.415 159.974C113.708 160.034 111.177 159.984 107.877 159.847C101.295 159.489 91.5875 158.562 79.6481 155.422C73.6884 153.845 67.1905 151.693 60.3572 148.761C59.4943 148.415 58.6513 148 57.786 147.613C56.9266 147.212 56.0472 146.833 55.1819 146.402C53.4548 145.533 51.6738 144.688 49.9221 143.709C46.3754 141.831 42.8169 139.672 39.2385 137.295C35.6495 134.935 32.1027 132.262 28.5841 129.357C26.8125 127.916 25.0983 126.36 23.356 124.787C22.5083 123.975 21.6559 123.156 20.7964 122.334C19.9417 121.507 19.1245 120.631 18.278 119.772C14.9481 116.287 11.7343 112.517 8.71517 108.453C8.34232 107.941 7.9683 107.429 7.59428 106.914C7.21908 106.4 6.8392 105.886 6.4898 105.35C5.78044 104.285 5.04061 103.231 4.34532 102.139C3.66411 101.037 2.96765 99.9369 2.28996 98.8179C1.53136 97.4877 0.768074 96.1517 0.00244141 94.8075C0.751659 93.4808 1.50322 92.1471 2.25947 90.8064C2.93248 89.6768 3.63363 88.5566 4.32539 87.4235C5.03474 86.301 5.79217 85.2031 6.52966 84.084C6.89196 83.5198 7.29998 82.9861 7.68925 82.4372C8.08203 81.8905 8.47599 81.3428 8.87111 80.7938C12.0837 76.442 15.6598 72.238 19.5747 68.2393C27.4034 60.2396 36.598 53.0703 46.8631 47.1256C57.1247 41.1762 68.4532 36.4538 80.4571 33.2538C92.4587 30.0481 105.132 28.3742 118.006 28.3789C130.879 28.3754 143.551 30.0492 155.552 33.255C167.556 36.4549 178.885 41.1785 189.145 47.1268C199.409 53.0714 208.604 60.2407 216.432 68.2393C220.347 72.238 223.923 76.442 227.136 80.7938C227.531 81.3428 227.925 81.8905 228.318 82.4372C228.706 82.9861 229.115 83.5198 229.478 84.084C230.214 85.2031 230.971 86.3021 231.681 87.4235C232.372 88.5566 233.074 89.6768 233.747 90.8064C234.503 92.1471 235.254 93.4808 236.004 94.8075C235.237 96.1517 234.475 97.4877 233.716 98.8179C233.038 99.9369 232.342 101.037 231.661 102.139C230.965 103.231 230.226 104.285 229.516 105.35C229.166 105.886 228.787 106.4 228.412 106.914C228.037 107.429 227.663 107.941 227.29 108.453C224.271 112.517 221.057 116.287 217.727 119.772C216.882 120.631 216.064 121.507 215.208 122.334C214.35 123.157 213.497 123.975 212.65 124.787C210.908 126.36 209.194 127.916 207.422 129.357C203.903 132.262 200.357 134.935 196.766 137.295C193.188 139.671 189.628 141.83 186.082 143.709C184.33 144.688 182.549 145.533 180.822 146.402C179.956 146.832 179.076 147.212 178.217 147.612C177.351 148 176.508 148.414 175.646 148.76C168.813 151.691 162.315 153.844 156.354 155.42C144.415 158.56 134.707 159.488 128.124 159.845C124.825 159.983 122.294 160.031 120.587 159.972C118.881 159.936 118 159.886 118 159.821C118 159.757 118.879 159.678 120.58 159.588C122.28 159.521 124.798 159.35 128.073 159.094C134.606 158.501 144.213 157.352 155.977 154.042C161.85 152.382 168.242 150.158 174.951 147.177C175.799 146.824 176.625 146.404 177.474 146.011C178.317 145.605 179.181 145.22 180.03 144.785C181.723 143.906 183.47 143.052 185.188 142.067C188.665 140.175 192.149 138.01 195.649 135.636C199.161 133.277 202.625 130.613 206.06 127.726C207.789 126.295 209.461 124.75 211.16 123.191C211.985 122.387 212.817 121.577 213.654 120.762C214.487 119.943 215.282 119.077 216.107 118.228C219.348 114.782 222.473 111.063 225.404 107.06C225.765 106.557 226.129 106.052 226.492 105.545C226.857 105.039 227.225 104.534 227.565 104.006C228.253 102.957 228.971 101.92 229.645 100.847C230.304 99.7645 230.98 98.6842 231.636 97.5851C232.156 96.6631 232.676 95.7353 233.201 94.8028C232.68 93.8902 232.156 92.9729 231.629 92.0509C230.964 90.9507 230.272 89.8586 229.591 88.7549C228.891 87.6616 228.144 86.5907 227.419 85.4998C227.062 84.9497 226.659 84.4301 226.277 83.894C225.89 83.3615 225.502 82.8278 225.112 82.2929C221.949 78.0514 218.432 73.9541 214.583 70.0563C206.89 62.2594 197.863 55.2708 187.791 49.4739C177.723 43.6735 166.611 39.0672 154.84 35.9459C143.07 32.8187 130.642 31.1847 118.009 31.187L118.004 31.1953Z" fill="#79408C"/>
<path d="M178.004 86.6191C178.004 118.848 151.14 145.003 117.998 145.003C84.8552 145.003 57.9971 118.848 57.9971 86.6191C57.9971 54.3901 84.8552 28.2407 117.998 28.2407C151.14 28.2407 178.004 54.3608 178.004 86.6191Z" fill="#0EC696"/>
<path d="M163.02 102.337C159.771 101.038 155.26 99.305 150.256 97.447C149.807 97.2804 149.363 97.1162 148.922 96.9532C150.061 93.7298 150.682 90.273 150.688 86.6755C151.194 86.6802 151.706 86.6837 152.223 86.6872C157.56 86.7212 162.392 86.6966 165.89 86.6309C169.388 86.5652 171.552 86.4573 171.553 86.3247C171.553 86.191 169.391 86.0561 165.895 85.947C162.397 85.838 157.567 85.7535 152.23 85.7195C151.706 85.716 151.188 85.7136 150.675 85.7113C150.572 82.1477 149.867 78.732 148.656 75.5556C149.23 75.3526 149.811 75.145 150.398 74.9351C155.425 73.1404 159.957 71.4642 163.223 70.2056C166.487 68.947 168.485 68.1059 168.439 67.9804C168.395 67.8537 166.316 68.4672 162.992 69.5616C159.668 70.6548 155.099 72.229 150.072 74.0236C149.473 74.2371 148.881 74.4494 148.297 74.6606C145.546 68.0696 140.593 62.5812 134.322 59.0599C134.78 58.2857 135.245 57.4951 135.716 56.6881C138.414 52.0806 140.81 47.8825 142.502 44.8186C144.193 41.7548 145.183 39.8264 145.068 39.7584C144.952 39.6903 143.755 41.4967 141.912 44.4726C140.069 47.4473 137.579 51.5915 134.882 56.1989C134.403 57.0153 133.935 57.8177 133.479 58.6036C130.582 57.0857 127.421 55.9819 124.081 55.3708C124.261 54.4019 124.445 53.4072 124.63 52.3949C125.591 47.1423 126.406 42.3776 126.95 38.9197C127.493 35.4617 127.762 33.3116 127.631 33.287C127.5 33.2635 126.991 35.3702 126.275 38.7965C125.56 42.2228 124.639 46.9687 123.678 52.2202C123.492 53.2372 123.313 54.2365 123.138 55.2113C121.464 54.9544 119.747 54.8195 117.999 54.8195C116.386 54.8195 114.799 54.9356 113.248 55.155C113.086 54.1767 112.917 53.175 112.745 52.1533C111.852 46.889 110.989 42.1325 110.317 38.698C109.645 35.2623 109.163 33.1498 109.032 33.172C108.9 33.1943 109.143 35.3479 109.643 38.8129C110.142 42.2779 110.898 47.052 111.792 52.3164C111.964 53.3322 112.135 54.3292 112.304 55.3016C108.957 55.874 105.785 56.9414 102.872 58.4241C102.424 57.6288 101.964 56.8183 101.494 55.9925C98.8546 51.3522 96.417 47.1763 94.6114 44.1794C92.8058 41.1812 91.6309 39.3607 91.5137 39.4264C91.3976 39.4933 92.3626 41.4334 94.0158 44.5183C95.6701 47.6033 98.0128 51.8307 100.652 56.4722C101.116 57.2886 101.574 58.0886 102.023 58.8722C99.041 60.5003 96.3478 62.5694 94.038 64.9905C93.4471 64.4849 92.8456 63.9711 92.2336 63.4503C88.1662 59.9924 84.4495 56.9027 81.7281 54.7046C79.0056 52.5052 77.2797 51.1962 77.193 51.2982C77.1062 51.4003 78.6761 52.8935 81.2849 55.2265C83.8937 57.5596 87.5401 60.7314 91.6075 64.1893C92.209 64.7007 92.8011 65.2028 93.385 65.6966C91.1021 68.2361 89.2262 71.1334 87.8602 74.2899C87.2751 74.0706 86.6819 73.85 86.0816 73.6272C81.0774 71.7692 76.5282 70.1387 73.2194 69.0033C69.9095 67.8678 67.8389 67.2285 67.7931 67.354C67.7462 67.4796 69.7324 68.3452 72.9814 69.6449C76.2303 70.9445 80.7409 72.6771 85.7451 74.5351C86.3348 74.7532 86.9175 74.9691 87.4932 75.1814C86.241 78.3426 85.4918 81.7489 85.3429 85.3054C84.827 85.3007 84.3064 85.2972 83.78 85.2937C78.4428 85.2597 73.611 85.2831 70.1123 85.3488C66.6136 85.4145 64.4504 85.5224 64.4492 85.6561C64.4492 85.7899 66.6113 85.9248 70.1076 86.0338C73.6052 86.1429 78.437 86.2274 83.7741 86.2614C84.2947 86.2649 84.8082 86.2673 85.3183 86.2696C85.3171 86.3881 85.3136 86.5054 85.3136 86.6239C85.3136 90.0959 85.8881 93.4389 86.9457 96.5673C86.5025 96.7244 86.0558 96.884 85.6055 97.0447C80.5779 98.8393 76.0463 100.516 72.7809 101.774C69.5167 103.033 67.52 103.874 67.5645 104C67.6091 104.126 69.6879 103.513 73.0107 102.419C76.3347 101.326 80.9039 99.7519 85.9303 97.9572C86.3805 97.7965 86.8261 97.637 87.2681 97.4787C88.4992 100.777 90.2767 103.821 92.4927 106.509C92.1105 106.825 91.7271 107.142 91.3378 107.464C87.2271 110.871 83.5408 113.997 80.9039 116.297C78.2658 118.597 76.6771 120.07 76.7627 120.174C76.8482 120.277 78.5906 118.989 81.34 116.824C84.0895 114.658 87.845 111.617 91.9545 108.21C92.3461 107.885 92.7331 107.564 93.1165 107.245C95.3969 109.848 98.0995 112.089 101.123 113.866C100.847 114.337 100.568 114.812 100.286 115.293C97.5883 119.9 95.1929 124.098 93.501 127.162C91.8091 130.226 90.8196 132.154 90.9356 132.223C91.0505 132.291 92.2488 130.484 94.092 127.508C95.9351 124.534 98.4243 120.389 101.122 115.782C101.406 115.296 101.686 114.818 101.963 114.342C104.947 115.98 108.222 117.175 111.693 117.836C111.587 118.413 111.48 118.996 111.371 119.586C110.411 124.839 109.595 129.603 109.052 133.061C108.509 136.519 108.239 138.67 108.37 138.694C108.502 138.719 109.009 136.611 109.725 133.184C110.44 129.758 111.361 125.012 112.322 119.76C112.43 119.166 112.536 118.581 112.641 118.001C114.384 118.282 116.173 118.429 117.998 118.429C119.684 118.429 121.339 118.305 122.956 118.066C123.054 118.648 123.152 119.235 123.254 119.83C124.147 125.094 125.01 129.851 125.682 133.285C126.354 136.721 126.836 138.833 126.967 138.811C127.099 138.789 126.856 136.635 126.356 133.17C125.857 129.705 125.101 124.931 124.207 119.667C124.106 119.075 124.007 118.488 123.906 117.91C127.387 117.29 130.676 116.136 133.679 114.535C133.951 115.016 134.225 115.5 134.504 115.991C137.143 120.631 139.58 124.806 141.386 127.804C143.192 130.802 144.367 132.624 144.483 132.557C144.599 132.491 143.634 130.55 141.981 127.465C140.327 124.38 137.984 120.152 135.345 115.511C135.068 115.023 134.794 114.543 134.522 114.067C137.568 112.326 140.298 110.121 142.609 107.549C142.99 107.875 143.375 108.202 143.764 108.533C147.83 111.991 151.548 115.079 154.27 117.279C156.991 119.478 158.718 120.788 158.805 120.686C158.892 120.584 157.322 119.09 154.713 116.758C152.104 114.425 148.458 111.253 144.39 107.795C144.005 107.467 143.624 107.143 143.244 106.823C145.495 104.162 147.309 101.141 148.582 97.8611C149.023 98.0253 149.467 98.1907 149.916 98.3572C154.92 100.215 159.469 101.846 162.778 102.981C166.088 104.117 168.158 104.756 168.205 104.63C168.252 104.505 166.265 103.638 163.016 102.338L163.02 102.337Z" fill="#1F222A"/>
<path d="M118.004 31.1953C105.371 31.1917 92.9417 32.8245 81.1724 35.9517C69.3994 39.073 58.2878 43.6793 48.2197 49.4798C38.148 55.2767 29.1211 62.2653 21.4261 70.0621C17.578 73.96 14.0605 78.0572 10.896 82.2987C10.5067 82.8336 10.1186 83.3673 9.73172 83.8999C9.34831 84.4359 8.94615 84.9556 8.58972 85.5057C7.86395 86.5966 7.1159 87.6663 6.4171 88.7607C5.73589 89.8657 5.04295 90.9565 4.37815 92.0568C3.85171 92.9788 3.32643 93.8961 2.80468 94.8086C3.32878 95.7412 3.85053 96.6678 4.36995 97.591C5.02654 98.69 5.70189 99.7704 6.362 100.853C7.03617 101.926 7.75374 102.963 8.44198 104.011C8.78083 104.537 9.14899 105.043 9.51363 105.549C9.8771 106.055 10.2406 106.56 10.6017 107.064C13.5329 111.065 16.6576 114.785 19.8995 118.231C20.7238 119.079 21.5187 119.946 22.3512 120.764C23.1883 121.58 24.0196 122.389 24.845 123.194C26.544 124.753 28.2148 126.297 29.9453 127.728C33.3796 130.615 36.8442 133.279 40.3558 135.638C43.8557 138.012 47.3391 140.177 50.8156 142.069C52.5321 143.055 54.2791 143.909 55.9722 144.787C56.821 145.222 57.6852 145.607 58.5282 146.013C59.377 146.406 60.2036 146.827 61.0514 147.179C67.7603 150.161 74.1515 152.385 80.0245 154.044C91.788 157.355 101.395 158.504 107.927 159.096C111.202 159.352 113.721 159.523 115.421 159.59C117.121 159.681 118 159.759 118 159.824C118 159.888 117.121 159.939 115.415 159.974C113.708 160.034 111.177 159.984 107.877 159.847C101.295 159.489 91.5875 158.562 79.6481 155.422C73.6884 153.845 67.1905 151.693 60.3572 148.761C59.4943 148.415 58.6513 148 57.786 147.613C56.9266 147.212 56.0472 146.833 55.1819 146.402C53.4548 145.533 51.6738 144.688 49.9221 143.709C46.3754 141.831 42.8169 139.672 39.2385 137.295C35.6495 134.935 32.1027 132.262 28.5841 129.357C26.8125 127.916 25.0983 126.36 23.356 124.787C22.5083 123.975 21.6559 123.156 20.7964 122.334C19.9417 121.507 19.1245 120.631 18.278 119.772C14.9481 116.287 11.7343 112.517 8.71517 108.453C8.34232 107.941 7.9683 107.429 7.59428 106.914C7.21908 106.4 6.8392 105.886 6.4898 105.35C5.78044 104.285 5.04061 103.231 4.34532 102.139C3.66411 101.037 2.96765 99.9369 2.28996 98.8179C1.53136 97.4877 0.768074 96.1517 0.00244141 94.8075C0.751659 93.4808 1.50322 92.1471 2.25947 90.8064C2.93248 89.6768 3.63363 88.5566 4.32539 87.4235C5.03474 86.301 5.79217 85.2031 6.52966 84.084C6.89196 83.5198 7.29998 82.9861 7.68925 82.4372C8.08203 81.8905 8.47599 81.3428 8.87111 80.7938C12.0837 76.442 15.6598 72.238 19.5747 68.2393C27.4034 60.2396 36.598 53.0703 46.8631 47.1256C57.1247 41.1762 68.4532 36.4538 80.4571 33.2538C92.4587 30.0481 105.132 28.3742 118.006 28.3789C130.879 28.3754 143.551 30.0492 155.552 33.255C167.556 36.4549 178.885 41.1785 189.145 47.1268C199.409 53.0714 208.604 60.2407 216.432 68.2393C220.347 72.238 223.923 76.442 227.136 80.7938C227.531 81.3428 227.925 81.8905 228.318 82.4372C228.706 82.9861 229.115 83.5198 229.478 84.084C230.214 85.2031 230.971 86.3021 231.681 87.4235C232.372 88.5566 233.074 89.6768 233.747 90.8064C234.503 92.1471 235.254 93.4808 236.004 94.8075C235.237 96.1517 234.475 97.4877 233.716 98.8179C233.038 99.9369 232.342 101.037 231.661 102.139C230.965 103.231 230.226 104.285 229.516 105.35C229.166 105.886 228.787 106.4 228.412 106.914C228.037 107.429 227.663 107.941 227.29 108.453C224.271 112.517 221.057 116.287 217.727 119.772C216.882 120.631 216.064 121.507 215.208 122.334C214.35 123.157 213.497 123.975 212.65 124.787C210.908 126.36 209.194 127.916 207.422 129.357C203.903 132.262 200.357 134.935 196.766 137.295C193.188 139.671 189.628 141.83 186.082 143.709C184.33 144.688 182.549 145.533 180.822 146.402C179.956 146.832 179.076 147.212 178.217 147.612C177.351 148 176.508 148.414 175.646 148.76C168.813 151.691 162.315 153.844 156.354 155.42C144.415 158.56 134.707 159.488 128.124 159.845C124.825 159.983 122.294 160.031 120.587 159.972C118.881 159.936 118 159.886 118 159.821C118 159.757 118.879 159.678 120.58 159.588C122.28 159.521 124.798 159.35 128.073 159.094C134.606 158.501 144.213 157.352 155.977 154.042C161.85 152.382 168.242 150.158 174.951 147.177C175.799 146.824 176.625 146.404 177.474 146.011C178.317 145.605 179.181 145.22 180.03 144.785C181.723 143.906 183.47 143.052 185.188 142.067C188.665 140.175 192.149 138.01 195.649 135.636C199.161 133.277 202.625 130.613 206.06 127.726C207.789 126.295 209.461 124.75 211.16 123.191C211.985 122.387 212.817 121.577 213.654 120.762C214.487 119.943 215.282 119.077 216.107 118.228C219.348 114.782 222.473 111.063 225.404 107.06C225.765 106.557 226.129 106.052 226.492 105.545C226.857 105.039 227.225 104.534 227.565 104.006C228.253 102.957 228.971 101.92 229.645 100.847C230.304 99.7645 230.98 98.6842 231.636 97.5851C232.156 96.6631 232.676 95.7353 233.201 94.8028C232.68 93.8902 232.156 92.9729 231.629 92.0509C230.964 90.9507 230.272 89.8586 229.591 88.7549C228.891 87.6616 228.144 86.5907 227.419 85.4998C227.062 84.9497 226.659 84.4301 226.277 83.894C225.89 83.3615 225.502 82.8278 225.112 82.2929C221.949 78.0514 218.432 73.9541 214.583 70.0563C206.89 62.2594 197.863 55.2708 187.791 49.4739C177.723 43.6735 166.611 39.0672 154.84 35.9459C143.07 32.8187 130.642 31.1847 118.009 31.187L118.004 31.1953Z" fill="#79408C"/>
<path d="M119.408 26.227C119.408 26.227 109.149 24.3432 103.325 32.8262C100.041 37.6108 99.545 45.5907 100.754 49.4932C101.963 53.3957 113.896 54.7939 116.299 55.1916C117.629 55.4121 116.079 57.3463 119.403 57.9445C122.727 58.5451 130.97 54.2966 132.482 48.5923C133.994 42.8881 137.538 27.427 119.408 26.227Z" fill="#D6A99D"/>
<path d="M166.459 78.5359C166.166 77.0638 165.687 75.6152 165.161 74.1571C164.57 72.488 163.858 70.7977 163.059 69.1473C162.856 68.7368 162.658 68.3227 162.44 67.9145L162.357 67.762L162.309 67.6647L162.22 67.4817C162.161 67.362 162.101 67.2436 162.04 67.1263C161.798 66.6547 161.548 66.2113 161.28 65.7996C160.198 64.1387 158.678 63.1616 157.71 61.8396C156.399 60.059 155.664 58.018 154.59 56.6351C153.492 55.2216 152.493 54.8733 151.428 53.3566C150.48 52.0018 149.942 51.0763 149.429 50.179C149.183 49.7461 148.937 49.3133 148.661 48.8253C148.398 48.3632 148.113 47.8647 147.843 47.372L134.278 54.9507C134.547 55.4163 134.976 56.1096 135.535 56.8685C136.093 57.6309 136.78 58.4708 137.571 59.313C138.521 60.3241 139.154 61.9827 140.285 63.3962C141.505 64.9222 143.122 65.9392 144.647 67.8441C145.576 69.0019 146.293 70.8916 147.244 72.1771C147.903 73.0627 149.134 73.4405 149.783 74.407C149.934 74.6346 150.071 74.8691 150.193 75.1049L150.238 75.1941C150.25 75.2199 150.239 75.2105 150.241 75.221L150.236 75.2515C150.234 75.2715 150.226 75.2973 150.219 75.3207C150.185 75.4146 150.113 75.5049 150.026 75.5706C149.859 75.7113 149.623 75.7219 149.658 75.7536C149.678 75.7747 149.92 75.8732 150.145 76.1043C150.375 76.3236 150.526 76.6662 150.458 76.7753C150.393 76.8984 150.257 76.9465 150.127 76.95C149.995 76.9547 149.856 76.9242 149.722 76.8808C149.587 76.8374 149.453 76.7776 149.324 76.7131C149.26 76.6814 149.195 76.6462 149.133 76.6122L149.043 76.5606L149.025 76.55L149.016 76.5453L148.947 76.5102L148.594 76.326C146.702 75.3301 144.702 74.1489 142.598 72.8387C140.492 71.5238 135.325 68.0705 132.98 66.4928C132.752 66.3392 132.59 66.2524 132.465 66.2055C127.973 63.1604 121.627 62.493 116.366 62.3933C112.133 62.473 107.688 63.1252 104.142 65.1885C102.446 65.7328 100.376 67.355 99.1031 68.4095C95.6314 71.281 92.216 73.8205 88.9647 75.858C87.3419 76.8726 85.7567 77.7606 84.2724 78.4526C84.0883 78.5359 83.9042 78.6204 83.7225 78.7025C83.5431 78.7787 83.3637 78.8561 83.1843 78.9324C83.0084 79.0016 82.8349 79.072 82.6602 79.1412C82.4984 79.201 82.3378 79.2608 82.1783 79.3195L82.1009 79.3347L82.047 79.3394C82.0118 79.3417 81.9778 79.3429 81.945 79.3429C81.8207 79.3406 81.7128 79.3136 81.6366 79.2526C81.6108 79.2338 81.5909 79.2127 81.5745 79.1916C81.4983 79.1036 81.4936 78.9781 81.5323 78.8855C81.551 78.8362 81.4537 78.8116 81.3728 78.74C81.2907 78.6743 81.2321 78.5641 81.2849 78.4878C81.2907 78.4749 81.3025 78.4726 81.3095 78.469C81.313 78.4667 81.3165 78.4655 81.3189 78.4632L81.3928 78.3424C81.5041 78.1652 81.6296 77.9881 81.7515 77.8145C81.8793 77.6397 82.0142 77.465 82.1467 77.2937C82.2862 77.1213 82.4257 76.95 82.5652 76.7788C83.1327 76.0961 83.7283 75.4287 84.2302 74.7354C85.2385 73.3431 85.704 71.6786 86.7322 70.4259C88.1228 68.7368 90.0328 67.5708 91.2674 66.1891C92.5407 64.7674 92.7741 63.6706 94.2526 62.1751C95.5833 60.8308 96.5436 59.964 97.5132 59.042C97.9986 58.5799 98.4876 58.106 99.041 57.5242C99.3177 57.2333 99.6132 56.9107 99.9356 56.5424C100.265 56.16 100.616 55.7483 101.048 55.1759L88.5859 45.894C88.4593 46.077 88.1685 46.4805 87.7195 47.0893C87.2751 47.6946 86.6959 48.484 86.051 49.4142C85.276 50.5344 83.7061 51.5056 82.387 52.9883C80.9601 54.5976 80.0526 56.5377 78.193 58.7617C77.0651 60.113 75.0989 61.5839 73.8326 63.28C72.9567 64.4483 72.7914 66.019 71.8909 67.3738C71.0327 68.6664 70.0279 69.8535 69.0184 71.254C68.8894 71.43 68.771 71.5965 68.635 71.8006C68.4497 72.0986 68.2598 72.4082 68.0897 72.7144C67.9186 73.0229 67.7462 73.3337 67.5739 73.6469C67.4027 73.9624 67.2585 74.2909 67.099 74.6181C66.4905 75.9366 65.984 77.3606 65.7319 78.8479C65.5736 79.7711 65.4986 80.8995 65.6052 82.0865C65.7073 83.2736 65.9816 84.5193 66.4682 85.6888C66.9372 86.8641 67.6161 87.9597 68.3665 88.8816C69.1239 89.8024 69.961 90.5273 70.6833 91.0927C71.4008 91.6745 72.2134 92.1507 73.0763 92.593C74.787 93.4176 76.6805 93.8809 78.6949 93.956C79.702 93.983 80.7326 93.9513 81.7797 93.7918C82.3026 93.7331 82.8279 93.6158 83.3543 93.5161C83.6181 93.4657 83.8808 93.3894 84.1446 93.3273C84.4072 93.2592 84.6734 93.2053 84.9348 93.1185C85.4589 92.9566 85.9912 92.8041 86.5013 92.6211L86.887 92.4827L87.2317 92.3537L87.7523 92.1507C88.1029 92.0159 88.4323 91.8704 88.7759 91.7285C89.1077 91.5807 89.4442 91.4329 89.7713 91.2804C91.0833 90.6693 92.3449 90.0042 93.5807 89.2957C94.2795 88.8934 94.969 88.4734 95.6549 88.0441C95.452 89.4517 95.3125 90.7983 95.1108 92.2047C95.0299 92.7689 93.9172 100.44 92.9406 106.961C98.9355 114.023 108.003 118.527 118.152 118.527C127.199 118.527 135.387 114.949 141.304 109.171C141.058 103.069 140.725 95.9524 140.604 95.0492C140.399 93.5138 139.407 91.725 139.166 90.1485C139.003 89.0822 139.282 88.1145 139.376 87.0975C140.052 87.4987 140.732 87.8916 141.418 88.2717C141.644 88.396 141.871 88.5192 142.096 88.6423C142.336 88.7702 142.577 88.8981 142.815 89.0259C143.211 89.2347 143.614 89.4306 144.005 89.6183C144.4 89.806 144.789 90.0065 145.185 90.179C146.76 90.9039 148.342 91.5267 149.885 91.99C151.426 92.4475 152.924 92.7408 154.32 92.8252C154.531 92.8346 154.742 92.844 154.953 92.8534C155.163 92.8592 155.365 92.8498 155.57 92.8487C155.984 92.8534 156.372 92.8006 156.767 92.7724C157.541 92.6727 158.284 92.5191 158.996 92.295C159.708 92.071 160.39 91.7672 161.047 91.3871C161.701 91.0059 162.335 90.5414 162.879 89.9948C163.405 89.5162 163.859 88.9731 164.267 88.4136C164.677 87.8541 165.046 87.2735 165.345 86.6694C165.425 86.5204 165.499 86.3691 165.565 86.2166C165.633 86.0641 165.707 85.914 165.771 85.7603C165.89 85.4507 166.018 85.1457 166.112 84.8313C166.323 84.2085 166.474 83.575 166.591 82.9358C166.833 81.4871 166.759 80.0057 166.455 78.5336L166.459 78.5359Z" fill="#55E7C0"/>
<path d="M131.025 24.3276C131.725 23.9675 132.233 23.5229 132.49 22.988C133.017 21.8866 131.134 20.7617 129.78 20.052C132.174 18.6597 133.272 16.9518 132.223 15.1595C131.59 14.078 129.939 14.1085 128.348 14.451C130.138 10.3679 129.795 6.28236 127.532 5.22902C126.187 4.60265 124.46 5.18562 122.866 6.60141C122.25 2.80563 120.332 0.0350395 118.018 -0.000150131C116.01 -0.0306478 114.239 2.00448 113.328 5.0085C111.227 3.35459 109.001 2.78921 107.568 3.77569C105.826 4.97566 105.805 8.09228 107.326 11.2851C106.075 11.0986 104.915 11.2183 104.383 12.0664C103.524 13.4341 103.968 14.7912 105.313 16.017C104.271 16.2328 103.089 16.5777 102.996 17.4339C102.822 19.0151 104.015 20.4274 106.01 21.6133C102.942 24.7111 101.033 29.0453 101.033 33.8452C101.033 34.9361 101.136 36.0023 101.324 37.0369C101.819 35.505 102.477 34.0587 103.324 32.827C109.148 24.344 119.407 26.2278 119.407 26.2278C129.203 26.8765 132.67 31.6892 133.549 36.875C133.719 35.8909 133.813 34.8798 133.813 33.8452C133.813 30.3204 132.785 27.0466 131.024 24.3288L131.025 24.3276Z" fill="#79408C"/>
<path d="M124.684 23.4843C123.316 23.4843 122.074 23.9183 121.142 24.6233C121.156 24.3042 121.109 23.9981 120.996 23.7095C120.123 21.5043 115.682 21.1958 111.078 23.0198C106.473 24.845 103.447 28.1117 104.321 30.3169C105.194 32.5222 109.634 32.8306 114.239 31.0055C116.409 30.1457 118.227 28.9657 119.453 27.727C119.453 27.7434 119.449 27.7598 119.449 27.7774C119.449 30.1504 121.793 32.0717 124.683 32.0717C127.573 32.0717 129.917 30.1492 129.917 27.7774C129.917 25.4056 127.573 23.4831 124.683 23.4831L124.684 23.4843Z" fill="#79408C"/>
<path d="M120.978 51.8637C120.978 52.9088 119.954 53.7557 118.692 53.7557C117.429 53.7557 116.406 52.9088 116.406 51.8637C116.406 50.8186 117.43 49.9717 118.692 49.9717C119.953 49.9717 120.978 50.8186 120.978 51.8637Z" fill="#E04D46"/>
<path d="M117.003 45.3804C116.901 45.9798 116.796 46.5546 116.69 47.0848C116.635 47.3499 116.584 47.6044 116.533 47.846L116.513 47.9364C116.506 47.9657 116.507 47.9516 116.505 47.9622L116.491 47.9927C116.479 48.022 116.469 48.049 116.457 48.0771C116.477 48.0806 116.505 48.083 116.54 48.0842C116.56 48.0842 116.572 48.0865 116.604 48.0842C116.665 48.0736 116.723 48.063 116.781 48.0537C117.009 48.0161 117.207 47.988 117.373 47.9704C117.702 47.9352 117.893 47.9434 117.91 48.0009C117.925 48.0584 117.762 48.1604 117.458 48.293C117.307 48.3598 117.119 48.4337 116.903 48.5135C116.849 48.5334 116.792 48.5534 116.734 48.5745C116.635 48.605 116.534 48.6378 116.431 48.6707C116.206 48.7399 115.968 48.8126 115.719 48.8877C115.798 48.3176 115.886 47.6689 115.983 46.9663C116.06 46.4302 116.15 45.8543 116.252 45.2537C116.723 42.4796 117.274 40.2592 117.483 40.2944C117.69 40.3295 117.476 42.6075 117.005 45.3816L117.003 45.3804Z" fill="#7A5548"/>
<path d="M118.3 52.0316C119.368 51.9741 120.298 51.6198 120.973 51.3418C121.648 51.0568 122.079 50.868 122.14 50.9618C122.194 51.0439 121.869 51.3935 121.225 51.8181C120.898 52.0222 120.498 52.2579 120.007 52.4362C119.521 52.6192 118.952 52.7576 118.345 52.7928C117.738 52.8304 117.163 52.767 116.662 52.6579C116.158 52.5559 115.724 52.4081 115.368 52.2732C114.658 51.9893 114.259 51.7313 114.293 51.6374C114.329 51.533 114.794 51.6116 115.518 51.7547C115.88 51.8204 116.308 51.9072 116.779 51.9647C117.251 52.0292 117.767 52.0644 118.299 52.0316H118.3Z" fill="#7A5548"/>
<path d="M116.377 107.164C116.252 107.164 116.15 107.062 116.15 106.936C116.15 106.715 116.218 106.245 116.321 105.533C116.71 102.846 117.621 96.5518 116.163 92.3677C115.199 89.6018 115.501 86.1662 115.925 83.7709C116.381 81.1868 117.074 79.2197 117.081 79.201C117.123 79.0825 117.253 79.0203 117.371 79.0626C117.49 79.1048 117.552 79.235 117.51 79.3535C117.483 79.4297 114.805 87.0916 116.593 92.2176C118.088 96.5072 117.199 102.648 116.772 105.599C116.68 106.239 116.606 106.747 116.606 106.936C116.606 107.062 116.504 107.164 116.378 107.164H116.377Z" fill="#0FB78B"/>
<path d="M95.7134 85.6971C95.6056 85.6971 95.5094 85.6197 95.4895 85.5106C95.0264 82.9593 98.008 73.5226 98.1346 73.1227C98.1733 73.003 98.3011 72.9362 98.4207 72.9749C98.5403 73.0124 98.6071 73.1414 98.5696 73.2611C98.5391 73.3584 95.4954 82.9886 95.9386 85.4285C95.9608 85.5528 95.8788 85.6713 95.7556 85.6935C95.7416 85.6959 95.7287 85.6971 95.7146 85.6971H95.7134Z" fill="#0FB78B"/>
<path d="M138.842 85.1974C138.832 85.1974 138.82 85.1974 138.808 85.1951C138.684 85.1763 138.598 85.0602 138.617 84.9358C139.289 80.455 137.725 75.6798 137.708 75.6329C137.668 75.5132 137.733 75.3842 137.853 75.3443C137.971 75.3044 138.101 75.3689 138.141 75.4886C138.157 75.5367 139.755 80.4128 139.067 85.0039C139.051 85.1165 138.954 85.1974 138.842 85.1974Z" fill="#0FB78B"/>
<path d="M97.621 56.003C97.6058 56.003 97.5893 56.0018 97.5729 55.9983C89.3515 54.2224 82.7363 46.3517 82.6706 46.2731C82.5897 46.1757 82.6038 46.0326 82.7 45.9517C82.7961 45.8707 82.9403 45.8848 83.0212 45.981C83.0857 46.0596 89.6035 53.8107 97.6691 55.5526C97.7922 55.5795 97.8707 55.7004 97.8438 55.8235C97.8203 55.9303 97.7265 56.003 97.621 56.003Z" fill="#0FB78B"/>
<path d="M96.7335 57.4822C90.6893 57.4705 84.2582 53.8178 84.1937 53.7803C84.0847 53.7169 84.0472 53.5785 84.1093 53.4694C84.1715 53.3603 84.311 53.3228 84.42 53.385C84.4833 53.4213 90.8124 57.0142 96.7335 57.0259C96.8589 57.0259 96.9609 57.128 96.9609 57.2546C96.9609 57.3802 96.8589 57.4822 96.7335 57.4822Z" fill="#0FB78B"/>
<path d="M139.972 57.0763C138.767 57.0763 137.971 56.9168 137.946 56.9109C137.823 56.8851 137.745 56.7643 137.771 56.6411C137.796 56.518 137.918 56.4405 138.04 56.4652C138.119 56.4828 145.897 58.0335 149.763 51.0049C149.824 50.8947 149.962 50.8548 150.072 50.9158C150.182 50.9768 150.222 51.1152 150.163 51.2254C147.38 56.2845 142.657 57.0775 139.971 57.0775L139.972 57.0763Z" fill="#0FB78B"/>
<path d="M141.039 54.7374C140.919 54.7374 140.819 54.6435 140.812 54.5215C140.805 54.396 140.901 54.2881 141.026 54.2811C141.09 54.2776 147.411 53.8541 150.362 47.2678C150.413 47.1528 150.548 47.1012 150.663 47.1528C150.778 47.2045 150.83 47.3393 150.778 47.4543C147.71 54.301 141.117 54.7327 141.051 54.7362C141.048 54.7362 141.043 54.7362 141.039 54.7362V54.7374Z" fill="#0FB78B"/>
<path d="M157.843 78.0728C154.662 78.0728 151.233 76.6758 151.032 76.5925C150.93 76.5503 150.881 76.433 150.923 76.3298C150.966 76.2277 151.083 76.1785 151.186 76.2207C151.254 76.2488 157.975 78.9854 161.172 76.8447C161.263 76.7826 161.389 76.8072 161.451 76.8999C161.513 76.9925 161.487 77.1169 161.396 77.179C160.413 77.8371 159.149 78.0717 157.845 78.0717L157.843 78.0728Z" fill="#0FB78B"/>
<path d="M74.4211 82.68C73.9462 82.68 73.5077 82.6425 73.1126 82.5838C71.1487 82.2941 69.8695 81.473 69.8156 81.4378C69.7101 81.3686 69.6808 81.2278 69.7488 81.1223C69.8168 81.0167 69.9586 80.9874 70.0642 81.0554C70.1134 81.0871 75.0671 84.2143 80.2202 80.0478C80.3187 79.9692 80.4617 79.9845 80.5403 80.0818C80.6189 80.1804 80.6036 80.3235 80.5063 80.4021C78.2938 82.1909 76.1271 82.6788 74.4211 82.6788V82.68Z" fill="#0FB78B"/>
<path d="M128.65 22.6609C128.584 22.6609 128.518 22.6328 128.474 22.5776C126.712 20.4369 123.453 17.8294 117.94 17.5666C111.818 17.2734 108.467 20.2598 108.434 20.2903C108.341 20.3748 108.197 20.3689 108.111 20.2751C108.027 20.1824 108.034 20.0381 108.127 19.9537C108.267 19.8246 111.647 16.8101 117.961 17.1115C123.641 17.3825 127.004 20.0756 128.824 22.2879C128.904 22.3853 128.89 22.5284 128.794 22.6093C128.752 22.6445 128.7 22.6609 128.65 22.6609Z" fill="#212121"/>
<path d="M119.405 57.9445C116.081 57.3451 117.631 55.4109 116.3 55.1915C115.411 55.0449 113.22 54.7598 110.75 54.2637V68.2551C110.75 72.5494 113.851 76.0296 117.674 76.0296C121.497 76.0296 124.598 72.5494 124.598 68.2551V56.7563C122.584 57.7134 120.649 58.1697 119.403 57.9445H119.405Z" fill="#D6A99D"/>
<path d="M120.867 40.2896C120.867 39.2433 121.179 38.2721 121.711 37.458C120.473 38.0304 119.086 38.3565 117.617 38.3565C116.147 38.3565 114.878 38.0609 113.679 37.5331C114.182 38.3319 114.478 39.2761 114.478 40.2908C114.478 41.5998 113.99 42.7927 113.19 43.7053C114.509 43.0332 116.016 42.6508 117.617 42.6508C119.304 42.6508 120.888 43.0754 122.257 43.8179C121.397 42.8925 120.867 41.655 120.867 40.2908V40.2896Z" fill="white"/>
<path d="M122.073 43.6152C120.708 42.9243 119.176 42.5513 117.615 42.5513C116.055 42.5513 114.655 42.8973 113.336 43.5319C113.228 43.6668 113.114 43.7958 112.993 43.919C114.392 43.1565 115.987 42.746 117.615 42.746C119.362 42.746 121.071 43.2257 122.542 44.1008C122.377 43.9471 122.217 43.7876 122.073 43.614V43.6152Z" fill="#79408C"/>
<path d="M113.765 37.6717C114.97 38.1819 116.282 38.4529 117.617 38.4529C118.951 38.4529 120.375 38.1537 121.624 37.6001C121.689 37.4934 121.755 37.389 121.828 37.2881C120.53 37.9156 119.087 38.2581 117.617 38.2581C116.146 38.2581 114.834 37.9497 113.583 37.3761C113.648 37.4722 113.706 37.5719 113.765 37.6717Z" fill="#79408C"/>
<path d="M97.3573 52.4419C98.4958 50.5651 99.8289 48.4913 100.958 46.9265C102.617 47.1318 104.025 46.6368 105.511 47.0649C105.537 47.0719 105.559 47.0755 105.583 47.0813C108.647 48.096 112.717 47.1869 114.962 44.5301C115.55 43.8357 116.218 42.9301 116.01 41.9612C115.728 40.7073 114.073 40.7015 113.316 41.5214C112.04 42.7612 111.388 44.0973 109.246 44.1301C107.143 44.1629 105.299 42.6803 104.811 40.6909C104.792 40.1384 104.84 39.5953 104.984 39.0792C105.623 37.4089 107.118 36.1726 108.955 36.0025C110.982 35.8148 112.76 36.9373 113.674 38.7062C114.011 39.4616 115.178 40.2897 115.913 39.525C116.493 38.922 116.271 37.9942 115.933 37.3373C115.418 36.3391 114.681 35.4981 113.81 34.8459C114.337 35.1157 114.939 35.2823 115.476 34.9538C116.388 34.3943 115.668 33.1075 115.068 32.6243C114.408 32.0941 113.6 31.7223 112.801 31.4595C112.462 31.3469 112.114 31.2542 111.761 31.178C112.496 30.9481 113.078 30.2466 112.57 29.4713C112.111 28.7687 111.265 28.6619 110.503 28.5646C109.712 28.4613 108.914 28.4226 108.117 28.4625C107.526 28.4918 106.944 28.5857 106.369 28.7218C106.887 28.2936 107.234 27.6274 106.727 27.0385C106.183 26.4074 105.289 26.5271 104.582 26.73C103.78 26.9588 102.984 27.2532 102.238 27.625C100.761 28.3616 99.517 29.4725 98.5134 30.7768C98.2472 31.1229 98.0057 31.4912 97.7864 31.8759C97.1286 32.9293 95.1683 36.6265 94.6993 39.6458C93.2172 42.6369 91.9556 45.2573 90.8652 47.6057L97.3573 52.4407V52.4419Z" fill="#E2BDB3"/>
<path d="M121.462 38.7075C122.376 36.9386 124.154 35.8161 126.181 36.0038C128.017 36.1738 129.513 37.4102 130.152 39.0805C130.296 39.5966 130.344 40.1397 130.325 40.6922C129.837 42.6816 127.993 44.1642 125.89 44.1314C123.746 44.0985 123.095 42.7625 121.819 41.5226C121.063 40.7027 119.407 40.7086 119.124 41.9625C118.917 42.9302 119.585 43.8358 120.173 44.5314C122.417 47.1882 126.488 48.0972 129.551 47.0826C129.576 47.0767 129.598 47.0732 129.624 47.0662C131.1 46.6404 132.498 47.126 134.142 46.9325C135.144 48.5559 136.548 51.0215 137.61 53.093L144.696 49.1342C143.538 46.4844 142.176 43.4639 140.473 39.8875C140.074 36.8284 138.025 32.9587 137.351 31.8784C137.132 31.4936 136.89 31.1253 136.624 30.7793C135.62 29.4749 134.376 28.3629 132.899 27.6275C132.153 27.2556 131.356 26.9612 130.555 26.7325C129.847 26.5307 128.955 26.4099 128.411 27.041C127.903 27.6298 128.251 28.2961 128.768 28.7242C128.195 28.5881 127.611 28.4955 127.02 28.465C126.223 28.4251 125.425 28.4638 124.634 28.567C123.872 28.6644 123.027 28.7711 122.567 29.4737C122.06 30.2491 122.642 30.9505 123.377 31.1804C123.024 31.2567 122.676 31.3493 122.337 31.4619C121.539 31.7259 120.73 32.0965 120.071 32.6267C119.469 33.1088 118.75 34.3956 119.663 34.9563C120.198 35.2847 120.8 35.1181 121.328 34.8484C120.456 35.5005 119.72 36.3416 119.204 37.3398C118.865 37.9967 118.644 38.9245 119.223 39.5274C119.958 40.2922 121.124 39.4641 121.462 38.7087V38.7075Z" fill="#E2BDB3"/>
<path d="M103.89 35.1753C103.859 35.1753 103.827 35.1624 103.803 35.1378C103.758 35.0897 103.759 35.0135 103.807 34.9677C106.324 32.5525 110.654 32.42 112.7 33.9167C112.754 33.9566 112.766 34.0317 112.726 34.0845C112.687 34.1384 112.612 34.1502 112.558 34.1103C110.198 32.3825 105.932 33.2622 103.973 35.1413C103.95 35.1636 103.92 35.1753 103.89 35.1753Z" fill="#7A5548"/>
<path d="M102.038 34.1106C102.012 34.1106 101.987 34.1024 101.965 34.0859C101.912 34.046 101.902 33.971 101.942 33.917C104.858 30.0438 109.274 30.5576 111.039 30.9576C111.103 30.9717 111.144 31.0362 111.129 31.1019C111.115 31.1664 111.05 31.2074 110.985 31.1922C109.267 30.8027 104.965 30.3007 102.134 34.0613C102.11 34.093 102.074 34.1094 102.038 34.1094V34.1106Z" fill="#7A5548"/>
<path d="M100.035 33.0336C100.012 33.0336 99.9883 33.0266 99.9672 33.0125C99.9121 32.975 99.898 32.8999 99.9356 32.8448C101.199 30.9926 102.442 29.7633 105.055 28.9645C105.118 28.9457 105.186 28.9809 105.205 29.0443C105.225 29.1076 105.188 29.1757 105.125 29.1944C102.581 29.9721 101.368 31.1709 100.135 32.9796C100.111 33.0137 100.074 33.0324 100.035 33.0324V33.0336Z" fill="#7A5548"/>
<path d="M131.246 35.1755C131.216 35.1755 131.186 35.1649 131.162 35.1415C129.204 33.2623 124.939 32.3838 122.577 34.1104C122.523 34.1491 122.448 34.1386 122.41 34.0846C122.37 34.0306 122.382 33.9556 122.435 33.9169C124.481 32.4201 128.811 32.5538 131.329 34.9679C131.377 35.0136 131.378 35.0898 131.332 35.1379C131.309 35.1626 131.277 35.1755 131.246 35.1755Z" fill="#7A5548"/>
<path d="M133.098 34.1104C133.062 34.1104 133.025 34.0939 133.002 34.0623C130.172 30.3029 125.869 30.8037 124.151 31.1932C124.086 31.2084 124.022 31.1673 124.007 31.1028C123.991 31.0383 124.032 30.9738 124.097 30.9586C125.86 30.5586 130.278 30.0448 133.193 33.918C133.233 33.9708 133.222 34.0459 133.17 34.0869C133.148 34.1033 133.123 34.1115 133.097 34.1115L133.098 34.1104Z" fill="#7A5548"/>
<path d="M135.102 33.0334C135.063 33.0334 135.025 33.0146 135.002 32.9806C133.767 31.1731 132.556 29.9731 130.012 29.1954C129.949 29.1766 129.912 29.1086 129.932 29.0453C129.952 28.9819 130.018 28.9467 130.082 28.9655C132.695 29.7643 133.937 30.9924 135.201 32.8457C135.239 32.9009 135.225 32.9759 135.17 33.0135C135.149 33.0275 135.125 33.0346 135.102 33.0346V33.0334Z" fill="#7A5548"/>
<path d="M114.478 40.2897C114.478 43.1553 112.156 45.4778 109.292 45.4778C106.428 45.4778 104.106 43.1553 104.106 40.2897C104.106 37.4241 106.428 35.1016 109.292 35.1016C112.156 35.1016 114.478 37.4241 114.478 40.2897Z" fill="white"/>
<path d="M109.292 45.7056C106.307 45.7056 103.879 43.2763 103.879 40.2887C103.879 37.3011 106.307 34.873 109.292 34.873C112.277 34.873 114.705 37.3023 114.705 40.2887C114.705 43.2751 112.277 45.7056 109.292 45.7056ZM109.292 35.3293C106.558 35.3293 104.334 37.5545 104.334 40.2899C104.334 43.0253 106.558 45.2505 109.292 45.2505C112.026 45.2505 114.25 43.0253 114.25 40.2899C114.25 37.5545 112.026 35.3293 109.292 35.3293Z" fill="#79408C"/>
<path d="M109.369 42.5793C107.505 42.5793 105.895 41.662 105.138 40.333C105.895 39.004 107.506 38.0879 109.369 38.0879C111.233 38.0879 112.842 39.0052 113.601 40.333C112.842 41.662 111.234 42.5793 109.369 42.5793Z" fill="white"/>
<path d="M109.368 37.8945C110.313 37.8945 111.228 38.1291 111.992 38.5514C112.176 38.6687 112.358 38.7848 112.536 38.8998C112.699 39.037 112.861 39.1696 113.016 39.3056C113.153 39.4593 113.289 39.6118 113.421 39.7608C113.55 39.9555 113.678 40.1478 113.803 40.3355C113.672 40.5244 113.545 40.7097 113.419 40.8903C113.298 41.0323 113.169 41.1613 113.05 41.2915C112.929 41.4217 112.782 41.5155 112.656 41.6246C112.53 41.7361 112.389 41.817 112.254 41.8968C111.723 42.2369 111.19 42.3894 110.761 42.5044C110.32 42.583 109.973 42.6275 109.733 42.6111C109.495 42.6088 109.368 42.5994 109.368 42.5818C109.368 42.5642 109.494 42.5384 109.726 42.5079C109.959 42.4915 110.293 42.4164 110.712 42.3143C111.119 42.1748 111.618 42.0058 112.106 41.6645C112.23 41.5847 112.36 41.5038 112.474 41.3947C112.589 41.288 112.724 41.1965 112.832 41.0722C112.94 40.9478 113.056 40.8247 113.165 40.6921C113.241 40.576 113.318 40.4575 113.398 40.3355L113.378 40.3097L113.302 40.1994C113.251 40.1256 113.2 40.0505 113.148 39.9754C113.024 39.8405 112.897 39.7033 112.768 39.5649C112.622 39.444 112.473 39.3209 112.322 39.1977C112.155 39.0933 111.986 38.9889 111.814 38.8822C111.102 38.4986 110.251 38.2851 109.368 38.2851C108.485 38.2851 107.635 38.4998 106.924 38.8834C106.752 38.9901 106.584 39.0945 106.416 39.1989C106.265 39.3232 106.116 39.4464 105.969 39.566C105.84 39.7056 105.714 39.8429 105.589 39.9766C105.538 40.0517 105.486 40.1267 105.436 40.2006L105.359 40.3109L105.34 40.3367C105.418 40.4587 105.497 40.5772 105.573 40.6933C105.681 40.8258 105.798 40.949 105.906 41.0733C106.014 41.1977 106.149 41.2892 106.263 41.3959C106.377 41.505 106.507 41.5847 106.632 41.6657C107.119 42.007 107.619 42.1759 108.026 42.3155C108.444 42.4176 108.778 42.4938 109.012 42.5091C109.244 42.5396 109.369 42.5654 109.369 42.583C109.369 42.6006 109.244 42.6111 109.005 42.6123C108.766 42.6287 108.417 42.5841 107.976 42.5055C107.546 42.3906 107.014 42.2381 106.484 41.8979C106.349 41.8182 106.207 41.7372 106.082 41.6258C105.955 41.5167 105.809 41.4217 105.688 41.2927C105.567 41.1625 105.439 41.0334 105.317 40.8915C105.192 40.7109 105.065 40.5255 104.934 40.3367C105.058 40.149 105.186 39.9578 105.315 39.7619C105.447 39.613 105.583 39.4616 105.721 39.3068C105.875 39.1707 106.037 39.0382 106.2 38.901C106.378 38.7872 106.56 38.671 106.744 38.5537C107.509 38.1315 108.423 37.8969 109.368 37.8969V37.8945Z" fill="#79408C"/>
<path d="M110.965 40.3343C110.965 39.4768 110.25 38.7812 109.369 38.7812C108.489 38.7812 107.774 39.478 107.774 40.3343C107.774 41.1906 108.488 41.8873 109.369 41.8873C110.251 41.8873 110.965 41.1917 110.965 40.3343Z" fill="#79408C"/>
<path d="M109.128 39.8665C109.128 40.1609 108.89 40.3991 108.596 40.3991C108.301 40.3991 108.063 40.1609 108.063 39.8665C108.063 39.5721 108.301 39.334 108.596 39.334C108.89 39.334 109.128 39.5721 109.128 39.8665Z" fill="white"/>
<path d="M120.867 40.2897C120.867 43.1553 123.188 45.4778 126.053 45.4778C128.917 45.4778 131.238 43.1553 131.238 40.2897C131.238 37.4241 128.917 35.1016 126.053 35.1016C123.188 35.1016 120.867 37.4241 120.867 40.2897Z" fill="white"/>
<path d="M126.052 45.7056C123.066 45.7056 120.638 43.2763 120.638 40.2887C120.638 37.3011 123.066 34.873 126.052 34.873C129.037 34.873 131.466 37.3023 131.466 40.2887C131.466 43.2751 129.038 45.7056 126.052 45.7056ZM126.052 35.3293C123.317 35.3293 121.094 37.5545 121.094 40.2899C121.094 43.0253 123.318 45.2505 126.052 45.2505C128.785 45.2505 131.01 43.0253 131.01 40.2899C131.01 37.5545 128.786 35.3293 126.052 35.3293Z" fill="#79408C"/>
<path d="M125.975 42.5793C127.839 42.5793 129.449 41.662 130.207 40.333C129.449 39.004 127.838 38.0879 125.975 38.0879C124.112 38.0879 122.502 39.0052 121.744 40.333C122.502 41.662 124.111 42.5793 125.975 42.5793Z" fill="white"/>
<path d="M125.976 38.2827C125.095 38.2827 124.243 38.4973 123.531 38.8797C123.359 38.9865 123.191 39.0909 123.023 39.1953C122.872 39.3196 122.723 39.4416 122.576 39.5624C122.447 39.702 122.321 39.8392 122.196 39.973C122.145 40.048 122.093 40.1231 122.043 40.197L121.967 40.3073L121.947 40.3331C122.026 40.4551 122.104 40.5735 122.18 40.6897C122.288 40.8222 122.405 40.9454 122.512 41.0697C122.621 41.194 122.754 41.2855 122.869 41.3923C122.983 41.5014 123.113 41.5811 123.238 41.6621C123.725 42.0034 124.225 42.1723 124.632 42.3107C125.049 42.4139 125.383 42.489 125.616 42.5054C125.849 42.5359 125.974 42.5617 125.974 42.5793C125.974 42.5969 125.849 42.6063 125.609 42.6087C125.369 42.6251 125.022 42.5805 124.581 42.5019C124.151 42.387 123.62 42.2345 123.089 41.8943C122.954 41.8146 122.813 41.7336 122.686 41.6222C122.56 41.5131 122.413 41.4193 122.292 41.2891C122.173 41.1589 122.044 41.0298 121.922 40.8879C121.798 40.7073 121.67 40.5219 121.539 40.3331C121.663 40.1454 121.791 39.9542 121.92 39.7583C122.052 39.6093 122.188 39.458 122.325 39.3032C122.479 39.1671 122.642 39.0346 122.805 38.8973C122.984 38.7824 123.165 38.6674 123.349 38.549C124.113 38.1267 125.029 37.8921 125.973 37.8921C126.917 37.8921 127.832 38.1267 128.597 38.549C128.781 38.6663 128.963 38.7824 129.141 38.8962C129.304 39.0334 129.466 39.166 129.621 39.302C129.758 39.4569 129.894 39.6082 130.026 39.7571C130.155 39.9519 130.283 40.1442 130.407 40.3319C130.277 40.5208 130.149 40.7061 130.025 40.8867C129.904 41.0275 129.775 41.1577 129.655 41.2879C129.534 41.4169 129.387 41.5119 129.261 41.621C129.135 41.7324 128.993 41.8134 128.86 41.8931C128.328 42.2333 127.796 42.3858 127.366 42.5007C126.925 42.5793 126.578 42.6239 126.338 42.6075C126.1 42.6051 125.973 42.5958 125.973 42.5782C125.973 42.5606 126.098 42.5348 126.331 42.5043C126.564 42.4878 126.898 42.4128 127.317 42.3096C127.723 42.1711 128.223 42.0011 128.711 41.6609C128.835 41.5811 128.965 41.5002 129.079 41.3911C129.194 41.2844 129.329 41.1929 129.436 41.0685C129.544 40.9442 129.66 40.821 129.768 40.6885C129.844 40.5724 129.922 40.4539 130.002 40.3319L129.982 40.3061L129.905 40.1958C129.855 40.1219 129.803 40.0469 129.752 39.9718C129.628 39.8369 129.501 39.6997 129.372 39.5612C129.225 39.4404 129.076 39.3173 128.925 39.1941C128.759 39.0897 128.59 38.9853 128.419 38.8786C127.707 38.495 126.856 38.2815 125.974 38.2815L125.976 38.2827Z" fill="#79408C"/>
<path d="M124.38 40.3343C124.38 39.4768 125.094 38.7812 125.975 38.7812C126.857 38.7812 127.571 39.478 127.571 40.3343C127.571 41.1906 126.857 41.8873 125.975 41.8873C125.094 41.8873 124.38 41.1917 124.38 40.3343Z" fill="#79408C"/>
<path d="M126.217 39.8665C126.217 40.1609 126.455 40.3991 126.749 40.3991C127.043 40.3991 127.281 40.1609 127.281 39.8665C127.281 39.5721 127.043 39.334 126.749 39.334C126.455 39.334 126.217 39.5721 126.217 39.8665Z" fill="white"/>
<path d="M117.267 69.5614C113.165 69.5614 109.376 68.2359 107.132 66.0166C107.004 65.8899 107.003 65.6835 107.13 65.5556C107.257 65.4278 107.463 65.4266 107.591 65.5533C109.715 67.6553 113.332 68.9104 117.267 68.9104C121.202 68.9104 124.82 67.6553 126.945 65.5533C127.073 65.4278 127.279 65.4278 127.406 65.5556C127.532 65.6835 127.531 65.8899 127.403 66.0166C125.159 68.2359 121.371 69.5614 117.268 69.5614H117.267Z" fill="#1F222A"/>
<path d="M117.359 72.3521C113.24 72.3521 109.441 70.6313 107.196 67.7493C107.085 67.6073 107.11 67.4021 107.252 67.293C107.394 67.1827 107.598 67.2085 107.709 67.3493C109.831 70.0741 113.439 71.7011 117.359 71.7011C121.278 71.7011 124.886 70.0741 127.008 67.3493C127.118 67.2073 127.324 67.1815 127.465 67.293C127.607 67.4032 127.633 67.6085 127.522 67.7493C125.276 70.6325 121.478 72.3521 117.359 72.3521Z" fill="#1F222A"/>
</g>
<defs>
<clipPath id="clip0_1828_13016">
<rect width="236" height="160" fill="white"/>
</clipPath>
</defs>
</svg>
