<svg width="320" height="268" viewBox="0 0 320 268" fill="none" xmlns="http://www.w3.org/2000/svg">
<path d="M115.608 191.94C114.549 191.94 113.655 191.044 113.655 189.983V176.731C113.655 174.625 112 172.967 109.898 172.967C108.839 172.967 107.945 173.415 107.184 174.027C106.439 174.774 106.126 175.686 106.126 176.731C106.126 178.24 105.53 179.6 104.471 180.795C103.413 181.856 101.922 182.453 100.416 182.453H99.5066C95.8988 182.453 92.8873 179.436 92.8873 175.82C92.8873 174.012 92.1419 172.354 90.9343 171.144C89.7267 169.934 88.0719 169.187 86.268 169.187H79.7978C78.7393 169.187 77.8448 168.291 77.8448 167.23C77.8448 166.169 78.7393 165.273 79.7978 165.273H86.4171C89.1155 165.273 91.8288 166.334 93.7818 168.291C95.7348 170.248 96.7933 172.802 96.7933 175.671C96.7933 177.18 98.0009 178.539 99.6557 178.539H100.55C100.997 178.539 101.46 178.39 101.907 177.942C102.205 177.643 102.503 177.045 102.503 176.582C102.503 174.625 103.249 172.668 104.754 171.308C106.111 169.949 108.064 169.053 110.017 169.053C114.221 169.053 117.531 172.369 117.531 176.582V189.834C117.382 191.044 116.472 191.94 115.578 191.94H115.608Z" fill="#0DBF90"/>
<path d="M76.98 173.117C78.4857 173.117 79.8424 174.327 79.8424 175.985C79.8424 177.644 78.6348 178.854 76.98 178.854C75.4742 178.854 74.1176 177.644 74.1176 175.985C74.1176 174.327 75.4742 173.117 76.98 173.117Z" fill="#0DBF90"/>
<path d="M133.348 176.88C134.854 176.88 136.211 178.09 136.211 179.749C136.211 181.407 135.003 182.617 133.348 182.617C131.843 182.617 130.486 181.407 130.486 179.749C130.486 178.09 131.843 176.88 133.348 176.88Z" fill="#0DBF90"/>
<path d="M75.1762 244.662C76.682 244.662 78.0386 245.872 78.0386 247.53C78.0386 249.039 76.831 250.399 75.1762 250.399C73.6705 250.399 72.3138 249.188 72.3138 247.53C72.3138 245.872 73.5214 244.662 75.1762 244.662Z" fill="#0DBF90"/>
<path d="M61.0579 197.527C63.1599 197.527 64.8148 200.545 64.8148 204.16C64.8148 207.776 63.1599 210.794 61.0579 210.794C58.9558 210.794 57.301 207.776 57.301 204.16C57.301 200.545 58.9558 197.527 61.0579 197.527Z" fill="#0DBF90"/>
<path d="M61.0579 223.882C63.1599 223.882 64.8148 226.9 64.8148 230.515C64.8148 234.13 63.1599 237.148 61.0579 237.148C58.9558 237.148 57.301 234.13 57.301 230.515C57.301 226.9 58.9558 223.882 61.0579 223.882Z" fill="#0DBF90"/>
<path d="M61.0579 184.409C63.1599 184.409 64.8148 187.427 64.8148 191.043C64.8148 194.658 63.1599 197.676 61.0579 197.676C58.9558 197.676 57.301 194.658 57.301 191.043C57.301 187.427 58.9558 184.409 61.0579 184.409Z" fill="#40F2C3"/>
<path d="M61.0579 210.779C63.1599 210.779 64.8148 213.797 64.8148 217.412C64.8148 221.028 63.1599 224.045 61.0579 224.045C58.9558 224.045 57.301 221.028 57.301 217.412C57.301 213.797 58.9558 210.779 61.0579 210.779Z" fill="#40F2C3"/>
<path d="M61.0579 237.133C63.1599 237.133 64.8148 240.15 64.8148 243.766C64.8148 247.381 63.1599 250.399 61.0579 250.399C58.9558 250.399 57.301 247.381 57.301 243.766C57.301 240.15 58.9558 237.133 61.0579 237.133Z" fill="#40F2C3"/>
<path d="M133.945 206.402C133.945 206.701 133.796 207 133.796 207.299C133.796 206.85 133.945 206.701 133.945 206.402C130.635 197.961 123.419 190.895 114.102 187.877C113.903 188.883 113.903 188.883 114.102 187.877C95.4662 181.856 76.0704 193.898 72.9099 213.035C69.7493 231.859 83.5842 249.04 102.22 250.384H101.921C120.855 251.595 136.196 236.52 136.196 218.294C136.196 214.081 135.45 210.018 133.945 206.402ZM76.3835 233.966C76.5326 233.966 76.6817 233.816 76.8307 233.816C76.6817 233.816 76.5326 233.816 76.3835 233.966ZM77.1289 235.176C77.278 235.325 77.4271 235.624 77.4271 235.774C77.4271 235.475 77.278 235.325 77.1289 235.176ZM77.7253 236.072C77.8743 236.222 78.0234 236.371 78.0234 236.52C77.8743 236.371 77.8743 236.222 77.7253 236.072Z" fill="#0FB78B"/>
<path d="M113.968 187.727C113.371 191.044 112.462 194.51 111.269 197.811C105.708 193.897 99.4022 190.73 92.7829 188.325C99.7003 185.77 107.214 185.606 113.983 187.727H113.968Z" fill="#26D3A6"/>
<path d="M107.795 205.505C106.439 207.911 104.933 210.331 103.129 212.736C100.878 211.526 98.4629 210.331 95.9135 209.27C88.9961 206.402 82.2426 204.445 75.7724 203.548C77.4272 200.381 79.6784 197.528 82.2426 194.958C90.964 196.915 99.8344 200.531 107.795 205.505Z" fill="#26D3A6"/>
<path d="M133.945 206.402C131.544 224.479 118.917 241.196 103.129 250.235C98.6269 250.085 94.1096 249.025 90.0546 246.918C97.1211 243.9 103.889 239.389 110.047 233.219C120.87 222.372 127.027 208.822 127.788 196.467C130.486 199.485 132.603 202.951 133.945 206.402Z" fill="#26D3A6"/>
<path d="M135.6 245.11C135.898 245.409 136.196 245.857 136.196 246.47C136.196 246.918 136.047 247.515 135.6 247.829C135.301 248.128 134.854 248.427 134.243 248.427C133.184 248.427 132.29 247.515 132.29 246.47C132.29 246.021 132.439 245.409 132.886 245.11C133.184 244.811 133.632 244.512 134.243 244.512C134.839 244.662 135.301 244.811 135.6 245.11Z" fill="#CFFCF0"/>
<path d="M134.407 189.984C134.407 191.045 133.497 191.942 132.454 191.942C131.41 191.942 130.501 191.045 130.501 189.984C130.501 188.924 131.395 188.027 132.454 188.027C133.512 188.177 134.407 188.939 134.407 189.984Z" fill="#CFFCF0"/>
<path d="M124.329 169.799C124.627 170.098 124.925 170.546 124.925 171.159C124.925 171.771 124.776 172.22 124.329 172.518C124.031 172.817 123.583 173.116 122.972 173.116C121.914 173.116 121.019 172.22 121.019 171.159C121.019 170.711 121.168 170.098 121.616 169.799C121.914 169.501 122.361 169.202 122.972 169.202C123.569 169.351 124.031 169.501 124.329 169.799Z" fill="#CFFCF0"/>
<path d="M84.9561 183.065C85.2542 183.364 85.5524 183.812 85.5524 184.425C85.5524 184.873 85.4033 185.485 84.9561 185.784C84.6579 186.083 84.2107 186.382 83.5994 186.382C82.5409 186.382 81.6464 185.47 81.6464 184.425C81.6464 183.976 81.7955 183.364 82.2428 183.065C82.5409 182.766 82.9882 182.467 83.5994 182.467C84.0467 182.467 84.6579 182.766 84.9561 183.065Z" fill="#CFFCF0"/>
<path d="M64.2035 173.565C64.5017 173.864 64.7998 174.312 64.7998 174.925C64.7998 175.373 64.6508 175.986 64.2035 176.284C63.7563 176.583 63.4581 176.882 62.8468 176.882C61.7884 176.882 60.8939 175.971 60.8939 174.925C60.8939 174.477 61.0429 173.864 61.4902 173.565C61.7884 173.267 62.2356 172.968 62.8468 172.968C63.4581 172.968 63.9053 173.267 64.2035 173.565Z" fill="#CFFCF0"/>
<path d="M72.3286 189.984C72.0304 189.984 71.8813 189.984 71.5832 189.834L54.6026 182.305C53.7081 181.856 53.2459 180.796 53.7081 179.899C54.1553 178.988 55.2138 178.54 56.1083 178.988L73.0889 186.518C73.9834 186.966 74.4456 188.026 73.9834 189.072C73.6852 189.52 73.0889 189.984 72.3286 189.984Z" fill="#0EC696"/>
<path d="M97.2702 219.519C95.1682 221.775 92.4549 224.195 89.4583 226.301C83.5993 224.344 77.8894 223.134 72.4777 222.537C72.0304 219.22 72.0304 215.903 72.6268 212.751C81.05 213.812 89.6074 216.217 97.2702 219.534V219.519Z" fill="#26D3A6"/>
<path d="M121.019 191.044C119.961 203.1 113.953 216.202 103.427 226.735C96.9572 233.204 89.4434 238.029 81.7805 241.047C79.6784 238.94 77.8745 236.535 76.3688 233.965C78.3218 233.054 80.2748 232.158 81.3333 231.56C84.3447 230.051 87.1922 228.094 89.4434 226.436C94.4079 222.671 99.2084 217.995 103.114 212.736C108.526 205.356 112.432 196.766 113.938 187.877C116.338 188.474 118.902 189.684 121.004 191.044H121.019Z" fill="#26D3A6"/>
<path d="M275.766 207.66C275.41 207.66 275.054 207.541 274.687 207.184L273.014 205.508C272.421 204.914 272.421 203.951 273.014 203.356C273.607 202.762 274.568 202.762 275.173 203.356L276.964 205.151C277.558 205.746 277.558 206.709 276.964 207.303C276.609 207.541 276.122 207.66 275.766 207.66Z" fill="#26D3A6"/>
<path d="M273.37 212.225C273.014 212.225 272.658 212.106 272.29 211.75L269.419 208.873C268.826 208.278 268.826 207.315 269.419 206.721C270.013 206.127 270.974 206.127 271.567 206.721L274.438 209.598C275.031 210.192 275.031 211.155 274.438 211.75C274.2 211.987 273.726 212.225 273.358 212.225H273.37Z" fill="#26D3A6"/>
<path d="M277.439 213.902C277.795 213.902 278.151 214.021 278.519 214.377L280.31 216.172C280.903 216.767 280.903 217.73 280.31 218.324C279.717 218.918 278.756 218.918 278.163 218.324L276.371 216.529C275.778 215.934 275.778 214.972 276.371 214.377C276.727 214.139 277.095 213.902 277.451 213.902H277.439Z" fill="#26D3A6"/>
<path d="M279.835 209.467C280.191 209.467 280.547 209.586 280.915 209.943L283.786 212.82C284.379 213.414 284.379 214.377 283.786 214.972C283.193 215.566 282.232 215.566 281.639 214.972L278.768 212.095C278.174 211.5 278.174 210.537 278.768 209.943C279.005 209.586 279.479 209.467 279.847 209.467H279.835Z" fill="#26D3A6"/>
<path d="M262.61 238.594L260.937 236.917C259.739 235.717 259.739 233.684 260.937 232.483C261.293 232.245 261.412 231.889 261.649 231.52C261.768 231.163 261.886 230.795 261.886 230.319L261.293 230.914L242.988 249.257L238.444 244.704L258.778 224.328L259.49 223.614L257.817 219.061C256.738 215.947 252.668 215.103 250.521 217.623L250.403 217.742L247.769 223.496C246.452 225.291 244.779 226.729 242.869 227.93C242.751 227.93 242.751 228.049 242.632 228.049C242.513 228.049 242.513 228.168 242.395 228.168C242.276 228.168 242.276 228.287 242.158 228.287L232.702 233.684C226 237.524 225.762 237.524 224.813 238.356C224.813 238.356 224.339 238.712 224.102 238.95C223.508 239.545 222.785 240.27 222.429 240.864C221.349 242.303 220.756 244.098 220.519 245.774C220.519 245.774 220.4 246.487 220.4 247.213C220.4 248.889 220.756 250.446 221.361 251.766C221.836 252.966 222.678 254.048 223.639 254.999L229.262 260.634C232.489 263.868 232.608 263.987 233.331 264.712C235.478 266.507 238.112 267.232 240.746 267.232C241.22 267.232 242.181 267.113 242.774 266.995C245.645 266.4 248.279 264.593 249.952 261.716L254.97 248.77C256.524 246.131 260.119 245.536 262.74 244.098C263.464 243.385 263.82 242.303 263.82 241.34C263.82 240.377 263.345 239.307 262.622 238.582L262.61 238.594Z" fill="#0DBF90"/>
<path d="M242.632 228.038C242.751 228.514 242.751 229.001 242.751 229.477C242.751 232.829 240.117 235.468 236.772 235.468C235.217 235.468 233.663 234.874 232.584 233.792L242.027 228.395C242.146 228.395 242.146 228.276 242.264 228.276C242.383 228.157 242.502 228.157 242.62 228.038H242.632Z" fill="#26D3A6"/>
<path d="M224.813 238.475C226.723 239.794 227.922 242.065 227.922 244.466C227.922 248.306 225.051 251.421 221.468 251.896C220.875 250.577 220.507 249.02 220.507 247.343C220.507 246.63 220.626 245.905 220.626 245.905C220.863 244.229 221.468 242.552 222.536 240.995C223.01 240.401 223.615 239.675 224.208 239.081C224.327 238.843 224.683 238.487 224.801 238.487L224.813 238.475Z" fill="#26D3A6"/>
<path d="M242.632 266.995C242.039 267.113 241.196 267.232 240.722 267.232C238.088 267.351 235.455 266.519 233.307 264.712C232.584 264.118 232.465 263.868 229.238 260.634C230.555 259.79 232.109 259.315 233.901 259.315C238.326 259.434 241.92 262.667 242.632 266.983V266.995Z" fill="#26D3A6"/>
<path d="M224.101 222.046C225.3 222.046 226.379 223.009 226.379 224.328C226.379 225.529 225.418 226.611 224.101 226.611C222.903 226.611 221.824 225.648 221.824 224.328C221.824 223.009 222.903 222.046 224.101 222.046Z" fill="#E7FDF7"/>
<path d="M280.191 231.033C281.864 231.033 283.181 232.353 283.181 234.029C283.181 235.705 281.864 237.025 280.191 237.025C278.519 237.025 277.202 235.705 277.202 234.029C277.202 232.353 278.519 231.033 280.191 231.033Z" fill="#E7FDF7"/>
<path d="M265.955 258.007C267.154 258.007 268.233 258.97 268.233 260.289C268.233 261.49 267.272 262.572 265.955 262.572C264.757 262.572 263.678 261.609 263.678 260.289C263.678 258.97 264.757 258.007 265.955 258.007Z" fill="#E7FDF7"/>
<path d="M286.17 208.148L273.975 218.098L269.431 213.533L279.361 201.312L286.17 208.148Z" fill="#0DC695"/>
<path d="M273.975 218.098L261.767 230.319L261.174 230.914L243 249.257L238.326 244.585L258.659 224.328L259.383 223.603L269.431 213.533L273.975 218.098Z" fill="#26D3A6"/>
<path d="M278.281 264.356C278.519 264.594 278.756 264.95 278.756 265.438C278.756 265.794 278.637 266.282 278.281 266.52C278.044 266.757 277.688 266.995 277.202 266.995C276.359 266.995 275.648 266.282 275.648 265.438C275.648 265.081 275.766 264.594 276.122 264.356C276.359 264.118 276.715 263.88 277.202 263.88C277.558 263.999 277.914 264.118 278.281 264.356Z" fill="#E7FDF7"/>
<path d="M272.302 243.385C272.539 243.622 272.777 243.979 272.777 244.466C272.777 244.954 272.658 245.31 272.302 245.548C272.065 245.786 271.709 246.024 271.223 246.024C270.38 246.024 269.787 245.299 269.787 244.466C269.787 244.11 269.906 243.622 270.262 243.385C270.499 243.147 270.855 242.909 271.341 242.909C271.579 243.028 271.934 243.147 272.302 243.385Z" fill="#E7FDF7"/>
<path d="M255.788 202.988C256.026 203.225 256.263 203.582 256.263 204.069C256.263 204.426 256.144 204.913 255.788 205.151C255.551 205.389 255.195 205.627 254.709 205.627C253.867 205.627 253.155 204.913 253.155 204.069C253.155 203.713 253.273 203.225 253.629 202.988C253.867 202.75 254.222 202.512 254.709 202.512C255.195 202.512 255.551 202.75 255.788 202.988Z" fill="#E7FDF7"/>
<path d="M239.405 216.411C239.643 216.648 239.88 217.005 239.88 217.493C239.88 217.98 239.761 218.337 239.405 218.574C239.168 218.812 238.812 219.05 238.326 219.05C237.483 219.05 236.772 218.337 236.772 217.493C236.772 217.136 236.89 216.648 237.246 216.411C237.483 216.173 237.839 215.935 238.326 215.935C238.812 215.935 239.038 216.173 239.405 216.411Z" fill="#E7FDF7"/>
<path d="M224.457 261.36C224.695 261.598 224.932 261.954 224.932 262.442C224.932 262.798 224.813 263.286 224.457 263.523C224.101 263.761 223.864 263.999 223.378 263.999C222.536 263.999 221.824 263.286 221.824 262.442C221.824 262.085 221.942 261.598 222.298 261.36C222.536 261.122 222.891 260.884 223.378 260.884C223.734 261.003 224.101 261.122 224.457 261.36Z" fill="#E7FDF7"/>
<path d="M246.464 254.168C246.108 254.168 245.74 254.049 245.384 253.692L233.901 242.184C233.308 241.59 233.308 240.627 233.901 240.032C234.494 239.438 235.455 239.438 236.048 240.032L247.532 251.54C248.125 252.135 248.125 253.098 247.532 253.704C247.176 254.061 246.82 254.179 246.452 254.179L246.464 254.168Z" fill="#26D3A6"/>
<path d="M240.01 254.774C239.654 254.774 239.287 254.655 238.931 254.298L233.308 248.663C232.714 248.069 232.714 247.106 233.308 246.511C233.901 245.917 234.862 245.917 235.455 246.511L241.078 252.146C241.671 252.741 241.671 253.704 241.078 254.298C240.841 254.536 240.485 254.774 239.998 254.774H240.01Z" fill="#26D3A6"/>
<path d="M230.072 129.811C227.866 129.811 225.508 128.835 223.987 127.036C221.218 123.987 223.575 114.29 219.285 109.592C224.261 111.117 233.376 113.053 236.144 116.103C236.144 116.103 236.144 116.24 236.281 116.24C238.214 110.142 243.464 105.581 249.961 104.606C244.012 94.0848 232.827 87.0248 219.97 87.0248C200.905 87.0248 185.416 102.532 185.416 121.652C185.416 140.771 200.891 156.279 219.97 156.279C230.196 156.279 239.461 151.842 245.67 144.645L236.83 135.511L230.059 129.838L230.072 129.811Z" fill="#0EC696"/>
<path d="M263.517 155.564C264.49 156.677 264.339 158.339 263.242 159.3C262.694 159.712 262.132 159.987 261.447 159.987C260.762 159.987 260.063 159.712 259.514 159.149L236.706 135.606L243.203 129.796L263.517 155.55V155.564Z" fill="#26D3A6"/>
<path d="M238.091 122.614L243.203 129.948L236.706 135.758L230.072 129.811C234.075 129.811 237.529 126.762 238.091 122.614Z" fill="#0FB78B"/>
<path d="M219.148 109.592C224.124 111.116 233.239 113.053 236.007 116.102C236.007 116.102 236.007 116.24 236.144 116.24C237.666 118.039 238.351 120.401 238.077 122.613C237.803 124.962 236.556 127.049 234.623 128.437C231.443 130.785 226.742 130.373 223.85 127.187C221.081 124 223.438 114.303 219.148 109.605V109.592Z" fill="#9FF9E1"/>
<path d="M233.115 101.419C233.389 101.694 233.663 102.106 233.663 102.669C233.663 103.081 233.526 103.644 233.115 103.919C232.841 104.194 232.43 104.468 231.868 104.468C230.895 104.468 230.072 103.631 230.072 102.669C230.072 102.257 230.209 101.694 230.62 101.419C230.895 101.145 231.306 100.87 231.868 100.87C232.43 100.87 232.69 101.145 233.115 101.419Z" fill="#40F2C3"/>
<path d="M191.241 156.265C192.626 156.265 193.873 157.377 193.873 158.902C193.873 160.289 192.763 161.539 191.241 161.539C189.857 161.539 188.61 160.427 188.61 158.902C188.61 157.515 189.857 156.265 191.241 156.265Z" fill="#E7FDF7"/>
<path d="M257.705 90.4854C259.638 90.4854 261.159 92.01 261.159 93.9467C261.159 95.8834 259.638 97.408 257.705 97.408C255.772 97.408 254.251 95.8834 254.251 93.9467C254.251 92.01 255.909 90.4854 257.705 90.4854Z" fill="#E7FDF7"/>
<path d="M253.428 123.438C254.813 123.438 256.06 124.551 256.06 126.062C256.06 127.572 254.95 128.699 253.428 128.699C252.044 128.699 250.797 127.586 250.797 126.062C250.797 124.537 252.044 123.438 253.428 123.438Z" fill="#E7FDF7"/>
<path d="M269.523 111.964C270.389 113.047 270.301 114.718 269.125 115.662C267.948 116.607 266.376 116.442 265.425 115.252C264.56 114.169 264.647 112.498 265.835 111.545C267.022 110.592 268.658 110.881 269.523 111.964Z" fill="#E7FDF7"/>
<path d="M303.586 127.897C304.535 128.114 305.216 129.073 304.98 130.109C304.743 131.145 303.806 131.742 302.763 131.503C301.814 131.286 301.133 130.327 301.371 129.282C301.61 128.237 302.637 127.679 303.586 127.897Z" fill="#E7FDF7"/>
<path d="M278.877 146.828C279.826 147.046 280.507 148.004 280.271 149.04C280.034 150.076 279.097 150.674 278.054 150.434C277.105 150.217 276.424 149.258 276.662 148.213C276.901 147.168 277.928 146.61 278.877 146.828Z" fill="#E7FDF7"/>
<path d="M221.506 140.757C223.438 140.757 224.96 142.282 224.96 144.219C224.96 146.155 223.438 147.68 221.506 147.68C219.573 147.68 218.052 146.155 218.052 144.219C218.052 142.282 219.573 140.757 221.506 140.757Z" fill="#0DBF90"/>
<path d="M198.972 116.514C201.796 116.514 204.085 118.808 204.085 121.637C204.085 124.467 201.796 126.761 198.972 126.761C196.148 126.761 193.859 124.467 193.859 121.637C193.859 118.808 196.148 116.514 198.972 116.514Z" fill="#9FF9E1"/>
<path d="M219.71 93.9473C222.616 93.9473 224.96 96.3098 224.96 99.208C224.96 102.106 222.616 104.469 219.71 104.469C216.804 104.469 214.46 102.106 214.46 99.208C214.46 96.3098 216.818 93.9473 219.71 93.9473Z" fill="#0DBF90"/>
<path d="M248.59 115.264C248.864 115.539 249.138 115.951 249.138 116.514C249.138 117.077 249.001 117.476 248.59 117.764C248.316 118.039 247.905 118.313 247.343 118.313C246.369 118.313 245.547 117.476 245.547 116.514C245.547 116.102 245.684 115.539 246.095 115.264C246.369 114.989 246.781 114.715 247.343 114.715C247.905 114.715 248.316 114.989 248.59 115.264Z" fill="#E7FDF7"/>
<path d="M272.865 103.07C272.822 103.456 272.673 103.928 272.234 104.28C271.795 104.632 271.399 104.774 270.918 104.633C270.532 104.59 270.061 104.44 269.71 104.001C269.102 103.239 269.241 102.072 269.989 101.471C270.31 101.214 270.835 100.969 271.306 101.119C271.691 101.162 272.162 101.312 272.513 101.751C272.865 102.191 272.908 102.684 272.865 103.07Z" fill="#E7FDF7"/>
<path d="M301.548 121.535C301.693 121.766 301.817 122.092 301.728 122.478C301.64 122.864 301.484 123.115 301.157 123.249C300.926 123.394 300.601 123.518 300.216 123.429C299.549 123.276 299.116 122.573 299.266 121.914C299.331 121.631 299.513 121.267 299.838 121.143C300.069 120.998 300.394 120.874 300.779 120.962C301.164 121.05 301.403 121.303 301.548 121.535Z" fill="#E7FDF7"/>
<path d="M276.839 140.466C276.984 140.697 277.107 141.023 277.019 141.409C276.931 141.795 276.775 142.047 276.448 142.18C276.217 142.325 275.892 142.449 275.507 142.36C274.84 142.207 274.407 141.504 274.557 140.845C274.622 140.562 274.804 140.198 275.129 140.074C275.36 139.929 275.685 139.805 276.07 139.893C276.455 139.982 276.694 140.234 276.839 140.466Z" fill="#E7FDF7"/>
<path d="M246.931 87.5741C247.206 87.8488 247.48 88.2608 247.48 88.824C247.48 89.3871 247.343 89.7992 246.931 90.0739C246.657 90.3486 246.246 90.6233 245.684 90.6233C244.711 90.6233 244.026 89.7855 244.026 88.824C244.026 88.4119 244.163 87.8488 244.574 87.5741C244.848 87.2994 245.259 87.0247 245.821 87.0247C246.095 87.0247 246.507 87.2994 246.931 87.5741Z" fill="#E7FDF7"/>
<path d="M245.136 158.477C245.41 158.751 245.684 159.163 245.684 159.727C245.684 160.139 245.547 160.702 245.136 160.977C244.862 161.251 244.451 161.526 243.889 161.526C242.915 161.526 242.093 160.702 242.093 159.727C242.093 159.315 242.23 158.751 242.641 158.477C242.915 158.202 243.327 157.927 243.889 157.927C244.451 157.927 244.862 158.202 245.136 158.477Z" fill="#E7FDF7"/>
<path d="M214.035 118.741C214.31 119.016 214.584 119.428 214.584 119.991C214.584 120.554 214.447 120.953 214.035 121.241C213.761 121.516 213.35 121.79 212.788 121.79C211.815 121.79 210.993 120.953 210.993 119.991C210.993 119.579 211.13 119.016 211.541 118.741C211.815 118.466 212.226 118.192 212.788 118.192C213.35 118.192 213.761 118.466 214.035 118.741Z" fill="#40F2C3"/>
<path d="M214.035 148.092C214.31 148.367 214.584 148.779 214.584 149.342C214.584 149.754 214.447 150.317 214.035 150.592C213.761 150.867 213.35 151.142 212.788 151.142C211.815 151.142 210.993 150.317 210.993 149.342C210.993 148.93 211.13 148.367 211.541 148.092C211.815 147.818 212.226 147.543 212.788 147.543C213.336 147.68 213.761 147.818 214.035 148.092Z" fill="#40F2C3"/>
<path d="M195.107 110.004C195.381 110.279 195.655 110.691 195.655 111.254C195.655 111.817 195.518 112.229 195.107 112.504C194.832 112.779 194.421 113.054 193.859 113.054C192.886 113.054 192.064 112.216 192.064 111.254C192.064 110.842 192.201 110.279 192.612 110.004C192.886 109.73 193.297 109.455 193.859 109.455C194.27 109.592 194.695 109.73 195.107 110.004Z" fill="#40F2C3"/>
<path d="M193.311 87.5741C193.585 87.8488 193.859 88.2608 193.859 88.824C193.859 89.3871 193.722 89.7992 193.311 90.0739C193.037 90.3486 192.626 90.6233 192.064 90.6233C191.091 90.6233 190.268 89.7855 190.268 88.824C190.268 88.4119 190.405 87.8488 190.817 87.5741C191.091 87.2994 191.502 87.0247 192.064 87.0247C192.626 87.0247 193.037 87.2994 193.311 87.5741Z" fill="#E7FDF7"/>
<path d="M204.221 113.053C200.356 113.053 197.313 110.003 197.313 106.13C197.313 102.257 200.356 99.2073 204.221 99.2073C208.087 99.2073 211.13 102.257 211.13 106.13C211.13 107.105 210.307 107.929 209.334 107.929C208.361 107.929 207.538 107.091 207.538 106.13C207.538 104.193 206.017 102.669 204.084 102.669C202.152 102.669 200.63 104.193 200.63 106.13C200.63 108.067 202.152 109.591 204.084 109.591C205.058 109.591 205.88 110.415 205.88 111.391C205.88 112.215 205.195 113.053 204.221 113.053Z" fill="#9FF9E1"/>
<path d="M205.88 144.219C204.907 144.219 204.085 143.394 204.085 142.419C204.085 141.444 204.907 140.62 205.88 140.62C207.813 140.62 209.334 139.095 209.334 137.159C209.334 135.222 207.813 133.697 205.88 133.697C203.947 133.697 202.426 135.222 202.426 137.159C202.426 138.134 201.604 138.958 200.63 138.958C199.657 138.958 198.835 138.12 198.835 137.159C198.835 133.285 201.878 130.236 205.743 130.236C209.608 130.236 212.651 133.285 212.651 137.159C212.651 141.032 209.745 144.219 205.88 144.219Z" fill="#9FF9E1"/>
<path d="M200.365 192.494C199.496 193.112 198.232 192.887 197.624 192.03L173.634 158.188C173.017 157.318 173.242 156.051 174.099 155.442C174.955 154.832 176.231 155.048 176.839 155.906L200.925 189.882C201.324 190.704 201.23 191.896 200.373 192.506L200.365 192.494Z" fill="#AC73BF"/>
<path d="M221.146 211.346L211.9 217.928L213.224 210.112L221.146 211.346Z" fill="#AC73BF"/>
<path d="M216.423 197.599C216.056 197.86 215.724 197.912 215.381 197.972L211.686 198.004C210.605 198.037 209.767 197.141 209.834 196.171C209.802 195.088 210.698 194.248 211.665 194.314L215.36 194.282C216.453 194.241 217.279 195.146 217.212 196.116C217.228 196.658 216.912 197.251 216.41 197.608L216.423 197.599Z" fill="#AC73BF"/>
<path d="M201.177 208.821C200.81 209.082 200.356 209.221 199.926 209.159C198.88 208.982 198.129 208.208 198.223 207.016L198.601 204.148C198.779 203.1 199.56 202.36 200.74 202.441C201.786 202.618 202.525 203.401 202.434 204.571L202.056 207.439C201.95 208.068 201.535 208.547 201.168 208.809L201.177 208.821Z" fill="#AC73BF"/>
<path d="M178.327 227.871C177.96 228.133 177.507 228.271 176.867 228.174L171.597 227.281C170.551 227.104 169.848 226.112 170.025 225.064C170.202 224.016 171.193 223.311 172.239 223.488L177.509 224.38C178.555 224.558 179.258 225.55 179.081 226.598C178.974 227.226 178.694 227.61 178.315 227.88L178.327 227.871Z" fill="#79408C"/>
<path d="M175.352 155.09C174.724 154.983 174.014 155.305 173.611 155.776C173.489 155.863 170.451 159.703 166.9 165.936C163.665 171.576 159.314 180.627 157.475 190.857C155.225 202.873 156.472 214.057 161.138 224.301C161.633 225.257 162.643 225.644 163.685 225.271L163.929 225.096C164.663 224.574 164.94 223.64 164.532 222.806C160.361 213.519 159.145 203.418 160.96 192.633C169.095 189.44 174.581 184.613 177.2 178.104C181.712 167.463 176.824 156.622 176.686 156.167C176.67 155.625 175.983 155.175 175.355 155.069L175.352 155.09ZM173.974 176.695C171.974 181.455 168.064 185.364 162.175 188.064C164.232 179.724 167.719 172.596 170.394 167.724C171.953 164.938 173.436 162.591 174.56 161.035C175.462 164.669 176.364 170.902 173.974 176.695Z" fill="#79408C"/>
<path d="M168.339 221.619C170.289 220.969 172.417 221.868 173.262 223.865C173.91 225.818 173.011 227.951 171.026 228.811C169.077 229.462 166.948 228.563 166.082 226.562C165.719 225.531 165.813 224.339 166.287 223.449C166.638 222.646 167.384 222.115 168.327 221.628L168.339 221.619Z" fill="#AC73BF"/>
<path d="M184.801 196.699C186.525 195.471 188.847 195.864 190.071 197.591C191.296 199.318 190.902 201.644 189.177 202.872C187.452 204.1 185.131 203.707 183.907 201.98C182.682 200.253 183.076 197.927 184.801 196.699Z" fill="#F5EDF7"/>
<path d="M198.51 189.356C196.226 194.522 196.528 200.426 199.767 204.996C203.006 209.565 208.491 211.798 214.089 211.334C216.372 206.168 216.07 200.264 212.831 195.694C209.592 191.125 204.108 188.892 198.51 189.356Z" fill="#79408C"/>
<path d="M208.56 174.75L208.646 174.872C209.176 175.619 209.085 176.79 208.339 177.321L208.217 177.408C207.471 177.939 206.303 177.849 205.773 177.102L205.686 176.979C205.165 176.244 205.247 175.062 205.993 174.531C206.653 173.877 207.943 173.88 208.56 174.75Z" fill="#F5EDF7"/>
<path d="M177.976 147.83L178.063 147.953C178.593 148.7 178.502 149.871 177.756 150.402L177.634 150.489C176.887 151.02 175.719 150.93 175.19 150.183L175.103 150.06C174.582 149.325 174.664 148.143 175.41 147.612C176.069 146.958 177.237 147.048 177.976 147.83Z" fill="#F5EDF7"/>
<path d="M204.295 194.895L204.382 195.018C204.903 195.753 204.821 196.935 204.075 197.466L203.953 197.554C203.206 198.085 202.038 197.995 201.509 197.248C200.77 196.465 200.861 195.295 201.642 194.554L201.765 194.467C202.585 194.067 203.774 194.16 204.295 194.895Z" fill="#AC73BF"/>
<path d="M191.966 226.165L192.053 226.287C192.574 227.022 192.492 228.205 191.746 228.736L191.624 228.823C190.877 229.355 189.709 229.265 189.18 228.517L189.093 228.395C188.563 227.648 188.654 226.477 189.4 225.946C190.059 225.292 191.227 225.382 191.966 226.165Z" fill="#F5EDF7"/>
<path d="M148.154 187.644L148.241 187.767C148.771 188.514 148.68 189.684 147.934 190.215L147.812 190.303C147.078 190.825 145.898 190.744 145.368 189.997L145.281 189.874C144.76 189.139 144.842 187.956 145.588 187.425C146.235 186.78 147.416 186.861 148.154 187.644Z" fill="#F5EDF7"/>
<path d="M151.858 222.195L151.945 222.317C152.466 223.052 152.384 224.235 151.638 224.766L151.515 224.853C150.782 225.376 149.601 225.295 149.072 224.547L148.985 224.425C148.455 223.678 148.546 222.507 149.292 221.976C149.939 221.331 151.119 221.412 151.858 222.195Z" fill="#F5EDF7"/>
<path d="M164.73 224.918C164.118 225.354 163.356 225.343 162.755 225.015C161.867 224.541 161.531 223.288 162.103 222.512C166.779 214.722 167.577 207.462 164.488 200.74C162.204 195.675 158.642 193.013 158.433 192.978C157.572 192.282 157.331 191.163 158.026 190.3C158.721 189.437 159.837 189.194 160.698 189.89C160.785 190.013 165.122 193.248 167.804 199.135C170.348 204.568 171.911 213.317 165.353 224.474C165.144 224.439 164.986 224.735 164.742 224.91L164.73 224.918Z" fill="#79408C"/>
<path d="M163.688 223.438C164.608 223.152 165.445 223.294 166.29 223.448C165.804 224.347 165.723 225.529 166.086 226.561C166.734 228.514 168.937 229.545 171.03 228.81L174.314 237.624C175.188 240.154 174.292 242.838 172.323 244.24C171.956 244.501 171.454 244.858 171 244.997C168.095 246.144 164.774 244.601 163.766 241.595L159.933 230.942C159.06 228.411 159.955 225.728 161.924 224.326C162.291 224.064 162.793 223.707 163.247 223.569C163.247 223.569 163.369 223.481 163.701 223.43L163.688 223.438Z" fill="#C196CF"/>
<path d="M92.3122 142.826C93.6012 142.826 94.7626 143.862 94.7626 145.282C94.7626 146.574 93.7288 147.737 92.3122 147.737C90.8957 147.737 90.0023 146.574 90.0023 145.282C90.0023 143.99 91.036 142.826 92.3122 142.826Z" fill="#F5EDF7"/>
<path d="M145.454 138.055C147.661 138.055 149.448 139.846 149.448 142.058C149.448 144.271 147.661 146.048 145.454 146.048C143.246 146.048 141.472 144.258 141.472 142.058C141.472 139.859 143.258 138.055 145.454 138.055Z" fill="#F5EDF7"/>
<path d="M149.435 84.8036C151.235 84.8036 152.651 86.2231 152.651 88.0264C152.651 89.8296 151.235 91.2492 149.435 91.2492C147.636 91.2492 146.219 89.8296 146.219 88.0264C146.219 86.2231 147.636 84.8036 149.435 84.8036Z" fill="#F5EDF7"/>
<path d="M125.379 113.809C125.379 108.527 121.001 104.141 115.731 104.141C110.46 104.141 106.082 108.527 106.082 113.809C106.082 119.091 110.46 123.477 115.731 123.477C121.001 123.477 125.379 119.219 125.379 113.809ZM144.675 113.809C144.675 129.795 131.683 142.814 115.718 142.814C99.7525 142.814 86.7607 129.923 86.7607 113.809C86.7607 97.6951 99.6248 84.7912 115.718 84.7912C131.811 84.7912 144.675 97.8102 144.675 113.809Z" fill="#C196CF"/>
<path d="M153.813 96.5308C154.068 96.7865 154.323 97.1702 154.323 97.6946C154.323 98.2189 154.195 98.6026 153.813 98.8583C153.557 99.1141 153.174 99.3699 152.651 99.3699C151.745 99.3699 150.979 98.5898 150.979 97.6946C150.979 97.3109 151.107 96.7865 151.49 96.5308C151.745 96.275 152.128 96.0192 152.651 96.0192C153.174 96.0192 153.557 96.275 153.813 96.5308Z" fill="#F5EDF7"/>
<path d="M153.813 131.994C154.068 132.249 154.323 132.633 154.323 133.157C154.323 133.541 154.195 134.065 153.813 134.321C153.557 134.577 153.174 134.833 152.651 134.833C151.745 134.833 150.979 134.065 150.979 133.157C150.979 132.774 151.107 132.249 151.49 131.994C151.745 131.738 152.128 131.482 152.651 131.482C153.174 131.482 153.557 131.738 153.813 131.994Z" fill="#F5EDF7"/>
<path d="M136.188 80.4167C136.443 80.6725 136.699 81.0562 136.699 81.5805C136.699 82.1049 136.571 82.4885 136.188 82.7443C135.933 83 135.55 83.2559 135.027 83.2559C134.121 83.2559 133.355 82.4885 133.355 81.5805C133.355 81.1969 133.483 80.6725 133.866 80.4167C134.121 80.161 134.504 79.9052 135.027 79.9052C135.55 79.9052 135.793 80.161 136.188 80.4167Z" fill="#F5EDF7"/>
<path d="M102.343 144.886C102.598 145.141 102.854 145.525 102.854 146.049C102.854 146.433 102.726 146.957 102.343 147.213C102.088 147.469 101.705 147.725 101.182 147.725C100.276 147.725 99.5101 146.957 99.5101 146.049C99.5101 145.666 99.6377 145.141 100.021 144.886C100.276 144.63 100.659 144.374 101.182 144.374C101.705 144.374 102.088 144.63 102.343 144.886Z" fill="#F5EDF7"/>
<path d="M94.3669 78.8693C94.6221 79.125 94.8774 79.5087 94.8774 80.0331C94.8774 80.5574 94.7498 80.9411 94.3669 81.1968C93.984 81.4526 93.7288 81.7084 93.2055 81.7084C92.2994 81.7084 91.5337 80.9283 91.5337 80.0331C91.5337 79.6494 91.6613 79.125 92.0442 78.8693C92.2994 78.6135 92.6823 78.3577 93.2055 78.3577C93.7288 78.3577 93.984 78.6135 94.3669 78.8693Z" fill="#F5EDF7"/>
<path d="M115.73 134.833C104.155 134.833 94.7624 125.421 94.7624 113.821C94.7624 112.913 95.5281 112.146 96.4342 112.146C97.3404 112.146 98.1061 112.913 98.1061 113.821C98.1061 123.618 106.082 131.611 115.858 131.611C125.634 131.611 133.61 123.618 133.61 113.821C133.61 104.025 125.634 96.032 115.858 96.032C110.843 96.032 105.955 98.2189 102.611 102.094C101.973 102.733 101.067 102.861 100.301 102.222C99.663 101.582 99.5354 100.674 100.174 99.907C104.168 95.3926 109.822 92.8093 115.871 92.8093C127.446 92.8093 136.839 102.222 136.839 113.821C136.584 125.421 127.191 134.833 115.743 134.833H115.73Z" fill="#AC73BF"/>
<path d="M151.107 115.484H115.718C114.812 115.484 114.046 114.704 114.046 113.809C114.046 112.913 114.812 112.133 115.718 112.133H151.107C152.013 112.133 152.779 112.901 152.779 113.809C152.779 114.717 152.013 115.484 151.107 115.484Z" fill="#79408C"/>
<path d="M158.828 109.038H150.852L149.18 113.809L150.852 118.707H158.828L157.284 113.809L158.828 109.038Z" fill="#3D2046"/>
<path d="M299.541 152.877L301.941 155.702L304.621 158.816L312.38 167.938L311.744 168.576L309.274 171.051L308.637 171.689L299.464 163.843L296.435 161.228L293.615 158.823C296.505 158.185 298.905 155.857 299.541 152.884V152.877Z" fill="#5B3069"/>
<path d="M304.201 184.688C304.698 184.688 305.118 184.268 305.118 183.77V183.7C305.118 181.792 303.564 180.236 301.661 180.236H284.869C284.659 180.236 284.449 180.166 284.232 179.955C284.092 179.815 283.952 179.535 283.952 179.317C283.952 178.82 284.379 178.399 284.869 178.399H314.5C315.137 178.399 315.767 178.118 316.194 177.691C316.69 177.193 316.9 176.632 316.9 175.994C316.9 175.356 316.621 174.725 316.194 174.297L313.584 171.682C313.234 171.331 312.667 171.331 312.31 171.682C311.961 172.032 311.961 172.6 312.31 172.951L314.92 175.566C315.06 175.706 315.13 175.847 315.13 176.064C315.13 176.281 315.06 176.415 314.92 176.562C314.78 176.702 314.64 176.772 314.424 176.772H284.652C283.169 176.772 281.972 177.971 281.972 179.458C281.972 180.166 282.252 180.804 282.749 181.365C283.246 181.863 283.945 182.143 284.652 182.143H301.584C302.501 182.143 303.278 182.921 303.278 183.84V183.91C303.278 184.261 303.704 184.688 304.194 184.688H304.201Z" fill="#79408C"/>
<path d="M304.621 158.816L302.011 155.773C301.661 157.049 300.955 158.248 299.968 159.237C298.982 160.225 297.778 160.934 296.512 161.284L299.541 163.9C300.598 163.402 301.584 162.701 302.508 161.782C303.355 160.864 304.061 159.875 304.621 158.816Z" fill="#AC73BF"/>
<path d="M286.212 145.452C283.106 148.565 283.106 153.578 286.212 156.691C289.739 160.225 295.665 159.657 298.415 155.492C300.458 152.526 300.178 148.214 297.428 145.452C294.322 142.339 289.319 142.339 286.212 145.452Z" fill="#79408C"/>
<path d="M317.39 157.259C316.404 157.259 315.627 158.037 315.627 159.026C315.627 160.015 316.404 160.793 317.39 160.793C318.377 160.793 319.153 160.015 319.153 159.026C319.153 158.037 318.377 157.259 317.39 157.259Z" fill="#79408C"/>
<path d="M292.279 170.545C291.068 170.545 290.089 171.527 290.089 172.74C290.089 173.953 291.068 174.934 292.279 174.934C293.489 174.934 294.462 173.953 294.462 172.74C294.462 171.527 293.482 170.545 292.279 170.545Z" fill="#79408C"/>
<path d="M309.281 171.114L310.547 172.383C311.254 173.091 312.38 173.091 313.017 172.383C313.724 171.675 313.724 170.546 313.017 169.908L311.744 168.639L309.274 171.114H309.281Z" fill="#AC73BF"/>
<path d="M298.912 170.545V170.615C298.982 171.036 299.338 171.394 299.758 171.394H299.828C300.255 171.324 300.605 170.973 300.605 170.545V170.475C300.535 169.977 300.108 169.627 299.618 169.697C299.268 169.697 298.912 170.047 298.912 170.545Z" fill="#79408C"/>
<path d="M305.964 166.093V166.163C306.034 166.584 306.391 166.942 306.811 166.942H306.881C307.301 166.871 307.658 166.521 307.658 166.093V166.023C307.588 165.525 307.161 165.175 306.671 165.245C306.321 165.245 305.964 165.673 305.964 166.093Z" fill="#AC73BF"/>
<path d="M310.337 153.726V153.796C310.407 154.217 310.764 154.574 311.184 154.574H311.254C311.674 154.504 312.031 154.147 312.031 153.726V153.656C311.961 153.158 311.534 152.807 311.044 152.878C310.694 152.878 310.337 153.298 310.337 153.726Z" fill="#79408C"/>
<path d="M313.017 181.015V181.085C313.087 181.512 313.437 181.863 313.864 181.863H313.934C314.354 181.793 314.711 181.435 314.711 181.015V180.944C314.641 180.447 314.214 180.096 313.724 180.166C313.304 180.236 313.017 180.594 313.017 181.015Z" fill="#79408C"/>
<path d="M318.307 168.779V168.849C318.377 169.277 318.727 169.627 319.153 169.627H319.223C319.643 169.557 320 169.206 320 168.779V168.709C319.93 168.211 319.503 167.86 319.014 167.93C318.664 167.93 318.307 168.281 318.307 168.779Z" fill="#79408C"/>
<path d="M288.752 148.845C288.962 148.845 289.172 148.775 289.389 148.564C290.802 147.218 292.985 147.218 294.399 148.564C294.748 148.915 295.315 148.915 295.665 148.564C296.015 148.214 296.015 147.646 295.665 147.295C293.622 145.248 290.235 145.248 288.185 147.295C287.836 147.646 287.836 148.214 288.185 148.564C288.255 148.775 288.465 148.845 288.752 148.845Z" fill="#AC73BF"/>
<path d="M306.671 146.3C306.811 146.09 306.951 146.02 306.951 146.02C307.091 145.949 307.161 145.879 307.301 145.809L308.077 145.311C307.798 145.101 307.511 144.891 307.301 144.463C307.021 144.042 307.161 143.474 307.581 143.264C308 142.984 308.567 143.124 308.777 143.545C309.204 144.183 310.4 143.755 310.47 143.755C311.177 143.474 311.884 144.176 311.597 144.884C311.597 144.954 311.527 145.094 311.457 145.164C311.317 145.375 311.247 145.304 309.694 146.363C310.33 147.282 310.12 148.481 309.197 149.119C308.35 149.687 307.154 149.399 306.587 148.551C306.09 147.843 306.16 146.924 306.657 146.286L306.671 146.3Z" fill="#F5EDF7"/>
<path d="M287.129 165.672C286.919 165.742 286.702 165.602 286.702 165.602C286.562 165.602 286.422 165.532 286.282 165.462L285.436 165.181C285.506 165.532 285.436 165.89 285.296 166.31C285.156 166.738 284.589 167.018 284.169 166.808C283.742 166.598 283.463 166.1 283.672 165.679C283.952 164.971 282.826 164.193 282.826 164.193C282.189 163.842 282.259 162.847 282.966 162.636C283.036 162.566 283.176 162.566 283.316 162.566C283.526 162.566 283.526 162.636 285.289 163.204C285.569 162.145 286.702 161.578 287.759 161.928C288.745 162.279 289.242 163.344 288.955 164.333C288.675 165.181 287.899 165.679 287.122 165.679L287.129 165.672Z" fill="#F5EDF7"/>
<path d="M64.8744 126.14L62.1166 131.667H20.7383L17.9805 126.14H64.8744Z" fill="#09906C"/>
<path d="M32.7655 126.139L26.254 104.019H57.9252L51.4136 126.139L51.0853 127.466H33.0938L32.7655 126.139Z" fill="#0DC695"/>
<path d="M42.801 99.8213C42.024 99.8213 41.3674 99.1633 41.3674 98.3847V90.0939C41.3674 89.3152 42.024 88.6572 42.801 88.6572C43.578 88.6572 44.2346 89.3262 44.2346 90.0939V98.3847C44.1252 99.1633 43.5671 99.8213 42.801 99.8213Z" fill="#E7FDF7"/>
<path d="M45.5588 68.0937C47.1018 68.0937 48.3166 69.311 48.3166 70.8573C48.3166 72.4036 47.1018 73.6209 45.5588 73.6209C44.0157 73.6209 42.8009 72.4036 42.8009 70.8573C42.8009 69.311 44.0157 68.0937 45.5588 68.0937Z" fill="#E7FDF7"/>
<path d="M59.906 99.271C60.4532 99.8194 60.683 100.488 60.683 101.256C60.683 102.802 59.4683 104.02 57.9252 104.02H26.254C25.477 104.02 24.8204 103.691 24.2732 103.241C23.726 102.693 23.4962 102.024 23.4962 101.256C23.4962 99.7097 24.7109 98.4924 26.254 98.4924H58.0346C58.7022 98.4924 59.3588 98.7117 59.906 99.271Z" fill="#0FB78B"/>
<path d="M42.8008 90.2026C42.5819 88.7659 42.5819 87.3293 42.8008 86.0023C43.1291 83.6774 44.2345 81.4731 45.887 79.6965C48.6448 76.8232 52.6174 75.7156 56.5899 76.2639C57.2575 80.2448 56.2616 84.2257 53.6132 87.099C50.8554 89.9723 46.8828 91.0799 42.9103 90.5316C42.8008 90.4219 42.8008 90.3122 42.8008 90.2026Z" fill="#0DC695"/>
<path d="M42.6914 90.5309C38.7189 91.0793 34.7463 89.9826 31.9885 87.0984C29.2306 84.2251 28.2348 80.2442 29.0118 76.2633C32.9844 75.7149 36.9569 76.8116 39.7148 79.6958C41.3673 81.4615 42.4726 83.6767 42.8009 86.0017C42.582 87.3287 42.582 88.7653 42.8009 90.2019C42.8009 90.3116 42.6914 90.4213 42.6914 90.5309Z" fill="#09906C"/>
<path d="M11.0313 92.9653H19.3047V106.783C19.3047 111.313 15.551 115.074 11.0313 115.074C6.51151 115.074 2.75781 111.313 2.75781 106.783V92.9653H11.0313Z" fill="#09906C"/>
<path d="M60.683 90.2032C61.4601 90.2032 62.1167 90.8612 62.1167 91.6399C62.1167 91.9689 62.0072 92.4185 61.6789 92.6379C61.4601 92.8572 61.1317 93.0765 60.683 93.0765C60.2344 93.0765 59.9061 92.9669 59.6872 92.6379C59.4683 92.3089 59.2494 92.0895 59.2494 91.6399C59.2494 91.1902 59.3589 90.8612 59.6872 90.6419C60.0155 90.3129 60.3547 90.2032 60.683 90.2032Z" fill="#E7FDF7"/>
<path d="M59.3589 116.411C60.1359 116.411 60.7925 117.07 60.7925 117.848C60.7925 118.177 60.6831 118.627 60.3547 118.846C60.1359 119.065 59.8076 119.285 59.3589 119.285C58.9102 119.285 58.5818 119.175 58.363 118.846C58.1441 118.627 57.9252 118.298 57.9252 117.848C57.9252 117.519 58.0347 117.07 58.363 116.85C58.6913 116.631 58.9102 116.411 59.3589 116.411Z" fill="#E7FDF7"/>
<path d="M56.6011 68.0937C57.3781 68.0937 58.0347 68.7517 58.0347 69.5303C58.0347 69.8593 57.9253 70.309 57.597 70.5283C57.2687 70.7476 57.0498 70.967 56.6011 70.967C56.1524 70.967 55.8241 70.8573 55.6052 70.5283C55.3863 70.309 55.1675 69.98 55.1675 69.5303C55.1675 69.0807 55.2769 68.7517 55.6052 68.5324C55.8241 68.2034 56.1524 68.0937 56.6011 68.0937Z" fill="#E7FDF7"/>
<path d="M22.0625 116.411C22.8395 116.411 23.4962 117.07 23.4962 117.848C23.4962 118.177 23.3867 118.627 23.0584 118.846C22.8395 119.065 22.5112 119.285 22.0625 119.285C21.6138 119.285 21.2855 119.175 21.0666 118.846C20.8478 118.627 20.6289 118.298 20.6289 117.848C20.6289 117.519 20.7383 117.07 21.0666 116.85C21.395 116.631 21.7233 116.411 22.0625 116.411Z" fill="#E7FDF7"/>
<path d="M20.7384 80.4747C21.5154 80.4747 22.172 81.1327 22.172 81.9113C22.172 82.2403 22.0626 82.6899 21.7343 82.9093C21.4059 83.1286 21.0776 83.2383 20.7384 83.2383C20.3991 83.2383 19.9614 83.1286 19.7425 82.7996C19.5236 82.4706 19.3047 82.2513 19.3047 81.8016C19.3047 81.352 19.4142 81.023 19.7425 80.8037C20.0708 80.5844 20.2897 80.4747 20.7384 80.4747Z" fill="#E7FDF7"/>
<path d="M1.43363 84.6749C2.21063 84.6749 2.86725 85.3438 2.86725 86.1115C2.86725 86.4405 2.75782 86.8901 2.42951 87.1095C2.21064 87.3288 1.88232 87.5481 1.43363 87.5481C0.984934 87.5481 0.656634 87.4385 0.43776 87.1095C0.218885 86.8901 0 86.5611 0 86.1115C0 85.7825 0.109447 85.3329 0.43776 85.1135C0.656634 84.7845 0.984934 84.6749 1.43363 84.6749Z" fill="#E7FDF7"/>
<path d="M43.2499 119.176C43.2499 118.398 42.5933 117.74 41.8163 117.74H30.3363L31.1133 120.503H41.9257C42.7027 120.613 43.2499 119.955 43.2499 119.176Z" fill="#09906C"/>
<path d="M36.4099 112.311C36.4099 111.533 35.7533 110.875 34.9763 110.875H28.2459L29.0229 113.638H34.9763C35.7533 113.638 36.4099 112.98 36.4099 112.311Z" fill="#09906C"/>
<path d="M11.0313 101.257C10.2543 101.257 9.59766 100.599 9.59766 99.82V86.0019C9.59766 85.2233 10.2652 84.5653 11.0313 84.5653C11.7973 84.5653 12.4649 85.2233 12.4649 86.0019V99.82C12.4649 100.599 11.7973 101.257 11.0313 101.257Z" fill="#0DC695"/>
<path d="M13.7892 76.3829V86.0007H11.0314H8.27353V76.3829H13.7892Z" fill="#E7FDF7"/>
<path d="M244.451 67.2272C245.567 67.2272 246.561 68.1235 246.561 69.3518C246.561 70.4694 245.666 71.4764 244.451 71.4764C243.336 71.4764 242.331 70.5801 242.331 69.3518C242.331 68.2342 243.336 67.2272 244.451 67.2272Z" fill="#F5EDF7"/>
<path d="M293.888 28.1765C295.445 28.1765 296.671 29.4048 296.671 30.965C296.671 32.5253 295.445 33.7536 293.888 33.7536C292.331 33.7536 291.105 32.5253 291.105 30.965C291.105 29.5154 292.331 28.1765 293.888 28.1765Z" fill="#F5EDF7"/>
<path d="M271.836 19.4795C270.39 18.8156 268.943 18.2512 267.386 17.9193C264.272 17.1336 261.037 17.1336 258.033 17.698C249.685 19.2582 242.563 25.5102 240.443 34.3184C239.891 36.775 239.659 39.1209 239.891 41.5664C240.332 46.2472 242.121 50.607 245.125 54.1701C248.018 57.6336 252.026 60.1898 256.819 61.4181C258.265 61.75 259.601 61.9713 261.048 61.9713C263.72 57.9545 267.055 54.5021 271.295 51.9349C271.847 51.6029 272.41 51.2709 272.963 51.0385C276.077 49.3676 279.422 48.25 282.978 47.8074C283.089 47.5861 283.089 47.4754 283.199 47.2541C283.42 46.5902 283.641 45.8045 283.861 45.0189C286.313 34.5287 281.079 24.0496 271.836 19.4685V19.4795Z" fill="#79408C"/>
<path d="M271.836 19.4806C281.079 23.94 286.313 34.5408 283.751 44.9203C283.53 45.706 283.31 46.3699 283.078 47.1556C277.623 33.1023 264.261 28.1892 264.261 28.1892C267.154 22.8335 271.836 19.713 271.836 19.713V19.4916V19.4806Z" fill="#C196CF"/>
<path d="M272.841 50.9388C272.289 51.2708 271.726 51.6138 271.174 51.9458C266.945 54.513 263.599 57.9654 260.927 61.9822C259.591 61.8716 258.144 61.7609 256.697 61.4289C252.026 60.3113 248.018 57.6335 245.003 54.181C259.811 56.4162 270.832 47.265 270.832 47.265H270.942C271.837 48.3826 272.389 49.7216 272.83 50.9499L272.841 50.9388Z" fill="#AC73BF"/>
<path d="M271.064 47.1434C270.953 47.1434 260.043 56.4053 245.235 54.0594C242.232 50.5958 240.332 46.1364 240.001 41.4556H240.332C240.332 41.4556 245.003 43.5692 251.242 43.4585C254.809 43.3479 258.707 42.4516 262.263 39.5524C266.382 41.2233 269.164 44.1225 271.052 47.1434H271.064Z" fill="#C196CF"/>
<path d="M302.347 49.7106C302.015 52.2778 301.452 54.7344 300.679 56.9586L295.776 47.8073C297.897 48.3606 300.116 48.925 302.347 49.6996V49.7106Z" fill="#79408C"/>
<path d="M300.679 57.0797C299.895 59.5362 298.902 61.8821 297.786 63.9957L287.539 47.8178V47.2645C290.211 47.1539 292.994 47.4859 295.776 47.9395L300.679 57.0908V57.0797Z" fill="#AC73BF"/>
<path d="M260.927 61.8716C263.599 57.8548 266.934 54.4023 271.174 51.8351C271.726 51.5031 272.289 51.1712 272.841 50.9388C275.955 49.2679 279.301 48.1503 282.857 47.7076C284.414 47.4863 285.971 47.3757 287.528 47.265L297.775 63.9962C294.993 69.1306 291.095 73.3687 286.081 76.4892C281.068 79.4991 275.392 81.0593 269.496 81.181L259.48 64.4499C260.032 63.5535 260.485 62.6683 260.927 61.8826V61.8716Z" fill="#79408C"/>
<path d="M296.218 39.784C296.439 40.0053 296.66 40.3373 296.66 40.791C296.66 41.1229 296.55 41.5766 296.218 41.7979C295.997 42.0192 295.666 42.2405 295.213 42.2405C294.429 42.2405 293.767 41.5766 293.767 40.791C293.767 40.459 293.877 40.0053 294.209 39.784C294.429 39.5627 294.761 39.3414 295.213 39.3414C295.666 39.3414 295.997 39.5627 296.218 39.784Z" fill="#F5EDF7"/>
<path d="M296.218 76.0467C296.439 76.2681 296.66 76.6 296.66 77.0537C296.66 77.3857 296.55 77.8394 296.218 78.0607C295.997 78.282 295.666 78.5033 295.213 78.5033C294.429 78.5033 293.767 77.8283 293.767 77.0537C293.767 76.7217 293.877 76.2681 294.209 76.0467C294.429 75.8254 294.761 75.6041 295.213 75.6041C295.666 75.6041 295.997 75.8254 296.218 76.0467Z" fill="#F5EDF7"/>
<path d="M287.87 23.0538C288.091 23.2751 288.312 23.607 288.312 24.0607C288.312 24.3927 288.201 24.8464 287.87 25.0677C287.649 25.289 287.318 25.5103 286.865 25.5103C286.081 25.5103 285.419 24.8464 285.419 24.0607C285.419 23.7288 285.529 23.2751 285.86 23.0538C286.081 22.8324 286.413 22.6111 286.865 22.6111C287.318 22.6111 287.649 22.8324 287.87 23.0538Z" fill="#F5EDF7"/>
<path d="M271.837 19.4797L271.726 19.5904C271.726 19.5904 267.055 22.7109 264.151 28.0666C262.484 31.2978 261.368 35.0933 262.152 39.5527C258.707 42.3412 254.809 43.3482 251.132 43.4588C251.132 43.4588 248.681 29.4055 258.034 17.6871C261.037 17.1338 264.151 17.1338 267.386 17.9084C268.943 18.2404 270.5 18.8047 271.837 19.4687V19.4797Z" fill="#AC73BF"/>
<path d="M269.507 81.0594C266.724 81.0594 263.941 80.8381 261.158 80.2738L256.377 72.0188C257.161 69.341 258.265 66.6631 259.491 64.3172L269.507 81.0483V81.0594Z" fill="#AC73BF"/>
<path d="M261.269 80.2851C259.149 79.8424 257.15 79.2781 255.03 78.6142C255.361 76.3789 255.814 74.1547 256.476 72.1408L261.258 80.2851H261.269Z" fill="#79408C"/>
<path d="M244.783 59.3053C245.004 59.5266 245.224 59.8586 245.224 60.3123C245.224 60.6442 245.114 61.0979 244.783 61.3192C244.562 61.5405 244.231 61.7618 243.778 61.7618C243.005 61.7618 242.331 61.0868 242.331 60.3123C242.331 59.9803 242.442 59.5266 242.773 59.3053C242.994 59.084 243.325 58.8627 243.778 58.8627C244.109 58.8627 244.562 59.084 244.783 59.3053Z" fill="#F5EDF7"/>
<path d="M240.553 20.2654C240.774 20.4867 240.995 20.8187 240.995 21.2723C240.995 21.6043 240.885 22.058 240.553 22.2793C240.332 22.5006 240.001 22.7219 239.548 22.7219C238.764 22.7219 238.102 22.058 238.102 21.2723C238.102 20.9404 238.212 20.4867 238.544 20.2654C238.764 20.0441 239.096 19.8228 239.548 19.8228C240.001 19.8228 240.332 20.0441 240.553 20.2654Z" fill="#F5EDF7"/>
<path d="M268.944 64.8819C268.612 64.8819 268.391 64.7712 268.159 64.6606C267.497 64.218 267.375 63.3217 267.828 62.7684C267.828 62.7684 268.612 61.6507 270.28 60.2012C271.505 59.0835 272.952 58.0766 274.509 57.1913C275.955 56.295 277.512 55.6311 279.18 54.9561C280.185 54.6241 281.178 54.1704 282.294 53.9491C283.078 53.7278 283.851 54.1704 284.072 54.8454C284.292 55.5094 283.851 56.4056 283.177 56.627C282.172 56.9589 281.289 57.302 280.284 57.6339C278.837 58.1872 277.391 58.8622 276.055 59.6368C274.608 60.4225 273.382 61.3077 272.267 62.3147C270.931 63.543 270.269 64.3176 270.269 64.3176C269.827 64.6495 269.374 64.8708 268.932 64.8708L268.944 64.8819Z" fill="#F5EDF7"/>
<path d="M273.515 66.4528C273.073 66.4528 272.621 66.2315 272.289 65.7778L268.502 59.5257C268.06 58.8507 268.281 57.9655 268.943 57.6335C269.606 57.3015 270.5 57.4122 270.832 58.0761L274.619 64.3282C275.061 65.0032 274.84 65.8884 274.178 66.2204C273.957 66.331 273.736 66.4417 273.515 66.4417V66.4528Z" fill="#AC73BF"/>
<path d="M277.634 63.8859C277.192 63.8859 276.739 63.6647 276.408 63.222L272.621 56.97C272.179 56.306 272.4 55.4097 273.062 55.0778C273.725 54.6351 274.619 54.8564 274.951 55.5204L278.738 61.7724C279.18 62.4364 278.959 63.3327 278.296 63.6647C278.186 63.7753 277.965 63.8859 277.634 63.8859Z" fill="#AC73BF"/>
<path d="M281.863 61.3185C281.421 61.3185 280.968 61.0971 280.637 60.6435L276.85 54.3914C276.408 53.7164 276.629 52.8312 277.291 52.4992C277.954 52.0566 278.848 52.2779 279.179 52.9418L282.967 59.1939C283.409 59.8578 283.188 60.7541 282.525 61.0861C282.305 61.3074 282.084 61.3074 281.863 61.3074V61.3185Z" fill="#AC73BF"/>
<path d="M152.764 24.3497C151.964 24.3497 151.287 23.6718 151.287 22.8695V12.8466C151.287 12.0443 151.964 11.3663 152.764 11.3663C153.565 11.3663 154.241 12.0443 154.241 12.8466V22.8695C154.241 23.6718 153.565 24.3497 152.764 24.3497Z" fill="#066048"/>
<path d="M171.291 24.3497C170.501 24.3497 169.814 23.6718 169.814 22.8695V12.8466C169.814 12.0443 170.501 11.3663 171.291 11.3663C172.08 11.3663 172.768 12.0443 172.768 12.8466V22.8695C172.655 23.6718 171.967 24.3497 171.291 24.3497Z" fill="#066048"/>
<path d="M166.972 12.1576H156.97C156.17 12.1576 155.493 11.4796 155.493 10.6773C155.493 9.87506 156.17 9.19708 156.97 9.19708H166.972C167.773 9.19708 168.449 9.87506 168.449 10.6773C168.449 11.4796 167.773 12.1576 166.972 12.1576Z" fill="#066048"/>
<path d="M198.241 47.13C197.44 47.13 196.764 46.452 196.764 45.6497V31.977C196.764 29.2425 196.2 26.621 195.174 24.1124C194.61 22.7451 193.809 21.4909 193.02 20.2366C192.332 19.2083 191.543 18.3043 190.629 17.5021C189.829 16.6998 188.927 16.0218 187.901 15.3325C184.608 13.1743 180.853 12.033 176.985 12.033H175.508C174.707 12.033 174.031 11.355 174.031 10.5527C174.031 9.75043 174.719 9.07245 175.508 9.07245H176.985C181.417 9.07245 185.735 10.3267 189.378 12.8352C190.517 13.5132 191.531 14.4285 192.445 15.3438C193.471 16.2591 194.373 17.3891 195.174 18.5303C196.2 19.8976 196.989 21.3779 197.677 22.8582C198.929 25.7057 199.492 28.7792 199.492 31.8527V45.5254C199.718 46.4407 199.041 47.1187 198.241 47.1187V47.13Z" fill="#40F2C3"/>
<path d="M154.918 8.62023C156.057 8.62023 157.072 9.53551 157.072 10.7785C157.072 11.3435 156.846 11.9198 156.508 12.2587C156.17 12.5977 155.594 12.8237 155.031 12.8237H150.712C149.573 12.8237 148.547 11.9084 148.547 10.6542C148.547 10.0892 148.772 9.51289 149.111 9.1739C149.449 8.83491 150.024 8.49591 150.588 8.49591H154.907V8.60892L154.918 8.62023Z" fill="#09906C"/>
<path d="M173.343 8.62023C174.482 8.62023 175.497 9.53551 175.497 10.7785C175.497 11.3435 175.271 11.9198 174.933 12.2587C174.595 12.5977 174.02 12.8237 173.456 12.8237H169.137C167.998 12.8237 166.972 11.9084 166.972 10.6542C166.972 10.0892 167.198 9.51289 167.536 9.1739C167.874 8.83491 168.449 8.49591 169.013 8.49591H173.332V8.60892L173.343 8.62023Z" fill="#09906C"/>
<path d="M182.995 25.3659C179.928 21.7161 175.835 18.9815 171.291 17.3883C168.449 16.36 165.269 15.795 162.078 15.795C158.887 15.795 155.707 16.36 152.866 17.3883C142.063 21.1511 134.339 31.513 134.339 43.5924C134.339 58.9714 146.732 71.3898 162.078 71.3898C177.312 71.2768 189.705 58.8584 189.705 43.4794C189.705 36.5301 187.201 30.2587 182.995 25.3659Z" fill="#0DC695"/>
<path d="M137.181 8.62061C138.771 8.62061 140.022 9.87487 140.022 11.4681C140.022 13.0614 138.771 14.3157 137.181 14.3157C135.591 14.3157 134.339 13.0614 134.339 11.4681C134.339 9.87487 135.591 8.62061 137.181 8.62061Z" fill="#0DC695"/>
<path d="M164.469 43.9434C164.243 42.9151 163.443 41.8868 162.304 41.2088C162.078 41.0958 161.853 40.9828 161.627 40.8698C161.853 40.7568 162.078 40.6439 162.304 40.5309C163.443 39.8529 164.232 38.8246 164.469 37.7963C165.269 37.2313 165.495 36.3161 165.145 35.6268C164.807 34.9488 163.781 34.7115 162.868 35.1748C161.842 34.8358 160.59 35.0618 159.462 35.6268C159.237 35.7398 159.011 35.8528 158.898 36.0787C158.898 35.8528 159.011 35.6268 159.011 35.2765C159.011 33.9092 158.56 32.7679 157.76 32.0899C157.647 31.1747 156.959 30.3837 156.17 30.3837C155.38 30.3837 154.805 31.0617 154.58 32.0899C153.779 32.7679 153.328 33.9092 153.328 35.2765C153.328 35.5025 153.328 35.7285 153.441 36.0787C153.215 35.8528 152.99 35.7398 152.764 35.6268C151.625 34.9488 150.374 34.8245 149.359 35.1748C148.445 34.8358 147.543 34.9488 147.081 35.6268C146.743 36.3048 146.968 37.22 147.758 37.7963C147.983 38.8246 148.784 39.8416 149.923 40.5309C150.148 40.6439 150.374 40.7568 150.599 40.8698C150.374 40.9828 150.148 41.0958 149.923 41.2088C148.784 41.8868 147.994 42.9151 147.758 43.9434C146.957 44.5084 146.619 45.4236 147.081 46.1016C147.419 46.7909 148.445 47.0169 149.359 46.5536C150.385 46.8926 151.637 46.6666 152.764 46.1016C152.99 45.9886 153.215 45.8756 153.328 45.6496C153.328 45.8756 153.215 46.1016 153.215 46.4519C153.215 47.8192 153.666 48.9605 154.467 49.6384C154.58 50.5537 155.267 51.3447 156.057 51.3447C156.846 51.3447 157.421 50.6667 157.647 49.6384C158.447 48.9492 158.898 47.8192 158.898 46.4519C158.898 46.2259 158.898 45.9999 158.786 45.6496C159.011 45.8756 159.124 45.9886 159.349 46.1016C160.488 46.7909 161.74 46.9039 162.755 46.5536C163.668 46.8926 164.57 46.7796 165.033 46.1016C165.484 45.5366 165.145 44.6214 164.469 43.9434Z" fill="#09906C"/>
<path d="M194.937 53.1642C195.162 53.3902 195.388 53.7292 195.388 54.1925C195.388 54.6558 195.275 54.9948 194.937 55.2208C194.711 55.4468 194.373 55.6727 193.911 55.6727C193.11 55.6727 192.434 54.9835 192.434 54.1925C192.434 53.8535 192.546 53.3902 192.885 53.1642C193.11 52.9382 193.448 52.7122 193.911 52.7122C194.362 52.8252 194.711 52.9382 194.937 53.1642Z" fill="#0DC695"/>
<path d="M192.095 27.5366C192.321 27.7626 192.546 28.1016 192.546 28.5649C192.546 29.0282 192.434 29.3672 192.095 29.5932C191.87 29.8192 191.531 30.0452 191.069 30.0452C190.269 30.0452 189.592 29.3672 189.592 28.5649C189.592 28.2259 189.705 27.7626 190.043 27.5366C190.269 27.3106 190.607 27.0847 191.069 27.0847C191.52 27.1977 191.87 27.3106 192.095 27.5366Z" fill="#0DC695"/>
<path d="M170.84 41.7734C171.065 41.9994 171.291 42.3384 171.291 42.8017C171.291 43.265 171.178 43.604 170.84 43.83C170.614 44.056 170.276 44.2819 169.814 44.2819C169.013 44.2819 168.336 43.5927 168.336 42.8017C168.336 42.4627 168.449 41.9994 168.787 41.7734C169.013 41.5474 169.351 41.3214 169.814 41.3214C170.152 41.4344 170.614 41.5474 170.84 41.7734Z" fill="#0EC696"/>
<path d="M170.84 46.1007C171.065 46.3267 171.291 46.6657 171.291 47.1289C171.291 47.5922 171.178 47.9312 170.84 48.1572C170.614 48.3832 170.276 48.6092 169.814 48.6092C169.013 48.6092 168.336 47.9199 168.336 47.1289C168.336 46.79 168.449 46.3267 168.787 46.1007C169.013 45.8747 169.351 45.6487 169.814 45.6487C170.152 45.6487 170.614 45.7617 170.84 46.1007Z" fill="#0EC696"/>
<path d="M170.84 50.3172C171.065 50.5432 171.291 50.8821 171.291 51.3454C171.291 51.8087 171.178 52.1477 170.84 52.3737C170.614 52.5997 170.276 52.8257 169.814 52.8257C169.013 52.8257 168.336 52.1364 168.336 51.3454C168.336 51.0064 168.449 50.5432 168.787 50.3172C169.013 50.0912 169.351 49.8652 169.814 49.8652C170.152 49.9782 170.614 50.0912 170.84 50.3172Z" fill="#0EC696"/>
<path d="M170.84 54.6446C171.065 54.8706 171.291 55.2096 171.291 55.6729C171.291 56.0119 171.178 56.4752 170.84 56.7012C170.614 56.9272 170.276 57.1532 169.814 57.1532C169.013 57.1532 168.336 56.4639 168.336 55.6729C168.336 55.3339 168.449 54.8706 168.787 54.6446C169.013 54.4186 169.351 54.1926 169.814 54.1926C170.152 54.1926 170.614 54.3056 170.84 54.6446Z" fill="#0EC696"/>
<path d="M166.521 54.6446C166.747 54.8706 166.972 55.2096 166.972 55.6729C166.972 56.0119 166.859 56.4752 166.521 56.7012C166.296 56.9272 165.957 57.1532 165.495 57.1532C164.694 57.1532 164.018 56.4639 164.018 55.6729C164.018 55.3339 164.13 54.8706 164.469 54.6446C164.694 54.4186 165.033 54.1926 165.495 54.1926C165.957 54.1926 166.296 54.3056 166.521 54.6446Z" fill="#0EC696"/>
<path d="M162.315 54.6441C162.541 54.8701 162.766 55.2091 162.766 55.6724C162.766 56.0114 162.653 56.4747 162.315 56.7007C162.09 56.9266 161.639 57.0397 161.289 57.0397C160.488 57.0397 159.812 56.3616 159.812 55.5594C159.812 55.2204 159.925 54.7571 160.263 54.5311C160.488 54.3051 160.827 54.0791 161.289 54.0791C161.627 54.1921 162.09 54.3051 162.315 54.6441Z" fill="#0EC696"/>
<path d="M139.571 66.0445C139.797 66.2705 140.022 66.6095 140.022 67.0728C140.022 67.5361 139.909 67.8637 139.571 68.101C139.346 68.327 138.883 68.4401 138.545 68.4401C137.744 68.4401 137.068 67.7508 137.068 66.9598C137.068 66.6208 137.181 66.1575 137.519 65.9315C137.744 65.7055 138.083 65.4795 138.545 65.4795C138.883 65.5925 139.346 65.7055 139.571 66.0445Z" fill="#0DC695"/>
<path d="M138.094 20.4745C138.319 20.7005 138.545 21.0395 138.545 21.5028C138.545 21.9661 138.432 22.3051 138.094 22.5311C137.868 22.7571 137.53 22.9831 137.068 22.9831C136.267 22.9831 135.591 22.3051 135.591 21.5028C135.591 21.1638 135.703 20.7005 136.042 20.4745C136.267 20.2485 136.605 20.0225 137.068 20.0225C137.53 20.0225 137.857 20.1355 138.094 20.4745Z" fill="#0DC695"/>
<path d="M156.17 43.8311C154.58 43.8311 153.328 42.5768 153.328 40.9835C153.328 39.3902 154.58 38.136 156.17 38.136C157.76 38.136 159.011 39.3902 159.011 40.9835C159.011 42.5768 157.76 43.8311 156.17 43.8311Z" fill="#0DC695"/>
<path d="M161.966 67.0612C149.122 67.0612 138.545 56.4621 138.545 43.4786C138.545 40.6311 138.996 37.7836 140.022 35.162C140.248 34.484 141.161 34.0208 141.838 34.3597C142.514 34.5857 142.977 35.501 142.638 36.179C141.725 38.4615 141.274 40.9588 141.274 43.4673C141.274 54.8575 150.486 64.0894 161.853 64.0894C173.219 64.0894 182.432 54.8575 182.432 43.4673C182.432 38.6875 180.729 34.0094 177.662 30.2466C175.384 27.5121 172.43 25.3425 169.137 24.0996C166.972 23.2973 164.48 22.8453 161.977 22.8453C159.022 22.8453 156.181 23.4103 153.565 24.6645C151.637 25.5798 149.81 26.7098 148.22 28.1901C147.656 28.755 146.743 28.6421 146.179 28.0771C145.615 27.5121 145.728 26.5968 146.292 26.0318C148.107 24.3256 150.159 23.0713 152.426 22.043C155.493 20.6758 158.673 19.9977 161.977 19.9977C164.818 19.9977 167.66 20.5628 170.276 21.478C174.031 22.9583 177.436 25.3538 179.94 28.4274C183.458 32.6422 185.397 37.9983 185.397 43.4673C185.51 56.4507 174.933 67.0499 161.977 67.0499L161.966 67.0612Z" fill="#0DC695"/>
<path d="M169.926 39.8413C169.588 39.8413 169.25 39.7282 168.9 39.3892C168.336 38.8243 168.336 37.909 168.9 37.344L187.664 18.5412C188.228 17.9762 189.141 17.9762 189.705 18.5412C190.268 19.1062 190.268 20.0215 189.705 20.5865L170.953 39.5023C170.614 39.7282 170.265 39.8413 169.926 39.8413Z" fill="#066048"/>
<path d="M198.117 10.2128C196.64 8.73253 194.249 8.73253 192.772 10.2128L188.791 14.2016C187.314 15.6819 187.314 18.0774 188.791 19.5577C190.269 21.0379 192.659 21.0379 194.136 19.5577L194.249 19.4447L198.229 15.4559C199.03 14.6536 199.368 13.7496 199.368 12.7213C199.256 11.9191 198.805 10.9021 198.117 10.2128Z" fill="#09906C"/>
<path d="M106.533 30.1928C106.307 29.4792 106.464 28.7504 106.771 28.1582C106.104 27.8858 105.633 27.3472 105.407 26.6337C105.182 25.9201 105.339 25.1913 105.645 24.599C104.978 24.3267 104.507 23.7881 104.282 23.0745C104.056 22.3609 104.213 21.6321 104.52 21.0399C103.852 20.7676 103.382 20.2289 103.156 19.5153C102.93 18.8017 103.087 18.0729 103.394 17.4807C102.727 17.2084 102.256 16.6698 102.03 15.9562C101.805 15.2426 101.962 14.5138 102.268 13.9216C99.8552 14.0111 97.6068 12.4772 96.8461 10.0722L54.6918 23.4924C55.4218 25.8006 54.5351 28.2356 52.6307 29.6273C53.2981 29.8997 53.8569 30.4103 54.1104 31.212C54.3361 31.9256 54.179 32.6543 53.8722 33.2465C54.5397 33.5189 55.0104 34.0575 55.2361 34.7711C55.4618 35.4847 55.3047 36.2135 54.9979 36.8057C55.6654 37.0781 56.1361 37.6166 56.3617 38.3302C56.5874 39.0438 56.4304 39.7726 56.1236 40.3648C56.791 40.6372 57.2617 41.1758 57.4874 41.8894C57.7131 42.603 57.5561 43.3317 57.2493 43.924C57.9167 44.1963 58.3874 44.735 58.6131 45.4486C58.8388 46.1621 58.7096 46.979 58.3148 47.5993C60.6706 47.6347 62.7916 49.1025 63.5244 51.4194L105.679 37.9992C104.921 35.6029 105.868 33.0518 107.897 31.7174C107.317 31.417 106.759 30.9064 106.533 30.1928Z" fill="#79408C"/>
<path d="M61.9357 11.5102C63.177 11.1149 64.4637 11.782 64.8566 13.0245C65.2496 14.2671 64.5817 15.5563 63.3403 15.9516C62.0989 16.3468 60.8122 15.6798 60.4193 14.4373C60.0263 13.1947 60.6943 11.9054 61.9357 11.5102Z" fill="#F5EDF7"/>
<path d="M96.9528 46.8535C98.4584 46.3741 100.093 47.2214 100.569 48.7283C101.046 50.2352 100.2 51.8818 98.6947 52.3612C97.1891 52.8405 95.546 51.996 95.0666 50.4803C94.5873 48.9646 95.3505 47.3636 96.9528 46.8535Z" fill="#F5EDF7"/>
<path d="M89.2194 22.4107L80.3487 25.2346C78.1924 25.9211 76.9975 28.2266 77.68 30.3843C78.3624 32.5419 80.6637 33.7345 82.8201 33.048L91.6907 30.2241C93.8471 29.5377 95.0419 27.2321 94.3595 25.0744C93.677 22.9168 91.3757 21.7242 89.2194 22.4107Z" fill="#AC73BF"/>
<path d="M72.9908 30.6928L70.8024 33.6398L72.9072 36.5875L69.505 35.4205L67.3167 38.3675L67.3424 34.7414L63.9402 33.5743L67.4002 32.4727L67.426 28.8466L69.5308 31.7944L72.9908 30.6928Z" fill="#AC73BF"/>
<path d="M109.123 42.1005C109.354 42.2207 109.614 42.4291 109.728 42.7904C109.812 43.0547 109.838 43.444 109.63 43.7044C109.509 43.9367 109.301 44.1971 108.94 44.312C108.315 44.511 107.617 44.1416 107.422 43.5248C107.338 43.2604 107.312 42.871 107.52 42.6107C107.641 42.3784 107.849 42.1181 108.21 42.0032C108.502 42.0072 108.794 42.0112 109.123 42.1005Z" fill="#F5EDF7"/>
<path d="M96.2117 31.2397L93.9931 31.946L94.6954 34.1668L96.914 33.4604L96.2117 31.2397Z" fill="white"/>
<path d="M87.2502 3.857C87.482 3.97719 87.7417 4.18548 87.856 4.54679C87.9702 4.9081 87.8471 5.13158 87.7574 5.46083C87.637 5.69314 87.4287 5.95351 87.0677 6.06844C86.4426 6.26747 85.8351 5.87888 85.6372 5.25319C85.5536 4.98882 85.5274 4.59949 85.7358 4.33915C85.8562 4.10683 86.0646 3.84647 86.4255 3.73154C86.6016 3.67547 86.9215 3.76765 87.2502 3.857Z" fill="#F5EDF7"/>
<path d="M92.9298 32.2832L90.7111 32.9896L91.4134 35.2104L93.6321 34.504L92.9298 32.2832Z" fill="white"/>
<path d="M89.5596 33.3541L87.3409 34.0605L88.0433 36.2812L90.2619 35.5748L89.5596 33.3541Z" fill="white"/>
<path d="M86.2777 34.3976L84.059 35.1039L84.7613 37.3247L86.98 36.6183L86.2777 34.3976Z" fill="white"/>
<path d="M82.9077 35.4698L80.6891 36.1762L81.3914 38.3969L83.61 37.6906L82.9077 35.4698Z" fill="white"/>
<path d="M87.6466 51.3853C87.8784 51.5055 88.1381 51.7138 88.2524 52.0751C88.336 52.3395 88.3622 52.7288 88.1538 52.9892C88.0335 53.2215 87.8251 53.4818 87.4641 53.5967C86.839 53.7957 86.1407 53.4264 85.9457 52.8095C85.862 52.5451 85.8358 52.1558 86.0442 51.8955C86.1646 51.6632 86.3729 51.4028 86.7339 51.2879C87.0949 51.173 87.3179 51.296 87.6466 51.3853Z" fill="#F5EDF7"/>
<path d="M72.4236 11.017C72.6554 11.1372 72.9151 11.3456 73.0294 11.7069C73.113 11.9712 73.1392 12.3605 72.9308 12.6209C72.8105 12.8532 72.6021 13.1136 72.2411 13.2285C71.616 13.4275 70.9206 13.067 70.7227 12.4413C70.6391 12.1769 70.6129 11.7875 70.8212 11.5272C70.9416 11.2949 71.15 11.0346 71.511 10.9197C71.8719 10.8047 72.0949 10.9277 72.4236 11.017Z" fill="#F5EDF7"/>
<path d="M73.3008 52.326C73.5326 52.4462 73.7923 52.6545 73.9065 53.0158C73.9901 53.2801 74.0136 53.6607 73.808 53.9298C73.6876 54.1622 73.4792 54.4225 73.1183 54.5374C72.4932 54.7364 71.7949 54.367 71.5998 53.7502C71.5162 53.4858 71.49 53.0965 71.6984 52.8362C71.8187 52.6038 72.0271 52.3435 72.3881 52.2286C72.7491 52.1136 72.9721 52.2366 73.3008 52.326Z" fill="#F5EDF7"/>
<path d="M55.3835 15.1637C55.6154 15.2839 55.8751 15.4922 55.9893 15.8535C56.1036 16.2148 56.0992 16.5072 55.8908 16.7676C55.6824 17.0279 55.562 17.2602 55.2011 17.3752C54.576 17.5742 53.8805 17.2136 53.6826 16.5879C53.599 16.3236 53.5728 15.9342 53.7812 15.6739C53.9015 15.4416 54.1099 15.1813 54.4709 15.0663C54.8319 14.9514 55.1517 15.0435 55.3835 15.1637Z" fill="#F5EDF7"/>
<path d="M101.326 35.6751L65.8374 46.9636C65.2126 47.1624 64.5176 46.8023 64.3198 46.1776C64.122 45.5528 64.4829 44.8569 65.1076 44.6582L100.596 33.3696C101.221 33.1709 101.919 33.5397 102.114 34.1557C102.309 34.7716 101.95 35.4764 101.326 35.6751Z" fill="#AC73BF"/>
<path d="M95.3591 16.8316L59.8707 28.1201C59.246 28.3189 58.5509 27.9588 58.3531 27.3341C58.1553 26.7093 58.5162 26.0134 59.141 25.8147L94.6293 14.5261C95.254 14.3274 95.9491 14.6874 96.1469 15.3122C96.2567 15.9649 95.9838 16.6328 95.3591 16.8316Z" fill="#AC73BF"/>
<path d="M98.1677 22.0072C97.5425 22.2063 96.8469 21.8457 96.649 21.2199L96.2838 20.0653C96.0859 19.4395 96.447 18.7425 97.0722 18.5434C97.6974 18.3444 98.3931 18.705 98.591 19.3308L98.9561 20.4854C99.1819 21.1993 98.7929 21.8082 98.1677 22.0072Z" fill="#AC73BF"/>
<path d="M99.575 26.451C98.9498 26.6501 98.2542 26.2895 98.0563 25.6637L97.6911 24.5091C97.4932 23.8833 97.8543 23.1863 98.4795 22.9872C99.1048 22.7882 99.8004 23.1488 99.9983 23.7746L100.363 24.9292C100.589 25.6431 100.2 26.252 99.575 26.451Z" fill="#AC73BF"/>
<path d="M100.982 30.8949C100.357 31.0939 99.6613 30.7333 99.4634 30.1075L99.0982 28.9529C98.9003 28.3272 99.2614 27.6301 99.8866 27.4311C100.512 27.232 101.207 27.5926 101.405 28.2184L101.771 29.373C101.996 30.0869 101.607 30.6958 100.982 30.8949Z" fill="#AC73BF"/>
<path d="M60.4639 33.9964C59.8387 34.1955 59.1431 33.8349 58.9452 33.2091L58.58 32.0545C58.3821 31.4287 58.752 30.7289 59.3685 30.5326C59.9849 30.3364 60.6893 30.6942 60.8872 31.32L61.2524 32.4746C61.4781 33.1885 61.0804 33.8002 60.4639 33.9964Z" fill="#AC73BF"/>
<path d="M61.8712 38.4404C61.2459 38.6394 60.5503 38.2788 60.3524 37.653L59.9873 36.4984C59.7893 35.8726 60.1593 35.1728 60.7757 34.9765C61.3921 34.7803 62.0965 35.1381 62.2944 35.7639L62.6596 36.9185C62.8854 37.6324 62.4876 38.2441 61.8712 38.4404Z" fill="#AC73BF"/>
<path d="M63.2783 42.8842C62.6531 43.0833 61.9575 42.7226 61.7596 42.0969L61.3944 40.9423C61.1965 40.3165 61.5664 39.6166 62.1828 39.4204C62.7992 39.2241 63.5036 39.5819 63.7016 40.2077L64.0667 41.3623C64.2925 42.0762 63.8947 42.6879 63.2783 42.8842Z" fill="#AC73BF"/>
</svg>
