<svg width="268" height="244" viewBox="0 0 268 244" fill="none" xmlns="http://www.w3.org/2000/svg">
<g clip-path="url(#clip0_2981_31277)">
<path d="M177.312 28.4088L177.636 28.9955C178 29.6537 178.546 30.195 179.21 30.5549L179.803 30.8753L179.21 31.1962C178.546 31.5562 178 32.0975 177.636 32.7557L177.312 33.3418L176.988 32.7557C176.625 32.0975 176.079 31.5562 175.414 31.1962L174.822 30.8753L175.414 30.5549C176.079 30.195 176.625 29.6537 176.988 28.9955L177.312 28.4088Z" fill="#EEEEEE"/>
<path d="M55.0134 2.10116L55.3371 2.68727C55.7007 3.34605 56.2469 3.88679 56.9115 4.24671L57.5037 4.56767L56.9115 4.88863C56.2469 5.24855 55.7007 5.78988 55.3371 6.44751L55.0134 7.03418L54.6897 6.44751C54.3259 5.78988 53.7799 5.24855 53.115 4.88863L52.5231 4.56767L53.115 4.24671C53.7799 3.88679 54.3259 3.34605 54.6897 2.68727L55.0134 2.10116Z" fill="#EEEEEE"/>
<path d="M247.166 66.0108L247.489 66.5969C247.853 67.2551 248.399 67.7965 249.063 68.1564L249.656 68.4768L249.063 68.7977C248.399 69.1576 247.853 69.699 247.489 70.3572L247.166 70.9438L246.842 70.3572C246.478 69.699 245.932 69.1576 245.268 68.7977L244.675 68.4768L245.268 68.1564C245.932 67.7965 246.478 67.2551 246.842 66.5969L247.166 66.0108Z" fill="#EEEEEE"/>
<path d="M8.14661 106.491L8.4703 107.078C8.83371 107.736 9.38016 108.278 10.0445 108.637L10.6366 108.958L10.0445 109.279C9.38016 109.639 8.83371 110.18 8.4703 110.838L8.14661 111.424L7.82274 110.838C7.45933 110.18 6.91306 109.639 6.24852 109.279L5.65637 108.958L6.24852 108.637C6.91306 108.278 7.45933 107.736 7.82274 107.078L8.14661 106.491Z" fill="#EEEEEE"/>
<path d="M119.363 0.310451L119.917 1.32274C120.538 2.45889 121.473 3.3927 122.609 4.01427L123.621 4.56782L122.609 5.12136C121.473 5.74293 120.538 6.67674 119.917 7.81289L119.363 8.8252L118.81 7.81289C118.189 6.67674 117.254 5.74293 116.118 5.12136L115.106 4.56782L116.118 4.01427C117.254 3.3927 118.189 2.45889 118.81 1.32274L119.363 0.310451Z" fill="#EEEEEE"/>
<path d="M43.8447 50.0678L44.3985 51.0801C45.0199 52.2162 45.9541 53.1506 47.0902 53.7716L48.1023 54.3251L47.0902 54.8787C45.9541 55.5003 45.0199 56.4341 44.3985 57.5708L43.8447 58.5825L43.2915 57.5708C42.67 56.4341 41.7359 55.5003 40.5998 54.8787L39.5877 54.3251L40.5998 53.7716C41.7359 53.1506 42.67 52.2162 43.2915 51.0801L43.8447 50.0678Z" fill="#EEEEEE"/>
<path d="M231.846 16.4073L232.006 16.7003C232.187 17.03 232.457 17.3004 232.786 17.4806L233.079 17.6405L232.786 17.801C232.457 17.9813 232.187 18.2516 232.006 18.5807L231.846 18.8738L231.686 18.5807C231.506 18.2516 231.235 17.9813 230.906 17.801L230.613 17.6405L230.906 17.4806C231.235 17.3004 231.506 17.03 231.686 16.7003L231.846 16.4073Z" fill="#EEEEEE"/>
<path d="M12.7957 63.0198L12.9561 63.3135C13.1362 63.6426 13.4067 63.9129 13.7356 64.0926L14.029 64.2531L13.7356 64.4136C13.4067 64.5938 13.1362 64.8642 12.9561 65.1933L12.7957 65.4863L12.6353 65.1933C12.4553 64.8642 12.1847 64.5938 11.8556 64.4136L11.5626 64.2531L11.8556 64.0926C12.1847 63.9129 12.4553 63.6426 12.6353 63.3135L12.7957 63.0198Z" fill="#EEEEEE"/>
<path d="M47.5513 204.193C51.8915 208.32 56.3112 213.921 62.274 213.36C68.8363 212.742 73.71 204.572 80.1298 206.067C83.5935 206.875 85.7291 210.241 88.4957 212.476C94.048 216.961 102.425 216.638 108.649 213.145C114.873 209.651 119.229 203.553 122.416 197.167C131.846 178.271 132.468 156.324 132.261 135.206L134.183 64.3018L136.105 136.99C135.898 158.107 136.521 180.054 145.951 198.95C149.138 205.336 153.494 211.434 159.718 214.928C165.941 218.422 174.318 218.744 179.871 214.259C182.638 212.024 184.773 208.658 188.237 207.851C194.657 206.354 199.531 214.525 206.093 215.144C212.056 215.705 216.475 210.104 220.815 205.976C226.857 200.23 234.871 196.782 243.15 195.887C247.361 183.774 249.656 170.765 249.656 157.219C249.656 92.2109 196.957 39.5117 131.949 39.5117C66.9413 39.5117 14.2416 92.2109 14.2416 157.219C14.2416 170.017 16.289 182.337 20.0664 193.874C30.1009 193.664 40.2616 197.26 47.5513 204.193Z" fill="#EEEEEE"/>
<path d="M195.326 128.431H267.576C267.576 128.431 261.187 116.804 242.589 118.496C224.828 120.113 223.925 112.777 214.894 111.874C205.862 110.971 198.336 117.895 195.326 128.431Z" fill="#F5F5F5"/>
<path d="M0.42334 143.338H46.6135C46.6135 143.338 42.529 135.904 30.6392 136.986C19.2841 138.019 18.707 133.33 12.9331 132.752C7.15956 132.175 2.34803 136.602 0.42334 143.338Z" fill="#F5F5F5"/>
<path d="M110.288 212.126C110.579 211.931 110.868 211.732 111.151 211.526C111.281 211.431 111.409 211.333 111.538 211.235C111.818 211.022 112.093 210.805 112.364 210.582C112.474 210.492 112.583 210.401 112.692 210.309C113.003 210.044 113.31 209.773 113.61 209.495C113.668 209.441 113.727 209.389 113.785 209.334C114.923 208.264 115.98 207.101 116.965 205.869L116.979 205.852C117.309 205.439 117.63 205.018 117.944 204.59C114.039 204.314 110.03 204.835 106.291 203.694C98.6583 201.365 94.4329 192.914 87.1612 189.627C77.5772 185.295 65.1783 190.946 56.3509 185.228C49.7199 180.933 48.0575 172.12 43.8096 165.458C37.514 155.586 25.5527 150.338 14.303 153.583C14.2664 154.791 14.2416 156.002 14.2416 157.219C14.2416 169.495 16.1296 181.327 19.6165 192.453C19.8856 192.926 20.1556 193.398 20.4453 193.872C20.5515 193.871 20.6583 193.876 20.7648 193.875C21.2552 193.874 21.7449 193.877 22.2348 193.893C22.3601 193.897 22.4851 193.906 22.6102 193.911C23.1067 193.933 23.603 193.959 24.0989 193.998C24.2192 194.008 24.3389 194.022 24.4591 194.034C24.9583 194.078 25.4566 194.126 25.9538 194.19C26.0738 194.205 26.1927 194.225 26.3122 194.241C26.8082 194.309 27.3036 194.381 27.7967 194.466C27.9192 194.487 28.0407 194.514 28.1626 194.536C28.651 194.626 29.1388 194.72 29.6235 194.827C29.7523 194.855 29.8798 194.89 30.0085 194.919C30.4839 195.03 30.9586 195.143 31.4299 195.271C31.5693 195.308 31.7067 195.353 31.846 195.392C32.3039 195.521 32.7608 195.652 33.2136 195.798C33.365 195.847 33.5142 195.902 33.6651 195.953C34.1018 196.099 34.5382 196.246 34.9692 196.407C35.1362 196.469 35.2999 196.539 35.466 196.604C35.8775 196.764 36.2889 196.924 36.6943 197.098C36.8783 197.177 37.0579 197.265 37.2405 197.346C37.6232 197.517 38.0066 197.687 38.3835 197.87C38.586 197.969 38.7832 198.077 38.9838 198.179C39.3358 198.358 39.689 198.534 40.0351 198.724C40.2543 198.844 40.4672 198.975 40.6838 199.1C41.0043 199.284 41.3271 199.465 41.6421 199.658C41.8828 199.807 42.1161 199.966 42.3537 200.12C42.6369 200.303 42.9236 200.482 43.2018 200.673C43.47 200.857 43.7294 201.054 43.9928 201.246C44.2316 201.42 44.4746 201.587 44.709 201.767C45.0188 202.004 45.3181 202.255 45.6198 202.502C45.7992 202.649 45.9843 202.79 46.161 202.941C46.6348 203.345 47.0988 203.762 47.5515 204.193C51.8915 208.32 56.3112 213.921 62.274 213.36C68.8362 212.742 73.71 204.572 80.1298 206.067C83.5935 206.875 85.7291 210.241 88.4957 212.476C94.0479 216.961 102.425 216.639 108.649 213.145C109.081 212.902 109.503 212.643 109.918 212.376C110.043 212.295 110.165 212.21 110.288 212.126Z" fill="#F5F5F5"/>
<path d="M222.332 204.626C222.599 204.4 222.866 204.173 223.139 203.955C223.288 203.837 223.441 203.725 223.592 203.611C223.847 203.413 224.103 203.214 224.364 203.024C224.523 202.908 224.687 202.798 224.849 202.684C225.108 202.502 225.365 202.32 225.628 202.144C225.791 202.037 225.958 201.934 226.123 201.828C226.39 201.656 226.657 201.483 226.929 201.318C227.094 201.218 227.261 201.125 227.427 201.028C227.705 200.865 227.982 200.702 228.264 200.546C228.429 200.456 228.596 200.37 228.762 200.282C229.05 200.128 229.339 199.975 229.632 199.829C229.795 199.747 229.96 199.671 230.123 199.593C230.424 199.448 230.724 199.304 231.029 199.166C231.189 199.094 231.352 199.026 231.515 198.956C231.826 198.82 232.138 198.687 232.453 198.559C232.61 198.496 232.769 198.436 232.927 198.375C233.251 198.249 233.576 198.125 233.903 198.008C234.056 197.953 234.21 197.902 234.364 197.849C234.699 197.733 235.035 197.62 235.374 197.513C235.523 197.467 235.674 197.423 235.824 197.378C236.168 197.273 236.515 197.171 236.864 197.077C237.01 197.037 237.157 197 237.304 196.962C237.658 196.869 238.013 196.781 238.37 196.698C238.513 196.664 238.658 196.634 238.801 196.602C239.163 196.522 239.526 196.446 239.89 196.377C240.031 196.349 240.172 196.324 240.314 196.299C240.682 196.232 241.05 196.171 241.42 196.114C241.56 196.093 241.7 196.073 241.839 196.054C242.046 196.024 242.25 195.99 242.457 195.964C242.915 195.329 243.349 194.692 243.766 194.054C247.582 182.465 249.656 170.086 249.656 157.219C249.656 154.84 249.577 152.479 249.438 150.135C238.082 147.289 227.401 153.067 221.457 163.154C217.445 169.96 216.094 178.827 209.618 183.352C200.996 189.377 188.407 184.165 178.981 188.832C171.829 192.372 167.904 200.967 160.358 203.563C156.845 204.772 153.033 204.485 149.321 204.809L149.324 204.813C149.629 205.271 149.947 205.721 150.27 206.166C150.356 206.285 150.442 206.402 150.529 206.519C150.793 206.875 151.063 207.226 151.339 207.573C151.417 207.671 151.494 207.77 151.571 207.867C151.92 208.295 152.276 208.716 152.642 209.126C152.706 209.199 152.774 209.268 152.839 209.34C153.145 209.677 153.458 210.007 153.777 210.33C153.887 210.442 153.998 210.552 154.11 210.662C154.438 210.984 154.773 211.298 155.115 211.605C155.184 211.666 155.25 211.731 155.32 211.792C155.726 212.149 156.145 212.493 156.571 212.825C156.681 212.91 156.793 212.992 156.904 213.075C157.239 213.328 157.58 213.572 157.928 213.808C158.058 213.896 158.187 213.985 158.318 214.071C158.775 214.37 159.239 214.66 159.718 214.928C165.941 218.422 174.318 218.744 179.871 214.259C182.638 212.024 184.773 208.657 188.237 207.851C194.657 206.354 199.531 214.525 206.093 215.144C212.056 215.705 216.475 210.104 220.815 205.976C221.188 205.622 221.568 205.277 221.955 204.94C222.079 204.833 222.207 204.731 222.332 204.626Z" fill="#F5F5F5"/>
<path d="M248.33 243.54C248.33 243.624 196.759 243.691 133.157 243.691C69.534 243.691 17.9734 243.624 17.9734 243.54C17.9734 243.456 69.534 243.389 133.157 243.389C196.759 243.389 248.33 243.456 248.33 243.54Z" fill="white"/>
<path d="M214.007 48.7335C214.133 43.4098 218.551 39.1972 223.874 39.3233C229.197 39.4495 233.411 43.8674 233.284 49.1906C233.158 54.5137 228.74 58.7269 223.417 58.6008C218.094 58.474 213.88 54.0567 214.007 48.7335Z" fill="#0EC696"/>
<path d="M226.787 45.2687C226.808 44.4006 227.529 43.7139 228.397 43.7342C229.265 43.7546 229.952 44.4756 229.931 45.3437C229.911 46.2118 229.19 46.8991 228.322 46.8787C227.454 46.8578 226.767 46.1374 226.787 45.2687Z" fill="white"/>
<path d="M229.932 48.9401C229.944 48.4354 230.363 48.0353 230.868 48.0475C231.373 48.0597 231.773 48.479 231.761 48.9837C231.749 49.489 231.33 49.8884 230.825 49.8762C230.32 49.8646 229.92 49.4453 229.932 48.9401Z" fill="white"/>
<path d="M228.705 51.749C228.891 51.7536 229.039 51.9077 229.034 52.0944C229.029 52.281 228.875 52.4281 228.689 52.4235C228.503 52.4188 228.355 52.2647 228.36 52.0781C228.364 51.892 228.518 51.7443 228.705 51.749Z" fill="white"/>
<path d="M204.575 92.0498L204.904 92.6533C205.275 93.3313 205.832 93.8883 206.51 94.2587L207.114 94.589L206.51 94.9192C205.832 95.2896 205.275 95.8466 204.904 96.5246L204.575 97.1282L204.244 96.5246C203.873 95.8466 203.316 95.2896 202.638 94.9192L202.035 94.589L202.638 94.2587C203.316 93.8883 203.873 93.3313 204.244 92.6533L204.575 92.0498Z" fill="#0EC696"/>
<path d="M74.6903 41.581L75.2601 42.6229C75.8997 43.7928 76.8614 44.7545 78.0313 45.3941L79.0733 45.9639L78.0313 46.5338C76.8614 47.1734 75.8997 48.1351 75.2601 49.305L74.6903 50.3469L74.1205 49.305C73.4809 48.1351 72.5186 47.1734 71.3493 46.5338L70.3073 45.9639L71.3493 45.3941C72.5186 44.7545 73.4809 43.7928 74.1205 42.6229L74.6903 41.581Z" fill="#0EC696"/>
<path d="M37.5139 7.20677L37.7243 7.5911C37.9605 8.02311 38.3153 8.37839 38.7472 8.61446L39.1318 8.82493L38.7472 9.03543C38.3153 9.27149 37.9605 9.62617 37.7243 10.0582L37.5139 10.4431L37.3034 10.0582C37.0672 9.62617 36.7124 9.27149 36.2807 9.03543L35.8959 8.82493L36.2807 8.61446C36.7124 8.37839 37.0672 8.02311 37.3034 7.5911L37.5139 7.20677Z" fill="#0EC696"/>
<path d="M95.8847 170.749L95.99 170.941C96.1086 171.157 96.2859 171.335 96.5016 171.453L96.6941 171.558L96.5016 171.664C96.2859 171.781 96.1086 171.959 95.99 172.175L95.8847 172.367L95.7801 172.175C95.662 171.959 95.4841 171.781 95.2684 171.664L95.0759 171.558L95.2684 171.453C95.4841 171.335 95.662 171.157 95.7801 170.941L95.8847 170.749Z" fill="#0EC696"/>
<path d="M74.7955 100.636L74.9008 100.828C75.0188 101.044 75.1961 101.222 75.4119 101.34L75.6043 101.445L75.4119 101.55C75.1961 101.668 75.0188 101.846 74.9008 102.061L74.7955 102.254L74.6903 102.061C74.5722 101.846 74.3943 101.668 74.1786 101.55L73.9861 101.445L74.1786 101.34C74.3943 101.222 74.5722 101.044 74.6903 100.828L74.7955 100.636Z" fill="#0EC696"/>
<path d="M245.031 81.0245L245.136 81.217C245.254 81.4327 245.432 81.61 245.647 81.7281L245.84 81.8333L245.647 81.9385C245.432 82.0566 245.254 82.2339 245.136 82.4502L245.031 82.6421L244.926 82.4502C244.808 82.2339 244.63 82.0566 244.414 81.9385L244.222 81.8333L244.414 81.7281C244.63 81.61 244.808 81.4327 244.926 81.217L245.031 81.0245Z" fill="#0EC696"/>
<path d="M23.5185 80.1632L23.7288 80.5475C23.9651 80.9795 24.32 81.3342 24.7518 81.5708L25.1366 81.7807L24.7518 81.9912C24.32 82.2273 23.9651 82.5826 23.7288 83.014L23.5185 83.3989L23.308 83.014C23.072 82.5826 22.717 82.2273 22.285 81.9912L21.9005 81.7807L22.285 81.5708C22.717 81.3342 23.072 80.9795 23.308 80.5475L23.5185 80.1632Z" fill="#0EC696"/>
<path d="M183.219 165.624L183.429 166.008C183.666 166.44 184.02 166.795 184.452 167.031L184.837 167.241L184.452 167.452C184.02 167.688 183.666 168.043 183.429 168.474L183.219 168.859L183.009 168.474C182.772 168.043 182.417 167.688 181.985 167.452L181.601 167.241L181.985 167.031C182.417 166.795 182.772 166.44 183.009 166.008L183.219 165.624Z" fill="#0EC696"/>
<path d="M195.547 3.29473L196.118 4.33728C196.757 5.50658 197.719 6.4683 198.888 7.10789L199.931 7.6783L198.888 8.24754C197.719 8.88772 196.757 9.84943 196.118 11.0193L195.547 12.0613L194.978 11.0193C194.338 9.84943 193.376 8.88772 192.207 8.24754L191.164 7.6783L192.207 7.10789C193.376 6.4683 194.338 5.50658 194.978 4.33728L195.547 3.29473Z" fill="#0EC696"/>
<path d="M56.3864 129.41C49.665 127.598 45.6857 120.68 47.4984 113.958C48.2606 111.133 49.9268 108.795 52.0993 107.165C48.6506 108.625 45.883 111.596 44.8324 115.491C43.0196 122.213 46.9985 129.131 53.7199 130.944C57.6156 131.995 61.5757 131.097 64.5713 128.85C62.0705 129.908 59.2115 130.173 56.3864 129.41Z" fill="#0EC696"/>
<path d="M176.694 227.137C174.269 226.022 171.642 225.376 168.981 225.192C161.401 224.668 154.361 221.264 148.718 216.174C148.489 215.969 148.257 215.766 148.021 215.567C144.425 212.541 140.646 207.792 139.867 203.157C136.976 185.94 134.824 162.216 134.974 149.75H133.246C133.246 149.75 133.053 180.048 127.416 205.678C126.849 208.255 124.997 210.323 122.565 211.345C117.116 213.638 112.429 217.826 109.612 223.013C107.976 226.024 104.613 227.58 101.217 227.134C97.2697 226.616 93.1647 227.256 89.6086 229.053C84.1383 231.815 80.0983 237.25 79.0273 243.284L189.34 243.342C188.027 236.345 183.162 230.111 176.694 227.137Z" fill="#EEEEEE"/>
<path d="M114.488 138.774H91.179V59.6449C91.179 53.2082 96.397 47.9903 102.834 47.9903C109.27 47.9903 114.488 53.2082 114.488 59.6449V138.774Z" fill="#79408C"/>
<path d="M114.488 138.774H91.179V59.6449C91.179 53.2082 96.397 47.9903 102.834 47.9903C109.27 47.9903 114.488 53.2082 114.488 59.6449V138.774Z" fill="#C196CF"/>
<path d="M114.488 58.3762C114.488 58.4593 109.285 58.5273 102.869 58.5273C96.4505 58.5273 91.2494 58.4593 91.2494 58.3762C91.2494 58.2924 96.4505 58.2244 102.869 58.2244C109.285 58.2244 114.488 58.2924 114.488 58.3762Z" fill="white"/>
<path d="M114.488 78.5775C114.488 78.6612 109.285 78.7292 102.869 78.7292C96.4505 78.7292 91.2494 78.6612 91.2494 78.5775C91.2494 78.4943 96.4505 78.4263 102.869 78.4263C109.285 78.4263 114.488 78.4943 114.488 78.5775Z" fill="white"/>
<path d="M108.026 78.5776C107.942 78.5776 107.874 74.0551 107.874 68.4773C107.874 62.8977 107.942 58.3763 108.026 58.3763C108.109 58.3763 108.177 62.8977 108.177 68.4773C108.177 74.0551 108.109 78.5776 108.026 78.5776Z" fill="white"/>
<path d="M105.294 64.2531C105.294 64.706 104.927 65.0735 104.474 65.0735C104.021 65.0735 103.654 64.706 103.654 64.2531C103.654 63.8007 104.021 63.4332 104.474 63.4332C104.927 63.4332 105.294 63.8007 105.294 64.2531Z" fill="white"/>
<path d="M105.294 71.2385C105.294 71.6915 104.927 72.0583 104.474 72.0583C104.021 72.0583 103.654 71.6915 103.654 71.2385C103.654 70.7856 104.021 70.4181 104.474 70.4181C104.927 70.4181 105.294 70.7856 105.294 71.2385Z" fill="white"/>
<path d="M114.488 119.668C114.488 119.751 109.285 119.819 102.869 119.819C96.4505 119.819 91.2494 119.751 91.2494 119.668C91.2494 119.584 96.4505 119.516 102.869 119.516C109.285 119.516 114.488 119.584 114.488 119.668Z" fill="white"/>
<path d="M108.026 119.668C107.942 119.668 107.874 115.145 107.874 109.567C107.874 103.988 107.942 99.4663 108.026 99.4663C108.109 99.4663 108.177 103.988 108.177 109.567C108.177 115.145 108.109 119.668 108.026 119.668Z" fill="white"/>
<path d="M105.294 105.343C105.294 105.796 104.927 106.164 104.474 106.164C104.021 106.164 103.654 105.796 103.654 105.343C103.654 104.891 104.021 104.523 104.474 104.523C104.927 104.523 105.294 104.891 105.294 105.343Z" fill="white"/>
<path d="M105.294 112.328C105.294 112.782 104.927 113.148 104.474 113.148C104.021 113.148 103.654 112.782 103.654 112.328C103.654 111.876 104.021 111.508 104.474 111.508C104.927 111.508 105.294 111.876 105.294 112.328Z" fill="white"/>
<path d="M91.2494 99.3064C91.2494 99.2226 96.4517 99.1546 102.868 99.1546C109.287 99.1546 114.488 99.2226 114.488 99.3064C114.488 99.3901 109.287 99.4575 102.868 99.4575C96.4517 99.4575 91.2494 99.3901 91.2494 99.3064Z" fill="white"/>
<path d="M97.7117 99.3064C97.6279 99.3064 97.5605 94.7833 97.5605 89.2054C97.5605 83.6264 97.6279 79.1045 97.7117 79.1045C97.7954 79.1045 97.8628 83.6264 97.8628 89.2054C97.8628 94.7833 97.7954 99.3064 97.7117 99.3064Z" fill="white"/>
<path d="M100.443 84.9811C100.443 85.4346 100.811 85.8015 101.264 85.8015C101.717 85.8015 102.084 85.4346 102.084 84.9811C102.084 84.5281 101.717 84.1612 101.264 84.1612C100.811 84.1612 100.443 84.5281 100.443 84.9811Z" fill="white"/>
<path d="M100.443 91.9668C100.443 92.4197 100.811 92.7866 101.264 92.7866C101.717 92.7866 102.084 92.4197 102.084 91.9668C102.084 91.5138 101.717 91.1464 101.264 91.1464C100.811 91.1464 100.443 91.5138 100.443 91.9668Z" fill="white"/>
<path d="M92.7095 60.3713C92.6885 60.369 92.6891 60.2033 92.7077 59.9038C92.7222 59.605 92.7734 59.1741 92.8624 58.645C93.042 57.5908 93.4072 56.1343 94.1433 54.6586C94.5149 53.9236 94.9457 53.2631 95.387 52.7014C95.8464 52.1548 96.2958 51.6897 96.7261 51.3611C96.9285 51.1832 97.1372 51.0542 97.3134 50.9332C97.4878 50.8094 97.6489 50.7198 97.7838 50.6529C98.0507 50.514 98.2018 50.4465 98.2117 50.4651C98.2408 50.5151 97.6541 50.8274 96.8639 51.5251C96.4621 51.8659 96.0412 52.3333 95.6062 52.8741C95.1888 53.43 94.7771 54.0765 94.4143 54.794C93.6956 56.2355 93.3031 57.6542 93.0717 58.6868C92.8438 59.7212 92.7589 60.3765 92.7095 60.3713Z" fill="#FAFAF9"/>
<path d="M102.148 49.4721C102.162 49.5546 101.798 49.6855 101.334 49.7645C100.87 49.843 100.483 49.8407 100.469 49.7581C100.455 49.6756 100.82 49.5447 101.284 49.4662C101.746 49.3872 102.134 49.3901 102.148 49.4721Z" fill="#FAFAF9"/>
<path d="M151.97 138.774H175.279V59.6449C175.279 53.2082 170.061 47.9903 163.624 47.9903C157.187 47.9903 151.97 53.2082 151.97 59.6449V138.774Z" fill="#79408C"/>
<path d="M151.97 138.774H175.279V59.6449C175.279 53.2082 170.061 47.9903 163.624 47.9903C157.187 47.9903 151.97 53.2082 151.97 59.6449V138.774Z" fill="#C196CF"/>
<path d="M151.97 58.3762C151.97 58.2924 157.172 58.2244 163.588 58.2244C170.007 58.2244 175.209 58.2924 175.209 58.3762C175.209 58.4593 170.007 58.5273 163.588 58.5273C157.172 58.5273 151.97 58.4593 151.97 58.3762Z" fill="white"/>
<path d="M151.97 78.5781C151.97 78.4944 157.172 78.4263 163.588 78.4263C170.007 78.4263 175.209 78.4944 175.209 78.5781C175.209 78.6612 170.007 78.7292 163.588 78.7292C157.172 78.7292 151.97 78.6612 151.97 78.5781Z" fill="white"/>
<path d="M158.432 78.5776C158.349 78.5776 158.28 74.0551 158.28 68.4773C158.28 62.8977 158.349 58.3763 158.432 58.3763C158.516 58.3763 158.583 62.8977 158.583 68.4773C158.583 74.0551 158.516 78.5776 158.432 78.5776Z" fill="white"/>
<path d="M161.164 64.2531C161.164 64.706 161.531 65.0735 161.984 65.0735C162.437 65.0735 162.804 64.706 162.804 64.2531C162.804 63.8007 162.437 63.4332 161.984 63.4332C161.531 63.4332 161.164 63.8007 161.164 64.2531Z" fill="white"/>
<path d="M161.164 71.2385C161.164 71.6915 161.531 72.0583 161.984 72.0583C162.437 72.0583 162.804 71.6915 162.804 71.2385C162.804 70.7856 162.437 70.4181 161.984 70.4181C161.531 70.4181 161.164 70.7856 161.164 71.2385Z" fill="white"/>
<path d="M151.97 119.668C151.97 119.584 157.172 119.516 163.588 119.516C170.007 119.516 175.209 119.584 175.209 119.668C175.209 119.751 170.007 119.819 163.588 119.819C157.172 119.819 151.97 119.751 151.97 119.668Z" fill="white"/>
<path d="M158.432 119.668C158.349 119.668 158.28 115.145 158.28 109.567C158.28 103.988 158.349 99.4663 158.432 99.4663C158.516 99.4663 158.583 103.988 158.583 109.567C158.583 115.145 158.516 119.668 158.432 119.668Z" fill="white"/>
<path d="M161.164 105.343C161.164 105.796 161.531 106.164 161.984 106.164C162.437 106.164 162.804 105.796 162.804 105.343C162.804 104.891 162.437 104.523 161.984 104.523C161.531 104.523 161.164 104.891 161.164 105.343Z" fill="white"/>
<path d="M161.164 112.328C161.164 112.782 161.531 113.148 161.984 113.148C162.437 113.148 162.804 112.782 162.804 112.328C162.804 111.876 162.437 111.508 161.984 111.508C161.531 111.508 161.164 111.876 161.164 112.328Z" fill="white"/>
<path d="M175.209 99.3064C175.209 99.3901 170.006 99.4575 163.589 99.4575C157.171 99.4575 151.97 99.3901 151.97 99.3064C151.97 99.2226 157.171 99.1546 163.589 99.1546C170.006 99.1546 175.209 99.2226 175.209 99.3064Z" fill="white"/>
<path d="M168.746 99.3064C168.663 99.3064 168.595 94.7833 168.595 89.2054C168.595 83.6264 168.663 79.1045 168.746 79.1045C168.829 79.1045 168.898 83.6264 168.898 89.2054C168.898 94.7833 168.829 99.3064 168.746 99.3064Z" fill="white"/>
<path d="M166.014 84.9811C166.014 85.4346 165.647 85.8015 165.194 85.8015C164.741 85.8015 164.374 85.4346 164.374 84.9811C164.374 84.5281 164.741 84.1612 165.194 84.1612C165.647 84.1612 166.014 84.5281 166.014 84.9811Z" fill="white"/>
<path d="M166.014 91.9668C166.014 92.4197 165.647 92.7866 165.194 92.7866C164.741 92.7866 164.374 92.4197 164.374 91.9668C164.374 91.5138 164.741 91.1464 165.194 91.1464C165.647 91.1464 166.014 91.5138 166.014 91.9668Z" fill="white"/>
<path d="M173.748 60.3713C173.699 60.3765 173.614 59.7212 173.386 58.6868C173.154 57.6542 172.762 56.2355 172.043 54.794C171.68 54.0765 171.269 53.43 170.852 52.8741C170.416 52.3333 169.995 51.8659 169.593 51.5251C168.803 50.8274 168.217 50.5151 168.246 50.4651C168.256 50.4465 168.406 50.514 168.674 50.6529C168.809 50.7198 168.97 50.8094 169.144 50.9332C169.321 51.0542 169.529 51.1832 169.732 51.3611C170.162 51.6897 170.611 52.1548 171.07 52.7014C171.512 53.2631 171.943 53.9236 172.314 54.6586C173.05 56.1343 173.416 57.5908 173.596 58.645C173.685 59.1741 173.735 59.605 173.75 59.9038C173.769 60.2033 173.769 60.369 173.748 60.3713Z" fill="white"/>
<path d="M164.31 49.4726C164.324 49.3901 164.711 49.3872 165.174 49.4662C165.638 49.5447 166.003 49.6756 165.989 49.7581C165.975 49.8407 165.587 49.843 165.124 49.7645C164.66 49.6855 164.296 49.5546 164.31 49.4726Z" fill="white"/>
<path d="M126.331 16.8568L118.157 32.285C115.748 36.832 114.488 41.8987 114.488 47.044V154.409L128.823 163.565H138.76L152.119 154.409V47.5184C152.119 42.586 150.961 37.7227 148.739 33.3194L140.399 16.7876C139.455 14.9159 137.536 13.7344 135.439 13.7344H131.326C129.201 13.7344 127.262 14.9467 126.331 16.8568Z" fill="#79408C"/>
<path d="M114.488 145.865H78.4331C78.4331 145.865 78.4331 129.979 93.5118 118.67C108.59 107.361 114.488 81.7807 114.488 81.7807V145.865Z" fill="#79408C"/>
<path d="M152.119 145.865H188.173C188.173 145.865 188.173 129.979 173.095 118.67C158.016 107.361 152.119 81.7807 152.119 81.7807V145.865Z" fill="#79408C"/>
<path d="M114.488 145.865H78.4331C78.4331 145.865 78.4331 129.979 93.5118 118.67C108.59 107.361 114.488 81.7807 114.488 81.7807V145.865Z" fill="#AC73BF"/>
<path d="M188.173 145.865H152.119V81.7807C152.119 81.7807 158.016 107.361 173.095 118.67C188.114 129.935 188.173 145.741 188.173 145.864C188.173 145.864 188.173 145.864 188.173 145.865Z" fill="#AC73BF"/>
<path d="M117.141 89.7346C117.058 89.7346 116.99 81.8071 116.99 72.0312C116.99 62.2512 117.058 54.3254 117.141 54.3254C117.225 54.3254 117.293 62.2512 117.293 72.0312C117.293 81.8071 117.225 89.7346 117.141 89.7346Z" fill="#FAFAF9"/>
<path d="M117.537 43.8237C117.621 43.8237 117.689 44.5441 117.689 45.4325C117.689 46.3216 117.621 47.042 117.537 47.042C117.454 47.042 117.386 46.3216 117.386 45.4325C117.386 44.5441 117.454 43.8237 117.537 43.8237Z" fill="#FAFAF9"/>
<path d="M129.17 16.4073C129.244 16.4456 126.782 21.3938 123.672 27.4571C120.56 33.5234 117.977 38.4082 117.903 38.3704C117.829 38.332 120.29 33.385 123.402 27.3193C126.513 21.2554 129.096 16.3695 129.17 16.4073Z" fill="#FAFAF9"/>
<path d="M110.587 98.5255C110.592 98.5267 110.587 98.5743 110.572 98.6668C110.552 98.7773 110.529 98.9116 110.5 99.0773C110.463 99.2651 110.42 99.4866 110.371 99.7431C110.325 100.008 110.258 100.31 110.154 100.643C109.823 101.996 109.114 103.905 107.907 106.089C106.71 108.28 104.919 110.672 102.715 113.119C100.502 115.56 97.8559 118.034 95.0573 120.591C92.2751 123.156 89.8435 125.838 87.9195 128.49C86.9362 129.802 86.1251 131.133 85.3803 132.385C84.6761 133.659 84.054 134.867 83.5749 136.01C82.5992 138.287 82.0375 140.222 81.7299 141.574C81.5555 142.246 81.4845 142.781 81.4008 143.138C81.3659 143.302 81.3369 143.436 81.3136 143.545C81.2921 143.636 81.2787 143.683 81.2735 143.682C81.2682 143.681 81.2717 143.633 81.2828 143.54C81.2985 143.43 81.3177 143.294 81.3409 143.127C81.4049 142.767 81.4572 142.227 81.6148 141.548C81.8881 140.184 82.4213 138.229 83.3783 135.926C83.847 134.77 84.4627 133.55 85.1622 132.261C85.9018 130.996 86.7112 129.651 87.6933 128.326C89.6173 125.648 92.0571 122.944 94.8521 120.368C97.6512 117.81 100.295 115.351 102.509 112.931C104.713 110.506 106.508 108.144 107.721 105.983C108.942 103.829 109.676 101.947 110.041 100.611C110.153 100.283 110.228 99.9844 110.283 99.7227C110.344 99.4692 110.395 99.2506 110.44 99.0651C110.48 98.9023 110.515 98.7697 110.541 98.6616C110.566 98.5709 110.581 98.5243 110.587 98.5255Z" fill="#FAFAF9"/>
<path d="M136.412 50.5481H130.194C126.431 50.5481 123.38 47.4972 123.38 43.7335C123.38 39.9698 126.431 36.9195 130.194 36.9195H136.412C140.176 36.9195 143.227 39.9698 143.227 43.7335C143.227 47.4972 140.176 50.5481 136.412 50.5481Z" fill="white"/>
<path d="M138.76 163.565H128.823L114.488 154.409V150.636H152.119V154.409L138.76 163.565Z" fill="#C196CF"/>
</g>
<defs>
<clipPath id="clip0_2981_31277">
<rect width="267.153" height="243.384" fill="white" transform="translate(0.42334 0.308105)"/>
</clipPath>
</defs>
</svg>
