<svg width="242" height="244" viewBox="0 0 242 244" fill="none" xmlns="http://www.w3.org/2000/svg">
<g clip-path="url(#clip0_4083_43734)">
<path d="M242.424 334.722H1.37329V0.126709H242.424V334.722ZM2.49655 333.599H241.301V1.24996H2.49655V333.599Z" fill="#1F222A"/>
<path d="M213.994 72.7791L135.816 87.0444L140.432 111.228L210.984 120.046L213.983 72.7678L213.994 72.7791ZM162.875 109.498H147.745V88.5046H162.875V109.498ZM169.637 110.565V92.6158H206.424L205.368 114.441L169.637 110.565Z" fill="#35383F"/>
<path d="M218.341 4.30542L127.526 43.6306L135.243 84.0341L214.196 69.6227L218.341 4.31665V4.30542ZM160.224 70.4427L146.621 73.9697L143.532 42.4512L160.224 35.2511V70.4315V70.4427ZM170.356 74.0259V37.0933L209.22 20.323L206.424 64.6579L170.356 74.0259Z" fill="#35383F"/>
<path d="M73.5648 99.782C69.9367 96.6144 66.9825 92.9638 64.3092 89.1897L55.896 96.7717C57.1203 98.3892 58.3335 99.8943 59.5353 101.119C69.1055 110.869 82.8766 119.023 96.9398 122.09C102.668 123.337 105.971 129.043 104.028 134.322L99.9388 145.386C107.543 146.049 114.665 147.621 120.663 149.25L132.704 117.091L120.742 115.597C102.163 113.272 85.7971 110.487 73.5536 99.8045L73.5648 99.782Z" fill="#79408C"/>
<g opacity="0.2">
<path d="M73.5648 99.782C69.9367 96.6144 66.9825 92.9638 64.3092 89.1897L55.896 96.7717C57.1203 98.3892 58.3335 99.8943 59.5353 101.119C69.1055 110.869 82.8766 119.023 96.9398 122.09C102.668 123.337 105.971 129.043 104.028 134.322L99.9388 145.386C107.543 146.049 114.665 147.621 120.663 149.25L132.704 117.091L120.742 115.597C102.163 113.272 85.7971 110.487 73.5536 99.8045L73.5648 99.782Z" fill="black"/>
</g>
<path d="M209.76 126.707L139.882 117.968L127.762 150.329L202.234 151.688L209.76 126.707ZM143.027 122.775H152.249V126.763H143.027V122.775ZM149.362 145.532V131.739H197.1V145.532H149.362Z" fill="#35383F"/>
<path d="M183.352 214.388L191.26 188.137H148.396L183.352 214.388Z" fill="#35383F"/>
<path d="M35.3293 57.4243C25.2425 51.1116 14.4031 47.3038 5.61921 45.0573C4.39486 44.7428 3.17052 44.4507 1.94617 44.1699V48.7079H3.57488V58.0084H1.94617V73.5655C2.70998 74.7112 3.41763 75.8907 4.06912 77.1038L35.3406 57.4243H35.3293ZM10.5391 52.5943H20.3002V61.8949H10.5391V52.5943Z" fill="#1F222A"/>
<path d="M99.4447 91.9083C95.2774 94.0424 92.4244 98.2659 92.0762 102.759C100.714 106.005 110.767 107.533 121.674 108.892L133.064 110.318L128.739 87.6848C121.573 87.7747 114.406 88.4262 107.364 89.6393C104.814 90.0774 101.905 90.6502 99.4335 91.9083H99.4447ZM116.934 91.4927C118.529 91.2118 120.225 90.931 121.753 91.4477C124.257 92.2789 125.549 94.9298 126.01 97.4234C126.459 99.9171 126.369 102.523 127.324 104.882C126.538 105.14 125.763 105.387 124.976 105.646L123.595 105.488C118.63 104.938 113.665 104.399 108.7 103.848C107.15 103.68 105.578 103.5 104.151 102.894C102.725 102.287 101.455 101.186 101.073 99.7486C100.568 97.8054 101.837 95.7723 103.578 94.6602C105.319 93.5482 107.442 93.1663 109.509 92.7956C111.98 92.3576 114.451 91.9307 116.923 91.4927H116.934Z" fill="#35383F"/>
<path d="M118.742 174.445L111.789 193.001C109.936 197.955 106.824 202.189 102.927 205.469L154.585 277.032L172.288 279.526L181.487 221.577L118.731 174.445H118.742ZM110.98 208.716L122.966 183.88L134.861 192.945L122.674 219.6L110.98 208.716ZM126.616 223.262L139.028 196.113L158.135 210.659L144.689 240.066L126.616 223.251V223.262ZM148.621 243.739L162.291 213.838L174.298 222.981L167.379 261.194L148.621 243.739Z" fill="#35383F"/>
<path d="M21.4233 43.0015C29.2636 40.3169 36.0144 37.4526 40.103 31.9599C42.3945 28.8934 43.821 24.9396 44.3602 20.2219C44.8432 15.9198 44.5511 11.4717 44.2591 7.15843L47.4716 6.96748C47.7637 11.4043 48.0782 15.9872 47.5615 20.5476C46.9661 25.8045 45.3487 30.2413 42.7315 33.7347C38.7102 39.1151 32.712 42.1591 25.7141 44.7426C31.2967 47.1463 36.9916 50.1567 42.4282 53.9083L119.439 39.0027L112.115 0.688477H1.92358V37.2617C3.76572 37.6661 5.60786 38.0817 7.43877 38.5534C11.7296 39.6542 16.481 41.1145 21.4121 43.0128L21.4233 43.0015ZM54.4695 4.47385H106.555V32.2632H54.4695V4.47385ZM21.5918 8.20306H35.3292V26.5908H21.5918V8.20306ZM1.95728 8.20306H15.6947V26.5908H1.95728V8.20306Z" fill="#35383F"/>
<path d="M241.862 34.33V26.2538C239.088 25.0631 236.201 24.2319 233.213 23.8725C231.382 23.6478 230.068 22.0753 230.214 20.323L231.034 10.5282C231.146 9.13536 232.18 7.95594 233.595 7.58527L241.862 5.45108V0.688477H225.676L223.823 29.9605C230.113 29.9605 236.347 31.4994 241.873 34.33H241.862Z" fill="#35383F"/>
<path d="M209.602 0.688477H119.315L126.212 36.7899L209.602 0.688477ZM128.919 10.0564L158.977 11.9547C161.201 12.0895 161.752 14.9651 159.73 15.8524L132.255 27.9274C130.974 28.4891 129.492 27.7477 129.245 26.4223L126.661 12.449C126.425 11.146 127.526 9.96657 128.919 10.0564Z" fill="#35383F"/>
<path d="M220.745 286.344L241.851 289.309V276.864L229.192 275.594L238.223 259.273H241.851V254.836H240.672L241.851 252.702V241.593C240.469 243.424 239.133 245.255 237.863 247.12C229.652 259.172 224.306 272.494 220.745 286.344Z" fill="#35383F"/>
<path d="M234.977 229.777C236.606 227.665 238.201 225.587 239.728 223.52H188.35L179.297 280.514L208.041 284.558C211.916 269.113 217.825 254.039 227.069 240.459C229.585 236.763 232.326 233.214 234.966 229.777H234.977ZM222.801 235.224C213.837 247.086 207.244 260.689 203.38 274.819C202.964 276.313 201.436 277.279 199.83 277.054L189.586 275.662C187.823 275.426 186.598 273.853 186.868 272.179L193.158 232.967C193.394 231.473 194.742 230.372 196.326 230.372H220.206C222.823 230.372 224.328 233.202 222.789 235.224H222.801Z" fill="#35383F"/>
<path d="M223.385 36.7L218.038 120.933L241.862 123.91V116.833L225.002 115.047L226.013 96.6819H241.874V91.6385H226.26L227.271 73.1609L241.874 73.554V42.2489C236.527 38.5871 229.99 36.6102 223.396 36.6888L223.385 36.7Z" fill="#35383F"/>
<path d="M190.001 216.769H241.862V174.254H233.898V159.236H241.862V152.53H218.128L223.138 135.434L241.862 137.232V130.717L216.87 127.594L190.001 216.781V216.769ZM223.407 163.83V180.994H240.233V210.827H202.683L215.556 163.83H223.407Z" fill="#35383F"/>
<path d="M121.247 167.739L144.319 185.071H192.181L201.324 154.732L126.639 153.373L121.258 167.739H121.247ZM164.975 159.236H193.135L186.486 180.286H164.975V159.236ZM137.669 157.091H151.294V161.382H137.669V157.091ZM137.669 164.021H151.294V168.312H137.669V164.021ZM151.294 170.952V175.243H137.669V170.952H151.294Z" fill="#35383F"/>
<path d="M82.5285 212.917C80.9671 212.917 79.4058 212.804 77.822 212.568C77.3952 212.501 76.9571 212.434 76.5303 212.355C69.1954 210.996 62.3099 207.435 56.9856 202.414C54.0764 213.871 47.7412 224.845 38.5193 233.719C30.9823 240.975 22.5241 246.131 14.1334 249.804C22.6252 262.643 33.869 273.853 46.955 282.513L112.407 272.573L84.9547 212.815C84.146 212.883 83.3372 212.905 82.5172 212.905L82.5285 212.917ZM55.3345 266.765L30.7801 255.443L52.8521 224.509L70.285 231.147L55.3345 266.754V266.765ZM90.4587 244.109L103.107 265.698C103.814 266.9 103.028 268.417 101.601 268.608L81.0907 271.461C79.5855 271.674 78.3612 270.315 78.8105 268.933L86.6733 244.491C87.2124 242.829 89.5713 242.593 90.4587 244.109Z" fill="#35383F"/>
<path d="M21.0301 106.297C16.8291 98.333 19.042 88.4933 26.6464 83.2926C32.5547 79.2601 39.2493 79.4735 44.5511 83.3375C47.9209 85.7862 51.0323 90.1332 54.0201 94.2331L62.512 86.5837C61.6583 85.3145 60.8158 84.0452 59.9959 82.7871C57.8055 79.4511 55.5478 76.0027 53.0654 72.9137C49.5945 68.5892 45.6407 64.8712 41.4397 61.6587L6.76477 83.4723C6.82093 83.6633 6.89956 83.8542 6.95572 84.0452C8.48335 89.0661 8.85403 93.7389 9.16854 97.8725C9.33703 99.973 9.48305 101.95 9.7751 103.601C10.9882 110.554 15.4925 117.148 21.1986 123.797L28.803 116.945C25.804 113.688 23.1081 110.217 21.0301 106.286V106.297ZM41.1027 65.0509L45.0453 69.544L36.913 76.0251L32.9703 71.5321L41.1027 65.0509Z" fill="#79408C"/>
<g opacity="0.2">
<path d="M21.0301 106.297C16.8291 98.333 19.042 88.4933 26.6464 83.2926C32.5547 79.2601 39.2493 79.4735 44.5511 83.3375C47.9209 85.7862 51.0323 90.1332 54.0201 94.2331L62.512 86.5837C61.6583 85.3145 60.8158 84.0452 59.9959 82.7871C57.8055 79.4511 55.5478 76.0027 53.0654 72.9137C49.5945 68.5892 45.6407 64.8712 41.4397 61.6587L6.76477 83.4723C6.82093 83.6633 6.89956 83.8542 6.95572 84.0452C8.48335 89.0661 8.85403 93.7389 9.16854 97.8725C9.33703 99.973 9.48305 101.95 9.7751 103.601C10.9882 110.554 15.4925 117.148 21.1986 123.797L28.803 116.945C25.804 113.688 23.1081 110.217 21.0301 106.286V106.297ZM41.1027 65.0509L45.0453 69.544L36.913 76.0251L32.9703 71.5321L41.1027 65.0509Z" fill="black"/>
</g>
<path d="M77.8894 205.739C78.2377 205.806 78.5859 205.863 78.9341 205.907C90.1779 207.592 101.208 201.212 105.128 190.732L119.585 152.126C112.014 150.093 105.173 148.846 98.8382 148.341L82.8655 191.575C81.6074 195.158 76.1821 194.832 75.3958 191.137C72.846 179.017 68.398 167.29 62.2313 156.394C58.7604 158.663 55.7501 161.337 53.3126 164.347C55.1548 168.245 56.6375 172.378 57.6035 176.804C58.8166 182.353 59.1086 188.07 58.5358 193.776C63.0737 199.887 70.1839 204.312 77.8894 205.739Z" fill="#79408C"/>
<g opacity="0.2">
<path d="M77.8894 205.739C78.2377 205.806 78.5859 205.863 78.9341 205.907C90.1779 207.592 101.208 201.212 105.128 190.732L119.585 152.126C112.014 150.093 105.173 148.846 98.8382 148.341L82.8655 191.575C81.6074 195.158 76.1821 194.832 75.3958 191.137C72.846 179.017 68.398 167.29 62.2313 156.394C58.7604 158.663 55.7501 161.337 53.3126 164.347C55.1548 168.245 56.6375 172.378 57.6035 176.804C58.8166 182.353 59.1086 188.07 58.5358 193.776C63.0737 199.887 70.1839 204.312 77.8894 205.739Z" fill="#79408C"/>
</g>
<g opacity="0.2">
<path d="M77.8894 205.739C78.2377 205.806 78.5859 205.863 78.9341 205.907C90.1779 207.592 101.208 201.212 105.128 190.732L119.585 152.126C112.014 150.093 105.173 148.846 98.8382 148.341L82.8655 191.575C81.6074 195.158 76.1821 194.832 75.3958 191.137C72.846 179.017 68.398 167.29 62.2313 156.394C58.7604 158.663 55.7501 161.337 53.3126 164.347C55.1548 168.245 56.6375 172.378 57.6035 176.804C58.8166 182.353 59.1086 188.07 58.5358 193.776C63.0737 199.887 70.1839 204.312 77.8894 205.739Z" fill="#79408C"/>
</g>
<g opacity="0.2">
<path d="M77.8894 205.739C78.2377 205.806 78.5859 205.863 78.9341 205.907C90.1779 207.592 101.208 201.212 105.128 190.732L119.585 152.126C112.014 150.093 105.173 148.846 98.8382 148.341L82.8655 191.575C81.6074 195.158 76.1821 194.832 75.3958 191.137C72.846 179.017 68.398 167.29 62.2313 156.394C58.7604 158.663 55.7501 161.337 53.3126 164.347C55.1548 168.245 56.6375 172.378 57.6035 176.804C58.8166 182.353 59.1086 188.07 58.5358 193.776C63.0737 199.887 70.1839 204.312 77.8894 205.739Z" fill="black"/>
</g>
<path d="M60.6699 153.71C55.5142 145.117 49.2576 137.085 41.9677 129.863C38.3284 126.257 34.4981 122.831 30.9598 119.226L23.2655 126.156C25.3772 128.515 27.6013 130.885 29.859 133.3C37.5758 141.511 46.0002 150.486 51.7737 161.28C54.2786 158.438 57.2889 155.889 60.6699 153.71Z" fill="#79408C"/>
<g opacity="0.2">
<path d="M60.6699 153.71C55.5142 145.117 49.2576 137.085 41.9677 129.863C38.3284 126.257 34.4981 122.831 30.9598 119.226L23.2655 126.156C25.3772 128.515 27.6013 130.885 29.859 133.3C37.5758 141.511 46.0002 150.486 51.7737 161.28C54.2786 158.438 57.2889 155.889 60.6699 153.71Z" fill="black"/>
</g>
<path d="M92.0649 211.445L119.955 272.157L150.238 276.414L100.422 207.39C97.8722 209.131 95.0528 210.501 92.0762 211.434L92.0649 211.445ZM132.727 259.251L121.079 262.519L117.406 255.499L127.762 251.871L132.716 259.251H132.727ZM125.998 249.22L115.968 252.736L110.969 243.188L119.843 240.077L125.987 249.231L125.998 249.22Z" fill="#35383F"/>
<path d="M58.6929 68.8139C61.3774 72.1612 63.7251 75.7444 66.0053 79.2152C69.8131 85.0112 73.4075 90.4927 78.3498 94.806C81.5174 97.5692 85.0894 99.7371 88.9871 101.478C89.7509 96.3674 93.1206 91.6721 97.9169 89.2122C100.792 87.7407 104.005 87.1005 106.791 86.6287C113.833 85.4156 121 84.7529 128.155 84.6406L120.708 45.6523L49.572 59.4235C52.8182 62.2316 55.8847 65.343 58.6816 68.8363L58.6929 68.8139ZM89.178 57.7947L117.282 52.5828V62.6921H89.178V57.7835V57.7947ZM79.4282 66.9942H117.282V82.102L79.4282 86.1345V66.983V66.9942ZM64.1519 61.7037L74.8565 59.6481V72.9699H64.1519V61.7037Z" fill="#35383F"/>
<path d="M234.977 229.777C232.326 233.202 229.596 236.752 227.08 240.459C217.836 254.039 211.927 269.113 208.052 284.558L220.756 286.344C224.328 272.494 229.675 259.183 237.875 247.12C239.144 245.255 240.481 243.424 241.862 241.593V223.509H239.728C238.2 225.576 236.605 227.654 234.977 229.765V229.777Z" fill="#1F222A"/>
<path d="M9.46063 248.378L12.2351 246.828C12.8529 247.827 13.4931 248.827 14.1446 249.804C22.5353 246.12 30.9934 240.964 38.5305 233.719C47.7524 224.846 54.0876 213.871 56.9968 202.414C54.8851 200.426 53.0093 198.213 51.4592 195.809L57.4911 192.282C57.8168 192.788 58.165 193.282 58.5357 193.776C59.1085 188.07 58.8165 182.353 57.6034 176.804C56.6374 172.39 55.1547 168.256 53.3125 164.347C52.6161 165.201 51.9646 166.077 51.3693 166.987L48.6398 165.369C49.5721 163.943 50.6279 162.583 51.7737 161.281C46.0001 150.486 37.5757 141.511 29.859 133.3C27.6012 130.896 25.3659 128.526 23.2654 126.156L20.7493 128.414L18.5365 126.19L21.1874 123.797C15.4813 117.148 10.9883 110.554 9.76391 103.601C9.47186 101.95 9.32583 99.9732 9.15735 97.8727C8.8316 93.7391 8.47216 89.0664 6.94453 84.0454C6.88837 83.8545 6.82097 83.6635 6.75358 83.4726L4.47337 84.9104L1.93481 81.2485V96.2777C1.99097 96.9966 2.05837 97.7042 2.1033 98.3894C2.28302 100.636 2.44028 102.759 2.78849 104.713C4.92267 116.878 14.4703 127.032 24.5797 137.793C35.1158 149.003 47.0672 161.719 50.6617 178.174C54.4807 195.63 47.8984 215.096 33.4871 228.968C23.8495 238.246 12.4822 243.817 1.92358 247.153V254.219C4.94514 253.331 8.03409 252.298 11.1567 251.051C10.5726 250.164 9.99979 249.265 9.44939 248.367L9.46063 248.378Z" fill="#1F222A"/>
<path d="M1.93494 73.5654V78.4291L4.05789 77.0925C3.41763 75.8793 2.70998 74.6999 1.93494 73.5542V73.5654Z" fill="#35383F"/>
<path d="M50.673 178.174C47.0786 161.718 35.1271 149.014 24.591 137.793C14.4817 127.032 4.9228 116.867 2.79984 104.713C2.46287 102.759 2.29438 100.636 2.11466 98.3893C2.05849 97.7041 2.00233 96.9965 1.94617 96.2776V125.291C14.6053 143.668 36.7783 158.225 41.5409 179.994C44.8882 195.281 38.3958 211.625 26.8712 222.722C19.8846 229.44 11.258 234.359 1.94617 237.707V247.165C12.5048 243.828 23.8721 238.257 33.5097 228.979C47.921 215.107 54.5033 195.641 50.6842 178.185L50.673 178.174Z" fill="#1F222A"/>
<path d="M41.5297 179.994C36.7671 158.225 14.594 143.668 1.93494 125.291V237.707C11.258 234.371 19.8733 229.451 26.86 222.722C38.3846 211.625 44.877 195.27 41.5297 179.994Z" fill="#35383F"/>
<path d="M217.813 124.437L217.701 124.797L216.859 127.594L241.862 130.716V123.909L218.038 120.933L217.813 124.437Z" fill="#1F222A"/>
<path d="M210.793 123.292L210.995 120.057L140.443 111.228L141.106 114.721L139.893 117.968L209.76 126.706L210.793 123.292Z" fill="#1F222A"/>
<path d="M35.3293 57.4242L40.238 54.3352L42.4395 53.9084C37.003 50.1679 31.3081 47.1576 25.7255 44.7426C24.0855 45.3492 22.4007 45.9333 20.6596 46.5061L19.5925 43.6194C20.2103 43.4172 20.8281 43.2037 21.4347 43.0016C16.5036 41.1033 11.7522 39.643 7.46135 38.5422C5.63044 38.0705 3.78831 37.6549 1.94617 37.2505V44.1697C3.18175 44.4506 4.40609 44.7426 5.61921 45.0571C14.4031 47.3036 25.2425 51.1115 35.3293 57.4242Z" fill="#35383F"/>
<path d="M53.0654 72.9024C55.5478 76.0026 57.8055 79.451 59.9959 82.7758C60.8271 84.0339 61.6583 85.3032 62.512 86.5724L65.3313 84.0339L67.5442 86.2579L64.3092 89.1672C66.9825 92.9413 69.9367 96.6031 73.5648 99.7595C85.8083 110.442 102.174 113.227 120.753 115.552L132.715 117.046L133.805 114.137L133.075 110.296L121.685 108.869C110.789 107.51 100.725 105.994 92.0873 102.736C92.0761 102.893 92.0536 103.039 92.0536 103.197L88.8411 103.084C88.8635 102.534 88.9197 101.995 89.0096 101.456C85.1119 99.7145 81.5399 97.5579 78.3723 94.7834C73.4188 90.4701 69.8244 84.9887 66.0278 79.1926C63.7588 75.7218 61.3999 72.1386 58.7154 68.7913C55.9185 65.3092 52.8407 62.1866 49.6058 59.3784L43.0123 60.6589L41.4622 61.6362C45.6631 64.8487 49.617 68.5666 53.0879 72.8912L53.0654 72.9024Z" fill="#1F222A"/>
<path d="M44.5512 83.3375C39.2382 79.4735 32.5436 79.26 26.6465 83.2925C19.042 88.4932 16.8404 98.3329 21.0302 106.297C23.097 110.228 25.804 113.688 28.8031 116.957L54.0202 94.233C51.0323 90.1332 47.9209 85.7862 44.5512 83.3375Z" fill="#AC73BF"/>
<g opacity="0.1">
<path d="M44.5512 83.3375C39.2382 79.4735 32.5436 79.26 26.6465 83.2925C19.042 88.4932 16.8404 98.3329 21.0302 106.297C23.097 110.228 25.804 113.688 28.8031 116.957L54.0202 94.233C51.0323 90.1332 47.9209 85.7862 44.5512 83.3375Z" fill="#AC73BF"/>
</g>
<g opacity="0.2">
<path d="M44.5512 83.3375C39.2382 79.4735 32.5436 79.26 26.6465 83.2925C19.042 88.4932 16.8404 98.3329 21.0302 106.297C23.097 110.228 25.804 113.688 28.8031 116.957L54.0202 94.233C51.0323 90.1332 47.9209 85.7862 44.5512 83.3375Z" fill="#AC73BF"/>
</g>
<path d="M84.8311 148.52C76.3505 149.486 68.5439 152.272 62.2312 156.405C68.3979 167.301 72.846 179.028 75.3958 191.148C76.1708 194.855 81.5961 195.169 82.8654 191.586L98.8381 148.352C93.8958 147.959 89.268 148.015 84.8311 148.52Z" fill="#AC73BF"/>
<path d="M96.9286 122.079C82.8654 119.012 69.0943 110.869 59.5241 101.108C58.3223 99.8832 57.1091 98.378 55.8848 96.7605L43.8997 107.555L80.0123 146.161C81.4726 145.88 82.944 145.645 84.438 145.476C89.6836 144.881 94.9067 144.937 99.9277 145.375L104.016 134.311C105.96 129.032 102.657 123.326 96.9286 122.079Z" fill="#AC73BF"/>
<path d="M30.9597 119.226C34.498 122.831 38.3283 126.257 41.9676 129.863C49.2575 137.085 55.5029 145.117 60.6698 153.71C65.2977 150.722 70.6443 148.419 76.4516 146.948L41.5745 109.667L30.9597 119.226Z" fill="#AC73BF"/>
<path d="M127.526 43.6305L218.341 4.30536L218.577 0.688477H209.602L126.223 36.7899L127.526 43.6305Z" fill="#1F222A"/>
<path d="M6.76494 83.4724L41.4398 61.6588L42.9899 60.6815L49.5722 59.401L120.708 45.6411L119.439 39.0027L42.4283 53.9083L40.2267 54.3351L35.3293 57.4241L4.05789 77.0923L1.93494 78.429V81.2483L4.4735 84.9101L6.76494 83.4724Z" fill="#1F222A"/>
<path d="M77.8333 212.568C79.4058 212.804 80.9784 212.916 82.5397 212.916C83.3597 212.916 84.1685 212.883 84.9772 212.826L84.0898 210.906L90.5822 208.199L92.0762 211.445C95.0528 210.501 97.8722 209.142 100.422 207.401L98.3664 204.548L101.017 202.807L102.938 205.469C106.836 202.189 109.947 197.955 111.801 193.001L118.753 174.445L113.328 170.367L117.709 165.077L121.258 167.75L126.639 153.384L125.021 153.35L124.92 153.653C123.1 153.103 121.326 152.597 119.585 152.137L105.128 190.743C101.208 201.223 90.1891 207.603 78.9341 205.918C78.5859 205.862 78.2376 205.806 77.8894 205.75C70.1727 204.323 63.0737 199.898 58.5357 193.787C58.1763 193.304 57.8281 192.81 57.4911 192.293L51.4592 195.82C53.0093 198.224 54.8852 200.437 56.9969 202.425C62.3211 207.446 69.2067 211.007 76.5415 212.366C76.9684 212.445 77.3952 212.512 77.8333 212.579V212.568Z" fill="#1F222A"/>
<path d="M120.708 45.6412L128.155 84.6294C129.357 84.6069 130.57 84.6069 131.772 84.6182L131.738 87.6846C130.739 87.6846 129.739 87.6846 128.739 87.6846L133.064 110.318L133.794 114.16L132.704 117.069L120.663 149.228C122.045 149.599 123.359 149.98 124.606 150.34V150.261L127.773 150.317L139.893 117.956L141.106 114.71L140.443 111.228L135.827 87.0444L133.142 87.5386L132.536 84.5283L135.243 84.0341L127.526 43.6305L126.223 36.7899L119.326 0.688477H112.126L119.45 39.0027L120.719 45.6412H120.708Z" fill="#1F222A"/>
<path d="M90.571 208.199L84.0898 210.895L84.966 212.827L112.418 272.573L117.473 271.809L119.955 272.157L92.065 211.445L90.571 208.199Z" fill="#1F222A"/>
<path d="M184.071 223.52L181.487 221.577L172.288 279.526L171.76 282.839L178.758 283.85L179.297 280.503L188.339 223.52H184.071Z" fill="#1F222A"/>
<path d="M214.196 69.6117L217.386 69.0276L217.993 72.0379L214.005 72.768L211.006 120.046L210.804 123.281L209.782 126.684L202.256 151.666L205.413 151.722L205.356 154.788L201.335 154.71L192.192 185.049H194.708V188.115H191.26L183.352 214.366L186.531 216.747H190.001L216.87 127.56L217.712 124.775L217.825 124.415L218.049 120.911L223.396 36.6778C222.958 36.6778 222.52 36.6891 222.07 36.7228L221.666 29.9945C222.385 29.9608 223.104 29.9383 223.823 29.9383L225.676 0.66626H218.577L218.352 4.29438L214.208 69.6005L214.196 69.6117Z" fill="#1F222A"/>
<path d="M41.5632 109.667L41.2038 109.285L43.6076 107.241L43.9108 107.555L55.8848 96.7607L64.3092 89.1787L67.5329 86.2695L65.3313 84.0454L62.512 86.584L54.0201 94.2333L28.7918 116.957L21.1986 123.797L18.5365 126.201L20.7493 128.425L23.2654 126.156L30.9597 119.226L41.5632 109.667Z" fill="#1F222A"/>
<path d="M62.2312 156.406C68.5551 152.272 76.3505 149.486 84.8311 148.52C89.2679 148.015 93.8957 147.959 98.8381 148.352C105.173 148.857 112.003 150.104 119.585 152.137C121.326 152.609 123.1 153.103 124.92 153.654L125.021 153.35H124.549L124.606 150.351C123.359 149.981 122.045 149.61 120.663 149.239C114.665 147.611 107.543 146.049 99.9389 145.375C94.9179 144.937 89.6948 144.881 84.4492 145.476C82.9552 145.645 81.4725 145.892 80.0235 146.162L80.6301 146.813L78.2263 148.846L76.4403 146.937C70.6443 148.408 65.2976 150.711 60.6586 153.699C57.2776 155.878 54.2673 158.416 51.7624 161.269C50.6167 162.572 49.5608 163.931 48.6285 165.358L51.358 166.975C51.9534 166.066 52.6161 165.189 53.3013 164.336C55.7387 161.325 58.7491 158.652 62.2199 156.383L62.2312 156.406Z" fill="#1F222A"/>
<path d="M43.6076 107.24L41.2039 109.285L41.5633 109.667L76.4404 146.948L78.2264 148.846L80.6301 146.813L80.0236 146.161L43.9109 107.555L43.6076 107.24Z" fill="#1F222A"/>
<path d="M117.282 66.9941H79.4283V86.1344L117.282 82.1019V66.9941Z" fill="#1F222A"/>
<path d="M117.282 52.583L89.1781 57.7949V62.7035H117.282V52.583Z" fill="#1F222A"/>
<path d="M74.8567 59.6479L64.1521 61.7035V72.9698H74.8567V59.6479Z" fill="#1F222A"/>
<path d="M101.085 99.7484C101.455 101.186 102.736 102.298 104.162 102.893C105.589 103.5 107.161 103.669 108.712 103.848C113.676 104.399 118.641 104.938 123.606 105.488L124.987 105.645C125.774 105.387 126.549 105.14 127.335 104.882C126.369 102.523 126.47 99.9169 126.021 97.4232C125.572 94.9296 124.269 92.2787 121.764 91.4475C120.225 90.9308 118.54 91.2116 116.945 91.4924C114.474 91.9305 112.003 92.3573 109.531 92.7954C107.465 93.1549 105.342 93.548 103.601 94.66C101.86 95.772 100.59 97.8051 101.096 99.7484H101.085Z" fill="#1F222A"/>
<path d="M97.9171 89.2123C93.1208 91.6722 89.751 96.3674 88.9872 101.478C88.9086 102.017 88.8412 102.557 88.8187 103.107L92.0312 103.219C92.0312 103.062 92.0537 102.905 92.0649 102.759C92.4131 98.2657 95.2662 94.0535 99.4335 91.9081C101.893 90.6501 104.814 90.0772 107.364 89.6391C114.406 88.426 121.573 87.7745 128.739 87.6847C129.739 87.6734 130.739 87.6734 131.738 87.6847L131.772 84.6182C130.57 84.6069 129.357 84.6182 128.155 84.6294C121 84.7417 113.822 85.4157 106.791 86.6176C104.005 87.1006 100.793 87.7296 97.9171 89.2011V89.2123Z" fill="#1F222A"/>
<path d="M106.555 4.46265H54.4695V32.252H106.555V4.46265Z" fill="#1F222A"/>
<path d="M35.3293 8.19189H21.5919V26.5796H35.3293V8.19189Z" fill="#1F222A"/>
<path d="M15.6947 8.19189H1.95728V26.5796H15.6947V8.19189Z" fill="#1F222A"/>
<path d="M42.7315 33.7347C45.3487 30.2302 46.9662 25.7933 47.5615 20.5477C48.0782 15.9873 47.7637 11.4044 47.4716 6.96753L44.2591 7.15848C44.5512 11.4718 44.8432 15.9199 44.3602 20.2219C43.8323 24.9396 42.3945 28.8935 40.1031 31.96C36.0144 37.4415 29.2636 40.3058 21.4233 43.0016C20.8168 43.215 20.199 43.4172 19.5812 43.6194L20.6483 46.5061C22.3781 45.922 24.0742 45.3492 25.7142 44.7426C32.712 42.1591 38.7102 39.1151 42.7315 33.7347Z" fill="#1F222A"/>
<path d="M45.0455 69.544L41.1028 65.051L32.9705 71.5322L36.9243 76.0252L45.0455 69.544Z" fill="#1F222A"/>
<path d="M217.993 72.0489L217.387 69.0386L214.196 69.6114L135.243 84.034L132.536 84.5283L133.142 87.5274L135.816 87.0444L213.994 72.779L217.993 72.0489Z" fill="#1F222A"/>
<path d="M221.655 30.0054L222.059 36.7337C222.497 36.7112 222.935 36.7 223.385 36.6887C229.978 36.6101 236.516 38.5871 241.862 42.2489V34.3299C236.336 31.4993 230.102 29.9604 223.812 29.9604C223.093 29.9604 222.374 29.9717 221.655 30.0166V30.0054Z" fill="#1F222A"/>
<path d="M186.531 216.769L183.352 214.388L148.396 188.137H140.646V185.071H144.319L121.247 167.739L117.698 165.077L113.306 170.367L118.742 174.445L181.487 221.577L184.071 223.52H188.339H239.728H241.862V216.769H190.002H186.531Z" fill="#1F222A"/>
<path d="M220.206 230.372H196.325C194.742 230.372 193.394 231.462 193.158 232.956L186.868 272.168C186.598 273.842 187.822 275.415 189.586 275.651L199.83 277.043C201.436 277.268 202.964 276.302 203.38 274.808C207.255 260.678 213.837 247.075 222.801 235.213C224.328 233.191 222.834 230.372 220.217 230.361L220.206 230.372Z" fill="#1F222A"/>
<path d="M231.023 10.5283L230.203 20.3231C230.057 22.0754 231.371 23.6479 233.202 23.8726C236.179 24.232 239.077 25.0745 241.851 26.2539V5.43994L233.584 7.57413C232.157 7.9448 231.135 9.12422 231.023 10.5171V10.5283Z" fill="#1F222A"/>
<path d="M125.021 153.339L126.627 153.373L201.324 154.732L205.334 154.81L205.401 151.744L202.234 151.688L127.773 150.329L124.606 150.272V150.351L124.549 153.339H125.021Z" fill="#1F222A"/>
<path d="M169.637 92.6157V110.565L205.368 114.441L206.424 92.6157H169.637Z" fill="#E8505B"/>
<path d="M169.637 92.6157V110.565L205.368 114.441L206.424 92.6157H169.637Z" fill="#1F222A"/>
<g opacity="0.1">
<path d="M169.637 92.6157V110.565L205.368 114.441L206.424 92.6157H169.637Z" fill="black"/>
</g>
<path d="M162.886 88.4934H147.756V109.487H162.886V88.4934Z" fill="#1F222A"/>
<g opacity="0.1">
<path d="M162.886 88.4934H147.756V109.487H162.886V88.4934Z" fill="black"/>
</g>
<path d="M146.621 73.9808L160.224 70.4426V35.2622L143.532 42.4623L146.621 73.9808Z" fill="#1F222A"/>
<g opacity="0.1">
<path d="M146.621 73.9808L160.224 70.4426V35.2622L143.532 42.4623L146.621 73.9808Z" fill="black"/>
</g>
<path d="M170.356 37.1047V74.0261L206.424 64.6581L209.22 20.3232L170.356 37.1047Z" fill="#E8505B"/>
<path d="M170.356 37.1047V74.0261L206.424 64.6581L209.22 20.3232L170.356 37.1047Z" fill="#1F222A"/>
<g opacity="0.1">
<path d="M170.356 37.1047V74.0261L206.424 64.6581L209.22 20.3232L170.356 37.1047Z" fill="black"/>
</g>
<path d="M20.3 52.583H10.5389V61.8836H20.3V52.583Z" fill="#1F222A"/>
<path d="M3.56366 48.7075H1.93494V58.0081H3.56366V48.7075Z" fill="#1F222A"/>
<path d="M202.683 210.827H240.222V181.005H223.407V163.841H215.556L202.683 210.827Z" fill="#1F222A"/>
<path d="M218.128 152.542H241.862V137.232L223.138 135.434L218.128 152.542Z" fill="#1F222A"/>
<path d="M241.862 159.236H233.898V174.254H241.862V159.236Z" fill="#1F222A"/>
<path d="M126.661 12.4489L129.245 26.4222C129.492 27.7476 130.974 28.489 132.255 27.9273L159.73 15.8523C161.752 14.965 161.19 12.1007 158.977 11.9546L128.919 10.0563C127.526 9.96648 126.425 11.1459 126.661 12.4489Z" fill="#1F222A"/>
<path d="M122.966 183.88L110.98 208.716L122.674 219.6L134.861 192.945L122.966 183.88Z" fill="#1F222A"/>
<path d="M139.028 196.113L126.616 223.262L144.69 240.077L158.135 210.67L139.028 196.113Z" fill="#1F222A"/>
<path d="M162.302 213.837L148.632 243.738L167.379 261.194L174.298 222.981L162.302 213.837Z" fill="#1F222A"/>
<path d="M197.101 131.739H149.362V145.532H197.101V131.739Z" fill="#1F222A"/>
<path d="M152.249 122.764H143.027V126.751H152.249V122.764Z" fill="#1F222A"/>
<path d="M193.135 159.236H168.997H164.975V180.286H186.474L193.135 159.236Z" fill="#1F222A"/>
<path d="M151.294 157.091H137.669V161.381H151.294V157.091Z" fill="#1F222A"/>
<path d="M151.294 164.032H137.669V168.323H151.294V164.032Z" fill="#1F222A"/>
<path d="M151.294 170.963H137.669V175.254H151.294V170.963Z" fill="#1F222A"/>
<path d="M140.646 185.071V188.138H148.396H191.26H194.708V185.071H192.181H144.319H140.646Z" fill="#1F222A"/>
<path d="M78.8217 268.944C78.3724 270.326 79.5967 271.685 81.1019 271.472L101.613 268.619C103.05 268.417 103.825 266.911 103.118 265.709L90.4699 244.12C89.5825 242.604 87.2124 242.84 86.6845 244.502L78.8217 268.944Z" fill="#1F222A"/>
<path d="M226.249 91.6384H241.862V73.554L227.26 73.1609L226.249 91.6384Z" fill="#1F222A"/>
<path d="M224.991 115.047L241.862 116.833V96.6821H226.002L224.991 115.047Z" fill="#1F222A"/>
<path d="M101.006 202.807L98.3551 204.548L100.411 207.401L150.238 276.414L152.867 280.053L155.518 278.324L154.585 277.032L102.927 205.469L101.006 202.807Z" fill="#1F222A"/>
<path d="M30.78 255.454L55.3456 266.776L70.2962 231.158L52.8632 224.52L30.78 255.454Z" fill="#1F222A"/>
<path d="M115.979 252.747L125.998 249.231L119.854 240.077L110.98 243.188L115.979 252.747Z" fill="#1F222A"/>
<g clip-path="url(#clip1_4083_43734)">
<path d="M97.0973 99.6809C97.0973 94.8397 92.0202 91.7844 86.842 94.2106C85.6738 94.761 84.7078 95.6821 84.1125 96.8278C82.8095 99.3439 83.3824 102.219 84.573 104.612L88.6055 114.834C89.1896 116.305 91.2788 116.294 91.8405 114.822L95.7943 104.556C97.1647 101.433 97.1085 99.6809 97.1085 99.6809H97.0973ZM92.2336 103.893C88.7515 105.915 85.2245 102.175 87.134 98.479C87.3924 97.9848 87.7743 97.5804 88.2348 97.3108C91.7169 95.289 95.2439 99.0294 93.3344 102.725C93.076 103.219 92.6941 103.624 92.2336 103.893Z" fill="white"/>
</g>
</g>
<defs>
<clipPath id="clip0_4083_43734">
<rect x="0.25" y="0.126709" width="241.5" height="243.747" rx="13.4791" fill="white"/>
</clipPath>
<clipPath id="clip1_4083_43734">
<rect width="13.7262" height="22.5774" fill="white" transform="translate(83.371 93.3569)"/>
</clipPath>
</defs>
</svg>
