<svg width="242" height="180" viewBox="0 0 242 180" fill="none" xmlns="http://www.w3.org/2000/svg">
<path d="M85.7908 1.61121C65.7797 4.01469 46.6272 10.0709 33.0196 23.3618C15.868 40.1141 9.24945 65.7255 11.9366 89.5503C16.9029 133.581 53.8929 171.993 97.7052 178.617C141.924 185.301 186.065 157.542 212.375 123.623C223.224 109.636 230.644 92.343 229.939 74.656C229.087 53.2428 216.185 33.4236 198.726 20.998C181.267 8.57181 159.727 2.89677 138.352 1.37482C122.397 0.238739 103.748 -0.545135 85.7908 1.61121Z" fill="#35383F"/>
<path d="M225.697 63.2075C226.022 64.9699 227.707 66.1376 229.469 65.8272L230.606 71.9911C228.85 72.3305 227.693 74.0229 228.018 75.7852C228.343 77.5469 230.028 78.7153 231.79 78.4056L232.928 84.5695C231.171 84.9082 230.014 86.6006 230.339 88.363C230.665 90.1254 232.35 91.2931 234.111 90.9826L235.249 97.1466C233.493 97.486 232.336 99.1783 232.661 100.941C232.986 102.702 234.671 103.871 236.433 103.561L237.571 109.725C235.814 110.064 234.657 111.756 234.982 113.518C235.307 115.281 236.992 116.449 238.754 116.138L239.892 122.302C238.136 122.641 236.979 124.334 237.304 126.096C237.619 127.807 239.216 128.958 240.921 128.74C241.215 135.177 237.213 138.141 231.888 139.124L204.814 144.121L46.3019 173.376C40.3717 174.497 35.1953 173.437 33.5757 164.616L30.0706 145.625C37.4449 144.259 42.3179 137.176 40.9569 129.801C39.5959 122.425 32.5148 117.548 25.1389 118.905L20.9282 96.0906C20.2259 92.285 22.7414 88.631 26.5465 87.9286L219.839 52.2534C223.644 51.551 227.298 54.067 228.001 57.8719L228.285 59.4141C226.529 59.7528 225.372 61.4451 225.697 63.2075Z" fill="#79408C"/>
<path d="M46.2259 172.972L204.74 143.716L231.814 138.719C234.604 138.204 236.759 137.185 238.22 135.689C239.795 134.076 240.57 131.885 240.526 129.171C238.774 129.181 237.228 127.932 236.903 126.166C236.563 124.327 237.674 122.539 239.421 121.997L238.423 116.585C236.596 116.701 234.92 115.427 234.581 113.589C234.241 111.75 235.353 109.962 237.1 109.419L236.101 104.007C234.275 104.124 232.599 102.85 232.259 101.011C231.92 99.1719 233.031 97.3839 234.778 96.8411L233.779 91.4294C231.954 91.5459 230.278 90.2724 229.938 88.4333C229.599 86.5948 230.71 84.8062 232.457 84.2634L231.458 78.8516C229.632 78.9681 227.956 77.6947 227.617 75.8555C227.277 74.0164 228.389 72.2284 230.135 71.6856L229.137 66.2739C227.311 66.3904 225.635 65.1169 225.295 63.2778C224.956 61.4386 226.067 59.6507 227.814 59.1079L227.599 57.9422C226.939 54.3642 223.491 51.991 219.913 52.651L26.6206 88.3262C23.0427 88.9868 20.6692 92.4348 21.3296 96.0128L25.4674 118.431C29.01 117.883 32.5702 118.696 35.535 120.738C38.612 122.858 40.6801 126.049 41.3583 129.723C42.0364 133.397 41.2438 137.116 39.1258 140.194C37.0853 143.16 34.0498 145.19 30.545 145.943L33.9771 164.538C34.6486 168.195 35.9462 170.639 37.9446 172.009C39.9151 173.361 42.5469 173.669 46.2259 172.972ZM231.962 139.521L204.888 144.518L46.376 173.774C46.3383 173.781 46.2999 173.788 46.2622 173.795C42.4156 174.505 39.6235 174.151 37.4827 172.683C35.2962 171.183 33.8869 168.567 33.1742 164.686L29.5952 145.294L29.9963 145.22C33.4557 144.58 36.4591 142.63 38.4531 139.731C40.4478 136.832 41.194 133.33 40.5555 129.871C39.9171 126.411 37.9696 123.406 35.0719 121.411C32.1744 119.415 28.673 118.666 25.2128 119.302L24.8116 119.376L20.5268 96.1609C19.7848 92.1405 22.4519 88.2656 26.4724 87.5235L219.765 51.8483C223.785 51.1061 227.66 53.7736 228.402 57.794L228.76 59.7342L228.362 59.811C226.831 60.1066 225.815 61.5956 226.098 63.1296C226.381 64.6637 227.861 65.6921 229.398 65.4213L229.797 65.3513L231.081 72.3112L230.684 72.388C229.152 72.6837 228.136 74.1726 228.42 75.7074C228.703 77.2421 230.183 78.2698 231.719 77.9997L232.118 77.929L233.403 84.8897L233.005 84.9664C231.474 85.2621 230.458 86.751 230.741 88.2851C231.024 89.8199 232.505 90.8475 234.041 90.5768L234.439 90.5068L235.724 97.4667L235.326 97.5435C233.795 97.8391 232.779 99.3281 233.062 100.863C233.346 102.398 234.826 103.426 236.362 103.155L236.761 103.085L238.046 110.045L237.648 110.122C236.116 110.418 235.101 111.906 235.384 113.441C235.667 114.975 237.147 116.003 238.683 115.732L239.082 115.662L240.367 122.622L239.97 122.699C238.438 122.995 237.422 124.484 237.706 126.018C237.98 127.507 239.37 128.523 240.869 128.332L241.308 128.276L241.329 128.717C241.598 134.605 238.359 138.341 231.962 139.521Z" fill="#AC73BF"/>
<path d="M209.324 132.974L209.516 134.012L231.008 130.045L230.817 129.007L209.324 132.974Z" fill="#AC73BF"/>
<path d="M209.037 131.42L209.228 132.457L230.721 128.491L230.529 127.453L209.037 131.42Z" fill="#AC73BF"/>
<path d="M205.703 113.357L205.894 114.395L227.388 110.427L227.196 109.39L205.703 113.357Z" fill="#AC73BF"/>
<path d="M205.111 110.154L205.303 111.191L226.796 107.225L226.604 106.187L205.111 110.154Z" fill="#AC73BF"/>
<path d="M203.571 101.806L203.762 102.844L225.255 98.8765L225.064 97.8395L203.571 101.806Z" fill="#AC73BF"/>
<path d="M203.275 100.201L203.466 101.238L224.959 97.2711L224.768 96.234L203.275 100.201Z" fill="#AC73BF"/>
<path d="M202.953 98.459L203.144 99.4961L224.638 95.5296L224.446 94.4918L202.953 98.459Z" fill="#AC73BF"/>
<path d="M201.177 88.8379L201.369 89.875L222.862 85.9085L222.67 84.8707L201.177 88.8379Z" fill="#AC73BF"/>
<path d="M199.644 80.5254L199.835 81.5625L221.328 77.596L221.136 76.5589L199.644 80.5254Z" fill="#AC73BF"/>
<path d="M199.023 77.1621L199.215 78.1992L220.707 74.2327L220.516 73.1949L199.023 77.1621Z" fill="#AC73BF"/>
<path d="M198.736 75.6113L198.928 76.6484L220.42 72.6819L220.229 71.6448L198.736 75.6113Z" fill="#AC73BF"/>
<path d="M198.436 73.9818L198.627 75.0195L220.12 71.0523L219.929 70.0152L198.436 73.9818Z" fill="#AC73BF"/>
<path d="M197.522 69.0293L197.714 70.0664L219.206 66.0999L219.015 65.0621L197.522 69.0293Z" fill="#AC73BF"/>
<path d="M206.905 119.865L207.096 120.902L228.589 116.936L228.397 115.898L206.905 119.865Z" fill="#AC73BF"/>
<path d="M207.235 121.661L207.679 124.066L229.172 120.099L228.728 117.694L207.235 121.661Z" fill="#AC73BF"/>
<path d="M206.012 115.033L206.456 117.438L227.949 113.471L227.505 111.066L206.012 115.033Z" fill="#AC73BF"/>
<path d="M204.515 106.919L204.959 109.324L226.452 105.358L226.008 102.952L204.515 106.919Z" fill="#AC73BF"/>
<path d="M203.906 103.618L204.35 106.023L225.843 102.056L225.399 99.6514L203.906 103.618Z" fill="#AC73BF"/>
<path d="M202.078 93.7202L202.522 96.125L224.015 92.1585L223.571 89.7536L202.078 93.7202Z" fill="#AC73BF"/>
<path d="M201.486 90.5131L201.93 92.918L223.423 88.9508L222.979 86.5459L201.486 90.5131Z" fill="#AC73BF"/>
<path d="M200.555 85.4663L200.999 87.8711L222.492 83.9046L222.048 81.4991L200.555 85.4663Z" fill="#AC73BF"/>
<path d="M199.968 82.282L200.411 84.6875L221.904 80.7203L221.46 78.3155L199.968 82.282Z" fill="#AC73BF"/>
<path d="M197.84 70.7546L198.283 73.1602L219.776 69.193L219.332 66.7881L197.84 70.7546Z" fill="#AC73BF"/>
<path d="M196.932 65.8367L197.376 68.2422L218.869 64.275L218.425 61.8701L196.932 65.8367Z" fill="#AC73BF"/>
<path d="M207.87 125.103L208.062 126.141L229.555 122.173L229.363 121.136L207.87 125.103Z" fill="#AC73BF"/>
<path d="M208.462 128.306L208.897 130.664L230.39 126.698L229.955 124.339L208.462 128.306Z" fill="#AC73BF"/>
<path d="M188.714 60.4566L187.696 60.6445L187.29 58.4437L188.307 58.2558L188.714 60.4566ZM189.526 64.8581L188.508 65.046L188.102 62.8452L189.12 62.6573L189.526 64.8581ZM190.338 69.259L189.32 69.4469L188.914 67.2468L189.932 67.0589L190.338 69.259ZM191.15 73.6606L190.133 73.8485L189.727 71.6477L190.744 71.4598L191.15 73.6606ZM191.963 78.0622L190.945 78.25L190.539 76.0493L191.556 75.8614L191.963 78.0622ZM192.775 82.4631L191.757 82.6509L191.351 80.4508L192.369 80.2629L192.775 82.4631ZM193.588 86.8646L192.569 87.0525L192.163 84.8517L193.181 84.6638L193.588 86.8646ZM194.4 91.2662L193.382 91.4541L192.976 89.2533L193.994 89.0654L194.4 91.2662ZM195.212 95.6671L194.194 95.855L193.788 93.6542L194.806 93.467L195.212 95.6671ZM196.025 100.069L195.006 100.257L194.6 98.0558L195.619 97.8679L196.025 100.069ZM196.837 104.47L195.819 104.658L195.413 102.457L196.431 102.269L196.837 104.47ZM197.649 108.871L196.631 109.059L196.225 106.858L197.243 106.67L197.649 108.871ZM198.461 113.273L197.444 113.461L197.038 111.26L198.055 111.072L198.461 113.273ZM199.274 117.674L198.256 117.861L197.85 115.661L198.868 115.473L199.274 117.674ZM200.086 122.075L199.068 122.263L198.662 120.062L199.68 119.874L200.086 122.075ZM200.898 126.477L199.881 126.665L199.475 124.464L200.492 124.276L200.898 126.477ZM201.71 130.878L200.693 131.066L200.287 128.865L201.304 128.677L201.71 130.878ZM202.523 135.279L201.505 135.467L201.099 133.266L202.117 133.078L202.523 135.279ZM203.335 139.681L202.317 139.869L201.911 137.668L202.929 137.48L203.335 139.681ZM204.148 144.082L203.13 144.27L202.724 142.069L203.742 141.882L204.148 144.082Z" fill="#AC73BF"/>
<path d="M104.355 118.393C107.108 133.308 97.2493 147.63 82.3341 150.383C67.4195 153.136 53.0969 143.277 50.3439 128.361C47.5916 113.447 57.4507 99.1242 72.3659 96.3712C87.2804 93.6189 101.603 103.478 104.355 118.393Z" fill="#F4D06F"/>
<path d="M76.2105 121.332L63.0954 119.543L63.9055 117.614L78.5507 115.755L76.2105 121.332Z" fill="white"/>
<path d="M80.7643 123.198L91.2274 131.305L92.0369 129.375L83.1045 117.621L80.7643 123.198Z" fill="white"/>
<path d="M71.9329 116.828C71.9255 116.61 71.9329 116.352 71.9632 116.05C71.9632 116.05 72.704 115.406 73.6145 115.901C73.6145 115.901 73.7397 116.178 73.8232 116.547L71.9329 116.828Z" fill="white"/>
<path d="M68.0741 117.355C68.0694 117.149 68.0781 116.91 68.1057 116.634C68.1057 116.634 68.8465 115.989 69.757 116.484C69.757 116.484 69.8789 116.754 69.9624 117.116L68.0741 117.355Z" fill="white"/>
<path d="M88.2394 124.512C88.4286 124.393 88.6973 124.215 88.9822 124.086C88.9822 124.086 89.9108 124.405 89.9371 125.442C89.9371 125.442 89.7041 125.768 89.3997 126.039L88.2394 124.512Z" fill="white"/>
<path d="M85.8851 121.416C86.0588 121.312 86.2669 121.202 86.5141 121.091C86.5141 121.091 87.4427 121.41 87.469 122.446C87.469 122.446 87.3006 122.68 87.0346 122.93L85.8851 121.416Z" fill="white"/>
<path d="M72.0292 135.719L67.7387 135.171C67.6855 135.163 67.6525 135.109 67.6707 135.058L67.9205 134.335C67.9475 134.257 67.9986 134.191 68.0667 134.144C68.1064 134.118 68.1508 134.098 68.1973 134.088L70.6722 133.545L72.2453 133.243L72.0292 135.719Z" fill="white"/>
<path d="M73.3828 136.28L76.7675 138.959C76.8106 138.992 76.8725 138.977 76.8961 138.929L77.2389 138.245C77.2753 138.172 77.2874 138.088 77.2726 138.007C77.2638 137.96 77.2463 137.915 77.2214 137.874L75.8799 135.725L74.997 134.391L73.3828 136.28Z" fill="white"/>
<path d="M76.3634 120.676C72.8959 128.937 71.1409 136.077 72.4434 136.623C73.7451 137.17 77.612 130.916 81.0788 122.655L84.7403 113.93C86.1855 110.488 86.3013 107.254 84.9989 106.707C83.6965 106.16 81.4701 108.508 80.0249 111.952L76.3634 120.676Z" fill="white"/>
<path d="M110.872 88.3516L175.195 76.4796L110.872 88.3516Z" fill="#D6B9DF"/>
<path d="M175.453 77.8775L111.129 89.7488C110.41 89.8815 109.711 89.363 109.568 88.5912C109.426 87.8188 109.894 87.0847 110.613 86.9521L174.937 75.0807C175.656 74.9474 176.355 75.466 176.498 76.2384C176.64 77.0108 176.172 77.7442 175.453 77.8775Z" fill="#D6B9DF"/>
<path d="M114.185 107.02L172.215 96.3092L114.185 107.02Z" fill="#D6B9DF"/>
<path d="M172.473 97.707L114.443 108.417C113.794 108.537 113.152 108.008 113.01 107.235C112.867 106.463 113.278 105.74 113.927 105.62L171.957 94.9102C172.606 94.7904 173.248 95.319 173.39 96.0914C173.533 96.8639 173.122 97.5871 172.473 97.707Z" fill="#D6B9DF"/>
<path d="M117.831 125.629L185.983 113.05L117.831 125.629Z" fill="#D6B9DF"/>
<path d="M186.241 114.446L118.089 127.024C117.327 127.164 116.594 126.653 116.451 125.88C116.308 125.108 116.811 124.368 117.574 124.227L185.725 111.649C186.487 111.508 187.221 112.02 187.364 112.793C187.506 113.565 187.003 114.305 186.241 114.446Z" fill="#D6B9DF"/>
<path d="M121.174 144.293L184.428 132.619L121.174 144.293Z" fill="#D6B9DF"/>
<path d="M184.686 134.016L121.432 145.691C120.724 145.822 120.035 145.301 119.892 144.529C119.749 143.757 120.208 143.025 120.915 142.894L184.17 131.219C184.878 131.089 185.567 131.609 185.71 132.382C185.852 133.154 185.394 133.886 184.686 134.016Z" fill="#D6B9DF"/>
<path d="M190.703 15.8946C191.467 17.5156 193.393 18.2153 195.018 17.4664L197.689 23.1367C196.077 23.9125 195.39 25.8439 196.153 27.4649C196.917 29.0859 198.844 29.7862 200.469 29.0374L203.139 34.7077C201.527 35.4835 200.84 37.4149 201.603 39.0358C202.367 40.6568 204.294 41.3572 205.919 40.6077L208.59 46.2786C206.977 47.0538 206.29 48.9858 207.053 50.6068C207.817 52.2278 209.744 52.9281 211.369 52.1793L214.04 57.8496C212.427 58.6247 211.74 60.5561 212.504 62.1771C213.267 63.7987 215.194 64.4984 216.819 63.7496L219.49 69.4199C217.878 70.1957 217.191 72.1278 217.954 73.7487C218.695 75.3219 220.532 76.0283 222.125 75.3831C224.05 81.5336 220.936 85.4187 216.036 87.7265L191.13 99.4578L45.3073 168.143C39.8585 170.738 34.583 171.032 30.769 162.915L22.5399 145.445C29.3226 142.245 32.2299 134.154 29.0339 127.368C25.8379 120.583 17.7481 117.672 10.9615 120.864L1.07569 99.876C-0.573151 96.3754 0.92807 92.2008 4.42851 90.5516L182.247 6.79517C185.747 5.14594 189.922 6.64702 191.571 10.1475L192.239 11.5665C190.627 12.3416 189.939 14.273 190.703 15.8946Z" fill="#79408C"/>
<path d="M45.1322 167.772L190.956 99.086L215.863 87.3548C218.429 86.1453 220.253 84.6106 221.285 82.7916C222.397 80.8306 222.588 78.5146 221.854 75.9017C220.163 76.357 218.35 75.5434 217.585 73.9198C216.788 72.2281 217.406 70.2159 218.958 69.2455L216.612 64.2668C214.877 64.8446 212.931 64.0405 212.135 62.3489C211.338 60.6572 211.957 58.645 213.508 57.6746L211.162 52.6965C209.427 53.2743 207.481 52.4696 206.684 50.7779C205.888 49.0862 206.506 47.074 208.057 46.1036L205.712 41.1249C203.977 41.7034 202.031 40.8986 201.234 39.2076C200.438 37.5153 201.056 35.5031 202.607 34.5333L200.262 29.5546C198.526 30.1324 196.581 29.3284 195.784 27.636C194.987 25.9444 195.606 23.9321 197.157 22.9617L194.812 17.9837C193.076 18.5615 191.131 17.7574 190.334 16.0657C189.537 14.3741 190.156 12.3618 191.707 11.3914L191.202 10.3193C189.651 7.02756 185.712 5.61133 182.421 7.16158L4.60242 90.9186C1.31101 92.4689 -0.105422 96.4078 1.44496 99.6989L11.1595 120.323C14.4455 118.89 18.0952 118.769 21.4825 119.988C24.9981 121.253 27.8111 123.812 29.4032 127.192C30.9953 130.572 31.1764 134.37 29.9131 137.887C28.6958 141.275 26.2777 144.011 23.0805 145.632L31.1382 162.739C32.7195 166.104 34.5971 168.136 36.8786 168.952C39.1285 169.757 41.7516 169.384 45.1322 167.772ZM216.21 88.0929L191.305 99.8241L45.481 168.51C45.4467 168.527 45.4117 168.543 45.3773 168.56C41.8384 170.226 39.0477 170.595 36.6038 169.721C34.1071 168.828 32.0778 166.658 30.3996 163.087L21.9969 145.247L22.3658 145.073C25.5476 143.572 27.9552 140.922 29.1448 137.611C30.3345 134.299 30.164 130.723 28.6647 127.54C27.1654 124.357 24.5166 121.948 21.206 120.757C17.8955 119.565 14.319 119.733 11.1352 121.231L10.7661 121.404L0.706404 100.047C-1.0357 96.3485 0.555958 91.9221 4.25459 90.1799L182.073 6.42282C185.772 4.68065 190.198 6.27264 191.94 9.97115L192.781 11.7557L192.416 11.9315C191.01 12.6077 190.408 14.306 191.072 15.7176C191.738 17.1291 193.431 17.7459 194.847 17.0927L195.214 16.9237L198.231 23.3267L197.866 23.5018C196.46 24.1779 195.858 25.877 196.522 27.2885C197.188 28.7 198.881 29.3169 200.298 28.6637L200.665 28.4946L203.681 34.8976L203.317 35.0727C201.91 35.7495 201.308 37.448 201.973 38.8595C202.638 40.271 204.331 40.8878 205.748 40.2346L206.115 40.0649L209.131 46.4679L208.766 46.6437C207.361 47.3198 206.758 49.0182 207.423 50.4304C208.088 51.8419 209.781 52.4588 211.198 51.8056L211.565 51.6359L214.581 58.0396L214.217 58.2146C212.811 58.8908 212.208 60.5892 212.873 62.0007C213.538 63.4122 215.231 64.0297 216.648 63.3765L217.016 63.2068L220.031 69.6098L219.667 69.7856C218.261 70.4617 217.658 72.1601 218.323 73.5716C218.968 74.9407 220.571 75.569 221.972 75.002L222.382 74.8363L222.515 75.2586C224.275 80.8831 222.095 85.321 216.21 88.0929Z" fill="#AC73BF"/>
<path d="M192.651 87.5301L193.101 88.4844L212.873 79.1714L212.423 78.2165L192.651 87.5301Z" fill="#AC73BF"/>
<path d="M191.977 86.0965L192.426 87.0508L212.199 77.7379L211.749 76.7836L191.977 86.0965Z" fill="#AC73BF"/>
<path d="M184.151 69.4872L184.6 70.4414L204.373 61.1278L203.923 60.1736L184.151 69.4872Z" fill="#AC73BF"/>
<path d="M182.761 66.5373L183.211 67.4922L202.983 58.1786L202.533 57.2243L182.761 66.5373Z" fill="#AC73BF"/>
<path d="M179.144 58.8537L179.594 59.8086L199.366 50.495L198.917 49.5407L179.144 58.8537Z" fill="#AC73BF"/>
<path d="M178.45 57.3778L178.899 58.332L198.672 49.0191L198.222 48.0648L178.45 57.3778Z" fill="#AC73BF"/>
<path d="M177.694 55.7723L178.144 56.7266L197.916 47.413L197.466 46.4587L177.694 55.7723Z" fill="#AC73BF"/>
<path d="M173.525 46.9246L173.975 47.8789L193.747 38.566L193.298 37.6117L173.525 46.9246Z" fill="#AC73BF"/>
<path d="M169.924 39.2801L170.374 40.2344L190.146 30.9208L189.696 29.9665L169.924 39.2801Z" fill="#AC73BF"/>
<path d="M168.468 36.1903L168.917 37.1445L188.69 27.8309L188.24 26.8767L168.468 36.1903Z" fill="#AC73BF"/>
<path d="M167.794 34.7606L168.243 35.7148L188.015 26.4019L187.566 25.447L167.794 34.7606Z" fill="#AC73BF"/>
<path d="M167.089 33.2638L167.538 34.2188L187.31 24.9051L186.861 23.9509L167.089 33.2638Z" fill="#AC73BF"/>
<path d="M164.943 28.7052L165.393 29.6602L185.165 20.3466L184.716 19.3923L164.943 28.7052Z" fill="#AC73BF"/>
<path d="M186.971 75.4715L187.42 76.4258L207.193 67.1122L206.743 66.1579L186.971 75.4715Z" fill="#AC73BF"/>
<path d="M187.747 77.1191L188.789 79.332L208.561 70.0184L207.519 67.8062L187.747 77.1191Z" fill="#AC73BF"/>
<path d="M184.877 71.026L185.918 73.2383L205.69 63.9247L204.649 61.7125L184.877 71.026Z" fill="#AC73BF"/>
<path d="M181.362 63.5651L182.404 65.7773L202.176 56.4637L201.134 54.2515L181.362 63.5651Z" fill="#AC73BF"/>
<path d="M179.932 60.5215L180.973 62.7344L200.745 53.4208L199.704 51.2085L179.932 60.5215Z" fill="#AC73BF"/>
<path d="M175.64 51.4121L176.682 53.625L196.454 44.3114L195.412 42.0992L175.64 51.4121Z" fill="#AC73BF"/>
<path d="M174.25 48.4635L175.293 50.6758L195.065 41.3629L194.023 39.1506L174.25 48.4635Z" fill="#AC73BF"/>
<path d="M172.065 43.8223L173.106 46.0352L192.878 36.7216L191.837 34.5093L172.065 43.8223Z" fill="#AC73BF"/>
<path d="M170.685 40.8971L171.727 43.1094L191.499 33.7965L190.457 31.5842L170.685 40.8971Z" fill="#AC73BF"/>
<path d="M165.689 30.2917L166.731 32.5039L186.504 23.191L185.461 20.9781L165.689 30.2917Z" fill="#AC73BF"/>
<path d="M163.559 25.7676L164.601 27.9805L184.373 18.6669L183.331 16.4546L163.559 25.7676Z" fill="#AC73BF"/>
<path d="M189.239 80.2879L189.688 81.2422L209.461 71.9293L209.011 70.9743L189.239 80.2879Z" fill="#AC73BF"/>
<path d="M190.628 83.2332L191.65 85.4023L211.422 76.0894L210.4 73.9203L190.628 83.2332Z" fill="#AC73BF"/>
<path d="M154.241 22.6597L153.304 23.1008L152.35 21.0764L153.287 20.6353L154.241 22.6597ZM156.148 26.7084L155.211 27.1495L154.258 25.1251L155.194 24.684L156.148 26.7084ZM158.055 30.7577L157.118 31.1988L156.165 29.1745L157.101 28.7334L158.055 30.7577ZM159.962 34.8064L159.025 35.2475L158.072 33.2232L159.009 32.7821L159.962 34.8064ZM161.869 38.8558L160.933 39.2969L159.979 37.2719L160.916 36.8308L161.869 38.8558ZM163.777 42.9045L162.84 43.3456L161.886 41.3212L162.823 40.8801L163.777 42.9045ZM165.684 46.9531L164.747 47.3942L163.793 45.3699L164.73 44.9288L165.684 46.9531ZM167.591 51.0025L166.654 51.4436L165.701 49.4193L166.637 48.9782L167.591 51.0025ZM169.498 55.0512L168.561 55.4923L167.608 53.468L168.544 53.0269L169.498 55.0512ZM171.405 59.1006L170.468 59.5417L169.515 57.5173L170.452 57.0762L171.405 59.1006ZM173.312 63.1493L172.376 63.5903L171.422 61.566L172.359 61.1249L173.312 63.1493ZM175.22 67.1986L174.283 67.6397L173.329 65.6147L174.266 65.1736L175.22 67.1986ZM177.127 71.2473L176.19 71.6884L175.236 69.6641L176.173 69.223L177.127 71.2473ZM179.034 75.2967L178.097 75.7371L177.144 73.7127L178.08 73.2716L179.034 75.2967ZM180.941 79.3454L180.004 79.7865L179.051 77.7621L179.987 77.321L180.941 79.3454ZM182.848 83.394L181.911 83.8351L180.958 81.8108L181.895 81.3697L182.848 83.394ZM184.755 87.4434L183.819 87.8845L182.865 85.8602L183.802 85.4191L184.755 87.4434ZM186.663 91.4921L185.726 91.9332L184.772 89.9088L185.709 89.4677L186.663 91.4921ZM188.57 95.5415L187.633 95.9826L186.679 93.9575L187.616 93.5171L188.57 95.5415ZM190.477 99.5902L189.54 100.031L188.587 98.0069L189.523 97.5658L190.477 99.5902Z" fill="#AC73BF"/>
<path d="M87.4319 100.181C93.8949 113.902 88.0111 130.264 74.2905 136.727C60.5693 143.19 44.2069 137.306 37.7446 123.585C31.2814 109.864 37.1654 93.5019 50.886 87.039C64.6072 80.576 80.969 86.4598 87.4319 100.181Z" fill="#1F222A"/>
<path d="M86.077 69.4688L145.252 41.5966L86.077 69.4688Z" fill="#D6B9DF"/>
<path d="M145.857 42.8841L86.6831 70.7562C86.0211 71.068 85.213 70.7448 84.879 70.0343C84.5443 69.3238 84.8096 68.4955 85.4709 68.1837L144.646 40.3116C145.308 39.9998 146.115 40.323 146.45 41.0335C146.784 41.744 146.519 42.5723 145.857 42.8841Z" fill="#D6B9DF"/>
<path d="M94.039 86.6758L147.424 61.5304L94.039 86.6758Z" fill="#D6B9DF"/>
<path d="M148.03 62.8202L94.6451 87.9649C94.0478 88.2464 93.2928 87.8982 92.9581 87.1877C92.6234 86.4773 92.8363 85.6732 93.4336 85.3924L146.817 60.247C147.415 59.9655 148.17 60.3137 148.505 61.0241C148.84 61.7346 148.627 62.5387 148.03 62.8202Z" fill="#D6B9DF"/>
<path d="M102.307 103.742L165.004 74.2107L102.307 103.742Z" fill="#D6B9DF"/>
<path d="M165.61 75.5005L102.914 105.031C102.212 105.362 101.372 105.054 101.037 104.343C100.703 103.633 101 102.789 101.701 102.459L164.397 72.9274C165.098 72.5974 165.938 72.9051 166.273 73.6156C166.608 74.3261 166.311 75.1699 165.61 75.5005Z" fill="#D6B9DF"/>
<path d="M110.296 120.941L168.487 93.5319L110.296 120.941Z" fill="#D6B9DF"/>
<path d="M169.093 94.8154L110.901 122.225C110.251 122.531 109.451 122.204 109.117 121.494C108.782 120.783 109.038 119.958 109.69 119.652L167.88 92.2429C168.532 91.9358 169.33 92.2638 169.665 92.9743C170 93.6847 169.743 94.509 169.093 94.8154Z" fill="#D6B9DF"/>
</svg>
