<svg width="240" height="240" viewBox="0 0 240 240" fill="none" xmlns="http://www.w3.org/2000/svg">
<path fill-rule="evenodd" clip-rule="evenodd" d="M28.7187 115.983C17.9887 82.4832 30.5287 44.1932 65.6987 32.8632C84.1987 26.8932 104.619 30.4132 119.999 41.9832C134.549 30.7332 155.719 26.9332 174.199 32.8632C209.369 44.1932 221.989 82.4832 211.269 115.983C194.569 169.083 119.999 209.983 119.999 209.983C119.999 209.983 45.9787 169.703 28.7187 115.983Z" stroke="#79408C" stroke-width="8" stroke-linecap="round" stroke-linejoin="round" stroke-dasharray="32 32"/>
<path fill-rule="evenodd" clip-rule="evenodd" d="M49.8579 117.081C41.6115 91.3354 51.249 61.908 78.2785 53.2005C92.4964 48.6123 108.19 51.3176 120.01 60.2096C131.192 51.5635 147.462 48.6431 161.665 53.2005C188.694 61.908 198.393 91.3354 190.155 117.081C177.32 157.891 120.01 189.324 120.01 189.324C120.01 189.324 63.1229 158.367 49.8579 117.081Z" fill="#1F222A"/>
</svg>
