<svg width="259" height="323" viewBox="0 0 259 323" fill="none" xmlns="http://www.w3.org/2000/svg">
<path d="M160.5 322.64C214.9 322.64 259 317.572 259 311.32C259 305.068 214.9 300 160.5 300C106.1 300 62 305.068 62 311.32C62 317.572 106.1 322.64 160.5 322.64Z" fill="#35383F"/>
<path opacity="0.5" d="M99.6959 144H94.6738V142.827H99.6959L99.7856 144H99.6959ZM89.6416 144H84.6195V142.827H89.6416V144ZM79.5873 144H74.5652V142.827H79.5873V144ZM69.5331 144H64.5109V142.827H69.5331V144ZM59.4788 144H54.4566V142.827H59.4788V144ZM49.4245 144H44.4023V142.827H49.4245V144ZM39.3702 144H34.348V142.827H39.3702V144ZM29.3159 144H24.2937V142.827H29.3159V144ZM19.2616 144H14.2394V142.827H19.2616V144ZM9.2073 144H7.33395C6.17806 144 5.08195 143.718 4.0556 143.153L4.5339 142.099C5.41079 142.577 6.34746 142.816 7.33395 142.816H9.2073V143.989V144ZM104.658 141.849L103.921 140.991C105.067 139.829 105.764 138.254 105.884 136.56L106.96 136.658C106.811 138.645 105.994 140.492 104.658 141.86V141.849ZM0.488264 138.884C0.159432 137.972 0 136.994 0 136.006V133.258H1.07618V136.006C1.07618 136.853 1.21568 137.679 1.49469 138.461L0.488264 138.884ZM106.99 131.129H105.914V125.655H106.99V131.129ZM1.07618 127.784H0V122.31H1.07618V127.784ZM106.99 120.181H105.914V114.707H106.99V120.181ZM1.07618 116.836H0V111.362H1.07618V116.836ZM106.99 109.233H105.914V103.759H106.99V109.233ZM1.07618 105.887H0V100.413H1.07618V105.887ZM106.99 98.2845H105.914V92.8104H106.99V98.2845ZM1.07618 94.9392H0V89.4651H1.07618V94.9392ZM106.99 87.3363H105.914V81.8621H106.99V87.3363ZM1.07618 83.991H0V78.5168H1.07618V83.991ZM106.99 76.388H105.914V70.9139H106.99V76.388ZM1.07618 73.0427H0V67.5686H1.07618V73.0427ZM106.99 65.4398H105.914V59.9656H106.99V65.4398ZM1.07618 62.0944H0V56.6203H1.07618V62.0944ZM106.99 54.4915H105.914V49.0174H106.99V54.4915ZM1.07618 51.1462H0V45.672H1.07618V51.1462ZM106.99 43.5432H105.914V38.0691H106.99V43.5432ZM1.07618 40.1979H0V34.7238H1.07618V40.1979ZM106.99 32.595H105.914V27.1208H106.99V32.595ZM1.07618 29.2497H0V23.7755H1.07618V29.2497ZM106.99 21.6467H105.914V16.1726H106.99V21.6467ZM1.07618 18.3014H0V12.8273H1.07618V18.3014ZM106.99 10.6984H105.914V7.99397C105.914 7.13592 105.764 6.29959 105.485 5.50671L106.492 5.07226C106.831 6.00633 107 6.98386 107 7.99397V10.6984H106.99ZM1.09611 7.3966L0.0199259 7.29884C0.17936 5.31121 1.00643 3.47564 2.35165 2.11797L3.07906 2.97601C1.92317 4.13818 1.22564 5.70222 1.08614 7.3966H1.09611ZM102.416 1.86816C101.549 1.40112 100.623 1.17303 99.6461 1.17303H97.7329V0H99.6461C100.782 0 101.878 0.271537 102.885 0.825466L102.406 1.87902L102.416 1.86816ZM92.7107 1.17303H87.6886V0H92.7107V1.17303ZM82.6564 1.17303H77.6343V0H82.6564V1.17303ZM72.6022 1.17303H67.58V0H72.6022V1.17303ZM62.5479 1.17303H57.5257V0H62.5479V1.17303ZM52.4936 1.17303H47.4714V0H52.4936V1.17303ZM42.4393 1.17303H37.4171V0H42.4393V1.17303ZM32.385 1.17303H27.3628V0H32.385V1.17303ZM22.3307 1.17303H17.3085V0H22.3307V1.17303ZM12.2764 1.17303H7.2941L7.25424 0H12.2764V1.17303Z" fill="#0EC696"/>
<path d="M124.833 21.2532L33.5818 38.6272C29.9468 39.3193 27.5611 42.8271 28.2532 46.4621L50.3536 162.537C51.0457 166.172 54.5535 168.558 58.1885 167.866L149.439 150.492C153.074 149.799 155.46 146.292 154.768 142.657L132.667 26.5818C131.975 22.9468 128.468 20.5611 124.833 21.2532Z" fill="#0EC696"/>
<g opacity="0.2">
<path d="M54.6956 163.853C54.6156 163.853 54.5356 163.833 54.4556 163.793C54.2156 163.663 54.1156 163.363 54.2456 163.113L127.876 25.5334C128.006 25.2934 128.306 25.1934 128.556 25.3234C128.796 25.4534 128.896 25.7534 128.756 26.0034L55.1256 163.583C55.0356 163.753 54.8656 163.843 54.6856 163.843L54.6956 163.853Z" fill="white"/>
<path d="M151.016 145.513C150.906 145.513 150.785 145.473 150.695 145.393L31.6655 44.4934C31.4555 44.3134 31.4255 44.0034 31.6055 43.7934C31.7855 43.5834 32.0955 43.5534 32.3055 43.7334L151.335 144.633C151.545 144.813 151.576 145.123 151.396 145.333C151.296 145.453 151.156 145.513 151.016 145.513Z" fill="white"/>
</g>
<path d="M139.345 158.443C139.345 158.443 152.395 203.773 157.685 226.033C163.245 249.413 179.785 284.753 181.155 300.253C182.585 300.823 187.215 300.183 189.685 298.983C189.685 298.983 187.415 249.573 173.985 227.063C177.015 171.683 161.985 158.433 161.985 158.433H139.335L139.345 158.443Z" fill="#79408C"/>
<path opacity="0.1" d="M156.246 181.213L148.906 192.483C151.236 200.983 153.606 209.843 155.556 217.463C157.596 204.263 156.246 181.213 156.246 181.213Z" fill="black"/>
<path d="M166.265 119.383C166.475 120.003 166.625 120.453 166.775 120.963C166.925 121.463 167.055 121.953 167.195 122.443C167.465 123.423 167.675 124.413 167.885 125.403C168.285 127.383 168.595 129.393 168.785 131.413C168.995 133.433 169.075 135.483 169.045 137.543C169.045 139.603 168.825 141.693 168.545 143.763L168.495 144.103C168.465 144.333 168.405 144.573 168.325 144.783C167.835 146.093 167.125 147.203 166.335 148.073C165.555 148.943 164.725 149.613 163.915 150.173C162.285 151.273 160.665 151.923 159.095 152.443C157.515 152.943 155.965 153.263 154.415 153.483C152.855 153.683 151.385 153.793 149.735 153.753C148.235 153.713 147.045 152.463 147.085 150.953C147.115 149.883 147.755 148.963 148.675 148.543L148.905 148.443C150.045 147.923 151.335 147.373 152.495 146.793C153.675 146.213 154.805 145.623 155.815 144.973C156.835 144.353 157.725 143.643 158.345 143.013C158.965 142.373 159.125 141.803 159.025 141.753L158.815 142.763C158.845 141.113 158.835 139.453 158.705 137.773C158.575 136.093 158.395 134.403 158.135 132.713C157.865 131.023 157.565 129.333 157.195 127.653C157.015 126.813 156.805 125.983 156.605 125.153L156.285 123.923L155.985 122.813L155.905 122.523C155.125 119.633 156.845 116.663 159.735 115.883C162.505 115.143 165.345 116.693 166.265 119.363V119.383Z" fill="#FF8B7B"/>
<path d="M153.156 148.613L146.626 146.753C145.686 146.483 144.686 146.563 143.806 146.963L141.366 148.083C140.166 148.633 139.656 150.053 140.226 151.243L141.366 153.603C141.836 154.583 142.916 155.103 143.976 154.873L148.356 153.923C148.356 153.923 153.276 154.243 155.016 151.323L153.156 148.613Z" fill="#FF8B7B"/>
<path d="M159.066 110.203C155.566 113.843 153.696 119.303 156.526 129.753C160.266 131.603 169.326 129.203 169.326 129.203C169.326 129.203 169.456 113.503 159.066 110.203Z" fill="#79408C"/>
<path opacity="0.7" d="M159.066 110.203C155.566 113.843 153.696 119.303 156.526 129.753C160.266 131.603 169.326 129.203 169.326 129.203C169.326 129.203 169.456 113.503 159.066 110.203Z" fill="white"/>
<path d="M165.415 117.503C165.235 117.503 165.095 117.663 165.095 117.843C165.095 118.023 165.245 118.163 165.425 118.163C165.425 118.163 165.425 118.163 165.435 118.163L167.075 118.103C166.985 117.883 166.885 117.673 166.785 117.453L165.425 117.503H165.415Z" fill="#263238"/>
<path d="M165.036 123.963C164.896 123.843 164.686 123.863 164.576 124.003C164.456 124.143 164.476 124.353 164.616 124.463L169.316 128.423C169.306 128.173 169.286 127.873 169.266 127.523L165.036 123.963Z" fill="#263238"/>
<path d="M155.536 125.123L160.826 121.803C160.976 121.703 161.026 121.503 160.926 121.353C160.826 121.203 160.626 121.153 160.476 121.253L155.426 124.433C155.456 124.663 155.506 124.903 155.536 125.143V125.123Z" fill="#79408C"/>
<path d="M150.105 94.5632C149.445 99.1532 148.975 107.483 152.225 110.093C152.225 110.093 147.935 109.983 139.675 116.613C136.625 113.223 138.405 111.803 138.405 111.803C143.305 109.993 142.995 106.303 141.965 102.923L150.095 94.5732L150.105 94.5632Z" fill="#FF8B7B"/>
<path d="M137.136 88.9533C136.986 89.5533 136.546 89.9833 136.166 89.9133C135.776 89.8433 135.586 89.3033 135.736 88.7033C135.886 88.1033 136.326 87.6733 136.706 87.7433C137.096 87.8133 137.286 88.3533 137.136 88.9533Z" fill="#263238"/>
<path d="M136.865 87.8133L135.545 87.1433C135.545 87.1433 135.995 88.4033 136.865 87.8133Z" fill="#263238"/>
<path d="M136.875 90.0933C136.875 90.0933 135.225 92.4933 133.805 93.5433C134.405 94.4233 135.815 94.3233 135.815 94.3233L136.875 90.0933Z" fill="#FF5652"/>
<path d="M136.626 84.0032C136.586 83.9232 136.576 83.8333 136.616 83.7433C136.686 83.5633 136.896 83.4833 137.086 83.5533C139.006 84.2733 139.436 85.8532 139.456 85.9232C139.506 86.1132 139.386 86.2933 139.186 86.3333C138.986 86.3733 138.786 86.2432 138.736 86.0632C138.716 86.0032 138.366 84.7832 136.836 84.2032C136.736 84.1632 136.666 84.0933 136.626 84.0133V84.0032Z" fill="#263238"/>
<path d="M157.205 90.2733C155.105 97.3233 154.365 100.343 149.905 103.373C143.185 107.923 134.995 104.293 134.945 96.8733C134.905 90.1933 138.345 79.7833 146.005 78.1833C153.555 76.6033 159.305 83.2233 157.205 90.2833V90.2733Z" fill="#FF8B7B"/>
<path d="M140.886 90.7133C136.706 87.7433 138.746 82.2933 142.576 82.1233C137.576 78.6233 140.186 72.2933 146.296 72.5433C152.406 72.7933 153.276 76.5433 153.276 76.5433C153.276 76.5433 163.136 77.0433 164.516 84.2133C166.146 92.6433 160.996 98.0433 154.656 100.543C158.966 104.073 148.806 106.553 143.746 103.713C138.566 100.793 136.776 94.4833 140.876 90.7233L140.886 90.7133Z" fill="#263238"/>
<path d="M164.076 81.2434C158.696 80.2534 156.006 87.6834 159.506 92.0234C160.116 92.7834 160.726 93.3334 161.306 93.7234C163.496 95.1934 166.476 93.6834 166.696 91.0534C166.986 87.4834 166.986 81.7834 164.086 81.2434H164.076Z" fill="white"/>
<path d="M178.665 85.0434C179.065 84.7434 179.325 84.3734 179.375 83.9034C179.605 81.8034 178.015 80.4434 176.095 80.1434C174.945 76.4834 170.095 76.4234 167.365 79.0334C165.135 77.8934 162.645 80.4034 162.945 83.0234C160.585 84.0834 159.985 87.9834 162.125 90.2434C162.575 90.7234 163.015 91.0534 163.425 91.2834C163.525 91.3434 163.635 91.3734 163.745 91.4134C163.935 92.9234 165.155 94.4634 166.905 94.8034C167.425 94.9034 167.865 94.9234 168.245 94.8834C168.955 94.8034 169.495 94.3534 169.745 93.7634C171.305 95.0434 172.975 95.8834 174.165 95.0534C175.415 94.1834 175.915 92.9334 175.865 91.6434C176.685 91.9734 177.465 92.0034 178.105 91.5634C180.395 89.9634 180.205 87.1034 178.645 85.0334L178.665 85.0434Z" fill="#263238"/>
<path d="M143.176 91.7733C142.306 93.1833 141.006 93.9833 139.866 94.1733C138.146 94.4633 137.596 92.4733 138.326 90.6133C138.986 88.9333 140.676 86.7533 142.276 87.3233C143.856 87.8833 144.166 90.1633 143.176 91.7733Z" fill="#FF8B7B"/>
<path d="M140.885 86.5432C142.355 83.7332 150.405 76.0632 155.775 76.3532C157.165 76.7232 158.296 77.2732 158.936 77.6132C159.116 77.7132 159.065 77.9732 158.865 77.9932C156.765 78.2432 149.936 79.8132 143.536 89.8832C142.076 88.9232 140.885 86.5532 140.885 86.5532V86.5432Z" fill="#79408C"/>
<path d="M144.095 92.2533C142.805 95.1233 140.205 96.7633 138.305 95.9033C136.395 95.0433 135.895 92.0233 137.185 89.1433C138.475 86.2633 141.075 84.6333 142.975 85.4933C144.885 86.3533 145.385 89.3733 144.095 92.2533Z" fill="white"/>
<path d="M142.515 91.5432C141.345 94.1432 139.115 95.6632 137.525 94.9432C135.935 94.2232 135.595 91.5432 136.755 88.9532C137.925 86.3532 140.155 84.8332 141.745 85.5532C143.335 86.2732 143.675 88.9532 142.515 91.5432Z" fill="#79408C"/>
<path d="M176.846 310.583C182.466 309.753 182.576 308.813 185.586 307.763C188.166 306.853 188.886 306.983 190.976 306.283C192.716 305.693 192.126 304.043 190.976 302.283C190.406 301.403 190.316 300.563 189.696 298.993L181.166 300.263C180.336 302.643 180.046 305.693 175.176 307.433C172.276 308.473 174.616 310.923 176.856 310.583H176.846Z" fill="#D4D4D4"/>
<path d="M124.806 310.603C130.386 310.603 131.466 310.233 134.596 310.133C137.286 310.033 137.726 310.603 140.456 310.603C142.266 310.603 142.506 308.573 141.846 307.043C141.336 305.853 141.256 304.433 140.876 302.893H133.176C131.786 305.333 128.006 307.143 123.766 307.443C120.746 307.663 122.556 310.603 124.796 310.603H124.806Z" fill="#D4D4D4"/>
<path d="M131.325 158.443C131.325 158.443 130.215 198.603 132.595 224.113C132.445 248.063 133.185 302.893 133.185 302.893C133.375 304.113 139.795 303.633 140.885 302.893C140.885 302.893 152.915 262.953 147.575 224.113C160.945 183.603 158.055 158.443 158.055 158.443H131.335H131.325Z" fill="#79408C"/>
<path d="M180.036 297.143C180.126 297.923 180.256 299.283 180.206 300.343C180.186 300.723 180.486 301.033 180.876 301.033C184.076 301.073 188.486 299.673 189.886 299.203C190.156 299.113 190.326 298.863 190.336 298.583L190.366 295.563C190.366 295.153 189.996 294.833 189.596 294.903L180.596 296.413C180.246 296.473 180.006 296.793 180.046 297.143H180.036Z" fill="#79408C"/>
<path opacity="0.5" d="M180.036 297.143C180.126 297.923 180.256 299.283 180.206 300.343C180.186 300.723 180.486 301.033 180.876 301.033C184.076 301.073 188.486 299.673 189.886 299.203C190.156 299.113 190.326 298.863 190.336 298.583L190.366 295.563C190.366 295.153 189.996 294.833 189.596 294.903L180.596 296.413C180.246 296.473 180.006 296.793 180.046 297.143H180.036Z" fill="white"/>
<path d="M132.306 299.513C132.286 300.343 132.236 301.823 132.156 302.923C132.126 303.283 132.396 303.603 132.766 303.653C135.486 304.033 139.836 303.683 141.256 303.563C141.536 303.533 141.766 303.333 141.816 303.053L142.386 300.073C142.466 299.663 142.146 299.273 141.726 299.253L132.956 298.903C132.596 298.893 132.306 299.153 132.296 299.513H132.306Z" fill="#79408C"/>
<path opacity="0.5" d="M132.306 299.513C132.286 300.343 132.236 301.823 132.156 302.923C132.126 303.283 132.396 303.603 132.766 303.653C135.486 304.033 139.836 303.683 141.256 303.563C141.536 303.533 141.766 303.333 141.816 303.053L142.386 300.073C142.466 299.663 142.146 299.273 141.726 299.253L132.956 298.903C132.596 298.893 132.306 299.153 132.296 299.513H132.306Z" fill="white"/>
<path d="M126.246 124.783C126.526 127.783 126.866 131.593 128.156 138.683C129.136 144.703 129.856 150.563 131.286 160.493C145.066 161.943 161.286 160.773 161.996 158.453C160.906 149.863 160.946 138.273 164.036 118.313C164.756 113.683 161.396 109.743 156.836 109.833C155.616 109.863 154.326 109.913 153.006 110.013C147.876 110.393 143.666 110.743 139.186 111.713C137.696 112.033 136.166 112.413 134.706 112.803C129.426 114.213 125.766 119.403 126.256 124.793L126.246 124.783Z" fill="#79408C"/>
<path opacity="0.8" d="M126.246 124.783C126.526 127.783 126.866 131.593 128.156 138.683C129.136 144.703 129.856 150.563 131.286 160.493C145.066 161.943 161.286 160.773 161.996 158.453C160.906 149.863 160.946 138.273 164.036 118.313C164.756 113.683 161.396 109.743 156.836 109.833C155.616 109.863 154.326 109.913 153.006 110.013C147.876 110.393 143.666 110.743 139.186 111.713C137.696 112.033 136.166 112.413 134.706 112.803C129.426 114.213 125.766 119.403 126.256 124.793L126.246 124.783Z" fill="white"/>
<path d="M128.706 116.763L130.306 118.773C130.376 118.853 130.466 118.893 130.566 118.893C130.636 118.893 130.706 118.873 130.766 118.823C130.906 118.713 130.936 118.503 130.816 118.363L129.136 116.253C128.986 116.423 128.846 116.593 128.706 116.763Z" fill="#263238"/>
<path d="M136.046 115.583C136.046 115.583 136.056 115.583 136.066 115.583C136.236 115.583 136.386 115.453 136.396 115.273L136.586 112.313C136.356 112.373 136.136 112.423 135.916 112.483L135.746 115.233C135.736 115.413 135.876 115.573 136.056 115.583H136.046Z" fill="#79408C"/>
<path d="M150.416 118.233C150.476 118.273 150.536 118.283 150.596 118.283C150.706 118.283 150.806 118.233 150.866 118.133C150.966 117.983 150.926 117.773 150.776 117.683L142.366 112.133C142.216 112.033 142.016 112.073 141.906 112.223C141.806 112.373 141.846 112.583 141.996 112.683L150.406 118.233H150.416Z" fill="#79408C"/>
<path d="M136.076 120.093C136.006 120.263 136.096 120.453 136.266 120.523L145.646 124.193C145.646 124.193 145.726 124.213 145.766 124.213C145.896 124.213 146.026 124.133 146.076 124.003C146.146 123.833 146.056 123.643 145.886 123.573L136.506 119.903C136.336 119.833 136.146 119.923 136.076 120.093Z" fill="#263238"/>
<path d="M130.655 136.793C130.715 136.833 130.775 136.843 130.835 136.843C130.945 136.843 131.045 136.793 131.115 136.693L136.585 128.223C136.685 128.073 136.635 127.863 136.485 127.773C136.335 127.673 136.125 127.723 136.035 127.873L130.565 136.343C130.465 136.493 130.515 136.703 130.665 136.793H130.655Z" fill="#79408C"/>
<path d="M127.976 129.403C128.036 129.463 128.116 129.493 128.196 129.493C128.286 129.493 128.376 129.453 128.436 129.393C128.556 129.263 128.556 129.053 128.416 128.933L126.446 127.093C126.476 127.413 126.516 127.743 126.556 128.093L127.966 129.413L127.976 129.403Z" fill="#79408C"/>
<path d="M157.646 135.003C157.476 135.063 157.386 135.253 157.446 135.423C157.496 135.553 157.616 135.643 157.756 135.643C157.796 135.643 157.836 135.643 157.866 135.623L162.026 134.103C162.046 133.863 162.076 133.623 162.096 133.373L157.646 135.003Z" fill="#79408C"/>
<path d="M155.865 128.233C155.925 128.233 155.985 128.213 156.035 128.183L163.245 123.653C163.285 123.373 163.325 123.093 163.365 122.803L155.685 127.623C155.535 127.723 155.485 127.923 155.585 128.073C155.645 128.173 155.755 128.223 155.865 128.223V128.233Z" fill="#79408C"/>
<path d="M150.946 129.493C150.846 129.343 150.646 129.293 150.496 129.393L141.966 134.753C141.816 134.853 141.766 135.053 141.866 135.203C141.926 135.303 142.036 135.353 142.146 135.353C142.206 135.353 142.266 135.333 142.316 135.303L150.846 129.943C150.996 129.843 151.046 129.643 150.946 129.493Z" fill="#79408C"/>
<path d="M158.136 118.143C158.136 118.143 158.216 118.143 158.256 118.123C158.426 118.063 158.516 117.873 158.446 117.703L155.496 109.873C155.266 109.873 155.036 109.893 154.806 109.903L157.836 117.933C157.886 118.063 158.006 118.143 158.146 118.143H158.136Z" fill="#263238"/>
<path d="M149.666 159.113C149.516 159.013 149.316 159.053 149.206 159.203C149.106 159.353 149.146 159.563 149.296 159.663L151.166 160.903C151.536 160.883 151.886 160.853 152.246 160.823L149.666 159.113Z" fill="#79408C"/>
<path d="M161.726 156.003L154.446 153.153C154.276 153.083 154.086 153.173 154.016 153.343C153.946 153.513 154.036 153.703 154.206 153.773L161.796 156.743C161.776 156.503 161.746 156.253 161.726 156.013V156.003Z" fill="#79408C"/>
<path d="M130.956 158.173C130.986 158.373 131.016 158.573 131.046 158.773C131.166 158.723 131.256 158.623 131.256 158.483C131.256 158.313 131.116 158.173 130.966 158.173H130.956Z" fill="#263238"/>
<path d="M130.866 148.113C130.956 148.113 131.056 148.073 131.116 147.993C131.236 147.853 131.216 147.643 131.076 147.533L129.256 146.003C129.306 146.323 129.346 146.643 129.396 146.973L130.656 148.033C130.716 148.083 130.796 148.113 130.866 148.113Z" fill="#79408C"/>
<path d="M146.226 144.823C146.356 144.823 146.476 144.743 146.536 144.613C146.606 144.443 146.516 144.253 146.346 144.183L136.966 140.503C136.796 140.433 136.606 140.523 136.536 140.693C136.466 140.863 136.556 141.053 136.726 141.123L146.106 144.803C146.106 144.803 146.186 144.823 146.226 144.823Z" fill="#263238"/>
<path d="M144.056 149.163L135.526 154.523C135.376 154.623 135.326 154.823 135.426 154.973C135.486 155.073 135.596 155.123 135.706 155.123C135.766 155.123 135.826 155.103 135.876 155.073L144.406 149.713C144.556 149.613 144.606 149.413 144.506 149.263C144.406 149.113 144.206 149.063 144.056 149.163Z" fill="#79408C"/>
<path d="M151.926 146.613C151.986 146.713 152.096 146.763 152.206 146.763C152.266 146.763 152.326 146.743 152.376 146.713L160.906 141.353C161.056 141.253 161.106 141.053 161.006 140.903C160.906 140.753 160.706 140.703 160.556 140.803L152.026 146.163C151.876 146.263 151.826 146.463 151.926 146.613Z" fill="#263238"/>
<path d="M142.265 159.413C142.205 159.243 142.015 159.153 141.845 159.223C141.675 159.283 141.585 159.473 141.655 159.643L142.205 161.103C142.445 161.103 142.675 161.103 142.915 161.103L142.275 159.403L142.265 159.413Z" fill="#263238"/>
<path d="M135.316 124.973C135.236 125.623 135.176 126.083 135.096 126.613C135.016 127.123 134.916 127.623 134.826 128.133C134.636 129.133 134.416 130.123 134.176 131.103C133.686 133.063 133.106 135.003 132.406 136.913C131.726 138.833 130.916 140.713 129.996 142.563C129.116 144.423 128.006 146.213 126.866 147.963L126.656 148.283C126.536 148.463 126.386 148.643 126.236 148.793C124.406 150.523 122.746 151.683 121.036 152.893C119.336 154.073 117.616 155.163 115.896 156.223C114.166 157.273 112.416 158.283 110.646 159.253C108.856 160.203 107.096 161.153 105.246 162.013C103.886 162.653 102.266 162.063 101.636 160.703C101.126 159.613 101.396 158.363 102.226 157.583L102.246 157.563C103.676 156.203 105.176 154.903 106.636 153.563L111.056 149.653C112.536 148.373 113.966 147.063 115.386 145.783C116.096 145.143 116.776 144.503 117.426 143.863L118.356 142.923C118.656 142.613 118.876 142.343 119.146 142.053L118.516 142.873C119.256 141.393 119.966 139.903 120.576 138.323C121.186 136.753 121.746 135.153 122.236 133.513C122.716 131.873 123.176 130.213 123.566 128.543C123.766 127.703 123.956 126.873 124.116 126.033L124.556 123.663L124.616 123.363C125.166 120.423 127.996 118.483 130.936 119.033C133.746 119.563 135.636 122.183 135.326 124.983L135.316 124.973Z" fill="#FF8B7B"/>
<path d="M104.856 157.343L99.2455 155.683C98.3155 155.403 97.3155 155.473 96.4255 155.873L93.9755 156.963C92.7755 157.503 92.2455 158.923 92.8055 160.113L93.9255 162.483C94.3855 163.463 95.4655 164.003 96.5255 163.783L100.916 162.873C100.916 162.873 103.096 163.033 105.076 162.293C106.646 161.703 107.226 159.783 106.296 158.393C105.956 157.883 105.446 157.513 104.866 157.343H104.856Z" fill="#FF8B7B"/>
<path d="M132.775 113.603C128.045 115.373 124.005 119.503 122.055 130.153C124.635 133.433 133.845 135.173 133.845 135.173C133.845 135.173 140.725 121.063 132.765 113.603H132.775Z" fill="#79408C"/>
<path opacity="0.8" d="M132.775 113.603C128.045 115.373 124.005 119.503 122.055 130.153C124.635 133.433 133.845 135.173 133.845 135.173C133.845 135.173 140.725 121.063 132.765 113.603H132.775Z" fill="white"/>
<path d="M130.316 118.773C130.386 118.853 130.476 118.893 130.576 118.893C130.646 118.893 130.716 118.873 130.776 118.823C130.916 118.713 130.946 118.503 130.826 118.363L128.836 115.873C128.666 116.013 128.506 116.153 128.346 116.303L130.316 118.773Z" fill="#263238"/>
<path d="M136.076 120.093C136.006 120.263 136.096 120.453 136.266 120.523L136.376 120.563C136.336 120.343 136.296 120.133 136.256 119.913C136.176 119.943 136.116 120.013 136.086 120.093H136.076Z" fill="#263238"/>
<path d="M132.316 134.833L135.856 129.353C135.976 128.843 136.096 128.313 136.196 127.763C136.136 127.783 136.066 127.813 136.026 127.873L131.636 134.663C131.876 134.723 132.106 134.783 132.316 134.833Z" fill="#79408C"/>
<path d="M127.976 129.403C128.036 129.463 128.116 129.493 128.196 129.493C128.286 129.493 128.376 129.453 128.436 129.393C128.556 129.263 128.556 129.053 128.416 128.933L123.516 124.353C123.436 124.583 123.366 124.803 123.286 125.043L127.966 129.423L127.976 129.403Z" fill="#79408C"/>
</svg>
