<svg width="346" height="312" viewBox="0 0 346 312" fill="none" xmlns="http://www.w3.org/2000/svg">
<path fill-rule="evenodd" clip-rule="evenodd" d="M5.04088 219.34C-1.68029 215.459 -1.68029 209.108 5.04088 205.226L160.478 115.478C167.199 111.596 178.2 111.596 184.921 115.478L340.372 205.226C347.093 209.108 347.093 215.459 340.372 219.34L184.935 309.089C178.214 312.97 167.213 312.97 160.492 309.089L5.0546 219.34H5.04088Z" fill="#35383F"/>
<path fill-rule="evenodd" clip-rule="evenodd" d="M222.491 186.201C248.512 201.235 248.512 225.815 222.491 240.835C196.471 255.868 153.894 255.868 127.86 240.835C101.839 225.815 101.839 201.235 127.86 186.201C153.88 171.168 196.471 171.168 222.491 186.201Z" fill="white" fill-opacity="0.18"/>
<path d="M217.032 73.9028C240.062 60.6114 240.062 38.8568 217.032 25.5516C194.002 12.2601 156.322 12.2601 133.292 25.5516C110.261 38.843 110.261 60.5977 133.292 73.9028C156.322 87.1943 194.002 87.1943 217.032 73.9028Z" stroke="#1F222A" stroke-width="6.57028" stroke-linecap="round" stroke-linejoin="round"/>
<path d="M205.373 67.744C222.546 57.8406 222.546 41.6138 205.373 31.7103C188.213 21.7932 160.121 21.7932 142.948 31.7103C125.775 41.6138 125.775 57.8406 142.948 67.744C160.121 77.6474 188.199 77.6474 205.373 67.744Z" stroke="#4078C4" stroke-width="11.7552" stroke-linecap="round" stroke-linejoin="round"/>
<path d="M217.032 73.9027C194.002 87.1941 156.322 87.1941 133.292 73.9027C121.783 67.2501 116.022 58.4988 116.022 49.7339V65.4943C116.022 74.2593 121.783 83.0243 133.292 89.6631C156.322 102.955 194.002 102.955 217.032 89.6631C228.54 83.0105 234.301 74.2593 234.301 65.4943V49.7339C234.301 58.4988 228.54 67.2638 217.032 73.9027Z" stroke="#1F222A" stroke-width="6.57028" stroke-linecap="round" stroke-linejoin="round"/>
<path d="M235.796 96.7409L245.178 81.8584L228.211 70.5284H228.184V70.501C227.059 69.8563 225.509 69.9523 223.794 70.9399C220.365 72.9288 217.553 77.7845 217.553 81.7486C217.553 83.6278 218.198 84.972 219.24 85.6579L219.377 85.7676L219.419 85.795L235.837 96.7547L235.796 96.7409Z" stroke="#1F222A" stroke-width="6.57028" stroke-linecap="round" stroke-linejoin="round"/>
<path d="M280.526 96.741L247.387 77.5376C245.631 76.5226 243.217 76.6598 240.556 78.196C235.248 81.2549 230.899 88.7853 230.899 94.9166C230.899 98.0166 232.01 100.184 233.807 101.185L267.153 120.485" stroke="#1F222A" stroke-width="6.57028" stroke-linecap="round" stroke-linejoin="round"/>
<path d="M174.798 25.4283C167.679 29.2003 161.109 34.0149 155.376 39.6799C148.49 46.5245 142.866 54.6173 138.765 63.4097C140.177 64.5756 141.755 65.6867 143.538 66.7154C150.657 70.8304 159.669 73.176 168.969 73.8207C171.712 64.8363 175.772 56.2908 181.341 48.7329C186.622 41.5591 193.302 35.3591 200.915 30.7366C193.261 27.2663 184.057 25.4831 174.798 25.4146V25.4283ZM283.681 103.119C283.681 96.9881 279.333 94.478 274.025 97.5505C268.716 100.609 264.368 108.14 264.368 114.271C264.368 120.402 268.716 122.913 274.025 119.84C279.333 116.768 283.681 109.251 283.681 103.106V103.119Z" stroke="#1F222A" stroke-width="6.57028" stroke-linecap="round" stroke-linejoin="round"/>
<path d="M205.88 33.4246C196.526 37.8277 188.844 45.4404 183.289 54.1916C179.366 60.3779 176.431 67.099 174.058 74.0396H174.154C177.007 74.0396 179.873 73.8614 182.699 73.5459C186.842 66.4818 192.04 58.2106 196.731 52.916C201.436 47.6076 207.019 42.9851 213.356 39.8714C211.518 37.5259 208.994 35.3449 205.88 33.4109V33.4246Z" stroke="#4078C4" stroke-width="11.7552" stroke-linecap="round" stroke-linejoin="round"/>
<path fill-rule="evenodd" clip-rule="evenodd" d="M217.046 73.8892C240.076 60.5977 240.076 38.8431 217.046 25.5379C194.015 12.2465 156.336 12.2465 133.305 25.5379C110.275 38.8294 110.275 60.584 133.305 73.8892C156.336 87.1806 194.015 87.1806 217.046 73.8892Z" fill="#35383F"/>
<path d="M217.032 73.9028C240.062 60.6114 240.062 38.8568 217.032 25.5516C194.002 12.2601 156.322 12.2601 133.292 25.5516C110.261 38.843 110.261 60.5977 133.292 73.9028C156.322 87.1943 194.002 87.1943 217.032 73.9028Z" stroke="#1F222A" stroke-width="2.34555" stroke-linecap="round" stroke-linejoin="round"/>
<path fill-rule="evenodd" clip-rule="evenodd" d="M205.386 67.744C222.56 57.8406 222.56 41.6138 205.386 31.7103C188.213 21.7932 160.135 21.7932 142.962 31.7103C125.788 41.6138 125.788 57.8406 142.962 67.744C160.135 77.6474 188.213 77.6474 205.386 67.744Z" fill="#35383F"/>
<path d="M205.373 67.744C222.546 57.8406 222.546 41.6138 205.373 31.7103C188.213 21.7932 160.121 21.7932 142.948 31.7103C125.775 41.6138 125.775 57.8406 142.948 67.744C160.121 77.6474 188.199 77.6474 205.373 67.744Z" stroke="#1F222A" stroke-width="2.34555" stroke-miterlimit="22.93"/>
<path fill-rule="evenodd" clip-rule="evenodd" d="M217.046 73.8892C194.015 87.1807 156.336 87.1807 133.305 73.8892C121.797 67.2367 116.036 58.4854 116.036 49.7205V65.4809C116.036 74.2459 121.797 83.0108 133.305 89.6497C156.336 102.941 194.015 102.941 217.046 89.6497C228.554 82.9971 234.315 74.2459 234.315 65.4809V49.7205C234.315 58.4854 228.554 67.2504 217.046 73.8892Z" fill="#35383F"/>
<path d="M217.032 73.9027C194.002 87.1941 156.322 87.1941 133.292 73.9027C121.783 67.2501 116.022 58.4988 116.022 49.7339V65.4943C116.022 74.2593 121.783 83.0243 133.292 89.6631C156.322 102.955 194.002 102.955 217.032 89.6631C228.54 83.0105 234.301 74.2593 234.301 65.4943V49.7339C234.301 58.4988 228.54 67.2638 217.032 73.9027Z" stroke="#1F222A" stroke-width="2.34555" stroke-miterlimit="22.93"/>
<path fill-rule="evenodd" clip-rule="evenodd" d="M235.81 96.727L245.192 81.8444L228.225 70.5145H228.197V70.487C227.073 69.8424 225.523 69.9384 223.808 70.926C220.379 72.9149 217.567 77.7706 217.567 81.7347C217.567 83.6139 218.212 84.9581 219.254 85.644L219.391 85.7537L219.432 85.7811L235.851 96.7407L235.81 96.727Z" fill="#1F222A"/>
<path d="M235.796 96.7409L245.178 81.8584L228.211 70.5284H228.184V70.501C227.059 69.8563 225.509 69.9523 223.794 70.9399C220.365 72.9288 217.553 77.7845 217.553 81.7486C217.553 83.6278 218.198 84.972 219.24 85.6579L219.377 85.7676L219.419 85.795L235.837 96.7547L235.796 96.7409Z" stroke="#1F222A" stroke-width="2.34555" stroke-linecap="round" stroke-linejoin="round"/>
<path fill-rule="evenodd" clip-rule="evenodd" d="M280.526 96.7273L247.373 77.524C245.617 76.5089 243.203 76.6461 240.542 78.1824C235.234 81.2412 230.886 88.7716 230.886 94.903C230.886 98.0029 231.997 100.17 233.794 101.172L267.139 120.471" fill="#35383F"/>
<path d="M280.526 96.741L247.387 77.5376C245.631 76.5226 243.217 76.6598 240.556 78.196C235.248 81.2549 230.899 88.7853 230.899 94.9166C230.899 98.0166 232.01 100.184 233.807 101.185L267.153 120.485" stroke="#1F222A" stroke-width="2.34555" stroke-miterlimit="22.93"/>
<path fill-rule="evenodd" clip-rule="evenodd" d="M283.681 103.119C283.681 96.9878 279.333 94.4777 274.025 97.5502C268.716 100.609 264.368 108.139 264.368 114.285C264.368 120.43 268.716 122.926 274.025 119.854C279.333 116.781 283.681 109.264 283.681 103.119Z" fill="#35383F"/>
<path d="M283.681 103.133C283.681 97.0015 279.333 94.4914 274.025 97.5639C268.716 100.623 264.368 108.153 264.368 114.285C264.368 120.416 268.716 122.926 274.025 119.853C279.333 116.781 283.681 109.264 283.681 103.119V103.133Z" stroke="#1F222A" stroke-width="2.34555" stroke-miterlimit="22.93"/>
<path fill-rule="evenodd" clip-rule="evenodd" d="M174.798 25.4283C167.679 29.2003 161.109 34.0149 155.376 39.6799C148.49 46.5245 142.866 54.6173 138.765 63.4097C140.177 64.5756 141.755 65.6867 143.538 66.7154C150.657 70.8304 159.669 73.176 168.969 73.8207C171.712 64.8363 175.772 56.2908 181.341 48.7329C186.622 41.5591 193.302 35.3591 200.915 30.7366C193.261 27.2663 184.057 25.4831 174.798 25.4146" fill="#1F222A"/>
<path fill-rule="evenodd" clip-rule="evenodd" d="M205.88 33.4109C196.526 37.8139 188.844 45.4267 183.289 54.1779C179.366 60.3641 176.431 67.0853 174.058 74.0396H174.154C177.007 74.0396 179.873 73.8614 182.699 73.5459C186.842 66.4818 192.04 58.2106 196.731 52.916C201.436 47.6076 207.019 42.9714 213.356 39.8714C211.518 37.5259 208.994 35.3449 205.88 33.4109Z" fill="#1F222A"/>
<path d="M250.802 2L246.55 11.0256M243.711 17.0472L241.818 21.0525M272.488 59.1436L270.719 58.3069M264.656 55.4539L252.339 49.6517M278.798 23.7135L250.802 33.9735" stroke="#1F222A" stroke-width="3.27828" stroke-linecap="round" stroke-linejoin="round"/>
<g clip-path="url(#clip0_4083_30462)">
<path d="M156.354 155.11C156.354 155.11 158.41 147.036 160.446 141.368C161.258 139.11 164.004 128.741 165.46 125.506C166.926 122.271 169.267 122.262 170.631 120.898C171.986 119.543 173.553 117.764 172.41 117.036C171.258 116.308 168.824 117.275 167.783 117.801C166.741 118.326 164.889 119.718 164.889 119.718C164.889 119.718 164.659 118.603 164.124 117.663C163.764 117.036 163.396 117.386 163.516 118.105C163.589 118.557 163.672 119.165 163.534 120.096C163.46 120.621 163.405 121.69 162.695 123.57C161.986 125.451 159.488 130.206 158.944 131.773C158.41 133.34 156.354 137.101 155.119 140.52C154.336 142.695 151.893 148.428 151.875 148.64C151.857 148.852 156.354 155.138 156.354 155.138V155.11Z" fill="#FFA08D"/>
<path d="M150.096 138.603C150.096 138.603 149.829 142.677 146.99 144.898C145.534 146.041 142.363 146.327 140.382 145.101C138.4 143.884 135.285 145.967 135.285 145.967C135.285 145.967 135.819 143.11 137.552 142.317C140.382 141.027 144.197 141.746 144.197 141.746L150.096 138.594V138.603Z" fill="#0F0F0F"/>
<path d="M156.354 167.986C156.354 167.986 158.935 174.4 159.534 177.138C160.133 179.875 159.7 184.428 160.087 187.221C160.446 189.783 160.428 191.654 161.258 193.322C163.746 198.355 163.774 201.682 159.718 202.622C154.852 203.746 146.631 192.474 141.451 190.797C128.446 186.585 156.345 167.986 156.345 167.986H156.354Z" fill="#0FB78B"/>
<path d="M141.552 208.825C141.552 208.825 140.474 209.231 139.561 210.162C138.658 211.102 138.068 211.572 138.068 211.572C138.068 211.572 137.322 211.47 137.773 210.945C138.216 210.42 140.575 207.627 140.99 207.01C141.395 206.392 141.552 208.825 141.552 208.825Z" fill="#0FB78B"/>
<path d="M144.363 217.203C144.363 217.203 144.557 218.346 144.059 219.111C143.571 219.858 141.82 219.286 141.322 218.65C140.529 217.646 139.589 216.328 139.598 215.092C139.598 213.194 140.76 211.526 140.714 210.705C140.667 209.885 140.29 208.18 140.548 207.461C140.769 206.844 141.838 206.401 141.838 206.401L144.373 217.194L144.363 217.203Z" fill="#0EC696"/>
<path d="M146.87 208.512C145.571 207.747 144.741 206.337 143.801 205.12C144.667 202.973 144.815 198.825 145.294 196.558C145.902 193.682 147.967 189.765 147.967 189.765L155.718 168.926C155.718 168.926 157.939 172.788 158.004 177.322C158.032 179.212 157.921 182.622 157.045 184.862C154.068 192.493 149.377 202.493 147.958 205.682C147.617 206.456 147.497 206.973 146.861 208.521L146.87 208.512Z" fill="#FFA08D"/>
<path d="M153.884 222.973C153.884 222.973 153.257 224.088 153.165 225.535C153.073 226.973 152.926 227.793 152.926 227.793C152.926 227.793 152.225 228.236 152.225 227.48C152.225 226.724 152.207 222.659 152.105 221.848C152.004 221.028 153.884 222.982 153.884 222.982V222.973Z" fill="#0FB78B"/>
<path d="M160.557 228.678C160.557 228.678 161.34 229.701 161.248 230.696C161.156 231.692 158.456 231.885 157.635 231.535C156.336 230.973 155.138 230.125 154.926 229.535C154.225 227.553 154.059 225 153.589 224.226C153.119 223.452 152.096 222.954 151.976 222.125C151.875 221.406 152.207 220.576 152.207 220.576L160.548 228.678H160.557Z" fill="#0EC696"/>
<path d="M154.4 223.507C153.912 222.659 152.668 222.42 152.207 221.277C151.958 220.678 152.28 219.618 152.28 218.53C152.28 216.89 149.506 210.853 148.612 204.945C148.29 202.816 150.013 200.788 148.843 196.963C147.23 191.682 140.631 179.276 143.313 173.451C146.99 165.46 151.654 174.548 151.866 177.931C152.078 181.313 155.257 193.525 154.926 199.719C154.649 204.991 155.829 213.968 156.778 217.95C157.036 219.028 157.571 220.208 158.124 222.152C158.741 224.309 159.248 227.01 159.728 227.397C161.267 228.65 162.244 231.046 158.751 230.687C157.433 230.558 155.995 229.332 155.617 228.724C154.898 227.59 155.165 224.779 154.41 223.489L154.4 223.507Z" fill="#FFC5B3"/>
<path d="M159.718 227.415C159.718 227.415 158.105 227.83 157.617 228.696C157.128 229.563 156.907 230.309 156.907 230.309C156.907 230.309 155.193 229.516 155.156 228.945C155.119 228.374 155.018 226.595 155.018 226.595C155.018 226.595 158.446 225.544 159.027 225.655C159.617 225.765 159.728 227.424 159.728 227.424L159.718 227.415Z" fill="#0EC696"/>
<path d="M156.88 218.373L157.147 219.212C157.147 219.212 155.147 219.507 154.179 219.415C153.211 219.323 152.28 218.539 152.28 218.539L152.188 217.876C152.188 217.876 153.479 218.668 154.612 218.558C155.746 218.456 156.87 218.373 156.87 218.373H156.88Z" fill="#0EC696"/>
<path d="M153.967 200.797C153.967 200.797 153.248 202.281 152.677 202.622C152.345 202.152 152.483 201.912 152.944 201.194C153.405 200.475 153.967 200.797 153.967 200.797Z" fill="#FFA08D"/>
<path d="M153.986 149.165C154.815 152.105 157.248 156.336 157.045 157.792C156.833 159.258 156.059 162.732 156.059 162.732C156.059 162.732 146.861 163.903 144.492 161.811C142.124 159.728 143.58 149.884 143.58 149.884C143.58 149.884 142.594 146.17 143.801 146.391C145.644 146.723 147.829 148.327 148.658 147.903C148.843 147.322 153.506 147.469 153.986 149.156V149.165Z" fill="#FFC5B3"/>
<path d="M145.285 167.12C144.778 165.359 144.041 162.751 143.395 160.465C144.557 159.691 145.764 158.972 146.879 158.096C148.548 156.788 149.322 155.175 150.262 153.322C150.889 154.189 151.902 154.972 152.557 155.654C154.262 157.405 155.847 160.852 155.847 160.852C155.847 160.852 156.354 156.705 155.331 152.797C158.271 154.29 158.621 155.092 158.962 155.626C160.492 157.986 159.433 159.838 157.976 162.438C157.11 163.977 156.244 167.719 156.824 170.677C157.46 173.931 156.317 178.41 152.391 181.461C150.833 177.405 151.893 176.889 149.276 174.447C145.137 170.576 142.971 175.055 142.971 175.055C142.971 175.055 142.916 173.728 143.829 171.092C144.225 169.94 145.626 168.281 145.294 167.129L145.285 167.12Z" fill="#0EC696"/>
<path d="M155.82 138.603C155.82 138.603 159.193 141.165 158.935 143.654C158.668 146.142 157.193 147.138 157.221 149.046C157.248 150.953 158.935 150.999 158.935 150.999C158.935 150.999 155.442 152.216 154.299 148.539C153.147 144.861 155.829 138.603 155.829 138.603H155.82Z" fill="#0F0F0F"/>
<path d="M153.737 150.695C153.589 150.216 153.331 148.741 153.331 148.741L148.723 145.552C148.723 145.552 148.492 147.866 148.474 148.492C148.446 149.598 150.262 152.041 151.902 153.082C153.478 154.087 154.594 153.479 153.746 150.695H153.737Z" fill="#FFA08D"/>
<path d="M149.202 155.331C149.202 155.331 148.944 154.271 148.455 151.469C148.013 148.916 147.746 147.884 147.746 147.884L148.538 147.608C148.538 147.608 150.262 153.488 151.073 154.253C151.884 155.018 149.211 155.34 149.211 155.34L149.202 155.331Z" fill="#0EC696"/>
<path d="M156.76 153.589L153.645 148.621L152.99 148.769C152.99 148.769 155.368 152.465 155.598 153.995C155.829 155.534 156.76 153.589 156.76 153.589Z" fill="#0EC696"/>
<path d="M155.433 137.027C157.838 139.525 156.87 148.17 153.331 148.742C151.036 149.11 148.28 146.142 147.119 142.142C146.142 138.787 150.88 132.299 155.433 137.027Z" fill="#FFC5B3"/>
<path d="M155.11 162.087C155.11 162.087 153.764 163.737 151.442 163.553C149.119 163.368 146.824 161.811 146.824 161.811L144.483 164.345L145.276 167.12C145.276 167.12 146.4 165.203 148.28 165.507C150.161 165.811 152.234 165.921 153.764 164.465C155.294 163 155.11 162.087 155.11 162.087Z" fill="#0FB78B"/>
<path d="M159.663 158.548C159.663 158.548 159.036 159.811 158.161 160.769C157.313 161.691 156.354 161.663 156.354 161.663C156.354 161.663 157.045 162.52 157.847 162.732C158.124 162.198 158.787 161.129 159.156 160.336C159.516 159.58 159.663 158.548 159.663 158.548Z" fill="#0FB78B"/>
<path d="M147.377 207.332C146.806 208.853 144.981 212.171 145.045 213.397C145.11 214.622 144.529 216.724 144.492 217.876C144.437 219.701 142.289 218.705 141.432 216.724C140.575 214.742 141.432 210.991 141.312 209.784C141.137 208.014 141.018 207.516 141.617 206.659C142.216 205.802 143.506 205.682 144.492 204.337C145.478 202.991 148.133 205.323 147.377 207.341V207.332Z" fill="#FFA08D"/>
<path d="M144.796 215.71C144.796 215.71 143.303 214.899 142.455 215.203C141.617 215.516 141.027 215.894 141.027 215.894C141.027 215.894 140.308 214.346 140.612 213.931C140.916 213.516 141.064 211.977 141.064 211.977C141.064 211.977 144.133 212.401 145.193 213.922C145.506 214.364 144.796 215.71 144.796 215.71Z" fill="#0EC696"/>
<path d="M148.068 205.627L147.727 206.189C147.727 206.189 145.921 205.59 144.962 204.76C144.253 204.143 144.207 203.783 144.207 203.783L144.4 202.862C144.4 202.862 144.972 204.032 145.829 204.622C146.686 205.212 148.078 205.636 148.078 205.636L148.068 205.627Z" fill="#0EC696"/>
<path d="M161.257 193.322C161.257 193.322 158.999 190.382 155.119 185.507C151.239 180.631 149.313 175.829 149.313 175.829C149.313 175.829 147.995 179.82 144.4 185.221C141.027 190.281 139.165 193.544 133.598 195.442C128.031 197.341 123.395 190.788 121.699 185.663C121.054 183.719 128.031 181.663 132.575 180.373C138.317 178.742 138.142 174.751 143.819 171.092C145.34 170.115 150.188 172.327 152.096 172.336C154.004 172.336 156.824 170.677 156.824 170.677C156.824 170.677 159.967 176.474 159.534 180.788C159.101 185.092 161.257 193.322 161.257 193.322Z" fill="#0EC696"/>
<path d="M145.451 148.124C145.451 148.124 140.584 143.045 138.594 140.815C137.865 139.994 136.686 137.598 134.28 134.464C132.05 131.57 129.008 128.437 126.704 125.69C124.704 123.303 123.764 121.939 123.322 121.156C122.271 119.321 122.059 120.197 122.114 121.091C122.16 121.893 122.732 123.395 122.732 123.395C122.732 123.395 120.105 122.768 118.013 123.183C115.92 123.598 114.879 124.87 115.506 125.709C116.132 126.547 121.321 127.128 123.294 127.414C124.759 127.626 125.248 127.681 127.331 131.755C129.064 135.128 131.432 139.054 132.391 139.976C135.58 143.036 137.829 148.594 138.889 150.419C139.948 152.234 141.46 154.004 143.331 158.972C144.4 161.81 145.451 148.124 145.451 148.124Z" fill="#FFC5B3"/>
<path d="M157.847 141.036C157.847 141.036 154.115 141.036 151.912 139.737C149.829 141.617 147.101 143.46 144.99 142.327C142.879 141.193 142.852 140.649 142.852 140.649C142.852 140.649 145.009 141.045 145.856 139.331C146.695 137.617 147.801 134.197 150.935 134.004C154.069 133.82 154.834 135.35 154.834 135.35C154.834 135.35 157.082 135.35 157.728 137.138C158.327 138.787 157.847 141.027 157.847 141.027V141.036Z" fill="#0F0F0F"/>
<path d="M150.446 138.769C150.446 138.769 150.502 142.234 149.958 145.11C149.414 147.986 148.013 148.115 148.566 150.05C149.119 151.986 151.34 151.313 151.34 151.313C151.34 151.313 149.119 153.755 146.612 151.46C145.93 150.833 145.34 149.543 144.787 147.211C143.322 147.893 142.068 150.4 142.068 150.4C142.068 150.4 141.156 146.704 143.377 145.543C145.976 144.179 150.456 138.769 150.456 138.769H150.446Z" fill="#0F0F0F"/>
<path d="M142.29 152.069C142.29 152.069 144.114 152.327 144.898 153.525C145.681 154.723 145.11 156.714 145.11 156.714C145.11 156.714 143.681 155.46 143.248 154.391C142.815 153.322 142.29 152.069 142.29 152.069Z" fill="#FFA08D"/>
<path d="M201.166 212.798C201.166 212.798 201.452 216.346 201.59 217.94C201.719 219.535 201.608 220.226 199.756 221.194C199.028 221.572 197.599 221.922 195.562 220.798C194.309 220.106 192.889 219.111 191.958 218.401C189.829 216.788 187.009 214.143 187.276 213.083C187.544 212.023 189.497 210.751 191.359 210.899C192.815 211.01 201.166 212.798 201.166 212.798Z" fill="#0F0F0F"/>
<path d="M220.567 198.53C220.65 198.613 222.226 199.913 223.664 201.092C224.475 201.756 225.157 202.318 224.678 203.433C224.198 204.549 222.668 206.392 221.802 207.701C220.926 209.009 219.793 211.516 218.364 212.65C216.936 213.784 215.387 214.042 214.788 213.433C214.189 212.825 214.908 211.037 215.387 209.848C215.866 208.659 217.111 206.032 217 203.83C216.88 201.627 220.576 198.53 220.576 198.53H220.567Z" fill="#0F0F0F"/>
<path d="M203.931 189.037C204.53 188.834 204.991 188.309 204.336 188.023C203.682 187.737 202.871 188.309 202.558 188.023C202.253 187.737 203 184.788 203.193 184.189C203.396 183.59 205.387 181 206.382 180.272C207.378 179.544 207.949 177.212 207.949 177.212C207.949 177.212 207.516 177.544 206.318 178.207C205.12 178.871 203.783 179.894 203.129 181.368C202.475 182.843 200.843 185.516 200.723 185.691C199.719 179.341 199.313 169.239 199.313 169.239L209.175 161.304C209.175 161.304 211.719 169.101 212.014 171.636C212.613 176.769 209.7 185.774 209.7 185.774C209.7 185.774 213.258 188.207 216.705 192.106C218.972 194.668 220.742 197.71 222.272 199.286C221.138 199.535 220.502 200.383 219.562 201.166C218.89 201.728 218.373 202.41 217.931 203.157C214.908 200.217 205.682 191.7 204.733 191.092C203.599 190.364 203.341 189.23 203.94 189.037H203.931Z" fill="#AC73BF"/>
<path d="M201.59 189.534C201.258 188.631 200.972 187.286 200.723 185.7C200.843 185.534 202.475 182.862 203.129 181.378C203.783 179.894 205.12 178.88 206.318 178.216C207.516 177.553 207.949 177.221 207.949 177.221C207.949 177.221 207.378 179.544 206.382 180.281C205.387 181.009 203.396 183.599 203.193 184.198C202.991 184.797 202.253 187.746 202.558 188.032C202.862 188.318 203.673 187.746 204.336 188.032C204.991 188.318 204.53 188.843 203.931 189.046C203.332 189.249 203.599 190.373 204.723 191.101C205.673 191.719 214.908 200.226 217.922 203.166C217.489 203.913 217.138 204.714 216.807 205.525C215.866 204.373 202.493 192.014 201.59 189.534Z" fill="#79408C"/>
<path d="M207.959 170.051C207.959 170.051 202.917 182.263 201.894 183.949C200.115 186.889 196.382 191.037 196.382 191.037C196.382 191.037 197.562 193.314 198.475 196.346C199.866 200.945 200.484 205.286 200.889 209.323C201.147 211.848 201.461 215.056 201.461 215.056C201.461 215.056 199.461 217.093 196.769 217.093C193.783 217.093 192.023 214.291 192.023 214.291C192.023 214.291 193.101 211.664 191.295 206.088C189.046 199.157 186.677 190.392 186.714 188.29C186.779 184.779 196.825 168.272 196.825 168.272L207.959 170.051Z" fill="#AC73BF"/>
<path d="M203.396 134.022C203.396 134.022 203.267 136.096 203.839 138.926C204.336 141.405 206.392 141.267 206.392 141.267C206.392 141.267 204.263 145.138 201.608 145.313C198.954 145.488 194.825 144.087 194.825 144.087C194.825 144.087 196.963 143.322 198.106 142.133C198.788 141.423 198.696 140.474 198.742 139.681C198.806 138.52 198.428 136.566 198.871 135.82C200.216 133.58 203.387 134.022 203.387 134.022H203.396Z" fill="#FFA08D"/>
<path d="M203.746 128.059C202.309 126.225 198.115 124.566 195.332 128.317C192.41 132.253 195.046 138.981 197.571 138.695C198.981 138.539 202.17 137.433 203.59 135.322C205.184 132.944 204.871 129.479 203.756 128.05L203.746 128.059Z" fill="#FFC5B3"/>
<path d="M203.396 139.921C203.396 139.921 201.571 139.939 199.885 137.617C198.511 135.737 198.456 135.377 197.922 133.985C197.387 132.594 195.811 131.359 195.083 130.824C194.355 130.29 193.553 129.497 193.129 128.806C192.53 127.81 192.235 126.059 192.18 125.119C192.779 125.515 194.373 125.266 194.373 125.266C194.373 125.266 193.885 124.621 194.041 123.921C194.991 124.317 196.769 123.976 196.769 123.976L196.17 122.575C196.852 123.488 198.797 123.34 200.253 123.718C201.24 123.976 202.392 124.216 204.336 126.308C205.129 127.156 206.161 132.004 205.728 133.432C204.668 136.972 203.055 139.322 203.387 139.912L203.396 139.921Z" fill="#0F0F0F"/>
<path d="M196.76 133.23C196.76 133.23 197.359 131.368 198.355 132.769C199.35 134.161 198.023 135.829 198.023 135.829L196.76 133.239V133.23Z" fill="#FFC5B3"/>
<path d="M172.64 147.184C172.999 145.534 173.958 145.377 175.626 144.926C176.428 144.704 177.663 145.608 178.087 146.723C178.345 147.405 178.032 147.94 177.691 148.52C177.47 148.898 176.797 151.147 178.225 152.576C180.327 154.677 183.405 158.096 183.405 158.096C183.405 158.096 184.225 157.101 185.801 154.364C187.064 152.17 188.53 151.313 189.534 149.184C190.705 146.714 192.677 144.741 194.133 144.022C195.387 145.433 197.47 148.723 196.76 154.557C196.567 156.189 195.249 157.009 194.52 157.341C194.198 156.244 193.875 155.184 193.617 154.188C193.442 154.345 193.276 154.502 193.101 154.668C191.184 156.52 189.995 158.613 188.852 160.013C188.355 160.622 185.276 163.092 183.608 164.465C182.88 165.064 181.737 163.82 180.299 161.967C178.179 159.239 174.723 153.737 174.373 152.502C173.783 150.437 172.29 148.834 172.649 147.184H172.64Z" fill="#FFC5B3"/>
<path d="M201.525 146.281C200.226 145.027 198.548 143.645 197.387 142.723C197.424 142.705 197.461 142.695 197.497 142.677C199.037 143.294 201.673 143.783 202.908 143.211C203.636 142.88 204.954 142.133 205.166 140.953C205.166 140.953 205.166 140.953 205.175 140.953C205.498 141.755 205.848 142.981 205.848 144.539C205.848 146.327 203.12 147.838 201.525 146.29V146.281Z" fill="#FFC5B3"/>
<path d="M208.585 139.009C209.203 138.686 210.438 137.847 212.567 136.087C215.138 133.967 217.019 133.101 217.258 131.497C217.341 130.916 217.949 125.7 219.378 121.598C220.208 119.211 219.876 117.386 220.235 116.418C221.203 113.829 221.682 112.262 222.134 112.833C222.585 113.405 222.263 116.465 222.263 116.465C222.263 116.465 224.318 113.829 227.268 112.935C229.701 112.197 230.06 115.193 228.705 116.852C227.304 118.548 223.82 120.538 223.258 121.248C223.037 121.525 222.595 124.391 222.595 126.796C222.595 131.838 221.387 134.059 221.157 135.165C220.973 136.068 220.714 137.285 219.608 138.096C217.489 139.635 215.203 141.728 214.263 142.502C213.101 143.469 212.493 144.317 211.47 145.423C210.825 146.115 210.419 146.999 210.346 147.949C210.327 148.225 210.3 148.52 210.272 148.824C209.774 145.055 207.682 141.359 206.797 139.921C207.452 139.58 208.115 139.267 208.576 139.027L208.585 139.009Z" fill="#FFC5B3"/>
<path d="M196.76 154.557C197.461 148.723 195.378 145.433 194.133 144.023C194.382 143.903 194.622 143.801 194.834 143.755C195.663 143.304 196.603 143.11 197.387 142.723C198.548 143.645 200.226 145.018 201.525 146.281C203.12 147.829 205.848 146.317 205.848 144.529C205.848 142.981 205.488 141.746 205.175 140.944C205.571 140.603 206.18 140.244 206.806 139.912C207.691 141.34 209.783 145.046 210.281 148.815C210.253 149.175 210.217 149.553 210.18 149.949C209.968 152.271 208.917 155.507 209.387 159.617C209.848 163.737 211.009 167.332 211.009 167.332C211.009 167.332 207.571 170.659 203.313 171.184C199.055 171.709 196.124 169.461 196.124 169.461C196.124 169.461 196.438 167.184 195.599 162.502C195.276 160.714 195 158.963 194.53 157.35C195.249 157.018 196.567 156.198 196.769 154.566L196.76 154.557Z" fill="#0F0F0F"/>
<path d="M188.382 190.032C188.382 190.032 189.977 191.295 190.843 192.088C191.71 192.889 191.839 193.682 191.839 193.682C191.839 193.682 190.18 193.221 189.71 192.355C189.249 191.488 188.382 190.032 188.382 190.032Z" fill="#79408C"/>
<path d="M188.788 192.355C188.788 192.355 190.382 194.484 190.917 195.341C191.451 196.198 191.848 199.793 191.848 199.793C191.848 199.793 191.203 198.115 190.124 196.401C188.797 194.309 188.797 192.346 188.797 192.346L188.788 192.355Z" fill="#79408C"/>
<path d="M193.433 211.691C193.433 211.691 193.968 212.825 195.424 213.35C196.889 213.885 198.281 214.613 198.281 214.613C198.281 214.613 196.226 215.148 195.027 214.281C193.829 213.415 193.433 211.691 193.433 211.691Z" fill="#79408C"/>
</g>
<path fill-rule="evenodd" clip-rule="evenodd" d="M195.127 97.6051C182.192 100.252 167.995 100.252 155.074 97.5776L109.795 205.569H109.809C112.374 198.464 118.368 191.688 127.874 186.201C153.894 171.168 196.471 171.168 222.491 186.201C229.322 190.138 234.301 194.747 237.538 199.643L195.127 97.5914V97.6051Z" fill="url(#paint0_linear_4083_30462)"/>
<defs>
<linearGradient id="paint0_linear_4083_30462" x1="173.667" y1="97.5776" x2="173.667" y2="205.569" gradientUnits="userSpaceOnUse">
<stop stop-color="#878787"/>
<stop offset="1" stop-color="white" stop-opacity="0"/>
</linearGradient>
<clipPath id="clip0_4083_30462">
<rect width="114.177" height="118.988" fill="white" transform="translate(115.321 112.713)"/>
</clipPath>
</defs>
</svg>
