<svg width="273" height="255" viewBox="0 0 273 255" fill="none" xmlns="http://www.w3.org/2000/svg">
<path fill-rule="evenodd" clip-rule="evenodd" d="M136.5 217.412C211.884 217.412 273 225.688 273 235.884C273 246.08 211.884 254.355 136.5 254.355C61.1159 254.355 0 246.08 0 235.884C0 225.688 61.1159 217.412 136.5 217.412Z" fill="#35383F"/>
<path fill-rule="evenodd" clip-rule="evenodd" d="M118.77 146.013H155.146C158.622 146.013 161.458 148.849 161.458 152.325C161.458 155.802 158.608 158.652 155.146 158.652H118.77C115.294 158.652 112.458 155.816 112.458 152.34C112.458 148.864 115.294 146.028 118.77 146.028V146.013ZM71.8933 138.45H202.023V207.754H71.8933V138.45Z" fill="#AC73BF"/>
<path d="M118.77 146.013H155.146C158.622 146.013 161.458 148.849 161.458 152.325C161.458 155.802 158.608 158.638 155.146 158.638H118.77C115.294 158.638 112.458 155.802 112.458 152.325C112.458 148.849 115.294 146.013 118.77 146.013ZM71.8933 138.45H202.023V207.754H71.8933V138.45Z" stroke="#79408C" stroke-width="1.61444" stroke-miterlimit="22.93"/>
<path fill-rule="evenodd" clip-rule="evenodd" d="M202.023 138.45L234.559 165.343V165.401H202.023V138.45Z" fill="#C196CF"/>
<path d="M202.023 138.45L234.559 165.343V165.401H202.023V138.45Z" stroke="#79408C" stroke-width="1.61444" stroke-miterlimit="22.93"/>
<path fill-rule="evenodd" clip-rule="evenodd" d="M71.8934 138.45L38.441 165.343V165.401H71.8934V138.45Z" fill="#C196CF"/>
<path d="M71.8934 138.45L38.441 165.343V165.401H71.8934V138.45Z" stroke="#79408C" stroke-width="1.61444" stroke-miterlimit="22.93"/>
<path fill-rule="evenodd" clip-rule="evenodd" d="M111.76 179.524H161.24C165.967 179.524 169.836 183.392 169.836 188.119C169.836 192.846 165.967 196.715 161.24 196.715H111.76C107.033 196.715 103.164 192.846 103.164 188.119C103.164 183.392 107.033 179.524 111.76 179.524ZM38.441 165.416H234.559V232.436C234.559 235.709 231.883 238.385 228.61 238.385H44.3897C41.1172 238.385 38.441 235.709 38.441 232.436V165.416Z" fill="#D6B9DF"/>
<path d="M111.76 179.524H161.24C165.967 179.524 169.836 183.392 169.836 188.119C169.836 192.846 165.967 196.715 161.24 196.715H111.76C107.033 196.715 103.164 192.846 103.164 188.119C103.164 183.392 107.033 179.524 111.76 179.524ZM38.441 165.416H234.559V232.436C234.559 235.709 231.883 238.385 228.61 238.385H44.3897C41.1172 238.385 38.441 235.709 38.441 232.436V165.416Z" stroke="#79408C" stroke-width="1.61444" stroke-miterlimit="22.93"/>
<path fill-rule="evenodd" clip-rule="evenodd" d="M62.8027 48.9148C77.4054 59.3287 69.9731 54.3254 85.0848 63.9247C69.2895 55.5035 77.3036 59.5032 61.0428 51.9401C60.2138 51.4601 59.9229 50.3838 60.4174 49.5548C60.8974 48.7257 61.9737 48.4349 62.8027 48.9294" fill="#EBF8F4"/>
<path d="M136.544 130.741C118.378 113.564 93.7975 83.1373 131.09 64.4186C144.194 57.8444 152.717 72.3744 148.863 80.5193C145.518 87.6025 119.25 90.4968 127.57 66.9638C139.191 34.0933 164.018 22.7486 183.973 26.0211" stroke="#0EC696" stroke-width="1.39627" stroke-linecap="round" stroke-linejoin="round"/>
<path fill-rule="evenodd" clip-rule="evenodd" d="M91.6884 35.1118C93.8119 49.6127 92.5175 42.4131 95.5863 56.7104C91.1939 42.7622 93.6228 49.6708 88.3141 35.999C88.0668 35.0682 88.6195 34.1082 89.5504 33.861C90.4812 33.6137 91.4412 34.1664 91.6884 35.0973" fill="#EBF8F4"/>
<path fill-rule="evenodd" clip-rule="evenodd" d="M61.9451 83.7047C76.4314 81.4212 69.2464 82.803 83.5 79.5886C69.5955 84.1265 76.475 81.6249 62.8759 87.079C61.9451 87.3408 60.9852 86.7881 60.7379 85.8573C60.4761 84.9264 61.0288 83.9665 61.9596 83.7193" fill="#EBF8F4"/>
<path fill-rule="evenodd" clip-rule="evenodd" d="M213.644 96.4892C196.729 90.5551 205.252 93.2894 188.06 88.2861C205.572 91.9659 196.772 90.366 214.488 93.1004C215.418 93.3331 215.986 94.2785 215.753 95.2093C215.52 96.1402 214.575 96.7074 213.644 96.4747" fill="#EBF8F4"/>
<path fill-rule="evenodd" clip-rule="evenodd" d="M205.237 66.0477C191.9 72.1273 198.445 68.8693 185.573 75.7925C197.746 67.7058 191.798 71.9528 203.448 63.0516C204.277 62.557 205.339 62.8188 205.848 63.6479C206.342 64.4769 206.08 65.5532 205.251 66.0477" fill="#EBF8F4"/>
<path fill-rule="evenodd" clip-rule="evenodd" d="M187.798 120.357C181.864 106.962 185.035 113.55 178.257 100.591C186.227 112.852 182.039 106.845 190.809 118.597C191.289 119.426 191.013 120.502 190.184 120.982C189.355 121.462 188.278 121.186 187.798 120.357Z" fill="#EBF8F4"/>
</svg>
