<svg width="428" height="420" viewBox="0 0 428 420" fill="none" xmlns="http://www.w3.org/2000/svg">
<path d="M119.871 300.925C118.211 300.925 116.808 299.519 116.808 297.855V277.07C116.808 273.766 114.212 271.165 110.915 271.165C109.255 271.165 107.852 271.868 106.66 272.829C105.49 274.001 104.999 275.43 104.999 277.07C104.999 279.437 104.064 281.569 102.404 283.444C100.744 285.108 98.4053 286.045 96.0436 286.045H94.6172C88.9584 286.045 84.235 281.312 84.235 275.641C84.235 272.806 83.0658 270.205 81.1718 268.307C79.2777 266.409 76.6822 265.237 73.8528 265.237H63.7044C62.0442 265.237 60.6412 263.831 60.6412 262.167C60.6412 260.504 62.0442 259.098 63.7044 259.098H74.0866C78.319 259.098 82.5748 260.761 85.638 263.831C88.7012 266.901 90.3614 270.908 90.3614 275.407C90.3614 277.773 92.2555 279.906 94.8511 279.906H96.2541C96.9556 279.906 97.6804 279.671 98.3819 278.968C98.8496 278.5 99.3173 277.562 99.3173 276.836C99.3173 273.766 100.486 270.697 102.848 268.564C104.976 266.432 108.039 265.026 111.102 265.026C117.697 265.026 122.888 270.228 122.888 276.836V297.621C122.654 299.519 121.228 300.925 119.825 300.925H119.871Z" fill="#1A403B"/>
<path d="M59.2848 271.401C61.6465 271.401 63.7744 273.299 63.7744 275.9C63.7744 278.501 61.8803 280.399 59.2848 280.399C56.9231 280.399 54.7952 278.501 54.7952 275.9C54.7952 273.299 56.9231 271.401 59.2848 271.401Z" fill="#1A403B"/>
<path d="M147.697 277.303C150.059 277.303 152.187 279.202 152.187 281.803C152.187 284.404 150.293 286.302 147.697 286.302C145.336 286.302 143.208 284.404 143.208 281.803C143.208 279.202 145.336 277.303 147.697 277.303Z" fill="#1A403B"/>
<path d="M56.4557 383.617C58.8174 383.617 60.9454 385.515 60.9454 388.116C60.9454 390.483 59.0513 392.615 56.4557 392.615C54.094 392.615 51.9661 390.717 51.9661 388.116C51.9661 385.515 53.8602 383.617 56.4557 383.617Z" fill="#1A403B"/>
<path d="M34.3113 309.688C37.6083 309.688 40.2039 314.421 40.2039 320.092C40.2039 325.762 37.6083 330.496 34.3113 330.496C31.0142 330.496 28.4186 325.762 28.4186 320.092C28.4186 314.421 31.0142 309.688 34.3113 309.688Z" fill="#1A403B"/>
<path d="M34.3113 351.025C37.6083 351.025 40.2039 355.758 40.2039 361.428C40.2039 367.099 37.6083 371.832 34.3113 371.832C31.0142 371.832 28.4186 367.099 28.4186 361.428C28.4186 355.758 31.0142 351.025 34.3113 351.025Z" fill="#1A403B"/>
<path d="M34.3113 289.113C37.6083 289.113 40.2039 293.846 40.2039 299.517C40.2039 305.187 37.6083 309.921 34.3113 309.921C31.0142 309.921 28.4186 305.187 28.4186 299.517C28.4186 293.846 31.0142 289.113 34.3113 289.113Z" fill="#1D6656"/>
<path d="M34.3113 330.473C37.6083 330.473 40.2039 335.206 40.2039 340.877C40.2039 346.548 37.6083 351.281 34.3113 351.281C31.0142 351.281 28.4186 346.548 28.4186 340.877C28.4186 335.206 31.0142 330.473 34.3113 330.473Z" fill="#1D6656"/>
<path d="M34.3113 371.808C37.6083 371.808 40.2039 376.541 40.2039 382.212C40.2039 387.883 37.6083 392.616 34.3113 392.616C31.0142 392.616 28.4186 387.883 28.4186 382.212C28.4186 376.541 31.0142 371.808 34.3113 371.808Z" fill="#1D6656"/>
<path d="M148.632 323.608C148.632 324.077 148.399 324.546 148.399 325.014C148.399 324.311 148.632 324.077 148.632 323.608C143.441 310.369 132.124 299.285 117.509 294.552C117.197 296.13 117.197 296.13 117.509 294.552C88.2799 285.109 57.8582 303.995 52.9009 334.012C47.9436 363.537 69.6434 390.484 98.8726 392.593H98.405C128.102 394.491 152.163 370.848 152.163 342.26C152.163 335.652 150.994 329.279 148.632 323.608ZM58.3492 366.841C58.5831 366.841 58.8169 366.607 59.0507 366.607C58.8169 366.607 58.5831 366.607 58.3492 366.841ZM59.5184 368.739C59.7522 368.973 59.9861 369.442 59.9861 369.676C59.9861 369.208 59.7522 368.973 59.5184 368.739ZM60.4537 370.145C60.6876 370.379 60.9214 370.614 60.9214 370.848C60.6876 370.614 60.6876 370.379 60.4537 370.145Z" fill="#1F8D71"/>
<path d="M117.299 294.317C116.364 299.519 114.937 304.955 113.067 310.134C104.345 303.994 94.4534 299.027 84.0712 295.254C94.9211 291.247 106.706 290.989 117.322 294.317H117.299Z" fill="#23B890"/>
<path d="M107.618 322.201C105.49 325.974 103.129 329.77 100.299 333.543C96.7683 331.645 92.9802 329.77 88.9817 328.106C78.1318 323.607 67.5391 320.538 57.3907 319.132C59.9863 314.164 63.5172 309.689 67.5391 305.658C81.2184 308.728 95.1315 314.398 107.618 322.201Z" fill="#23B890"/>
<path d="M148.633 323.608C144.868 351.961 125.062 378.182 100.299 392.359C93.2374 392.124 86.1523 390.46 79.792 387.157C90.8757 382.423 101.492 375.347 111.149 365.669C128.125 348.657 137.783 327.404 138.975 308.025C143.208 312.759 146.528 318.195 148.633 323.608Z" fill="#23B890"/>
<path d="M151.228 384.32C151.696 384.789 152.164 385.492 152.164 386.453C152.164 387.156 151.93 388.093 151.228 388.585C150.761 389.054 150.059 389.522 149.1 389.522C147.44 389.522 146.037 388.093 146.037 386.453C146.037 385.75 146.271 384.789 146.972 384.32C147.44 383.852 148.142 383.383 149.1 383.383C150.036 383.617 150.761 383.852 151.228 384.32Z" fill="#1D6656"/>
<path d="M149.357 297.857C149.357 299.521 147.931 300.927 146.294 300.927C144.657 300.927 143.231 299.521 143.231 297.857C143.231 296.194 144.634 294.788 146.294 294.788C147.954 295.022 149.357 296.217 149.357 297.857Z" fill="#1D6656"/>
<path d="M133.55 266.197C134.018 266.666 134.486 267.369 134.486 268.33C134.486 269.29 134.252 269.993 133.55 270.462C133.083 270.931 132.381 271.399 131.423 271.399C129.762 271.399 128.359 269.993 128.359 268.33C128.359 267.627 128.593 266.666 129.295 266.197C129.762 265.729 130.464 265.26 131.423 265.26C132.358 265.494 133.083 265.729 133.55 266.197Z" fill="#1D6656"/>
<path d="M71.7951 287.004C72.2628 287.473 72.7305 288.176 72.7305 289.137C72.7305 289.84 72.4966 290.8 71.7951 291.269C71.3274 291.738 70.6259 292.206 69.6672 292.206C68.007 292.206 66.604 290.777 66.604 289.137C66.604 288.434 66.8378 287.473 67.5393 287.004C68.007 286.536 68.7085 286.067 69.6672 286.067C70.3687 286.067 71.3274 286.536 71.7951 287.004Z" fill="#1D6656"/>
<path d="M39.2452 272.104C39.7129 272.573 40.1806 273.276 40.1806 274.237C40.1806 274.939 39.9467 275.9 39.2452 276.369C38.5437 276.838 38.0761 277.306 37.1174 277.306C35.4571 277.306 34.0541 275.877 34.0541 274.237C34.0541 273.534 34.288 272.573 34.9895 272.104C35.4571 271.636 36.1586 271.167 37.1174 271.167C38.0761 271.167 38.7776 271.636 39.2452 272.104Z" fill="#1D6656"/>
<path d="M51.9892 297.856C51.5216 297.856 51.2877 297.856 50.8201 297.622L24.1864 285.812C22.7834 285.109 22.0585 283.445 22.7834 282.039C23.4849 280.61 25.1451 279.907 26.5481 280.61L53.1818 292.42C54.5848 293.122 55.3097 294.786 54.5848 296.426C54.1171 297.129 53.1818 297.856 51.9892 297.856Z" fill="#1F8D71"/>
<path d="M91.1095 344.181C87.8125 347.72 83.5567 351.516 78.8567 354.82C69.667 351.75 60.7112 349.852 52.223 348.915C51.5215 343.713 51.5215 338.511 52.4568 333.566C65.6684 335.23 79.0905 339.003 91.1095 344.205V344.181Z" fill="#23B890"/>
<path d="M128.359 299.519C126.699 318.429 117.276 338.979 100.767 355.499C90.6186 365.645 78.8334 373.214 66.8143 377.947C63.5173 374.643 60.6879 370.871 58.3262 366.84C61.3894 365.411 64.4526 364.005 66.1128 363.068C70.8363 360.701 75.3025 357.631 78.8334 355.03C86.62 349.125 94.1495 341.791 100.276 333.543C108.764 321.967 114.891 308.494 117.252 294.551C121.017 295.489 125.039 297.387 128.336 299.519H128.359Z" fill="#23B890"/>
<path d="M371.076 325.58C370.518 325.58 369.96 325.394 369.383 324.835L366.759 322.205C365.829 321.273 365.829 319.763 366.759 318.83C367.69 317.898 369.197 317.898 370.146 318.83L372.956 321.646C373.886 322.578 373.886 324.089 372.956 325.021C372.397 325.394 371.634 325.58 371.076 325.58Z" fill="#4CDBB2"/>
<path d="M367.318 332.741C366.76 332.741 366.201 332.555 365.624 331.995L361.121 327.483C360.191 326.551 360.191 325.04 361.121 324.108C362.052 323.176 363.559 323.176 364.489 324.108L368.992 328.62C369.923 329.553 369.923 331.063 368.992 331.995C368.62 332.368 367.876 332.741 367.299 332.741H367.318Z" fill="#4CDBB2"/>
<path d="M373.7 335.37C374.258 335.37 374.817 335.557 375.393 336.116L378.203 338.932C379.133 339.864 379.133 341.375 378.203 342.307C377.273 343.239 375.766 343.239 374.835 342.307L372.026 339.491C371.095 338.559 371.095 337.049 372.026 336.116C372.584 335.743 373.161 335.37 373.719 335.37H373.7Z" fill="#4CDBB2"/>
<path d="M377.459 328.416C378.017 328.416 378.575 328.602 379.152 329.161L383.655 333.674C384.585 334.606 384.585 336.116 383.655 337.049C382.724 337.981 381.217 337.981 380.287 337.049L375.784 332.536C374.853 331.604 374.853 330.094 375.784 329.161C376.156 328.602 376.9 328.416 377.477 328.416H377.459Z" fill="#4CDBB2"/>
<path d="M350.441 374.099L347.817 371.47C345.938 369.587 345.938 366.398 347.817 364.515C348.375 364.142 348.561 363.583 348.934 363.005C349.12 362.445 349.306 361.867 349.306 361.122L348.375 362.054L319.664 390.825L312.538 383.684L344.431 351.724L345.547 350.605L342.923 343.463C341.23 338.578 334.848 337.254 331.48 341.207L331.294 341.394L327.163 350.419C325.098 353.234 322.474 355.49 319.478 357.374C319.292 357.374 319.292 357.56 319.106 357.56C318.92 357.56 318.92 357.747 318.734 357.747C318.548 357.747 318.548 357.933 318.362 357.933L303.532 366.398C293.019 372.421 292.646 372.421 291.158 373.726C291.158 373.726 290.414 374.286 290.041 374.659C289.111 375.591 287.976 376.729 287.418 377.661C285.724 379.917 284.794 382.733 284.422 385.362C284.422 385.362 284.236 386.481 284.236 387.618C284.236 390.247 284.794 392.69 285.743 394.76C286.487 396.643 287.809 398.34 289.316 399.831L298.136 408.67C303.197 413.741 303.383 413.928 304.518 415.065C307.886 417.881 312.017 419.018 316.147 419.018C316.892 419.018 318.399 418.832 319.329 418.646C323.832 417.713 327.963 414.879 330.587 410.367L338.458 390.061C340.895 385.921 346.533 384.989 350.645 382.733C351.78 381.614 352.339 379.917 352.339 378.407C352.339 376.896 351.594 375.218 350.459 374.081L350.441 374.099Z" fill="#23B28C"/>
<path d="M319.106 357.544C319.292 358.289 319.292 359.054 319.292 359.8C319.292 365.058 315.161 369.198 309.914 369.198C307.476 369.198 305.039 368.265 303.346 366.568L318.157 358.103C318.343 358.103 318.343 357.917 318.529 357.917C318.715 357.73 318.901 357.73 319.087 357.544H319.106Z" fill="#4CDBB2"/>
<path d="M291.158 373.913C294.154 375.983 296.033 379.544 296.033 383.311C296.033 389.333 291.53 394.219 285.911 394.965C284.98 392.895 284.403 390.452 284.403 387.823C284.403 386.704 284.589 385.567 284.589 385.567C284.962 382.938 285.911 380.309 287.585 377.866C288.329 376.934 289.278 375.796 290.209 374.864C290.395 374.491 290.953 373.932 291.139 373.932L291.158 373.913Z" fill="#4CDBB2"/>
<path d="M319.106 418.646C318.176 418.832 316.854 419.018 316.11 419.018C311.979 419.205 307.849 417.9 304.481 415.065C303.346 414.133 303.159 413.742 298.098 408.67C300.164 407.346 302.601 406.6 305.411 406.6C312.351 406.786 317.99 411.858 319.106 418.627V418.646Z" fill="#4CDBB2"/>
<path d="M290.041 348.144C291.921 348.144 293.614 349.655 293.614 351.724C293.614 353.608 292.107 355.304 290.041 355.304C288.162 355.304 286.469 353.794 286.469 351.724C286.469 349.655 288.162 348.144 290.041 348.144Z" fill="#1A403B"/>
<path d="M378.017 362.241C380.641 362.241 382.706 364.311 382.706 366.94C382.706 369.569 380.641 371.639 378.017 371.639C375.393 371.639 373.328 369.569 373.328 366.94C373.328 364.311 375.393 362.241 378.017 362.241Z" fill="#1A403B"/>
<path d="M355.688 404.549C357.567 404.549 359.261 406.059 359.261 408.129C359.261 410.012 357.753 411.709 355.688 411.709C353.809 411.709 352.115 410.199 352.115 408.129C352.115 406.059 353.809 404.549 355.688 404.549Z" fill="#1A403B"/>
<path d="M387.395 326.346L368.267 341.953L361.14 334.793L376.714 315.625L387.395 326.346Z" fill="#23B890"/>
<path d="M368.267 341.953L349.12 361.121L348.189 362.054L319.683 390.825L312.352 383.497L344.244 351.724L345.38 350.586L361.14 334.793L368.267 341.953Z" fill="#4CDBB2"/>
<path d="M375.021 414.507C375.393 414.88 375.765 415.439 375.765 416.204C375.765 416.763 375.579 417.528 375.021 417.901C374.649 418.274 374.091 418.647 373.328 418.647C372.007 418.647 370.89 417.528 370.89 416.204C370.89 415.645 371.076 414.88 371.635 414.507C372.007 414.134 372.565 413.761 373.328 413.761C373.886 413.948 374.444 414.134 375.021 414.507Z" fill="#1A403B"/>
<path d="M365.643 381.614C366.015 381.987 366.387 382.546 366.387 383.311C366.387 384.075 366.201 384.634 365.643 385.007C365.271 385.38 364.713 385.753 363.95 385.753C362.629 385.753 361.698 384.616 361.698 383.311C361.698 382.751 361.884 381.987 362.443 381.614C362.815 381.241 363.373 380.868 364.136 380.868C364.508 381.054 365.066 381.241 365.643 381.614Z" fill="#1A403B"/>
<path d="M339.742 318.252C340.114 318.625 340.486 319.184 340.486 319.949C340.486 320.508 340.3 321.273 339.742 321.646C339.369 322.019 338.811 322.392 338.048 322.392C336.727 322.392 335.611 321.273 335.611 319.949C335.611 319.39 335.797 318.625 336.355 318.252C336.727 317.879 337.285 317.506 338.048 317.506C338.811 317.506 339.369 317.879 339.742 318.252Z" fill="#1A403B"/>
<path d="M314.045 339.306C314.417 339.679 314.789 340.238 314.789 341.003C314.789 341.767 314.603 342.327 314.045 342.7C313.673 343.073 313.115 343.446 312.352 343.446C311.031 343.446 309.914 342.327 309.914 341.003C309.914 340.443 310.1 339.679 310.658 339.306C311.031 338.933 311.589 338.56 312.352 338.56C313.115 338.56 313.468 338.933 314.045 339.306Z" fill="#1A403B"/>
<path d="M290.6 409.807C290.972 410.18 291.344 410.74 291.344 411.504C291.344 412.064 291.158 412.828 290.6 413.201C290.041 413.574 289.669 413.947 288.906 413.947C287.585 413.947 286.469 412.828 286.469 411.504C286.469 410.945 286.655 410.18 287.213 409.807C287.585 409.435 288.143 409.062 288.906 409.062C289.465 409.248 290.041 409.435 290.6 409.807Z" fill="#1A403B"/>
<path d="M325.116 398.527C324.558 398.527 323.981 398.34 323.423 397.781L305.411 379.731C304.481 378.799 304.481 377.289 305.411 376.356C306.342 375.424 307.849 375.424 308.779 376.356L326.791 394.406C327.721 395.338 327.721 396.849 326.791 397.8C326.233 398.359 325.675 398.545 325.098 398.545L325.116 398.527Z" fill="#4CDBB2"/>
<path d="M314.994 399.477C314.436 399.477 313.859 399.291 313.301 398.731L304.481 389.893C303.55 388.961 303.55 387.45 304.481 386.518C305.411 385.586 306.918 385.586 307.849 386.518L316.669 395.356C317.599 396.289 317.599 397.799 316.669 398.731C316.296 399.104 315.738 399.477 314.975 399.477H314.994Z" fill="#4CDBB2"/>
<path d="M299.406 203.476C295.945 203.476 292.247 201.946 289.861 199.124C285.518 194.341 289.216 179.132 282.487 171.764C290.291 174.155 304.588 177.193 308.93 181.975C308.93 181.975 308.93 182.191 309.145 182.191C312.177 172.625 320.411 165.473 330.601 163.943C321.27 147.441 303.728 136.367 283.562 136.367C253.657 136.367 229.364 160.69 229.364 190.679C229.364 220.668 253.636 244.991 283.562 244.991C299.6 244.991 314.133 238.032 323.872 226.743L310.005 212.417L299.385 203.519L299.406 203.476Z" fill="#1A403B"/>
<path d="M351.863 243.869C353.389 245.614 353.153 248.221 351.433 249.729C350.573 250.376 349.692 250.806 348.617 250.806C347.542 250.806 346.445 250.376 345.585 249.492L309.812 212.566L320.002 203.454L351.863 243.848V243.869Z" fill="#1F8D71"/>
<path d="M311.983 192.188L320.002 203.692L309.812 212.805L299.406 203.477C305.684 203.477 311.101 198.694 311.983 192.188Z" fill="#1D6656"/>
<path d="M282.272 171.763C290.076 174.154 304.373 177.192 308.715 181.975C308.715 181.975 308.715 182.19 308.93 182.19C311.317 185.012 312.392 188.718 311.962 192.186C311.532 195.87 309.575 199.145 306.544 201.321C301.556 205.005 294.182 204.359 289.646 199.361C285.303 194.362 289.001 179.153 282.272 171.785V171.763Z" fill="#4CDBB2"/>
<path d="M304.179 158.945C304.609 159.376 305.039 160.022 305.039 160.905C305.039 161.551 304.824 162.435 304.179 162.866C303.749 163.297 303.104 163.727 302.223 163.727C300.696 163.727 299.406 162.413 299.406 160.905C299.406 160.259 299.621 159.376 300.266 158.945C300.696 158.514 301.341 158.083 302.223 158.083C303.104 158.083 303.513 158.514 304.179 158.945Z" fill="#23B890"/>
<path d="M238.501 244.969C240.672 244.969 242.629 246.714 242.629 249.105C242.629 251.281 240.887 253.241 238.501 253.241C236.33 253.241 234.373 251.496 234.373 249.105C234.373 246.929 236.33 244.969 238.501 244.969Z" fill="#1A2D2D"/>
<path d="M342.747 141.795C345.779 141.795 348.165 144.187 348.165 147.224C348.165 150.262 345.779 152.653 342.747 152.653C339.716 152.653 337.33 150.262 337.33 147.224C337.33 144.187 339.931 141.795 342.747 141.795Z" fill="#1A2D2D"/>
<path d="M336.04 193.481C338.211 193.481 340.168 195.226 340.168 197.596C340.168 199.965 338.426 201.732 336.04 201.732C333.869 201.732 331.912 199.987 331.912 197.596C331.912 195.204 333.869 193.481 336.04 193.481Z" fill="#1A2D2D"/>
<path d="M361.284 175.484C362.642 177.182 362.505 179.803 360.659 181.285C358.813 182.766 356.349 182.508 354.857 180.641C353.5 178.943 353.636 176.322 355.499 174.827C357.362 173.332 359.927 173.785 361.284 175.484Z" fill="#1A2D2D"/>
<path d="M414.711 200.474C416.2 200.816 417.268 202.319 416.897 203.944C416.526 205.569 415.056 206.506 413.42 206.131C411.931 205.79 410.863 204.286 411.237 202.647C411.612 201.007 413.222 200.133 414.711 200.474Z" fill="#1A2D2D"/>
<path d="M375.955 230.167C377.444 230.509 378.512 232.012 378.141 233.637C377.77 235.262 376.3 236.199 374.664 235.824C373.176 235.483 372.108 233.979 372.482 232.34C372.856 230.7 374.467 229.826 375.955 230.167Z" fill="#1A2D2D"/>
<path d="M285.97 220.646C289.001 220.646 291.388 223.037 291.388 226.075C291.388 229.112 289.001 231.504 285.97 231.504C282.939 231.504 280.552 229.112 280.552 226.075C280.552 223.037 282.939 220.646 285.97 220.646Z" fill="#4CDBB2"/>
<path d="M250.626 182.621C255.055 182.621 258.645 186.219 258.645 190.657C258.645 195.095 255.055 198.692 250.626 198.692C246.198 198.692 242.607 195.095 242.607 190.657C242.607 186.219 246.198 182.621 250.626 182.621Z" fill="#23B890"/>
<path d="M283.153 147.225C287.711 147.225 291.387 150.931 291.387 155.476C291.387 160.022 287.711 163.728 283.153 163.728C278.596 163.728 274.919 160.022 274.919 155.476C274.919 150.931 278.617 147.225 283.153 147.225Z" fill="#4CDBB2"/>
<path d="M328.451 180.66C328.881 181.091 329.311 181.737 329.311 182.621C329.311 183.504 329.096 184.129 328.451 184.581C328.021 185.012 327.376 185.443 326.495 185.443C324.968 185.443 323.678 184.129 323.678 182.621C323.678 181.974 323.893 181.091 324.538 180.66C324.968 180.229 325.613 179.798 326.495 179.798C327.376 179.798 328.021 180.229 328.451 180.66Z" fill="#1A2D2D"/>
<path d="M366.526 161.534C366.459 162.14 366.224 162.88 365.536 163.432C364.848 163.985 364.227 164.207 363.472 163.985C362.867 163.918 362.128 163.683 361.578 162.993C360.623 161.799 360.841 159.969 362.016 159.026C362.519 158.622 363.341 158.239 364.08 158.474C364.685 158.541 365.423 158.776 365.974 159.465C366.525 160.155 366.593 160.929 366.526 161.534Z" fill="#1A2D2D"/>
<path d="M411.514 190.496C411.742 190.859 411.935 191.369 411.797 191.975C411.659 192.58 411.414 192.975 410.901 193.184C410.539 193.411 410.029 193.605 409.425 193.467C408.378 193.227 407.7 192.123 407.936 191.09C408.037 190.647 408.322 190.075 408.832 189.881C409.194 189.653 409.704 189.459 410.308 189.597C410.912 189.736 411.287 190.133 411.514 190.496Z" fill="#1A2D2D"/>
<path d="M372.759 220.189C372.986 220.551 373.18 221.062 373.042 221.668C372.903 222.273 372.658 222.668 372.145 222.877C371.783 223.104 371.273 223.298 370.669 223.16C369.623 222.92 368.944 221.816 369.18 220.783C369.281 220.339 369.567 219.768 370.076 219.574C370.439 219.346 370.948 219.152 371.552 219.29C372.157 219.429 372.531 219.826 372.759 220.189Z" fill="#1A2D2D"/>
<path d="M325.85 137.229C326.28 137.66 326.71 138.306 326.71 139.189C326.71 140.073 326.495 140.719 325.85 141.15C325.42 141.581 324.775 142.012 323.893 142.012C322.367 142.012 321.292 140.698 321.292 139.189C321.292 138.543 321.507 137.66 322.152 137.229C322.582 136.798 323.227 136.367 324.108 136.367C324.538 136.367 325.183 136.798 325.85 137.229Z" fill="#1A2D2D"/>
<path d="M323.033 248.438C323.463 248.869 323.893 249.515 323.893 250.399C323.893 251.045 323.678 251.928 323.033 252.359C322.603 252.79 321.958 253.221 321.077 253.221C319.551 253.221 318.261 251.928 318.261 250.399C318.261 249.752 318.476 248.869 319.121 248.438C319.551 248.007 320.195 247.576 321.077 247.576C321.958 247.576 322.603 248.007 323.033 248.438Z" fill="#1A2D2D"/>
<path d="M274.253 186.114C274.683 186.545 275.113 187.191 275.113 188.074C275.113 188.958 274.898 189.582 274.253 190.035C273.823 190.466 273.178 190.897 272.297 190.897C270.77 190.897 269.48 189.582 269.48 188.074C269.48 187.428 269.695 186.545 270.34 186.114C270.77 185.683 271.415 185.252 272.297 185.252C273.178 185.252 273.823 185.683 274.253 186.114Z" fill="#23B890"/>
<path d="M274.253 232.15C274.683 232.581 275.113 233.227 275.113 234.111C275.113 234.757 274.898 235.64 274.253 236.071C273.823 236.502 273.178 236.933 272.297 236.933C270.77 236.933 269.48 235.64 269.48 234.111C269.48 233.464 269.695 232.581 270.34 232.15C270.77 231.719 271.415 231.289 272.297 231.289C273.157 231.504 273.823 231.719 274.253 232.15Z" fill="#1A403B"/>
<path d="M244.563 172.41C244.993 172.841 245.423 173.487 245.423 174.371C245.423 175.254 245.208 175.9 244.563 176.331C244.134 176.762 243.489 177.193 242.607 177.193C241.081 177.193 239.791 175.879 239.791 174.371C239.791 173.724 240.006 172.841 240.651 172.41C241.081 171.979 241.726 171.548 242.607 171.548C243.252 171.764 243.919 171.979 244.563 172.41Z" fill="#23B890"/>
<path d="M241.747 137.229C242.177 137.66 242.607 138.306 242.607 139.189C242.607 140.073 242.392 140.719 241.747 141.15C241.317 141.581 240.673 142.012 239.791 142.012C238.265 142.012 236.975 140.698 236.975 139.189C236.975 138.543 237.19 137.66 237.835 137.229C238.265 136.798 238.91 136.367 239.791 136.367C240.673 136.367 241.317 136.798 241.747 137.229Z" fill="#1A2D2D"/>
<path d="M258.86 177.191C252.797 177.191 248.025 172.409 248.025 166.333C248.025 160.258 252.797 155.475 258.86 155.475C264.923 155.475 269.695 160.258 269.695 166.333C269.695 167.863 268.405 169.156 266.879 169.156C265.353 169.156 264.063 167.841 264.063 166.333C264.063 163.296 261.676 160.904 258.645 160.904C255.614 160.904 253.227 163.296 253.227 166.333C253.227 169.371 255.614 171.762 258.645 171.762C260.171 171.762 261.461 173.055 261.461 174.585C261.461 175.877 260.386 177.191 258.86 177.191Z" fill="#23B890"/>
<path d="M261.462 226.075C259.935 226.075 258.645 224.782 258.645 223.252C258.645 221.723 259.935 220.43 261.462 220.43C264.493 220.43 266.879 218.039 266.879 215.001C266.879 211.963 264.493 209.572 261.462 209.572C258.43 209.572 256.044 211.963 256.044 215.001C256.044 216.531 254.754 217.823 253.228 217.823C251.701 217.823 250.411 216.509 250.411 215.001C250.411 208.926 255.184 204.143 261.247 204.143C267.309 204.143 272.082 208.926 272.082 215.001C272.082 221.076 267.524 226.075 261.462 226.075Z" fill="#23B890"/>
<path d="M252.812 301.792C251.449 302.762 249.467 302.41 248.513 301.065L210.885 247.985C209.917 246.62 210.271 244.634 211.614 243.677C212.957 242.721 214.959 243.06 215.913 244.405L253.691 297.696C254.316 298.986 254.169 300.855 252.825 301.812L252.812 301.792Z" fill="#30273A"/>
<path d="M285.406 331.361L270.905 341.686L272.98 329.427L285.406 331.361Z" fill="#7A4D89"/>
<path d="M277.998 309.801C277.423 310.21 276.903 310.291 276.364 310.386L270.569 310.436C268.873 310.487 267.559 309.081 267.664 307.561C267.615 305.862 269.019 304.544 270.536 304.649L276.332 304.598C278.046 304.534 279.341 305.953 279.236 307.474C279.261 308.324 278.766 309.254 277.979 309.814L277.998 309.801Z" fill="#7A4D89"/>
<path d="M254.086 327.401C253.51 327.811 252.798 328.029 252.123 327.931C250.483 327.653 249.305 326.44 249.453 324.571L250.046 320.073C250.324 318.429 251.55 317.267 253.401 317.395C255.041 317.672 256.2 318.9 256.058 320.736L255.465 325.234C255.298 326.22 254.648 326.972 254.072 327.382L254.086 327.401Z" fill="#7A4D89"/>
<path d="M218.247 357.282C217.671 357.691 216.959 357.909 215.956 357.756L207.69 356.357C206.05 356.079 204.946 354.523 205.225 352.879C205.503 351.235 207.057 350.129 208.697 350.407L216.963 351.806C218.604 352.084 219.707 353.64 219.428 355.284C219.261 356.27 218.822 356.872 218.227 357.295L218.247 357.282Z" fill="#62406F"/>
<path d="M213.58 243.125C212.596 242.959 211.481 243.463 210.85 244.202C210.658 244.338 205.893 250.362 200.323 260.138C195.249 268.984 188.425 283.18 185.54 299.226C182.011 318.072 183.968 335.615 191.286 351.681C192.061 353.182 193.646 353.788 195.28 353.203L195.664 352.929C196.815 352.11 197.249 350.645 196.61 349.336C190.066 334.771 188.16 318.927 191.007 302.012C203.766 297.003 212.37 289.432 216.478 279.222C223.555 262.533 215.889 245.528 215.673 244.815C215.648 243.966 214.569 243.259 213.585 243.093L213.58 243.125ZM211.419 277.013C208.282 284.479 202.149 290.609 192.912 294.844C196.139 281.764 201.608 270.584 205.804 262.943C208.248 258.572 210.575 254.891 212.338 252.451C213.752 258.151 215.168 267.926 211.419 277.013Z" fill="#62406F"/>
<path d="M202.581 347.476C205.638 346.455 208.976 347.865 210.302 350.998C211.319 354.061 209.909 357.407 206.795 358.756C203.737 359.777 200.399 358.366 199.041 355.228C198.471 353.61 198.619 351.742 199.361 350.346C199.912 349.087 201.082 348.253 202.561 347.489L202.581 347.476Z" fill="#7A4D89"/>
<path d="M228.4 308.388C231.105 306.462 234.746 307.079 236.667 309.788C238.587 312.497 237.969 316.145 235.264 318.071C232.559 319.997 228.918 319.381 226.998 316.672C225.077 313.963 225.695 310.314 228.4 308.388Z" fill="#24202D"/>
<path d="M249.903 296.872C246.321 304.973 246.794 314.235 251.875 321.402C256.955 328.569 265.558 332.071 274.337 331.343C277.919 323.241 277.446 313.98 272.365 306.813C267.285 299.646 258.682 296.143 249.903 296.872Z" fill="#A476AF"/>
<path d="M265.665 273.961L265.801 274.154C266.632 275.326 266.49 277.161 265.32 277.994L265.128 278.131C263.958 278.964 262.126 278.823 261.295 277.651L261.159 277.459C260.342 276.306 260.47 274.451 261.64 273.618C262.674 272.593 264.698 272.597 265.665 273.961Z" fill="#24202D"/>
<path d="M217.696 231.74L217.832 231.932C218.663 233.104 218.521 234.939 217.35 235.773L217.159 235.909C215.988 236.742 214.156 236.601 213.326 235.429L213.189 235.237C212.372 234.085 212.501 232.23 213.671 231.396C214.705 230.371 216.537 230.512 217.696 231.74Z" fill="#24202D"/>
<path d="M258.977 305.559L259.113 305.752C259.93 306.904 259.801 308.759 258.631 309.592L258.439 309.729C257.269 310.562 255.437 310.421 254.606 309.249C253.447 308.022 253.59 306.186 254.815 305.024L255.007 304.887C256.295 304.26 258.159 304.407 258.977 305.559Z" fill="#7A4D89"/>
<path d="M239.639 354.605L239.775 354.797C240.592 355.95 240.463 357.805 239.293 358.638L239.101 358.775C237.931 359.608 236.099 359.467 235.268 358.295L235.132 358.103C234.301 356.931 234.444 355.095 235.614 354.262C236.648 353.237 238.48 353.378 239.639 354.605Z" fill="#24202D"/>
<path d="M170.921 294.186L171.057 294.378C171.888 295.55 171.746 297.386 170.576 298.219L170.384 298.356C169.233 299.176 167.382 299.048 166.551 297.876L166.415 297.684C165.598 296.531 165.726 294.676 166.896 293.843C167.911 292.831 169.762 292.959 170.921 294.186Z" fill="#24202D"/>
<path d="M176.73 348.378L176.866 348.571C177.683 349.723 177.555 351.578 176.385 352.411L176.193 352.548C175.042 353.368 173.191 353.24 172.36 352.068L172.224 351.876C171.393 350.704 171.535 348.868 172.705 348.035C173.72 347.024 175.571 347.151 176.73 348.378Z" fill="#24202D"/>
<path d="M196.919 352.65C195.96 353.333 194.764 353.316 193.822 352.802C192.429 352.059 191.902 350.093 192.8 348.875C200.133 336.657 201.386 325.27 196.539 314.728C192.958 306.783 187.371 302.607 187.043 302.552C185.692 301.461 185.314 299.706 186.404 298.352C187.494 296.998 189.245 296.618 190.596 297.709C190.732 297.901 197.534 302.975 201.741 312.21C205.731 320.731 208.183 334.453 197.897 351.953C197.569 351.898 197.322 352.363 196.938 352.636L196.919 352.65Z" fill="#62406F"/>
<path d="M195.286 350.329C196.729 349.88 198.041 350.102 199.367 350.343C198.605 351.753 198.476 353.608 199.046 355.226C200.063 358.29 203.518 359.906 206.801 358.754L211.952 372.578C213.322 376.547 211.917 380.756 208.829 382.955C208.253 383.365 207.466 383.925 206.755 384.143C202.198 385.942 196.989 383.521 195.408 378.806L189.396 362.097C188.026 358.129 189.43 353.92 192.519 351.72C193.095 351.311 193.881 350.75 194.593 350.533C194.593 350.533 194.785 350.396 195.305 350.315L195.286 350.329Z" fill="#4A3354"/>
<path d="M83.3331 223.891C85.3548 223.891 87.1764 225.516 87.1764 227.742C87.1764 229.768 85.555 231.594 83.3331 231.594C81.1112 231.594 79.71 229.768 79.71 227.742C79.71 225.716 81.3314 223.891 83.3331 223.891Z" fill="#24202D"/>
<path d="M166.684 216.408C170.147 216.408 172.949 219.216 172.949 222.686C172.949 226.156 170.147 228.945 166.684 228.945C163.221 228.945 160.439 226.136 160.439 222.686C160.439 219.236 163.241 216.408 166.684 216.408Z" fill="#24202D"/>
<path d="M172.929 132.883C175.752 132.883 177.973 135.11 177.973 137.938C177.973 140.767 175.752 142.993 172.929 142.993C170.107 142.993 167.885 140.767 167.885 137.938C167.885 135.11 170.107 132.883 172.929 132.883Z" fill="#24202D"/>
<path d="M135.197 178.378C135.197 170.094 128.331 163.213 120.064 163.213C111.797 163.213 104.931 170.094 104.931 178.378C104.931 186.662 111.797 193.542 120.064 193.542C128.331 193.542 135.197 186.863 135.197 178.378ZM165.463 178.378C165.463 203.452 145.085 223.872 120.044 223.872C95.0029 223.872 74.6256 203.652 74.6256 178.378C74.6256 153.104 94.8027 132.864 120.044 132.864C145.286 132.864 165.463 153.284 165.463 178.378Z" fill="#30273A"/>
<path d="M179.795 151.277C180.195 151.679 180.596 152.28 180.596 153.103C180.596 153.925 180.395 154.527 179.795 154.928C179.395 155.329 178.794 155.73 177.973 155.73C176.552 155.73 175.351 154.507 175.351 153.103C175.351 152.501 175.551 151.679 176.152 151.277C176.552 150.876 177.153 150.475 177.973 150.475C178.794 150.475 179.395 150.876 179.795 151.277Z" fill="#24202D"/>
<path d="M179.795 206.9C180.195 207.301 180.596 207.903 180.596 208.725C180.596 209.327 180.395 210.15 179.795 210.551C179.395 210.952 178.794 211.353 177.973 211.353C176.552 211.353 175.351 210.15 175.351 208.725C175.351 208.124 175.551 207.301 176.152 206.9C176.552 206.499 177.153 206.098 177.973 206.098C178.794 206.098 179.395 206.499 179.795 206.9Z" fill="#24202D"/>
<path d="M152.151 126.003C152.552 126.404 152.952 127.006 152.952 127.828C152.952 128.651 152.752 129.252 152.151 129.653C151.751 130.055 151.151 130.456 150.33 130.456C148.909 130.456 147.708 129.252 147.708 127.828C147.708 127.226 147.908 126.404 148.508 126.003C148.909 125.602 149.509 125.2 150.33 125.2C151.151 125.2 151.531 125.602 152.151 126.003Z" fill="#24202D"/>
<path d="M99.0665 227.121C99.4669 227.522 99.8672 228.124 99.8672 228.946C99.8672 229.548 99.667 230.37 99.0665 230.771C98.6662 231.173 98.0657 231.574 97.245 231.574C95.8238 231.574 94.6227 230.37 94.6227 228.946C94.6227 228.344 94.8229 227.522 95.4234 227.121C95.8237 226.719 96.4243 226.318 97.245 226.318C98.0657 226.318 98.6662 226.719 99.0665 227.121Z" fill="#24202D"/>
<path d="M86.5558 123.576C86.9561 123.977 87.3564 124.579 87.3564 125.401C87.3564 126.223 87.1563 126.825 86.5558 127.226C85.9553 127.628 85.5549 128.029 84.7342 128.029C83.313 128.029 82.112 126.805 82.112 125.401C82.112 124.799 82.3122 123.977 82.9127 123.576C83.313 123.174 83.9135 122.773 84.7342 122.773C85.5549 122.773 85.9553 123.174 86.5558 123.576Z" fill="#24202D"/>
<path d="M120.064 211.354C101.909 211.354 87.1761 196.591 87.1761 178.397C87.1761 176.973 88.3772 175.769 89.7984 175.769C91.2196 175.769 92.4206 176.973 92.4206 178.397C92.4206 193.762 104.931 206.299 120.264 206.299C135.597 206.299 148.108 193.762 148.108 178.397C148.108 163.032 135.597 150.495 120.264 150.495C112.398 150.495 104.731 153.925 99.4866 160.003C98.4857 161.006 97.0645 161.207 95.8635 160.204C94.8627 159.201 94.6625 157.776 95.6633 156.573C101.929 149.492 110.796 145.44 120.284 145.44C138.44 145.44 153.172 160.204 153.172 178.397C152.772 196.591 138.039 211.354 120.084 211.354H120.064Z" fill="#7A4D89"/>
<path d="M175.551 181.005H120.044C118.623 181.005 117.422 179.781 117.422 178.377C117.422 176.973 118.623 175.75 120.044 175.75H175.551C176.972 175.75 178.173 176.953 178.173 178.377C178.173 179.801 176.972 181.005 175.551 181.005Z" fill="#62406F"/>
<path d="M187.661 170.895H175.151L172.528 178.377L175.151 186.06H187.661L185.239 178.377L187.661 170.895Z" fill="#4A3354"/>
<path d="M408.367 239.655L412.131 244.087L416.334 248.97L428.505 263.277L427.506 264.278L423.632 268.16L422.634 269.161L408.246 256.855L403.494 252.753L399.072 248.981C403.604 247.98 407.368 244.329 408.367 239.666V239.655Z" fill="#30273A"/>
<path d="M415.676 289.55C416.455 289.55 417.113 288.89 417.113 288.109V287.999C417.113 285.008 414.677 282.567 411.692 282.567H385.354C385.024 282.567 384.695 282.457 384.355 282.127C384.135 281.907 383.916 281.467 383.916 281.126C383.916 280.345 384.585 279.685 385.354 279.685H431.83C432.829 279.685 433.816 279.246 434.486 278.575C435.265 277.794 435.594 276.914 435.594 275.913C435.594 274.913 435.155 273.923 434.486 273.252L430.392 269.15C429.844 268.6 428.955 268.6 428.395 269.15C427.846 269.7 427.846 270.591 428.395 271.14L432.488 275.243C432.708 275.462 432.818 275.682 432.818 276.023C432.818 276.364 432.708 276.573 432.488 276.804C432.269 277.024 432.049 277.134 431.709 277.134H385.013C382.687 277.134 380.81 279.015 380.81 281.346C380.81 282.457 381.249 283.458 382.028 284.337C382.808 285.118 383.905 285.558 385.013 285.558H411.571C413.009 285.558 414.227 286.779 414.227 288.219V288.329C414.227 288.879 414.897 289.55 415.665 289.55H415.676Z" fill="#62406F"/>
<path d="M416.334 248.97L412.241 244.198C411.692 246.199 410.584 248.08 409.036 249.63C407.489 251.181 405.601 252.292 403.615 252.841L408.367 256.943C410.024 256.163 411.571 255.063 413.02 253.622C414.348 252.182 415.456 250.631 416.334 248.97Z" fill="#4A3354"/>
<path d="M387.461 228.009C382.588 232.891 382.588 240.755 387.461 245.637C392.992 251.18 402.287 250.289 406.6 243.757C409.805 239.105 409.366 232.342 405.053 228.009C400.18 223.126 392.333 223.126 387.461 228.009Z" fill="#62406F"/>
<path d="M396.975 267.367C395.077 267.367 393.541 268.907 393.541 270.809C393.541 272.712 395.077 274.252 396.975 274.252C398.874 274.252 400.399 272.712 400.399 270.809C400.399 268.907 398.863 267.367 396.975 267.367Z" fill="#62406F"/>
<path d="M423.643 268.259L425.629 270.25C426.738 271.361 428.505 271.361 429.503 270.25C430.612 269.139 430.612 267.369 429.503 266.368L427.506 264.377L423.632 268.259H423.643Z" fill="#4A3354"/>
<path d="M407.379 267.367V267.477C407.489 268.137 408.049 268.698 408.707 268.698H408.817C409.486 268.588 410.035 268.038 410.035 267.367V267.257C409.925 266.476 409.256 265.927 408.488 266.037C407.939 266.037 407.379 266.586 407.379 267.367Z" fill="#62406F"/>
<path d="M418.441 260.384V260.494C418.551 261.154 419.111 261.715 419.769 261.715H419.879C420.537 261.605 421.097 261.055 421.097 260.384V260.274C420.987 259.494 420.318 258.944 419.55 259.054C419.001 259.054 418.441 259.725 418.441 260.384Z" fill="#4A3354"/>
<path d="M425.3 240.987V241.097C425.41 241.756 425.97 242.317 426.628 242.317H426.738C427.396 242.207 427.956 241.646 427.956 240.987V240.877C427.846 240.096 427.177 239.546 426.409 239.656C425.86 239.656 425.3 240.316 425.3 240.987Z" fill="#62406F"/>
<path d="M391.444 233.331C391.774 233.331 392.103 233.221 392.443 232.891C394.66 230.779 398.084 230.779 400.301 232.891C400.849 233.441 401.738 233.441 402.287 232.891C402.836 232.341 402.836 231.45 402.287 230.9C399.082 227.689 393.771 227.689 390.555 230.9C390.007 231.45 390.007 232.341 390.555 232.891C390.665 233.221 390.994 233.331 391.444 233.331Z" fill="#7A4D89"/>
<path d="M419.55 229.339C419.769 229.009 419.989 228.899 419.989 228.899C420.208 228.789 420.318 228.679 420.537 228.569L421.756 227.789C421.317 227.459 420.867 227.129 420.537 226.458C420.098 225.798 420.318 224.907 420.976 224.577C421.635 224.137 422.524 224.357 422.853 225.017C423.522 226.018 425.399 225.347 425.509 225.347C426.617 224.907 427.726 226.007 427.276 227.118C427.276 227.228 427.166 227.448 427.056 227.558C426.837 227.888 426.727 227.778 424.291 229.438C425.289 230.879 424.96 232.759 423.511 233.76C422.184 234.651 420.307 234.2 419.418 232.869C418.639 231.759 418.749 230.318 419.528 229.317L419.55 229.339Z" fill="#30273A"/>
<path d="M388.898 259.724C388.569 259.834 388.229 259.614 388.229 259.614C388.009 259.614 387.79 259.504 387.57 259.394L386.242 258.954C386.352 259.504 386.242 260.065 386.023 260.725C385.803 261.396 384.915 261.836 384.256 261.506C383.587 261.176 383.148 260.395 383.477 259.735C383.916 258.624 382.149 257.404 382.149 257.404C381.15 256.854 381.26 255.292 382.369 254.962C382.478 254.852 382.698 254.852 382.917 254.852C383.246 254.852 383.246 254.962 386.012 255.853C386.451 254.193 388.229 253.302 389.886 253.852C391.433 254.401 392.213 256.073 391.763 257.624C391.324 258.954 390.105 259.735 388.887 259.735L388.898 259.724Z" fill="#4A3354"/>
<path d="M40.2976 197.719L35.972 206.388H-28.9288L-33.2544 197.719H40.2976Z" fill="#1F8D71"/>
<path d="M-10.0645 197.718L-20.2776 163.023H29.3978L19.1846 197.718L18.6697 199.799H-9.54953L-10.0645 197.718Z" fill="#1A403B"/>
<path d="M5.67592 156.438C4.4572 156.438 3.42731 155.406 3.42731 154.185V141.181C3.42731 139.96 4.4572 138.928 5.67592 138.928C6.89463 138.928 7.92453 139.977 7.92453 141.181V154.185C7.75288 155.406 6.87747 156.438 5.67592 156.438Z" fill="#1A2D2D"/>
<path d="M10.0014 106.674C12.4217 106.674 14.327 108.584 14.327 111.009C14.327 113.435 12.4217 115.344 10.0014 115.344C7.58116 115.344 5.67584 113.435 5.67584 111.009C5.67584 108.584 7.58116 106.674 10.0014 106.674Z" fill="#1A2D2D"/>
<path d="M32.5047 155.575C33.363 156.435 33.7234 157.485 33.7234 158.689C33.7234 161.114 31.8181 163.023 29.3979 163.023H-20.2776C-21.4963 163.023 -22.5262 162.507 -23.3845 161.802C-24.2427 160.942 -24.6032 159.893 -24.6032 158.689C-24.6032 156.263 -22.6979 154.354 -20.2776 154.354H29.5695C30.6166 154.354 31.6465 154.698 32.5047 155.575Z" fill="#1D6656"/>
<path d="M5.67563 141.352C5.33233 139.098 5.33233 136.845 5.67563 134.764C6.19058 131.117 7.92425 127.66 10.5162 124.873C14.8417 120.366 21.0726 118.629 27.3035 119.489C28.3506 125.733 26.7886 131.977 22.6346 136.484C18.3091 140.99 12.0782 142.728 5.84729 141.868C5.67564 141.696 5.67563 141.524 5.67563 141.352Z" fill="#23B890"/>
<path d="M5.50411 141.867C-0.72678 142.727 -6.9577 141.007 -11.2833 136.483C-15.6088 131.976 -17.1708 125.732 -15.9521 119.488C-9.72123 118.628 -3.49035 120.348 0.835232 124.872C3.42715 127.641 5.1608 131.116 5.67574 134.763C5.33245 136.844 5.33245 139.097 5.67574 141.351C5.67574 141.523 5.50411 141.695 5.50411 141.867Z" fill="#1F8D71"/>
<path d="M33.7235 141.353C34.9422 141.353 35.9722 142.385 35.9722 143.606C35.9722 144.122 35.8005 144.827 35.2855 145.171C34.9422 145.515 34.4273 145.859 33.7235 145.859C33.0198 145.859 32.5048 145.687 32.1615 145.171C31.8182 144.655 31.4749 144.311 31.4749 143.606C31.4749 142.901 31.6466 142.385 32.1615 142.041C32.6765 141.525 33.2086 141.353 33.7235 141.353Z" fill="#1A2D2D"/>
<path d="M31.6466 182.46C32.8653 182.46 33.8952 183.492 33.8952 184.713C33.8952 185.229 33.7235 185.934 33.2086 186.278C32.8653 186.622 32.3503 186.966 31.6466 186.966C30.9428 186.966 30.4278 186.794 30.0845 186.278C29.7412 185.934 29.3979 185.418 29.3979 184.713C29.3979 184.197 29.5696 183.492 30.0845 183.148C30.5995 182.804 30.9428 182.46 31.6466 182.46Z" fill="#1A2D2D"/>
<path d="M27.321 106.674C28.5397 106.674 29.5696 107.707 29.5696 108.928C29.5696 109.444 29.398 110.149 28.883 110.493C28.3681 110.837 28.0248 111.181 27.321 111.181C26.6172 111.181 26.1023 111.009 25.759 110.493C25.4157 110.149 25.0724 109.633 25.0724 108.928C25.0724 108.223 25.244 107.707 25.759 107.363C26.1023 106.847 26.6172 106.674 27.321 106.674Z" fill="#1A2D2D"/>
<path d="M6.37993 186.796C6.37993 185.575 5.35004 184.543 4.13133 184.543H-13.8748L-12.656 188.878H4.30296C5.52167 189.05 6.37993 188.018 6.37993 186.796Z" fill="#1F8D71"/>
<path d="M321.96 105.315C323.709 105.315 325.268 106.721 325.268 108.648C325.268 110.401 323.865 111.98 321.96 111.98C320.21 111.98 318.634 110.574 318.634 108.648C318.634 106.895 320.21 105.315 321.96 105.315Z" fill="#62406F"/>
<path d="M399.5 44.0652C401.942 44.0652 403.865 45.9917 403.865 48.4389C403.865 50.8861 401.942 52.8127 399.5 52.8127C397.058 52.8127 395.136 50.8861 395.136 48.4389C395.136 46.1653 397.058 44.0652 399.5 44.0652Z" fill="#62406F"/>
<path d="M364.912 30.4244C362.644 29.383 360.375 28.4979 357.933 27.9772C353.048 26.7449 347.974 26.7449 343.263 27.63C330.169 30.0773 318.998 39.8834 315.672 53.6989C314.806 57.5519 314.443 61.2315 314.806 65.0671C315.499 72.4088 318.305 79.247 323.016 84.8357C327.554 90.2682 333.841 94.2775 341.357 96.204C343.626 96.7247 345.722 97.0718 347.991 97.0718C352.182 90.7715 357.413 85.3564 364.064 81.3298C364.93 80.8091 365.813 80.2884 366.679 79.924C371.563 77.3032 376.811 75.5502 382.388 74.856C382.561 74.5088 382.561 74.3353 382.734 73.9882C383.081 72.9468 383.427 71.7145 383.774 70.4822C387.619 54.0287 379.409 37.5924 364.912 30.407V30.4244Z" fill="#30273A"/>
<path d="M364.913 30.4259C379.409 37.4204 387.619 54.0475 383.601 70.3275C383.254 71.5598 382.908 72.6012 382.544 73.8335C373.988 51.7912 353.031 44.0851 353.031 44.0851C357.569 35.6848 364.913 30.7904 364.913 30.7904V30.4432V30.4259Z" fill="#4A3354"/>
<path d="M366.489 79.7674C365.623 80.288 364.739 80.8261 363.873 81.3468C357.24 85.3734 351.992 90.7884 347.801 97.0887C345.705 96.9151 343.436 96.7416 341.167 96.2209C333.841 94.4679 327.554 90.2678 322.825 84.8527C346.051 88.3586 363.336 74.0051 363.336 74.0051H363.51C364.913 75.7581 365.779 77.8582 366.471 79.7847L366.489 79.7674Z" fill="#7A4D89"/>
<path d="M363.7 73.8143C363.527 73.8143 346.415 88.3414 323.189 84.6619C318.478 79.2294 315.499 72.2349 314.98 64.8933H315.499C315.499 64.8933 322.825 68.2083 332.611 68.0347C338.205 67.8612 344.319 66.4553 349.896 61.908C356.356 64.5288 360.721 69.0761 363.683 73.8143H363.7Z" fill="#4A3354"/>
<path d="M412.767 77.841C412.247 81.8676 411.364 85.7207 410.152 89.2092L402.462 74.8557C405.787 75.7235 409.268 76.6087 412.767 77.8236V77.841Z" fill="#62406F"/>
<path d="M410.152 89.3992C408.922 93.2523 407.363 96.9318 405.614 100.247L389.541 74.8722V74.0044C393.733 73.8308 398.097 74.3515 402.462 75.0631L410.152 89.4166V89.3992Z" fill="#7A4D89"/>
<path d="M347.801 96.9152C351.992 90.6149 357.223 85.1998 363.873 81.1732C364.739 80.6525 365.623 80.1318 366.489 79.7674C371.373 77.1466 376.621 75.3936 382.198 74.6994C384.64 74.3522 387.082 74.1787 389.524 74.0051L405.597 100.248C401.232 108.301 395.118 114.948 387.255 119.843C379.392 124.563 370.49 127.011 361.241 127.202L345.532 100.959C346.398 99.5533 347.108 98.1648 347.801 96.9325V96.9152Z" fill="#A476AF"/>
<path d="M403.155 62.2714C403.501 62.6186 403.848 63.1393 403.848 63.8509C403.848 64.3715 403.674 65.0831 403.155 65.4303C402.808 65.7774 402.289 66.1245 401.579 66.1245C400.349 66.1245 399.31 65.0831 399.31 63.8509C399.31 63.3302 399.483 62.6186 400.003 62.2714C400.349 61.9243 400.869 61.5772 401.579 61.5772C402.289 61.5772 402.808 61.9243 403.155 62.2714Z" fill="#62406F"/>
<path d="M403.155 119.149C403.501 119.496 403.848 120.016 403.848 120.728C403.848 121.249 403.674 121.96 403.155 122.307C402.808 122.654 402.289 123.002 401.579 123.002C400.349 123.002 399.31 121.943 399.31 120.728C399.31 120.207 399.483 119.496 400.003 119.149C400.349 118.801 400.869 118.454 401.579 118.454C402.289 118.454 402.808 118.801 403.155 119.149Z" fill="#62406F"/>
<path d="M390.061 36.0303C390.407 36.3774 390.754 36.8981 390.754 37.6097C390.754 38.1304 390.581 38.842 390.061 39.1891C389.715 39.5362 389.195 39.8833 388.485 39.8833C387.255 39.8833 386.216 38.842 386.216 37.6097C386.216 37.089 386.389 36.3774 386.909 36.0303C387.255 35.6832 387.775 35.3361 388.485 35.3361C389.195 35.3361 389.715 35.6832 390.061 36.0303Z" fill="#62406F"/>
<path d="M364.913 30.4246L364.74 30.5981C364.74 30.5981 357.413 35.4925 352.858 43.8929C350.243 48.9608 348.494 54.914 349.723 61.9085C344.32 66.2822 338.206 67.8616 332.438 68.0352C332.438 68.0352 328.593 45.9929 343.263 27.6128C347.974 26.745 352.858 26.7451 357.933 27.96C360.375 28.4807 362.817 29.3658 364.913 30.4072V30.4246Z" fill="#7A4D89"/>
<path d="M361.258 127.011C356.894 127.011 352.529 126.664 348.164 125.779L340.665 112.831C341.895 108.631 343.627 104.431 345.549 100.751L361.258 126.994V127.011Z" fill="#7A4D89"/>
<path d="M348.338 125.796C345.012 125.102 341.877 124.217 338.552 123.175C339.072 119.67 339.782 116.181 340.821 113.022L348.32 125.796H348.338Z" fill="#62406F"/>
<path d="M322.479 92.8902C322.826 93.2373 323.172 93.758 323.172 94.4696C323.172 94.9902 322.999 95.7019 322.479 96.049C322.133 96.3961 321.613 96.7432 320.903 96.7432C319.691 96.7432 318.634 95.6845 318.634 94.4696C318.634 93.9489 318.808 93.2373 319.327 92.8902C319.674 92.543 320.193 92.1959 320.903 92.1959C321.423 92.1959 322.133 92.543 322.479 92.8902Z" fill="#62406F"/>
<path d="M315.846 31.6569C316.192 32.0041 316.538 32.5248 316.538 33.2364C316.538 33.757 316.365 34.4686 315.846 34.8158C315.499 35.1629 314.98 35.51 314.269 35.51C313.04 35.51 312.001 34.4686 312.001 33.2364C312.001 32.7157 312.174 32.0041 312.693 31.6569C313.04 31.3098 313.559 30.9627 314.269 30.9627C314.98 30.9627 315.499 31.3098 315.846 31.6569Z" fill="#62406F"/>
<path d="M360.375 101.637C359.855 101.637 359.509 101.463 359.145 101.29C358.106 100.595 357.916 99.1896 358.626 98.3218C358.626 98.3218 359.855 96.5688 362.471 94.2952C364.393 92.5422 366.662 90.9628 369.104 89.5743C371.373 88.1685 373.815 87.1271 376.43 86.0684C378.006 85.5477 379.565 84.8361 381.314 84.489C382.544 84.1419 383.757 84.8361 384.103 85.8948C384.449 86.9362 383.757 88.342 382.7 88.6891C381.124 89.2098 379.738 89.7479 378.162 90.2686C375.893 91.1364 373.625 92.1951 371.529 93.41C369.26 94.6423 367.337 96.0308 365.588 97.6102C363.492 99.5367 362.453 100.752 362.453 100.752C361.76 101.272 361.05 101.619 360.358 101.619L360.375 101.637Z" fill="#DFD7D9"/>
<path d="M367.545 104.101C366.852 104.101 366.142 103.754 365.623 103.042L359.682 93.2358C358.989 92.1771 359.336 90.7886 360.375 90.2679C361.414 89.7472 362.817 89.9208 363.337 90.9621L369.277 100.768C369.97 101.827 369.624 103.216 368.585 103.736C368.238 103.91 367.892 104.083 367.545 104.083V104.101Z" fill="#7A4D89"/>
<path d="M374.006 100.075C373.313 100.075 372.603 99.7277 372.083 99.0335L366.142 89.2273C365.45 88.1859 365.796 86.7801 366.835 86.2594C367.874 85.5651 369.277 85.9123 369.797 86.9536L375.738 96.7599C376.43 97.8012 376.084 99.207 375.045 99.7277C374.872 99.9013 374.525 100.075 374.006 100.075Z" fill="#7A4D89"/>
<path d="M380.639 96.0476C379.946 96.0476 379.236 95.7005 378.716 94.9889L372.776 85.1827C372.083 84.124 372.429 82.7355 373.468 82.2148C374.508 81.5206 375.91 81.8677 376.43 82.9091L382.371 92.7152C383.064 93.7566 382.717 95.1624 381.678 95.6831C381.332 96.0302 380.985 96.0303 380.639 96.0303V96.0476Z" fill="#7A4D89"/>
<path d="M178.151 38.0631C176.895 38.0631 175.834 36.9997 175.834 35.7413V20.0207C175.834 18.7623 176.895 17.6989 178.151 17.6989C179.406 17.6989 180.468 18.7623 180.468 20.0207V35.7413C180.468 36.9997 179.406 38.0631 178.151 38.0631Z" fill="#1D6656"/>
<path d="M207.209 38.0631C205.971 38.0631 204.892 36.9997 204.892 35.7413V20.0207C204.892 18.7623 205.971 17.6989 207.209 17.6989C208.447 17.6989 209.526 18.7623 209.526 20.0207V35.7413C209.349 36.9997 208.27 38.0631 207.209 38.0631Z" fill="#1D6656"/>
<path d="M200.435 18.9401H184.748C183.492 18.9401 182.431 17.8767 182.431 16.6183C182.431 15.36 183.492 14.2966 184.748 14.2966H200.435C201.691 14.2966 202.752 15.36 202.752 16.6183C202.752 17.8767 201.691 18.9401 200.435 18.9401Z" fill="#1D6656"/>
<path d="M249.479 73.7935C248.224 73.7935 247.162 72.7301 247.162 71.4717V50.0264C247.162 45.7373 246.278 41.6255 244.669 37.691C243.784 35.5464 242.529 33.5791 241.291 31.6118C240.212 29.999 238.974 28.5811 237.541 27.3228C236.285 26.0644 234.87 25.001 233.261 23.9199C228.097 20.5347 222.207 18.7447 216.141 18.7447H213.824C212.568 18.7447 211.507 17.6813 211.507 16.4229C211.507 15.1645 212.586 14.1011 213.824 14.1011H216.141C223.091 14.1011 229.865 16.0684 235.578 20.003C237.364 21.0664 238.956 22.502 240.389 23.9376C241.998 25.3732 243.413 27.1455 244.669 28.9356C246.278 31.0801 247.516 33.4019 248.595 35.7237C250.558 40.19 251.442 45.0107 251.442 49.8315V71.2768C251.796 72.7124 250.735 73.7757 249.479 73.7757V73.7935Z" fill="#4CDBB2"/>
<path d="M181.529 13.3918C183.315 13.3918 184.907 14.8274 184.907 16.7769C184.907 17.6631 184.553 18.567 184.022 19.0987C183.492 19.6304 182.59 19.9849 181.706 19.9849H174.932C173.145 19.9849 171.536 18.5492 171.536 16.5819C171.536 15.6958 171.89 14.7919 172.42 14.2602C172.951 13.7285 173.853 13.1968 174.737 13.1968H181.511V13.374L181.529 13.3918Z" fill="#1F8D71"/>
<path d="M210.428 13.3918C212.214 13.3918 213.806 14.8274 213.806 16.7769C213.806 17.6631 213.452 18.567 212.922 19.0987C212.391 19.6304 211.489 19.9849 210.605 19.9849H203.831C202.045 19.9849 200.435 18.5492 200.435 16.5819C200.435 15.6958 200.789 14.7919 201.32 14.2602C201.85 13.7285 202.752 13.1968 203.636 13.1968H210.41V13.374L210.428 13.3918Z" fill="#1F8D71"/>
<path d="M225.568 39.6569C220.757 33.9323 214.337 29.6432 207.209 27.1442C202.752 25.5314 197.765 24.6453 192.76 24.6453C187.754 24.6453 182.767 25.5314 178.31 27.1442C161.366 33.0461 149.251 49.2984 149.251 68.2447C149.251 92.3663 168.688 111.844 192.76 111.844C216.654 111.667 236.091 92.1891 236.091 68.0675C236.091 57.1677 232.165 47.3311 225.568 39.6569Z" fill="#1A403B"/>
<path d="M153.708 13.3923C156.202 13.3923 158.165 15.3595 158.165 17.8585C158.165 20.3575 156.202 22.3248 153.708 22.3248C151.214 22.3248 149.251 20.3575 149.251 17.8585C149.251 15.3595 151.214 13.3923 153.708 13.3923Z" fill="#1A403B"/>
<path d="M196.509 68.7953C196.155 67.1825 194.9 65.5697 193.113 64.5063C192.76 64.329 192.406 64.1518 192.052 63.9745C192.406 63.7973 192.76 63.6201 193.113 63.4428C194.9 62.3794 196.138 60.7666 196.509 59.1538C197.765 58.2676 198.118 56.832 197.57 55.7509C197.04 54.6875 195.43 54.3153 193.998 55.042C192.388 54.5103 190.425 54.8647 188.656 55.7509C188.303 55.9281 187.949 56.1054 187.772 56.4598C187.772 56.1054 187.949 55.7509 187.949 55.2015C187.949 53.0569 187.241 51.2669 185.986 50.2035C185.809 48.7679 184.73 47.5272 183.492 47.5272C182.254 47.5272 181.352 48.5906 180.998 50.2035C179.742 51.2669 179.035 53.0569 179.035 55.2015C179.035 55.5559 179.035 55.9104 179.212 56.4598C178.858 56.1054 178.504 55.9281 178.151 55.7509C176.364 54.6875 174.401 54.4925 172.809 55.042C171.377 54.5103 169.962 54.6875 169.237 55.7509C168.706 56.8143 169.06 58.2499 170.298 59.1538C170.652 60.7666 171.907 62.3617 173.694 63.4428C174.047 63.6201 174.401 63.7973 174.755 63.9745C174.401 64.1518 174.047 64.329 173.694 64.5063C171.907 65.5697 170.669 67.1825 170.298 68.7953C169.042 69.6815 168.512 71.1171 169.237 72.1805C169.767 73.2616 171.377 73.616 172.809 72.8894C174.419 73.4211 176.382 73.0666 178.151 72.1805C178.504 72.0032 178.858 71.826 179.035 71.4715C179.035 71.826 178.858 72.1804 178.858 72.7299C178.858 74.8744 179.566 76.6645 180.821 77.7279C180.998 79.1635 182.077 80.4041 183.315 80.4041C184.553 80.4041 185.455 79.3407 185.809 77.7279C187.065 76.6468 187.772 74.8744 187.772 72.7299C187.772 72.3754 187.772 72.021 187.595 71.4715C187.949 71.826 188.126 72.0032 188.479 72.1805C190.266 73.2616 192.229 73.4388 193.821 72.8894C195.253 73.4211 196.668 73.2439 197.393 72.1805C198.101 71.2943 197.57 69.8587 196.509 68.7953Z" fill="#1F8D71"/>
<path d="M244.298 83.2579C244.651 83.6124 245.005 84.1441 245.005 84.8708C245.005 85.5974 244.828 86.1291 244.298 86.4836C243.944 86.8381 243.413 87.1925 242.688 87.1925C241.432 87.1925 240.371 86.1114 240.371 84.8708C240.371 84.3391 240.548 83.6124 241.079 83.2579C241.432 82.9035 241.963 82.549 242.688 82.549C243.396 82.7262 243.944 82.9035 244.298 83.2579Z" fill="#1A403B"/>
<path d="M239.84 43.0617C240.194 43.4162 240.548 43.9479 240.548 44.6745C240.548 45.4012 240.371 45.9329 239.84 46.2874C239.487 46.6418 238.956 46.9963 238.231 46.9963C236.975 46.9963 235.914 45.9329 235.914 44.6745C235.914 44.1428 236.091 43.4162 236.622 43.0617C236.975 42.7072 237.506 42.3528 238.231 42.3528C238.939 42.53 239.487 42.7072 239.84 43.0617Z" fill="#1A403B"/>
<path d="M206.502 65.3917C206.855 65.7461 207.209 66.2778 207.209 67.0045C207.209 67.7312 207.032 68.2629 206.502 68.6173C206.148 68.9718 205.617 69.3263 204.892 69.3263C203.636 69.3263 202.575 68.2451 202.575 67.0045C202.575 66.4728 202.752 65.7461 203.283 65.3917C203.636 65.0372 204.167 64.6827 204.892 64.6827C205.423 64.86 206.148 65.0372 206.502 65.3917Z" fill="#23B890"/>
<path d="M206.502 72.179C206.855 72.5334 207.209 73.0651 207.209 73.7918C207.209 74.5184 207.032 75.0502 206.502 75.4046C206.148 75.7591 205.617 76.1135 204.892 76.1135C203.636 76.1135 202.575 75.0324 202.575 73.7918C202.575 73.2601 202.752 72.5334 203.283 72.179C203.636 71.8245 204.167 71.47 204.892 71.47C205.423 71.47 206.148 71.6473 206.502 72.179Z" fill="#23B890"/>
<path d="M206.502 78.7924C206.855 79.1469 207.209 79.6786 207.209 80.4053C207.209 81.1319 207.032 81.6636 206.502 82.0181C206.148 82.3726 205.617 82.727 204.892 82.727C203.636 82.727 202.575 81.6459 202.575 80.4053C202.575 79.8736 202.752 79.1469 203.283 78.7924C203.636 78.438 204.167 78.0835 204.892 78.0835C205.423 78.2607 206.148 78.438 206.502 78.7924Z" fill="#23B890"/>
<path d="M206.502 85.5799C206.855 85.9344 207.209 86.4661 207.209 87.1927C207.209 87.7244 207.032 88.4511 206.502 88.8056C206.148 89.16 205.617 89.5145 204.892 89.5145C203.636 89.5145 202.575 88.4334 202.575 87.1927C202.575 86.661 202.752 85.9344 203.283 85.5799C203.636 85.2254 204.167 84.871 204.892 84.871C205.423 84.871 206.148 85.0482 206.502 85.5799Z" fill="#23B890"/>
<path d="M199.728 85.5799C200.082 85.9344 200.435 86.4661 200.435 87.1927C200.435 87.7244 200.258 88.4511 199.728 88.8056C199.374 89.16 198.844 89.5145 198.118 89.5145C196.863 89.5145 195.801 88.4334 195.801 87.1927C195.801 86.661 195.978 85.9344 196.509 85.5799C196.863 85.2254 197.393 84.871 198.118 84.871C198.844 84.871 199.374 85.0482 199.728 85.5799Z" fill="#23B890"/>
<path d="M193.131 85.579C193.485 85.9335 193.838 86.4652 193.838 87.1919C193.838 87.7236 193.662 88.4502 193.131 88.8047C192.777 89.1592 192.07 89.3364 191.521 89.3364C190.266 89.3364 189.205 88.273 189.205 87.0146C189.205 86.4829 189.381 85.7563 189.912 85.4018C190.266 85.0474 190.796 84.6929 191.521 84.6929C192.052 84.8701 192.777 85.0473 193.131 85.579Z" fill="#23B890"/>
<path d="M157.457 103.46C157.811 103.815 158.165 104.347 158.165 105.073C158.165 105.8 157.988 106.314 157.457 106.686C157.104 107.04 156.379 107.218 155.848 107.218C154.592 107.218 153.531 106.137 153.531 104.896C153.531 104.364 153.708 103.638 154.239 103.283C154.592 102.929 155.123 102.574 155.848 102.574C156.379 102.751 157.104 102.929 157.457 103.46Z" fill="#1A403B"/>
<path d="M155.141 31.9849C155.494 32.3393 155.848 32.871 155.848 33.5977C155.848 34.3244 155.671 34.8561 155.141 35.2105C154.787 35.565 154.256 35.9195 153.531 35.9195C152.275 35.9195 151.214 34.8561 151.214 33.5977C151.214 33.066 151.391 32.3393 151.922 31.9849C152.275 31.6304 152.806 31.2759 153.531 31.2759C154.256 31.2759 154.769 31.4532 155.141 31.9849Z" fill="#1A403B"/>
<path d="M183.492 68.6191C180.998 68.6191 179.035 66.6518 179.035 64.1528C179.035 61.6538 180.998 59.6865 183.492 59.6865C185.986 59.6865 187.949 61.6538 187.949 64.1528C187.949 66.6518 185.986 68.6191 183.492 68.6191Z" fill="#23B890"/>
<path d="M192.583 105.055C172.438 105.055 155.848 88.4306 155.848 68.0665C155.848 63.6002 156.556 59.1339 158.165 55.022C158.519 53.9586 159.951 53.232 161.013 53.7637C162.074 54.1182 162.799 55.5537 162.268 56.6171C160.836 60.1973 160.128 64.1141 160.128 68.0487C160.128 85.9139 174.578 100.394 192.406 100.394C210.234 100.394 224.683 85.9139 224.683 68.0487C224.683 60.5517 222.013 53.2142 217.202 47.3124C213.629 43.0233 208.996 39.6204 203.831 37.6708C200.435 36.4125 196.527 35.7036 192.6 35.7036C187.966 35.7036 183.51 36.5897 179.406 38.557C176.382 39.9926 173.517 41.7649 171.023 44.0867C170.139 44.9729 168.706 44.7957 167.822 43.9095C166.938 43.0233 167.114 41.5877 167.999 40.7016C170.846 38.0253 174.065 36.0581 177.62 34.4452C182.431 32.3007 187.418 31.2372 192.6 31.2372C197.057 31.2372 201.514 32.1235 205.617 33.5591C211.507 35.8808 216.848 39.6382 220.775 44.4589C226.293 51.0697 229.335 59.4706 229.335 68.0487C229.512 88.4129 212.922 105.037 192.6 105.037L192.583 105.055Z" fill="#23B890"/>
<path d="M205.069 62.3611C204.539 62.3611 204.008 62.1838 203.46 61.6521C202.575 60.766 202.575 59.3304 203.46 58.4442L232.89 28.9525C233.774 28.0664 235.207 28.0664 236.091 28.9525C236.975 29.8387 236.975 31.2743 236.091 32.1605L206.679 61.8294C206.148 62.1838 205.6 62.3611 205.069 62.3611Z" fill="#1D6656"/>
<path d="M249.285 15.8897C246.968 13.5679 243.219 13.5679 240.902 15.8897L234.658 22.146C232.341 24.4678 232.341 28.2252 234.658 30.5469C236.975 32.8687 240.725 32.8687 243.042 30.5469L243.219 30.3697L249.462 24.1133C250.718 22.855 251.248 21.4371 251.248 19.8243C251.071 18.5659 250.364 16.9708 249.285 15.8897Z" fill="#1F8D71"/>
<path d="M105.638 47.2276C105.284 46.1084 105.53 44.9653 106.011 44.0364C104.965 43.6092 104.226 42.7645 103.872 41.6452C103.518 40.526 103.765 39.3829 104.246 38.454C103.199 38.0268 102.461 37.182 102.107 36.0627C101.753 34.9435 101.999 33.8005 102.48 32.8716C101.433 32.4444 100.695 31.5996 100.341 30.4803C99.9871 29.3611 100.233 28.218 100.715 27.2891C99.6677 26.8619 98.9295 26.0172 98.5755 24.8979C98.2215 23.7786 98.4678 22.6355 98.949 21.7067C95.164 21.847 91.6373 19.4412 90.4442 15.6689L24.3262 36.7183C25.4712 40.3386 24.0805 44.1578 21.0934 46.3407C22.1403 46.7679 23.0167 47.5688 23.4143 48.8262C23.7683 49.9455 23.522 51.0885 23.0408 52.0173C24.0877 52.4445 24.8259 53.2894 25.1799 54.4086C25.5339 55.5279 25.2876 56.671 24.8064 57.5998C25.8533 58.027 26.5915 58.8718 26.9455 59.991C27.2995 61.1103 27.0532 62.2534 26.572 63.1823C27.6189 63.6094 28.3571 64.4543 28.7111 65.5735C29.0651 66.6928 28.8188 67.8358 28.3376 68.7647C29.3844 69.1918 30.1227 70.0367 30.4767 71.1559C30.8307 72.2752 30.6281 73.5564 30.0088 74.5293C33.7039 74.5848 37.0306 76.887 38.18 80.5211L104.298 59.4718C103.109 55.7133 104.594 51.712 107.777 49.6189C106.868 49.1478 105.992 48.3469 105.638 47.2276Z" fill="#4A3354"/>
<path d="M35.6881 17.9245C37.6352 17.3046 39.6533 18.3508 40.2696 20.2997C40.8859 22.2486 39.8383 24.2708 37.8912 24.8908C35.9441 25.5107 33.9261 24.4645 33.3098 22.5156C32.6934 20.5667 33.741 18.5444 35.6881 17.9245Z" fill="#30273A"/>
<path d="M90.6118 73.3595C92.9731 72.6076 95.5366 73.9366 96.2841 76.3001C97.0316 78.6637 95.7052 81.2464 93.3438 81.9982C90.9824 82.75 88.4052 81.4254 87.6533 79.048C86.9015 76.6707 88.0985 74.1596 90.6118 73.3595Z" fill="#30273A"/>
<path d="M78.482 35.0216L64.5686 39.4509C61.1864 40.5276 59.3123 44.1438 60.3827 47.528C61.4531 50.9122 65.0626 52.7828 68.4448 51.7061L82.3582 47.2768C85.7404 46.2001 87.6145 42.5839 86.5441 39.1997C85.4737 35.8155 81.8642 33.9449 78.482 35.0216Z" fill="#7A4D89"/>
<path d="M53.0279 48.012L49.5955 52.6343L52.8968 57.2578L47.5605 55.4272L44.1282 60.0496L44.1686 54.3621L38.8323 52.5316L44.2592 50.8038L44.2997 45.1163L47.601 49.7398L53.0279 48.012Z" fill="#7A4D89"/>
<path d="M109.7 65.9046C110.063 66.0931 110.471 66.4199 110.65 66.9866C110.781 67.4012 110.822 68.0119 110.495 68.4202C110.307 68.7846 109.98 69.1929 109.414 69.3732C108.433 69.6854 107.338 69.106 107.032 68.1385C106.901 67.7238 106.86 67.1131 107.186 66.7048C107.375 66.3404 107.702 65.9321 108.268 65.7519C108.726 65.7582 109.184 65.7645 109.7 65.9046Z" fill="#30273A"/>
<path d="M89.4493 48.8698L85.9694 49.9777L87.071 53.4609L90.5509 52.3529L89.4493 48.8698Z" fill="white"/>
<path d="M75.3934 5.92056C75.757 6.10907 76.1643 6.43577 76.3435 7.00248C76.5228 7.56919 76.3296 7.9197 76.1889 8.43613C76.0002 8.8005 75.6733 9.20888 75.1071 9.38915C74.1267 9.70132 73.1739 9.09183 72.8635 8.11045C72.7324 7.69578 72.6913 7.08514 73.0181 6.67679C73.2069 6.31241 73.5338 5.90403 74.1 5.72377C74.3761 5.63583 74.8779 5.78041 75.3934 5.92056Z" fill="#30273A"/>
<path d="M84.3018 50.5065L80.8218 51.6145L81.9234 55.0977L85.4033 53.9897L84.3018 50.5065Z" fill="white"/>
<path d="M79.0157 52.1862L75.5358 53.2941L76.6373 56.7773L80.1172 55.6693L79.0157 52.1862Z" fill="white"/>
<path d="M73.868 53.8229L70.3881 54.9308L71.4896 58.414L74.9696 57.3061L73.868 53.8229Z" fill="white"/>
<path d="M68.5824 55.5046L65.1024 56.6125L66.204 60.0957L69.6839 58.9878L68.5824 55.5046Z" fill="white"/>
<path d="M76.0151 80.4676C76.3787 80.6561 76.786 80.9828 76.9652 81.5495C77.0964 81.9642 77.1375 82.5749 76.8107 82.9832C76.6219 83.3476 76.295 83.7559 75.7289 83.9361C74.7484 84.2483 73.6532 83.669 73.3472 82.7014C73.2161 82.2868 73.175 81.6761 73.5018 81.2678C73.6906 80.9034 74.0174 80.4951 74.5836 80.3148C75.1498 80.1345 75.4996 80.3275 76.0151 80.4676Z" fill="#30273A"/>
<path d="M52.1383 17.151C52.5019 17.3395 52.9092 17.6663 53.0884 18.233C53.2196 18.6476 53.2607 19.2583 52.9338 19.6666C52.7451 20.031 52.4182 20.4393 51.8521 20.6196C50.8716 20.9318 49.7808 20.3663 49.4704 19.3849C49.3393 18.9702 49.2981 18.3595 49.625 17.9512C49.8137 17.5868 50.1406 17.1785 50.7068 16.9983C51.273 16.818 51.6227 17.0108 52.1383 17.151Z" fill="#30273A"/>
<path d="M53.5141 81.9431C53.8777 82.1316 54.285 82.4583 54.4643 83.025C54.5954 83.4397 54.6322 84.0366 54.3097 84.4587C54.1209 84.8231 53.7941 85.2314 53.2279 85.4117C52.2474 85.7238 51.1522 85.1445 50.8463 84.1769C50.7151 83.7623 50.674 83.1517 51.0008 82.7433C51.1896 82.3789 51.5164 81.9706 52.0826 81.7903C52.6488 81.6101 52.9986 81.803 53.5141 81.9431Z" fill="#30273A"/>
<path d="M25.4113 23.655C25.7749 23.8435 26.1822 24.1702 26.3614 24.7369C26.5406 25.3036 26.5337 25.7622 26.2068 26.1706C25.88 26.5789 25.6912 26.9433 25.125 27.1236C24.1446 27.4357 23.0538 26.8702 22.7434 25.8889C22.6123 25.4742 22.5711 24.8635 22.898 24.4551C23.0868 24.0908 23.4136 23.6825 23.9798 23.5022C24.546 23.322 25.0477 23.4665 25.4113 23.655Z" fill="#30273A"/>
<path d="M97.4705 55.8266L41.8079 73.5325C40.828 73.8442 39.7377 73.2795 39.4275 72.2996C39.1174 71.3196 39.6833 70.2281 40.6633 69.9164L96.3258 52.2106C97.3058 51.8989 98.4004 52.4773 98.7062 53.4435C99.012 54.4096 98.4504 55.5149 97.4705 55.8266Z" fill="#7A4D89"/>
<path d="M88.1119 26.271L32.4493 43.9769C31.4694 44.2886 30.3792 43.7239 30.069 42.744C29.7588 41.764 30.3247 40.6725 31.3047 40.3608L86.9673 22.655C87.9472 22.3433 89.0374 22.9079 89.3476 23.8879C89.5198 24.9117 89.0918 25.9593 88.1119 26.271Z" fill="#7A4D89"/>
<path d="M92.5173 34.389C91.5366 34.7012 90.4456 34.1356 90.1352 33.154L89.5624 31.3431C89.252 30.3616 89.8184 29.2683 90.7991 28.9561C91.7797 28.6438 92.8707 29.2095 93.1812 30.191L93.7539 32.0019C94.108 33.1217 93.4979 34.0767 92.5173 34.389Z" fill="#7A4D89"/>
<path d="M94.7246 41.3588C93.744 41.671 92.6529 41.1054 92.3425 40.1239L91.7698 38.3129C91.4593 37.3314 92.0257 36.2381 93.0064 35.9259C93.987 35.6137 95.0781 36.1793 95.3885 37.1608L95.9612 38.9718C96.3154 40.0915 95.7053 41.0466 94.7246 41.3588Z" fill="#7A4D89"/>
<path d="M96.9315 48.3288C95.9509 48.641 94.8598 48.0754 94.5494 47.0939L93.9767 45.283C93.6663 44.3014 94.2326 43.2081 95.2133 42.8959C96.1939 42.5837 97.285 43.1493 97.5954 44.1308L98.1682 45.9418C98.5223 47.0616 97.9122 48.0166 96.9315 48.3288Z" fill="#7A4D89"/>
<path d="M33.3797 53.1936C32.3991 53.5059 31.308 52.9402 30.9976 51.9587L30.4249 50.1478C30.1144 49.1662 30.6946 48.0686 31.6615 47.7607C32.6283 47.4529 33.7332 48.0141 34.0436 48.9957L34.6163 50.8066C34.9705 51.9264 34.3466 52.8858 33.3797 53.1936Z" fill="#7A4D89"/>
<path d="M35.587 60.1639C34.6063 60.4761 33.5153 59.9105 33.2049 58.9289L32.6321 57.118C32.3217 56.1365 32.9019 55.0388 33.8688 54.731C34.8356 54.4231 35.9404 54.9844 36.2509 55.9659L36.8236 57.7768C37.1777 58.8966 36.5538 59.856 35.587 60.1639Z" fill="#7A4D89"/>
<path d="M37.794 67.1339C36.8134 67.4461 35.7223 66.8805 35.4119 65.899L34.8392 64.088C34.5287 63.1065 35.1089 62.0088 36.0758 61.701C37.0426 61.3932 38.1475 61.9544 38.4579 62.9359L39.0306 64.7469C39.3848 65.8666 38.7609 66.8261 37.794 67.1339Z" fill="#7A4D89"/>
</svg>
