<svg width="320" height="268" viewBox="0 0 320 268" fill="none" xmlns="http://www.w3.org/2000/svg">
<path d="M115.608 191.872C114.549 191.872 113.655 190.976 113.655 189.915V176.663C113.655 174.557 112 172.899 109.898 172.899C108.839 172.899 107.945 173.347 107.184 173.959C106.439 174.706 106.126 175.618 106.126 176.663C106.126 178.172 105.53 179.532 104.471 180.727C103.413 181.788 101.922 182.385 100.416 182.385H99.5065C95.8987 182.385 92.8872 179.367 92.8872 175.752C92.8872 173.944 92.1418 172.286 90.9342 171.076C89.7267 169.866 88.0719 169.119 86.2679 169.119H79.7977C78.7392 169.119 77.8447 168.223 77.8447 167.162C77.8447 166.101 78.7392 165.205 79.7977 165.205H86.417C89.1154 165.205 91.8288 166.265 93.7817 168.222C95.7347 170.18 96.7932 172.734 96.7932 175.603C96.7932 177.112 98.0008 178.471 99.6556 178.471H100.55C100.997 178.471 101.46 178.322 101.907 177.874C102.205 177.575 102.503 176.977 102.503 176.514C102.503 174.557 103.249 172.6 104.754 171.24C106.111 169.881 108.064 168.984 110.017 168.984C114.221 168.984 117.531 172.301 117.531 176.514V189.765C117.382 190.976 116.472 191.872 115.578 191.872H115.608Z" fill="#1A403B"/>
<path d="M76.98 173.049C78.4857 173.049 79.8424 174.259 79.8424 175.917C79.8424 177.576 78.6348 178.786 76.98 178.786C75.4742 178.786 74.1176 177.576 74.1176 175.917C74.1176 174.259 75.4742 173.049 76.98 173.049Z" fill="#1A403B"/>
<path d="M133.348 176.812C134.854 176.812 136.211 178.022 136.211 179.68C136.211 181.339 135.003 182.549 133.348 182.549C131.843 182.549 130.486 181.339 130.486 179.68C130.486 178.022 131.843 176.812 133.348 176.812Z" fill="#1A403B"/>
<path d="M75.1762 244.594C76.682 244.594 78.0387 245.804 78.0387 247.462C78.0387 248.971 76.8311 250.33 75.1762 250.33C73.6705 250.33 72.3138 249.12 72.3138 247.462C72.3138 245.804 73.5214 244.594 75.1762 244.594Z" fill="#1A403B"/>
<path d="M61.0578 197.459C63.1599 197.459 64.8147 200.477 64.8147 204.092C64.8147 207.708 63.1599 210.725 61.0578 210.725C58.9557 210.725 57.3009 207.708 57.3009 204.092C57.3009 200.477 58.9557 197.459 61.0578 197.459Z" fill="#1A403B"/>
<path d="M61.0578 223.814C63.1599 223.814 64.8147 226.832 64.8147 230.447C64.8147 234.062 63.1599 237.08 61.0578 237.08C58.9557 237.08 57.3009 234.062 57.3009 230.447C57.3009 226.832 58.9557 223.814 61.0578 223.814Z" fill="#1A403B"/>
<path d="M61.0578 184.341C63.1599 184.341 64.8147 187.359 64.8147 190.974C64.8147 194.59 63.1599 197.608 61.0578 197.608C58.9557 197.608 57.3009 194.59 57.3009 190.974C57.3009 187.359 58.9557 184.341 61.0578 184.341Z" fill="#1D6656"/>
<path d="M61.0578 210.711C63.1599 210.711 64.8147 213.729 64.8147 217.344C64.8147 220.96 63.1599 223.977 61.0578 223.977C58.9557 223.977 57.3009 220.96 57.3009 217.344C57.3009 213.729 58.9557 210.711 61.0578 210.711Z" fill="#1D6656"/>
<path d="M61.0578 237.064C63.1599 237.064 64.8147 240.082 64.8147 243.698C64.8147 247.313 63.1599 250.331 61.0578 250.331C58.9557 250.331 57.3009 247.313 57.3009 243.698C57.3009 240.082 58.9557 237.064 61.0578 237.064Z" fill="#1D6656"/>
<path d="M133.945 206.334C133.945 206.633 133.795 206.932 133.795 207.231C133.795 206.782 133.945 206.633 133.945 206.334C130.635 197.893 123.419 190.827 114.102 187.809C113.903 188.815 113.903 188.815 114.102 187.809C95.4661 181.788 76.0704 193.83 72.9098 212.967C69.7493 231.791 83.5842 248.972 102.22 250.316H101.921C120.855 251.526 136.196 236.452 136.196 218.226C136.196 214.013 135.45 209.95 133.945 206.334ZM76.3835 233.898C76.5326 233.898 76.6816 233.748 76.8307 233.748C76.6816 233.748 76.5326 233.748 76.3835 233.898ZM77.1289 235.108C77.278 235.257 77.4271 235.556 77.4271 235.705C77.4271 235.407 77.278 235.257 77.1289 235.108ZM77.7252 236.004C77.8743 236.154 78.0234 236.303 78.0234 236.452C77.8743 236.303 77.8743 236.154 77.7252 236.004Z" fill="#1F8D71"/>
<path d="M113.968 187.659C113.371 190.976 112.462 194.442 111.269 197.743C105.708 193.829 99.4021 190.662 92.7828 188.257C99.7003 185.702 107.214 185.538 113.983 187.659H113.968Z" fill="#23B890"/>
<path d="M107.796 205.437C106.439 207.843 104.933 210.263 103.129 212.668C100.878 211.458 98.4629 210.263 95.9136 209.202C88.9961 206.334 82.2426 204.377 75.7724 203.48C77.4272 200.313 79.6784 197.46 82.2426 194.89C90.964 196.847 99.8345 200.462 107.796 205.437Z" fill="#23B890"/>
<path d="M133.945 206.334C131.544 224.411 118.917 241.128 103.129 250.167C98.6269 250.017 94.1096 248.957 90.0546 246.85C97.1211 243.832 103.889 239.321 110.047 233.15C120.87 222.304 127.027 208.754 127.788 196.399C130.486 199.417 132.603 202.883 133.945 206.334Z" fill="#23B890"/>
<path d="M135.6 245.042C135.898 245.341 136.196 245.789 136.196 246.401C136.196 246.85 136.047 247.447 135.6 247.761C135.301 248.06 134.854 248.358 134.243 248.358C133.184 248.358 132.29 247.447 132.29 246.401C132.29 245.953 132.439 245.341 132.886 245.042C133.184 244.743 133.632 244.444 134.243 244.444C134.839 244.594 135.301 244.743 135.6 245.042Z" fill="#1D6656"/>
<path d="M134.407 189.916C134.407 190.977 133.497 191.873 132.454 191.873C131.41 191.873 130.501 190.977 130.501 189.916C130.501 188.856 131.395 187.959 132.454 187.959C133.512 188.109 134.407 188.871 134.407 189.916Z" fill="#1D6656"/>
<path d="M124.329 169.731C124.627 170.03 124.925 170.478 124.925 171.091C124.925 171.703 124.776 172.151 124.329 172.45C124.031 172.749 123.583 173.048 122.972 173.048C121.914 173.048 121.019 172.151 121.019 171.091C121.019 170.642 121.168 170.03 121.616 169.731C121.914 169.432 122.361 169.134 122.972 169.134C123.569 169.283 124.031 169.432 124.329 169.731Z" fill="#1D6656"/>
<path d="M84.9561 182.997C85.2542 183.296 85.5524 183.744 85.5524 184.356C85.5524 184.805 85.4033 185.417 84.9561 185.716C84.6579 186.015 84.2107 186.314 83.5994 186.314C82.5409 186.314 81.6464 185.402 81.6464 184.356C81.6464 183.908 81.7955 183.296 82.2428 182.997C82.5409 182.698 82.9882 182.399 83.5994 182.399C84.0467 182.399 84.6579 182.698 84.9561 182.997Z" fill="#1D6656"/>
<path d="M64.2035 173.497C64.5017 173.796 64.7998 174.244 64.7998 174.857C64.7998 175.305 64.6508 175.917 64.2035 176.216C63.7563 176.515 63.4581 176.814 62.8468 176.814C61.7884 176.814 60.8939 175.902 60.8939 174.857C60.8939 174.408 61.0429 173.796 61.4902 173.497C61.7884 173.198 62.2356 172.9 62.8468 172.9C63.4581 172.9 63.9053 173.198 64.2035 173.497Z" fill="#1D6656"/>
<path d="M72.3286 189.915C72.0304 189.915 71.8813 189.915 71.5832 189.766L54.6026 182.236C53.7081 181.788 53.2459 180.728 53.7081 179.831C54.1553 178.92 55.2138 178.472 56.1083 178.92L73.0889 186.449C73.9834 186.898 74.4456 187.958 73.9834 189.004C73.6852 189.452 73.0889 189.915 72.3286 189.915Z" fill="#1F8D71"/>
<path d="M97.2702 219.451C95.1681 221.707 92.4548 224.127 89.4582 226.233C83.5992 224.276 77.8893 223.066 72.4776 222.469C72.0304 219.152 72.0304 215.835 72.6267 212.683C81.0499 213.744 89.6073 216.149 97.2702 219.466V219.451Z" fill="#23B890"/>
<path d="M121.019 190.976C119.961 203.032 113.953 216.134 103.427 226.666C96.9572 233.135 89.4434 237.961 81.7805 240.979C79.6784 238.872 77.8745 236.467 76.3688 233.897C78.3218 232.986 80.2748 232.09 81.3333 231.492C84.3447 229.983 87.1922 228.026 89.4434 226.368C94.4079 222.603 99.2084 217.927 103.114 212.668C108.526 205.288 112.432 196.698 113.938 187.809C116.338 188.406 118.902 189.616 121.004 190.976H121.019Z" fill="#23B890"/>
<path d="M275.766 207.592C275.41 207.592 275.054 207.473 274.687 207.116L273.014 205.44C272.421 204.845 272.421 203.883 273.014 203.288C273.607 202.694 274.568 202.694 275.173 203.288L276.964 205.083C277.558 205.678 277.558 206.641 276.964 207.235C276.609 207.473 276.122 207.592 275.766 207.592Z" fill="#4CDBB2"/>
<path d="M273.37 212.157C273.014 212.157 272.658 212.038 272.29 211.681L269.419 208.805C268.826 208.21 268.826 207.247 269.419 206.653C270.013 206.058 270.974 206.058 271.567 206.653L274.438 209.53C275.031 210.124 275.031 211.087 274.438 211.681C274.2 211.919 273.726 212.157 273.358 212.157H273.37Z" fill="#4CDBB2"/>
<path d="M277.439 213.833C277.795 213.833 278.151 213.952 278.519 214.309L280.31 216.104C280.903 216.698 280.903 217.661 280.31 218.256C279.717 218.85 278.756 218.85 278.163 218.256L276.371 216.461C275.778 215.866 275.778 214.903 276.371 214.309C276.727 214.071 277.095 213.833 277.451 213.833H277.439Z" fill="#4CDBB2"/>
<path d="M279.835 209.399C280.191 209.399 280.547 209.518 280.915 209.875L283.786 212.752C284.379 213.346 284.379 214.309 283.786 214.903C283.193 215.498 282.232 215.498 281.639 214.903L278.768 212.026C278.174 211.432 278.174 210.469 278.768 209.875C279.005 209.518 279.479 209.399 279.847 209.399H279.835Z" fill="#4CDBB2"/>
<path d="M262.61 238.525L260.937 236.849C259.739 235.648 259.739 233.616 260.937 232.415C261.293 232.177 261.412 231.82 261.649 231.452C261.768 231.095 261.886 230.727 261.886 230.251L261.293 230.846L242.988 249.189L238.444 244.636L258.778 224.26L259.49 223.546L257.817 218.993C256.737 215.878 252.668 215.034 250.521 217.555L250.402 217.673L247.769 223.427C246.452 225.222 244.779 226.661 242.869 227.862C242.751 227.862 242.751 227.981 242.632 227.981C242.513 227.981 242.513 228.099 242.395 228.099C242.276 228.099 242.276 228.218 242.157 228.218L232.702 233.616C226 237.455 225.762 237.455 224.813 238.288C224.813 238.288 224.339 238.644 224.102 238.882C223.508 239.476 222.785 240.202 222.429 240.796C221.349 242.234 220.756 244.03 220.519 245.706C220.519 245.706 220.4 246.419 220.4 247.144C220.4 248.821 220.756 250.378 221.361 251.697C221.836 252.898 222.678 253.98 223.639 254.931L229.262 260.566C232.489 263.8 232.608 263.919 233.331 264.644C235.478 266.439 238.112 267.164 240.746 267.164C241.22 267.164 242.181 267.045 242.774 266.926C245.645 266.332 248.279 264.525 249.952 261.648L254.97 248.702C256.524 246.062 260.119 245.468 262.74 244.03C263.464 243.316 263.82 242.234 263.82 241.272C263.82 240.309 263.345 239.239 262.622 238.513L262.61 238.525Z" fill="#23B28C"/>
<path d="M242.632 227.97C242.751 228.446 242.751 228.933 242.751 229.409C242.751 232.761 240.117 235.4 236.772 235.4C235.217 235.4 233.663 234.806 232.584 233.724L242.027 228.327C242.146 228.327 242.146 228.208 242.264 228.208C242.383 228.089 242.502 228.089 242.62 227.97H242.632Z" fill="#4CDBB2"/>
<path d="M224.813 238.406C226.723 239.726 227.921 241.997 227.921 244.398C227.921 248.238 225.051 251.353 221.468 251.828C220.875 250.509 220.507 248.951 220.507 247.275C220.507 246.562 220.626 245.837 220.626 245.837C220.863 244.16 221.468 242.484 222.536 240.927C223.01 240.332 223.615 239.607 224.208 239.013C224.327 238.775 224.683 238.418 224.801 238.418L224.813 238.406Z" fill="#4CDBB2"/>
<path d="M242.632 266.926C242.039 267.045 241.197 267.164 240.722 267.164C238.088 267.283 235.455 266.451 233.307 264.644C232.584 264.049 232.465 263.8 229.238 260.566C230.555 259.722 232.109 259.247 233.901 259.247C238.326 259.365 241.92 262.599 242.632 266.914V266.926Z" fill="#4CDBB2"/>
<path d="M224.101 221.977C225.3 221.977 226.379 222.94 226.379 224.26C226.379 225.461 225.418 226.542 224.101 226.542C222.903 226.542 221.824 225.579 221.824 224.26C221.824 222.94 222.903 221.977 224.101 221.977Z" fill="#1A403B"/>
<path d="M280.191 230.965C281.864 230.965 283.181 232.285 283.181 233.961C283.181 235.637 281.864 236.957 280.191 236.957C278.519 236.957 277.202 235.637 277.202 233.961C277.202 232.285 278.519 230.965 280.191 230.965Z" fill="#1A403B"/>
<path d="M265.955 257.939C267.153 257.939 268.233 258.902 268.233 260.221C268.233 261.422 267.272 262.504 265.955 262.504C264.757 262.504 263.678 261.541 263.678 260.221C263.678 258.902 264.757 257.939 265.955 257.939Z" fill="#1A403B"/>
<path d="M286.17 208.08L273.975 218.03L269.431 213.465L279.361 201.244L286.17 208.08Z" fill="#23B890"/>
<path d="M273.975 218.03L261.767 230.251L261.174 230.845L243 249.189L238.326 244.517L258.659 224.259L259.383 223.534L269.431 213.465L273.975 218.03Z" fill="#4CDBB2"/>
<path d="M278.281 264.288C278.519 264.526 278.756 264.882 278.756 265.37C278.756 265.726 278.637 266.214 278.281 266.451C278.044 266.689 277.688 266.927 277.202 266.927C276.36 266.927 275.648 266.214 275.648 265.37C275.648 265.013 275.766 264.526 276.122 264.288C276.359 264.05 276.715 263.812 277.202 263.812C277.558 263.931 277.914 264.05 278.281 264.288Z" fill="#1A403B"/>
<path d="M272.302 243.316C272.539 243.554 272.777 243.911 272.777 244.398C272.777 244.885 272.658 245.242 272.302 245.48C272.065 245.718 271.709 245.955 271.223 245.955C270.38 245.955 269.787 245.23 269.787 244.398C269.787 244.041 269.906 243.554 270.262 243.316C270.499 243.078 270.855 242.841 271.341 242.841C271.579 242.96 271.934 243.078 272.302 243.316Z" fill="#1A403B"/>
<path d="M255.788 202.919C256.026 203.157 256.263 203.514 256.263 204.001C256.263 204.358 256.144 204.845 255.788 205.083C255.551 205.321 255.195 205.559 254.709 205.559C253.867 205.559 253.155 204.845 253.155 204.001C253.155 203.644 253.273 203.157 253.629 202.919C253.867 202.682 254.222 202.444 254.709 202.444C255.195 202.444 255.551 202.682 255.788 202.919Z" fill="#1A403B"/>
<path d="M239.405 216.342C239.643 216.58 239.88 216.937 239.88 217.424C239.88 217.912 239.761 218.268 239.405 218.506C239.168 218.744 238.812 218.982 238.326 218.982C237.483 218.982 236.772 218.268 236.772 217.424C236.772 217.068 236.89 216.58 237.246 216.342C237.483 216.105 237.839 215.867 238.326 215.867C238.812 215.867 239.038 216.105 239.405 216.342Z" fill="#1A403B"/>
<path d="M224.457 261.291C224.695 261.529 224.932 261.886 224.932 262.373C224.932 262.73 224.813 263.217 224.457 263.455C224.101 263.693 223.864 263.931 223.378 263.931C222.535 263.931 221.824 263.217 221.824 262.373C221.824 262.017 221.942 261.529 222.298 261.291C222.535 261.054 222.891 260.816 223.378 260.816C223.734 260.935 224.101 261.054 224.457 261.291Z" fill="#1A403B"/>
<path d="M246.464 254.099C246.108 254.099 245.74 253.98 245.384 253.624L233.901 242.116C233.308 241.522 233.308 240.559 233.901 239.964C234.494 239.37 235.455 239.37 236.048 239.964L247.532 251.472C248.125 252.066 248.125 253.029 247.532 253.636C247.176 253.992 246.82 254.111 246.452 254.111L246.464 254.099Z" fill="#4CDBB2"/>
<path d="M240.01 254.705C239.654 254.705 239.287 254.586 238.931 254.23L233.308 248.595C232.714 248 232.714 247.037 233.308 246.443C233.901 245.849 234.862 245.849 235.455 246.443L241.078 252.078C241.671 252.672 241.671 253.635 241.078 254.23C240.841 254.468 240.485 254.705 239.998 254.705H240.01Z" fill="#4CDBB2"/>
<path d="M230.072 129.742C227.866 129.742 225.508 128.767 223.987 126.968C221.218 123.919 223.575 114.221 219.285 109.524C224.261 111.048 233.376 112.985 236.144 116.034C236.144 116.034 236.144 116.172 236.281 116.172C238.214 110.073 243.464 105.513 249.961 104.538C244.012 94.0166 232.827 86.9566 219.97 86.9566C200.905 86.9566 185.416 102.464 185.416 121.584C185.416 140.703 200.891 156.211 219.97 156.211C230.196 156.211 239.461 151.774 245.67 144.577L236.83 135.443L230.059 129.77L230.072 129.742Z" fill="#1A403B"/>
<path d="M263.517 155.496C264.49 156.608 264.339 158.27 263.243 159.232C262.694 159.644 262.132 159.919 261.447 159.919C260.762 159.919 260.063 159.644 259.514 159.081L236.706 135.538L243.203 129.728L263.517 155.482V155.496Z" fill="#1F8D71"/>
<path d="M238.091 122.545L243.203 129.88L236.706 135.69L230.072 129.743C234.075 129.743 237.529 126.694 238.091 122.545Z" fill="#1D6656"/>
<path d="M219.148 109.523C224.124 111.048 233.239 112.985 236.007 116.034C236.007 116.034 236.007 116.171 236.144 116.171C237.666 117.971 238.351 120.333 238.077 122.545C237.803 124.893 236.556 126.981 234.623 128.368C231.443 130.717 226.742 130.305 223.85 127.119C221.081 123.932 223.438 114.235 219.148 109.537V109.523Z" fill="#4CDBB2"/>
<path d="M233.115 101.351C233.389 101.626 233.663 102.038 233.663 102.601C233.663 103.013 233.526 103.576 233.115 103.851C232.841 104.126 232.43 104.4 231.868 104.4C230.895 104.4 230.072 103.562 230.072 102.601C230.072 102.189 230.209 101.626 230.62 101.351C230.895 101.076 231.306 100.802 231.868 100.802C232.43 100.802 232.69 101.076 233.115 101.351Z" fill="#23B890"/>
<path d="M191.241 156.197C192.626 156.197 193.873 157.309 193.873 158.834C193.873 160.221 192.763 161.471 191.241 161.471C189.857 161.471 188.61 160.358 188.61 158.834C188.61 157.447 189.857 156.197 191.241 156.197Z" fill="#1A2D2D"/>
<path d="M257.705 90.4172C259.638 90.4172 261.159 91.9418 261.159 93.8785C261.159 95.8152 259.638 97.3398 257.705 97.3398C255.772 97.3398 254.251 95.8152 254.251 93.8785C254.251 91.9418 255.909 90.4172 257.705 90.4172Z" fill="#1A2D2D"/>
<path d="M253.428 123.37C254.813 123.37 256.06 124.482 256.06 125.993C256.06 127.504 254.95 128.631 253.428 128.631C252.044 128.631 250.797 127.518 250.797 125.993C250.797 124.469 252.044 123.37 253.428 123.37Z" fill="#1A2D2D"/>
<path d="M269.523 111.896C270.389 112.979 270.302 114.65 269.125 115.594C267.948 116.538 266.376 116.374 265.425 115.184C264.56 114.101 264.647 112.43 265.835 111.477C267.022 110.524 268.658 110.813 269.523 111.896Z" fill="#1A2D2D"/>
<path d="M303.586 127.829C304.535 128.046 305.216 129.005 304.98 130.041C304.743 131.077 303.806 131.674 302.763 131.435C301.814 131.218 301.133 130.259 301.371 129.214C301.61 128.168 302.637 127.611 303.586 127.829Z" fill="#1A2D2D"/>
<path d="M278.877 146.76C279.826 146.977 280.507 147.936 280.271 148.972C280.034 150.008 279.097 150.605 278.054 150.366C277.105 150.149 276.424 149.19 276.662 148.145C276.901 147.1 277.928 146.542 278.877 146.76Z" fill="#1A2D2D"/>
<path d="M221.506 140.689C223.438 140.689 224.96 142.214 224.96 144.15C224.96 146.087 223.438 147.612 221.506 147.612C219.573 147.612 218.052 146.087 218.052 144.15C218.052 142.214 219.573 140.689 221.506 140.689Z" fill="#4CDBB2"/>
<path d="M198.972 116.446C201.796 116.446 204.085 118.74 204.085 121.569C204.085 124.399 201.796 126.693 198.972 126.693C196.148 126.693 193.859 124.399 193.859 121.569C193.859 118.74 196.148 116.446 198.972 116.446Z" fill="#23B890"/>
<path d="M219.71 93.8792C222.616 93.8792 224.96 96.2416 224.96 99.1398C224.96 102.038 222.616 104.4 219.71 104.4C216.804 104.4 214.46 102.038 214.46 99.1398C214.46 96.2416 216.818 93.8792 219.71 93.8792Z" fill="#4CDBB2"/>
<path d="M248.59 115.196C248.864 115.471 249.138 115.883 249.138 116.446C249.138 117.009 249.001 117.407 248.59 117.696C248.316 117.971 247.905 118.245 247.343 118.245C246.369 118.245 245.547 117.407 245.547 116.446C245.547 116.034 245.684 115.471 246.095 115.196C246.369 114.921 246.781 114.647 247.343 114.647C247.905 114.647 248.316 114.921 248.59 115.196Z" fill="#1A2D2D"/>
<path d="M272.865 103.002C272.822 103.388 272.673 103.86 272.234 104.212C271.795 104.564 271.4 104.706 270.918 104.565C270.532 104.522 270.061 104.372 269.71 103.932C269.102 103.171 269.241 102.004 269.99 101.403C270.31 101.146 270.835 100.901 271.306 101.051C271.691 101.093 272.162 101.243 272.513 101.683C272.865 102.123 272.908 102.616 272.865 103.002Z" fill="#1A2D2D"/>
<path d="M301.548 121.467C301.693 121.698 301.816 122.024 301.728 122.41C301.64 122.796 301.484 123.047 301.157 123.18C300.926 123.326 300.601 123.449 300.216 123.361C299.549 123.208 299.116 122.505 299.266 121.845C299.331 121.563 299.513 121.198 299.838 121.075C300.069 120.929 300.394 120.806 300.779 120.894C301.164 120.982 301.403 121.235 301.548 121.467Z" fill="#1A2D2D"/>
<path d="M276.839 140.398C276.984 140.629 277.107 140.955 277.019 141.341C276.931 141.727 276.775 141.978 276.448 142.112C276.217 142.257 275.892 142.38 275.507 142.292C274.84 142.139 274.407 141.436 274.557 140.776C274.622 140.494 274.804 140.129 275.129 140.006C275.36 139.86 275.685 139.737 276.07 139.825C276.455 139.913 276.694 140.166 276.839 140.398Z" fill="#1A2D2D"/>
<path d="M246.932 87.5059C247.206 87.7806 247.48 88.1927 247.48 88.7558C247.48 89.319 247.343 89.731 246.932 90.0057C246.657 90.2805 246.246 90.5552 245.684 90.5552C244.711 90.5552 244.026 89.7173 244.026 88.7558C244.026 88.3438 244.163 87.7806 244.574 87.5059C244.848 87.2312 245.259 86.9565 245.821 86.9565C246.095 86.9565 246.507 87.2312 246.932 87.5059Z" fill="#1A2D2D"/>
<path d="M245.136 158.409C245.41 158.683 245.684 159.095 245.684 159.658C245.684 160.07 245.547 160.634 245.136 160.908C244.862 161.183 244.451 161.458 243.889 161.458C242.915 161.458 242.093 160.634 242.093 159.658C242.093 159.246 242.23 158.683 242.641 158.409C242.915 158.134 243.327 157.859 243.889 157.859C244.451 157.859 244.862 158.134 245.136 158.409Z" fill="#1A2D2D"/>
<path d="M214.035 118.673C214.31 118.948 214.584 119.36 214.584 119.923C214.584 120.486 214.447 120.884 214.035 121.173C213.761 121.448 213.35 121.722 212.788 121.722C211.815 121.722 210.993 120.884 210.993 119.923C210.993 119.511 211.13 118.948 211.541 118.673C211.815 118.398 212.226 118.124 212.788 118.124C213.35 118.124 213.761 118.398 214.035 118.673Z" fill="#23B890"/>
<path d="M214.035 148.024C214.31 148.299 214.584 148.711 214.584 149.274C214.584 149.686 214.447 150.249 214.035 150.524C213.761 150.799 213.35 151.073 212.788 151.073C211.815 151.073 210.993 150.249 210.993 149.274C210.993 148.862 211.13 148.299 211.541 148.024C211.815 147.749 212.226 147.475 212.788 147.475C213.336 147.612 213.761 147.749 214.035 148.024Z" fill="#1A403B"/>
<path d="M195.107 109.936C195.381 110.211 195.655 110.623 195.655 111.186C195.655 111.749 195.518 112.161 195.107 112.436C194.832 112.711 194.421 112.985 193.859 112.985C192.886 112.985 192.064 112.147 192.064 111.186C192.064 110.774 192.201 110.211 192.612 109.936C192.886 109.661 193.297 109.387 193.859 109.387C194.27 109.524 194.695 109.661 195.107 109.936Z" fill="#23B890"/>
<path d="M193.311 87.5059C193.585 87.7806 193.859 88.1927 193.859 88.7558C193.859 89.319 193.722 89.731 193.311 90.0057C193.037 90.2805 192.626 90.5552 192.064 90.5552C191.091 90.5552 190.268 89.7173 190.268 88.7558C190.268 88.3438 190.405 87.7806 190.817 87.5059C191.091 87.2312 191.502 86.9565 192.064 86.9565C192.626 86.9565 193.037 87.2312 193.311 87.5059Z" fill="#1A2D2D"/>
<path d="M204.221 112.984C200.356 112.984 197.313 109.935 197.313 106.062C197.313 102.188 200.356 99.1391 204.221 99.1391C208.087 99.1391 211.13 102.188 211.13 106.062C211.13 107.037 210.307 107.861 209.334 107.861C208.361 107.861 207.538 107.023 207.538 106.062C207.538 104.125 206.017 102.6 204.084 102.6C202.152 102.6 200.63 104.125 200.63 106.062C200.63 107.998 202.152 109.523 204.084 109.523C205.058 109.523 205.88 110.347 205.88 111.322C205.88 112.147 205.195 112.984 204.221 112.984Z" fill="#23B890"/>
<path d="M205.88 144.15C204.907 144.15 204.085 143.326 204.085 142.351C204.085 141.376 204.907 140.552 205.88 140.552C207.813 140.552 209.334 139.027 209.334 137.09C209.334 135.154 207.813 133.629 205.88 133.629C203.948 133.629 202.426 135.154 202.426 137.09C202.426 138.066 201.604 138.89 200.631 138.89C199.657 138.89 198.835 138.052 198.835 137.09C198.835 133.217 201.878 130.168 205.743 130.168C209.608 130.168 212.651 133.217 212.651 137.09C212.651 140.964 209.745 144.15 205.88 144.15Z" fill="#23B890"/>
<path d="M200.365 192.425C199.496 193.044 198.233 192.819 197.625 191.961L173.634 158.12C173.018 157.25 173.243 155.983 174.099 155.373C174.956 154.764 176.232 154.98 176.84 155.837L200.926 189.814C201.325 190.636 201.23 191.828 200.374 192.437L200.365 192.425Z" fill="#30273A"/>
<path d="M221.146 211.277L211.901 217.86L213.224 210.044L221.146 211.277Z" fill="#7A4D89"/>
<path d="M216.423 197.531C216.056 197.792 215.725 197.844 215.381 197.904L211.686 197.936C210.605 197.969 209.767 197.072 209.835 196.103C209.803 195.02 210.698 194.179 211.666 194.246L215.361 194.214C216.454 194.173 217.28 195.078 217.212 196.048C217.228 196.589 216.913 197.183 216.411 197.54L216.423 197.531Z" fill="#7A4D89"/>
<path d="M201.177 208.752C200.811 209.014 200.357 209.152 199.926 209.09C198.881 208.913 198.13 208.139 198.224 206.948L198.602 204.08C198.779 203.032 199.561 202.291 200.741 202.373C201.787 202.55 202.525 203.332 202.435 204.503L202.057 207.371C201.95 207.999 201.536 208.479 201.169 208.74L201.177 208.752Z" fill="#7A4D89"/>
<path d="M178.328 227.803C177.961 228.064 177.507 228.203 176.868 228.106L171.597 227.213C170.552 227.036 169.848 226.044 170.026 224.996C170.203 223.948 171.194 223.243 172.24 223.42L177.51 224.312C178.556 224.489 179.259 225.481 179.081 226.529C178.975 227.158 178.695 227.542 178.316 227.812L178.328 227.803Z" fill="#62406F"/>
<path d="M175.352 155.021C174.725 154.915 174.014 155.237 173.612 155.708C173.49 155.795 170.452 159.635 166.901 165.868C163.665 171.508 159.315 180.558 157.475 190.789C155.226 202.804 156.473 213.989 161.139 224.232C161.633 225.189 162.643 225.576 163.685 225.202L163.93 225.028C164.664 224.506 164.94 223.572 164.533 222.737C160.361 213.451 159.146 203.35 160.961 192.565C169.096 189.372 174.581 184.545 177.2 178.035C181.712 167.395 176.825 156.553 176.687 156.099C176.671 155.557 175.984 155.107 175.356 155L175.352 155.021ZM173.975 176.627C171.975 181.387 168.065 185.295 162.176 187.995C164.233 179.656 167.72 172.528 170.395 167.656C171.953 164.869 173.437 162.523 174.561 160.967C175.462 164.601 176.365 170.833 173.975 176.627Z" fill="#62406F"/>
<path d="M168.34 221.551C170.289 220.9 172.418 221.8 173.263 223.797C173.911 225.75 173.012 227.883 171.027 228.743C169.077 229.394 166.949 228.495 166.083 226.494C165.72 225.462 165.814 224.271 166.287 223.381C166.639 222.578 167.385 222.047 168.328 221.56L168.34 221.551Z" fill="#7A4D89"/>
<path d="M184.801 196.63C186.526 195.402 188.848 195.795 190.072 197.523C191.296 199.25 190.902 201.576 189.178 202.804C187.453 204.032 185.132 203.639 183.907 201.912C182.683 200.185 183.077 197.858 184.801 196.63Z" fill="#24202D"/>
<path d="M198.511 189.288C196.227 194.453 196.529 200.358 199.768 204.927C203.007 209.497 208.492 211.73 214.089 211.265C216.373 206.1 216.071 200.195 212.832 195.626C209.593 191.057 204.108 188.824 198.511 189.288Z" fill="#A476AF"/>
<path d="M208.56 174.681L208.647 174.804C209.177 175.551 209.086 176.721 208.34 177.253L208.218 177.34C207.472 177.871 206.303 177.781 205.774 177.034L205.687 176.911C205.166 176.176 205.248 174.994 205.994 174.462C206.653 173.809 207.944 173.812 208.56 174.681Z" fill="#24202D"/>
<path d="M177.977 147.762L178.063 147.885C178.593 148.632 178.503 149.802 177.756 150.334L177.634 150.421C176.888 150.952 175.72 150.862 175.19 150.115L175.104 149.992C174.583 149.257 174.664 148.075 175.411 147.543C176.07 146.89 177.238 146.98 177.977 147.762Z" fill="#24202D"/>
<path d="M204.296 194.827L204.383 194.949C204.904 195.684 204.822 196.867 204.076 197.398L203.953 197.485C203.207 198.016 202.039 197.927 201.509 197.179C200.771 196.397 200.861 195.226 201.643 194.486L201.765 194.398C202.586 193.998 203.775 194.092 204.296 194.827Z" fill="#7A4D89"/>
<path d="M191.967 226.097L192.054 226.219C192.574 226.954 192.493 228.137 191.746 228.668L191.624 228.755C190.878 229.286 189.71 229.196 189.18 228.449L189.094 228.327C188.564 227.579 188.654 226.409 189.401 225.878C190.06 225.224 191.228 225.314 191.967 226.097Z" fill="#24202D"/>
<path d="M148.155 187.576L148.242 187.698C148.771 188.445 148.681 189.616 147.935 190.147L147.812 190.234C147.079 190.757 145.898 190.675 145.369 189.928L145.282 189.806C144.761 189.071 144.843 187.888 145.589 187.357C146.236 186.712 147.416 186.793 148.155 187.576Z" fill="#24202D"/>
<path d="M151.859 222.127L151.945 222.249C152.466 222.984 152.384 224.167 151.638 224.698L151.516 224.785C150.782 225.308 149.602 225.226 149.072 224.479L148.985 224.357C148.456 223.609 148.546 222.439 149.292 221.908C149.94 221.263 151.12 221.344 151.859 222.127Z" fill="#24202D"/>
<path d="M164.73 224.85C164.118 225.285 163.356 225.275 162.756 224.947C161.868 224.473 161.531 223.22 162.104 222.443C166.779 214.654 167.578 207.394 164.488 200.672C162.205 195.607 158.643 192.945 158.434 192.909C157.572 192.214 157.331 191.095 158.026 190.232C158.721 189.368 159.838 189.126 160.699 189.822C160.786 189.944 165.122 193.179 167.804 199.067C170.349 204.5 171.912 213.248 165.354 224.406C165.145 224.37 164.987 224.667 164.742 224.841L164.73 224.85Z" fill="#62406F"/>
<path d="M163.689 223.37C164.609 223.084 165.445 223.226 166.291 223.379C165.805 224.278 165.723 225.461 166.086 226.493C166.735 228.446 168.938 229.476 171.031 228.742L174.315 237.556C175.188 240.086 174.293 242.769 172.323 244.172C171.956 244.433 171.455 244.79 171.001 244.929C168.096 246.076 164.775 244.532 163.767 241.526L159.934 230.873C159.06 228.343 159.956 225.66 161.925 224.257C162.292 223.996 162.794 223.639 163.247 223.5C163.247 223.5 163.37 223.413 163.701 223.361L163.689 223.37Z" fill="#4A3354"/>
<path d="M92.3122 142.758C93.6012 142.758 94.7626 143.794 94.7626 145.214C94.7626 146.505 93.7288 147.669 92.3122 147.669C90.8957 147.669 90.0023 146.505 90.0023 145.214C90.0023 143.922 91.036 142.758 92.3122 142.758Z" fill="#24202D"/>
<path d="M145.454 137.987C147.661 137.987 149.448 139.778 149.448 141.99C149.448 144.203 147.661 145.98 145.454 145.98C143.246 145.98 141.472 144.19 141.472 141.99C141.472 139.79 143.258 137.987 145.454 137.987Z" fill="#24202D"/>
<path d="M149.435 84.7354C151.235 84.7354 152.651 86.1549 152.651 87.9581C152.651 89.7613 151.235 91.1809 149.435 91.1809C147.636 91.1809 146.219 89.7613 146.219 87.9581C146.219 86.1549 147.636 84.7354 149.435 84.7354Z" fill="#24202D"/>
<path d="M125.379 113.741C125.379 108.459 121.001 104.073 115.731 104.073C110.46 104.073 106.082 108.459 106.082 113.741C106.082 119.023 110.46 123.409 115.731 123.409C121.001 123.409 125.379 119.151 125.379 113.741ZM144.675 113.741C144.675 129.727 131.683 142.746 115.718 142.746C99.7525 142.746 86.7607 129.855 86.7607 113.741C86.7607 97.6269 99.6248 84.723 115.718 84.723C131.811 84.723 144.675 97.742 144.675 113.741Z" fill="#30273A"/>
<path d="M153.813 96.4626C154.068 96.7184 154.323 97.102 154.323 97.6264C154.323 98.1507 154.195 98.5344 153.813 98.7902C153.557 99.0459 153.174 99.3017 152.651 99.3017C151.745 99.3017 150.979 98.5216 150.979 97.6264C150.979 97.2427 151.107 96.7184 151.49 96.4626C151.745 96.2068 152.128 95.951 152.651 95.951C153.174 95.951 153.557 96.2068 153.813 96.4626Z" fill="#24202D"/>
<path d="M153.813 131.925C154.068 132.181 154.323 132.565 154.323 133.089C154.323 133.473 154.195 133.997 153.813 134.253C153.557 134.509 153.174 134.765 152.651 134.765C151.745 134.765 150.979 133.997 150.979 133.089C150.979 132.706 151.107 132.181 151.49 131.925C151.745 131.67 152.128 131.414 152.651 131.414C153.174 131.414 153.557 131.67 153.813 131.925Z" fill="#24202D"/>
<path d="M136.188 80.3485C136.443 80.6043 136.699 80.9879 136.699 81.5123C136.699 82.0366 136.571 82.4203 136.188 82.676C135.933 82.9318 135.55 83.1876 135.027 83.1876C134.121 83.1876 133.355 82.4203 133.355 81.5123C133.355 81.1286 133.483 80.6043 133.866 80.3485C134.121 80.0927 134.504 79.8369 135.027 79.8369C135.55 79.8369 135.793 80.0927 136.188 80.3485Z" fill="#24202D"/>
<path d="M102.343 144.817C102.598 145.073 102.854 145.457 102.854 145.981C102.854 146.365 102.726 146.889 102.343 147.145C102.088 147.401 101.705 147.656 101.182 147.656C100.276 147.656 99.5101 146.889 99.5101 145.981C99.5101 145.597 99.6377 145.073 100.021 144.817C100.276 144.562 100.659 144.306 101.182 144.306C101.705 144.306 102.088 144.562 102.343 144.817Z" fill="#24202D"/>
<path d="M94.3669 78.801C94.6221 79.0568 94.8773 79.4405 94.8773 79.9648C94.8773 80.4892 94.7497 80.8728 94.3669 81.1286C93.984 81.3844 93.7288 81.6402 93.2055 81.6402C92.2994 81.6402 91.5337 80.86 91.5337 79.9648C91.5337 79.5812 91.6613 79.0568 92.0442 78.801C92.2994 78.5453 92.6823 78.2895 93.2055 78.2895C93.7288 78.2895 93.984 78.5453 94.3669 78.801Z" fill="#24202D"/>
<path d="M115.731 134.765C104.155 134.765 94.7625 125.353 94.7625 113.753C94.7625 112.845 95.5282 112.078 96.4343 112.078C97.3404 112.078 98.1061 112.845 98.1061 113.753C98.1061 123.549 106.082 131.542 115.858 131.542C125.634 131.542 133.61 123.549 133.61 113.753C133.61 103.957 125.634 95.9638 115.858 95.9638C110.843 95.9638 105.955 98.1507 102.611 102.026C101.973 102.665 101.067 102.793 100.301 102.154C99.6631 101.514 99.5354 100.606 100.174 99.8388C104.168 95.3244 109.822 92.741 115.871 92.741C127.446 92.741 136.839 102.154 136.839 113.753C136.584 125.353 127.191 134.765 115.743 134.765H115.731Z" fill="#7A4D89"/>
<path d="M151.107 115.416H115.718C114.812 115.416 114.046 114.636 114.046 113.74C114.046 112.845 114.812 112.065 115.718 112.065H151.107C152.013 112.065 152.779 112.832 152.779 113.74C152.779 114.648 152.013 115.416 151.107 115.416Z" fill="#62406F"/>
<path d="M158.828 108.97H150.852L149.18 113.74L150.852 118.639H158.828L157.284 113.74L158.828 108.97Z" fill="#4A3354"/>
<path d="M299.541 152.809L301.941 155.634L304.621 158.747L312.38 167.869L311.744 168.507L309.274 170.982L308.637 171.621L299.464 163.775L296.435 161.159L293.615 158.754C296.505 158.116 298.905 155.789 299.541 152.816V152.809Z" fill="#30273A"/>
<path d="M304.201 184.62C304.698 184.62 305.118 184.199 305.118 183.702V183.631C305.118 181.724 303.564 180.168 301.661 180.168H284.869C284.659 180.168 284.449 180.098 284.232 179.887C284.092 179.747 283.952 179.467 283.952 179.249C283.952 178.751 284.379 178.331 284.869 178.331H314.5C315.137 178.331 315.767 178.05 316.194 177.623C316.69 177.125 316.9 176.564 316.9 175.926C316.9 175.288 316.621 174.657 316.194 174.229L313.584 171.614C313.234 171.263 312.667 171.263 312.31 171.614C311.961 171.964 311.961 172.532 312.31 172.883L314.92 175.498C315.06 175.638 315.13 175.779 315.13 175.996C315.13 176.213 315.06 176.346 314.92 176.494C314.78 176.634 314.64 176.704 314.424 176.704H284.652C283.169 176.704 281.972 177.903 281.972 179.389C281.972 180.098 282.252 180.736 282.749 181.297C283.246 181.794 283.945 182.075 284.652 182.075H301.584C302.501 182.075 303.278 182.853 303.278 183.772V183.842C303.278 184.192 303.704 184.62 304.194 184.62H304.201Z" fill="#62406F"/>
<path d="M304.621 158.748L302.011 155.705C301.661 156.981 300.955 158.18 299.968 159.169C298.982 160.157 297.778 160.865 296.512 161.216L299.541 163.831C300.598 163.333 301.584 162.632 302.508 161.714C303.355 160.795 304.061 159.807 304.621 158.748Z" fill="#4A3354"/>
<path d="M286.212 145.383C283.106 148.497 283.106 153.51 286.212 156.623C289.739 160.157 295.665 159.589 298.415 155.424C300.458 152.458 300.178 148.146 297.428 145.383C294.322 142.27 289.319 142.27 286.212 145.383Z" fill="#62406F"/>
<path d="M317.39 157.191C316.404 157.191 315.627 157.969 315.627 158.958C315.627 159.946 316.404 160.725 317.39 160.725C318.377 160.725 319.153 159.946 319.153 158.958C319.153 157.969 318.377 157.191 317.39 157.191Z" fill="#62406F"/>
<path d="M292.279 170.477C291.068 170.477 290.089 171.459 290.089 172.672C290.089 173.885 291.068 174.866 292.279 174.866C293.489 174.866 294.462 173.885 294.462 172.672C294.462 171.459 293.482 170.477 292.279 170.477Z" fill="#62406F"/>
<path d="M309.281 171.046L310.547 172.315C311.254 173.023 312.38 173.023 313.017 172.315C313.724 171.607 313.724 170.478 313.017 169.84L311.744 168.571L309.274 171.046H309.281Z" fill="#4A3354"/>
<path d="M298.912 170.477V170.547C298.982 170.968 299.338 171.325 299.758 171.325H299.828C300.255 171.255 300.605 170.905 300.605 170.477V170.407C300.535 169.909 300.108 169.559 299.618 169.629C299.268 169.629 298.912 169.979 298.912 170.477Z" fill="#62406F"/>
<path d="M305.964 166.025V166.095C306.034 166.516 306.391 166.873 306.811 166.873H306.881C307.301 166.803 307.658 166.453 307.658 166.025V165.955C307.588 165.457 307.161 165.107 306.671 165.177C306.321 165.177 305.964 165.604 305.964 166.025Z" fill="#4A3354"/>
<path d="M310.337 153.658V153.728C310.407 154.149 310.764 154.506 311.184 154.506H311.254C311.674 154.436 312.031 154.078 312.031 153.658V153.588C311.961 153.09 311.534 152.739 311.044 152.809C310.694 152.809 310.337 153.23 310.337 153.658Z" fill="#62406F"/>
<path d="M313.017 180.946V181.017C313.087 181.444 313.437 181.795 313.864 181.795H313.934C314.354 181.725 314.71 181.367 314.71 180.946V180.876C314.64 180.379 314.214 180.028 313.724 180.098C313.304 180.168 313.017 180.526 313.017 180.946Z" fill="#62406F"/>
<path d="M318.307 168.711V168.781C318.377 169.208 318.727 169.559 319.153 169.559H319.223C319.643 169.489 320 169.138 320 168.711V168.64C319.93 168.143 319.503 167.792 319.013 167.862C318.664 167.862 318.307 168.213 318.307 168.711Z" fill="#62406F"/>
<path d="M288.752 148.777C288.962 148.777 289.172 148.707 289.389 148.496C290.802 147.15 292.985 147.15 294.399 148.496C294.748 148.847 295.315 148.847 295.665 148.496C296.015 148.146 296.015 147.578 295.665 147.227C293.622 145.18 290.235 145.18 288.185 147.227C287.836 147.578 287.836 148.146 288.185 148.496C288.255 148.707 288.465 148.777 288.752 148.777Z" fill="#7A4D89"/>
<path d="M306.671 146.232C306.811 146.022 306.951 145.951 306.951 145.951C307.091 145.881 307.161 145.811 307.301 145.741L308.077 145.243C307.798 145.033 307.511 144.823 307.301 144.395C307.021 143.974 307.161 143.406 307.581 143.196C308 142.915 308.567 143.056 308.777 143.476C309.204 144.114 310.4 143.687 310.47 143.687C311.177 143.406 311.884 144.107 311.597 144.816C311.597 144.886 311.527 145.026 311.457 145.096C311.317 145.306 311.247 145.236 309.694 146.295C310.33 147.213 310.12 148.412 309.197 149.051C308.35 149.618 307.154 149.331 306.587 148.483C306.09 147.774 306.16 146.856 306.657 146.218L306.671 146.232Z" fill="#30273A"/>
<path d="M287.129 165.604C286.919 165.674 286.702 165.534 286.702 165.534C286.562 165.534 286.422 165.464 286.282 165.394L285.436 165.113C285.506 165.464 285.436 165.822 285.296 166.242C285.156 166.67 284.589 166.95 284.169 166.74C283.742 166.53 283.463 166.032 283.672 165.611C283.952 164.903 282.826 164.125 282.826 164.125C282.189 163.774 282.259 162.779 282.966 162.568C283.036 162.498 283.176 162.498 283.316 162.498C283.526 162.498 283.526 162.568 285.289 163.136C285.569 162.077 286.702 161.509 287.759 161.86C288.745 162.211 289.242 163.276 288.955 164.265C288.675 165.113 287.899 165.611 287.122 165.611L287.129 165.604Z" fill="#4A3354"/>
<path d="M64.8744 126.072L62.1166 131.599H20.7383L17.9805 126.072H64.8744Z" fill="#1F8D71"/>
<path d="M32.7655 126.071L26.254 103.951H57.9252L51.4137 126.071L51.0854 127.398H33.0939L32.7655 126.071Z" fill="#1A403B"/>
<path d="M42.801 99.753C42.024 99.753 41.3674 99.095 41.3674 98.3164V90.0256C41.3674 89.2469 42.024 88.5889 42.801 88.5889C43.578 88.5889 44.2346 89.2579 44.2346 90.0256V98.3164C44.1252 99.095 43.5671 99.753 42.801 99.753Z" fill="#1A2D2D"/>
<path d="M45.5588 68.0255C47.1019 68.0255 48.3166 69.2428 48.3166 70.7891C48.3166 72.3354 47.1019 73.5527 45.5588 73.5527C44.0157 73.5527 42.801 72.3354 42.801 70.7891C42.801 69.2428 44.0157 68.0255 45.5588 68.0255Z" fill="#1A2D2D"/>
<path d="M59.906 99.2029C60.4532 99.7512 60.683 100.42 60.683 101.188C60.683 102.734 59.4682 103.951 57.9252 103.951H26.254C25.477 103.951 24.8204 103.622 24.2732 103.173C23.726 102.624 23.4962 101.955 23.4962 101.188C23.4962 99.6415 24.7109 98.4242 26.254 98.4242H58.0346C58.7022 98.4242 59.3588 98.6436 59.906 99.2029Z" fill="#1D6656"/>
<path d="M42.8008 90.1343C42.5819 88.6977 42.5819 87.2611 42.8008 85.9341C43.1291 83.6092 44.2345 81.4049 45.887 79.6283C48.6448 76.755 52.6174 75.6473 56.5899 76.1957C57.2575 80.1766 56.2616 84.1575 53.6132 87.0308C50.8554 89.904 46.8828 91.0117 42.9103 90.4634C42.8008 90.3537 42.8008 90.244 42.8008 90.1343Z" fill="#23B890"/>
<path d="M42.6915 90.4627C38.7189 91.011 34.7463 89.9144 31.9885 87.0301C29.2307 84.1568 28.2348 80.1759 29.0118 76.195C32.9844 75.6467 36.957 76.7434 39.7148 79.6276C41.3673 81.3932 42.4726 83.6085 42.8009 85.9334C42.582 87.2604 42.582 88.697 42.8009 90.1337C42.8009 90.2433 42.6915 90.353 42.6915 90.4627Z" fill="#1F8D71"/>
<path d="M11.0313 92.8972H19.3047V106.715C19.3047 111.244 15.551 115.006 11.0313 115.006C6.51151 115.006 2.75781 111.244 2.75781 106.715V92.8972H11.0313Z" fill="#1F8D71"/>
<path d="M60.6831 90.135C61.4601 90.135 62.1167 90.793 62.1167 91.5716C62.1167 91.9006 62.0073 92.3503 61.679 92.5696C61.4601 92.7889 61.1318 93.0083 60.6831 93.0083C60.2344 93.0083 59.9061 92.8986 59.6872 92.5696C59.4683 92.2406 59.2495 92.0213 59.2495 91.5716C59.2495 91.122 59.3589 90.793 59.6872 90.5737C60.0155 90.2447 60.3548 90.135 60.6831 90.135Z" fill="#1A2D2D"/>
<path d="M59.3589 116.343C60.1359 116.343 60.7925 117.001 60.7925 117.78C60.7925 118.109 60.6831 118.559 60.3547 118.778C60.1359 118.997 59.8076 119.217 59.3589 119.217C58.9102 119.217 58.5818 119.107 58.363 118.778C58.1441 118.559 57.9252 118.23 57.9252 117.78C57.9252 117.451 58.0347 117.001 58.363 116.782C58.6913 116.563 58.9102 116.343 59.3589 116.343Z" fill="#1A2D2D"/>
<path d="M56.601 68.0255C57.3781 68.0255 58.0347 68.6835 58.0347 69.4621C58.0347 69.7911 57.9252 70.2408 57.5969 70.4601C57.2686 70.6795 57.0497 70.8988 56.601 70.8988C56.1524 70.8988 55.824 70.7891 55.6052 70.4601C55.3863 70.2408 55.1674 69.9118 55.1674 69.4621C55.1674 69.0125 55.2769 68.6835 55.6052 68.4642C55.824 68.1352 56.1524 68.0255 56.601 68.0255Z" fill="#1A2D2D"/>
<path d="M22.0625 116.343C22.8395 116.343 23.4961 117.001 23.4961 117.78C23.4961 118.109 23.3867 118.559 23.0584 118.778C22.8395 118.997 22.5112 119.217 22.0625 119.217C21.6138 119.217 21.2855 119.107 21.0666 118.778C20.8477 118.559 20.6288 118.23 20.6288 117.78C20.6288 117.451 20.7383 117.001 21.0666 116.782C21.3949 116.563 21.7232 116.343 22.0625 116.343Z" fill="#1A2D2D"/>
<path d="M20.7384 80.4066C21.5154 80.4066 22.172 81.0646 22.172 81.8432C22.172 82.1722 22.0626 82.6218 21.7343 82.8412C21.4059 83.0605 21.0776 83.1701 20.7384 83.1701C20.3991 83.1701 19.9614 83.0605 19.7425 82.7315C19.5236 82.4025 19.3047 82.1831 19.3047 81.7335C19.3047 81.2839 19.4142 80.9549 19.7425 80.7356C20.0708 80.5162 20.2897 80.4066 20.7384 80.4066Z" fill="#1A2D2D"/>
<path d="M1.43363 84.6066C2.21063 84.6066 2.86725 85.2756 2.86725 86.0433C2.86725 86.3723 2.75782 86.8219 2.42951 87.0412C2.21064 87.2606 1.88232 87.4799 1.43363 87.4799C0.984934 87.4799 0.656634 87.3702 0.43776 87.0412C0.218885 86.8219 0 86.4929 0 86.0433C0 85.7143 0.109447 85.2646 0.43776 85.0453C0.656634 84.7163 0.984934 84.6066 1.43363 84.6066Z" fill="#1A2D2D"/>
<path d="M43.2499 119.108C43.2499 118.33 42.5932 117.672 41.8162 117.672H30.3362L31.1133 120.435H41.9257C42.7027 120.545 43.2499 119.887 43.2499 119.108Z" fill="#1F8D71"/>
<path d="M36.4099 112.243C36.4099 111.465 35.7533 110.807 34.9763 110.807H28.2459L29.0229 113.57H34.9763C35.7533 113.57 36.4099 112.912 36.4099 112.243Z" fill="#1F8D71"/>
<path d="M11.0313 101.188C10.2543 101.188 9.59766 100.53 9.59766 99.7517V85.9337C9.59766 85.1551 10.2652 84.4971 11.0313 84.4971C11.7973 84.4971 12.4649 85.1551 12.4649 85.9337V99.7517C12.4649 100.53 11.7973 101.188 11.0313 101.188Z" fill="#23B890"/>
<path d="M13.7892 76.3147V85.9325H11.0314H8.27356V76.3147H13.7892Z" fill="#1A2D2D"/>
<path d="M244.451 67.1591C245.567 67.1591 246.561 68.0554 246.561 69.2836C246.561 70.4013 245.666 71.4082 244.451 71.4082C243.336 71.4082 242.331 70.5119 242.331 69.2836C242.331 68.166 243.336 67.1591 244.451 67.1591Z" fill="#62406F"/>
<path d="M293.888 28.1082C295.445 28.1082 296.671 29.3365 296.671 30.8967C296.671 32.457 295.445 33.6853 293.888 33.6853C292.331 33.6853 291.106 32.457 291.106 30.8967C291.106 29.4471 292.331 28.1082 293.888 28.1082Z" fill="#62406F"/>
<path d="M271.836 19.4114C270.39 18.7475 268.943 18.1831 267.386 17.8512C264.272 17.0655 261.037 17.0655 258.033 17.6298C249.685 19.1901 242.563 25.4421 240.443 34.2503C239.891 36.7069 239.659 39.0528 239.891 41.4983C240.332 46.179 242.121 50.5389 245.125 54.102C248.018 57.5655 252.026 60.1217 256.819 61.3499C258.265 61.6819 259.601 61.9032 261.048 61.9032C263.72 57.8864 267.055 54.434 271.295 51.8667C271.847 51.5348 272.411 51.2028 272.963 50.9704C276.077 49.2995 279.423 48.1819 282.978 47.7393C283.089 47.518 283.089 47.4073 283.199 47.186C283.42 46.5221 283.641 45.7364 283.862 44.9508C286.313 34.4606 281.079 23.9815 271.836 19.4003V19.4114Z" fill="#30273A"/>
<path d="M271.837 19.4124C281.079 23.8718 286.313 34.4726 283.751 44.8521C283.53 45.6378 283.31 46.3017 283.078 47.0873C277.623 33.0341 264.261 28.121 264.261 28.121C267.154 22.7652 271.837 19.6447 271.837 19.6447V19.4234V19.4124Z" fill="#4A3354"/>
<path d="M272.841 50.8706C272.289 51.2025 271.726 51.5456 271.174 51.8775C266.945 54.4447 263.599 57.8972 260.927 61.914C259.591 61.8033 258.144 61.6927 256.697 61.3607C252.026 60.2431 248.018 57.5652 245.003 54.1128C259.811 56.348 270.832 47.1968 270.832 47.1968H270.942C271.837 48.3144 272.389 49.6534 272.83 50.8816L272.841 50.8706Z" fill="#7A4D89"/>
<path d="M271.063 47.0751C270.953 47.0751 260.043 56.337 245.235 53.9911C242.232 50.5276 240.332 46.0682 240.001 41.3874H240.332C240.332 41.3874 245.003 43.5009 251.242 43.3903C254.809 43.2796 258.707 42.3833 262.263 39.4841C266.381 41.155 269.164 44.0542 271.052 47.0751H271.063Z" fill="#4A3354"/>
<path d="M302.347 49.6424C302.015 52.2096 301.452 54.6661 300.679 56.8903L295.776 47.7391C297.897 48.2924 300.116 48.8567 302.347 49.6313V49.6424Z" fill="#62406F"/>
<path d="M300.679 57.0114C299.895 59.468 298.902 61.8139 297.786 63.9274L287.539 47.7496V47.1963C290.211 47.0856 292.994 47.4176 295.777 47.8713L300.679 57.0225V57.0114Z" fill="#7A4D89"/>
<path d="M260.927 61.8034C263.599 57.7865 266.934 54.3341 271.174 51.7669C271.726 51.4349 272.289 51.1029 272.841 50.8706C275.955 49.1997 279.301 48.082 282.857 47.6394C284.414 47.4181 285.971 47.3074 287.528 47.1968L297.775 63.9279C294.993 69.0624 291.095 73.3005 286.081 76.421C281.068 79.4308 275.392 80.991 269.496 81.1128L259.48 64.3816C260.032 63.4853 260.485 62.6001 260.927 61.8144V61.8034Z" fill="#A476AF"/>
<path d="M296.218 39.7159C296.439 39.9372 296.66 40.2692 296.66 40.7228C296.66 41.0548 296.55 41.5085 296.218 41.7298C295.997 41.9511 295.666 42.1724 295.213 42.1724C294.429 42.1724 293.767 41.5085 293.767 40.7228C293.767 40.3909 293.877 39.9372 294.209 39.7159C294.429 39.4946 294.761 39.2733 295.213 39.2733C295.666 39.2733 295.997 39.4946 296.218 39.7159Z" fill="#62406F"/>
<path d="M296.218 75.9785C296.439 76.1998 296.66 76.5318 296.66 76.9855C296.66 77.3174 296.55 77.7711 296.218 77.9924C295.997 78.2138 295.666 78.4351 295.213 78.4351C294.429 78.4351 293.767 77.7601 293.767 76.9855C293.767 76.6535 293.877 76.1998 294.209 75.9785C294.429 75.7572 294.761 75.5359 295.213 75.5359C295.666 75.5359 295.997 75.7572 296.218 75.9785Z" fill="#62406F"/>
<path d="M287.87 22.9855C288.091 23.2068 288.312 23.5387 288.312 23.9924C288.312 24.3244 288.201 24.7781 287.87 24.9994C287.649 25.2207 287.318 25.442 286.865 25.442C286.081 25.442 285.419 24.7781 285.419 23.9924C285.419 23.6605 285.529 23.2068 285.86 22.9855C286.081 22.7642 286.413 22.5428 286.865 22.5428C287.318 22.5428 287.649 22.7642 287.87 22.9855Z" fill="#62406F"/>
<path d="M271.837 19.4115L271.726 19.5221C271.726 19.5221 267.055 22.6426 264.151 27.9984C262.484 31.2295 261.368 35.025 262.152 39.4844C258.707 42.273 254.809 43.2799 251.132 43.3906C251.132 43.3906 248.681 29.3373 258.034 17.6189C261.037 17.0656 264.151 17.0656 267.387 17.8402C268.944 18.1721 270.501 18.7365 271.837 19.4004V19.4115Z" fill="#7A4D89"/>
<path d="M269.507 80.9912C266.724 80.9912 263.941 80.7699 261.159 80.2055L256.377 71.9506C257.161 69.2727 258.265 66.5949 259.491 64.249L269.507 80.9801V80.9912Z" fill="#7A4D89"/>
<path d="M261.269 80.2168C259.149 79.7742 257.15 79.2099 255.03 78.5459C255.361 76.3107 255.814 74.0865 256.477 72.0726L261.258 80.2168H261.269Z" fill="#62406F"/>
<path d="M244.783 59.2372C245.004 59.4585 245.224 59.7905 245.224 60.2441C245.224 60.5761 245.114 61.0298 244.783 61.2511C244.562 61.4724 244.231 61.6937 243.778 61.6937C243.005 61.6937 242.331 61.0187 242.331 60.2441C242.331 59.9122 242.442 59.4585 242.773 59.2372C242.994 59.0159 243.325 58.7946 243.778 58.7946C244.109 58.7946 244.562 59.0159 244.783 59.2372Z" fill="#62406F"/>
<path d="M240.553 20.1972C240.774 20.4185 240.995 20.7505 240.995 21.2042C240.995 21.5361 240.885 21.9898 240.553 22.2111C240.332 22.4324 240.001 22.6538 239.548 22.6538C238.764 22.6538 238.102 21.9898 238.102 21.2042C238.102 20.8722 238.212 20.4185 238.544 20.1972C238.764 19.9759 239.096 19.7546 239.548 19.7546C240.001 19.7546 240.332 19.9759 240.553 20.1972Z" fill="#62406F"/>
<path d="M268.944 64.8137C268.612 64.8137 268.391 64.703 268.159 64.5923C267.497 64.1497 267.375 63.2534 267.828 62.7001C267.828 62.7001 268.612 61.5825 270.28 60.1329C271.505 59.0153 272.952 58.0083 274.509 57.1231C275.955 56.2268 277.512 55.5628 279.18 54.8878C280.185 54.5559 281.178 54.1022 282.294 53.8809C283.078 53.6596 283.851 54.1022 284.072 54.7772C284.292 55.4411 283.851 56.3374 283.177 56.5587C282.172 56.8907 281.289 57.2337 280.284 57.5657C278.837 58.119 277.391 58.794 276.055 59.5686C274.608 60.3542 273.382 61.2395 272.267 62.2464C270.931 63.4747 270.269 64.2493 270.269 64.2493C269.827 64.5813 269.374 64.8026 268.932 64.8026L268.944 64.8137Z" fill="#DFD7D9"/>
<path d="M273.515 66.3846C273.073 66.3846 272.621 66.1633 272.289 65.7096L268.502 59.4575C268.06 58.7825 268.281 57.8973 268.943 57.5653C269.606 57.2333 270.5 57.344 270.832 58.0079L274.619 64.26C275.061 64.935 274.84 65.8202 274.178 66.1522C273.957 66.2629 273.736 66.3735 273.515 66.3735V66.3846Z" fill="#7A4D89"/>
<path d="M277.634 63.8178C277.192 63.8178 276.739 63.5965 276.408 63.1539L272.621 56.9018C272.179 56.2379 272.4 55.3416 273.062 55.0096C273.725 54.567 274.619 54.7883 274.951 55.4523L278.738 61.7043C279.18 62.3683 278.959 63.2646 278.296 63.5965C278.186 63.7072 277.965 63.8178 277.634 63.8178Z" fill="#7A4D89"/>
<path d="M281.863 61.2502C281.421 61.2502 280.968 61.0289 280.637 60.5752L276.85 54.3232C276.408 53.6482 276.629 52.7629 277.291 52.431C277.954 51.9883 278.848 52.2096 279.18 52.8736L282.967 59.1256C283.409 59.7896 283.188 60.6859 282.525 61.0178C282.305 61.2391 282.084 61.2392 281.863 61.2392V61.2502Z" fill="#7A4D89"/>
<path d="M152.764 24.2815C151.964 24.2815 151.287 23.6035 151.287 22.8012V12.7784C151.287 11.9761 151.964 11.2981 152.764 11.2981C153.565 11.2981 154.241 11.9761 154.241 12.7784V22.8012C154.241 23.6035 153.565 24.2815 152.764 24.2815Z" fill="#1D6656"/>
<path d="M171.291 24.2815C170.502 24.2815 169.814 23.6035 169.814 22.8012V12.7784C169.814 11.9761 170.502 11.2981 171.291 11.2981C172.08 11.2981 172.768 11.9761 172.768 12.7784V22.8012C172.655 23.6035 171.967 24.2815 171.291 24.2815Z" fill="#1D6656"/>
<path d="M166.972 12.0895H156.97C156.17 12.0895 155.493 11.4115 155.493 10.6092C155.493 9.80689 156.17 9.12891 156.97 9.12891H166.972C167.773 9.12891 168.449 9.80689 168.449 10.6092C168.449 11.4115 167.773 12.0895 166.972 12.0895Z" fill="#1D6656"/>
<path d="M198.241 47.0618C197.44 47.0618 196.763 46.3838 196.763 45.5815V31.9088C196.763 29.1743 196.2 26.5528 195.174 24.0442C194.61 22.677 193.809 21.4227 193.02 20.1684C192.332 19.1402 191.543 18.2362 190.629 17.4339C189.829 16.6316 188.927 15.9536 187.9 15.2643C184.608 13.1061 180.853 11.9648 176.985 11.9648H175.508C174.707 11.9648 174.031 11.2868 174.031 10.4845C174.031 9.68225 174.719 9.00427 175.508 9.00427H176.985C181.417 9.00427 185.735 10.2585 189.378 12.7671C190.517 13.4451 191.531 14.3603 192.445 15.2756C193.471 16.1909 194.373 17.3209 195.174 18.4622C196.2 19.8294 196.989 21.3097 197.677 22.79C198.928 25.6375 199.492 28.711 199.492 31.7846V45.4573C199.718 46.3725 199.041 47.0505 198.241 47.0505V47.0618Z" fill="#4CDBB2"/>
<path d="M154.918 8.55199C156.057 8.55199 157.072 9.46727 157.072 10.7102C157.072 11.2752 156.846 11.8515 156.508 12.1905C156.17 12.5295 155.594 12.7555 155.031 12.7555H150.712C149.573 12.7555 148.547 11.8402 148.547 10.5859C148.547 10.0209 148.772 9.44466 149.111 9.10566C149.449 8.76667 150.024 8.42767 150.588 8.42767H154.907V8.54068L154.918 8.55199Z" fill="#1F8D71"/>
<path d="M173.343 8.55199C174.482 8.55199 175.497 9.46727 175.497 10.7102C175.497 11.2752 175.271 11.8515 174.933 12.1905C174.595 12.5295 174.02 12.7555 173.456 12.7555H169.137C167.998 12.7555 166.972 11.8402 166.972 10.5859C166.972 10.0209 167.198 9.44466 167.536 9.10566C167.874 8.76667 168.449 8.42767 169.013 8.42767H173.332V8.54068L173.343 8.55199Z" fill="#1F8D71"/>
<path d="M182.995 25.2977C179.928 21.6478 175.835 18.9133 171.291 17.32C168.449 16.2918 165.269 15.7268 162.078 15.7268C158.887 15.7268 155.707 16.2918 152.866 17.32C142.063 21.0829 134.339 31.4447 134.339 43.5242C134.339 58.9031 146.732 71.3215 162.078 71.3215C177.312 71.2085 189.705 58.7901 189.705 43.4112C189.705 36.4618 187.201 30.1904 182.995 25.2977Z" fill="#1A403B"/>
<path d="M137.181 8.55231C138.771 8.55231 140.022 9.80657 140.022 11.3998C140.022 12.9931 138.771 14.2474 137.181 14.2474C135.591 14.2474 134.339 12.9931 134.339 11.3998C134.339 9.80657 135.591 8.55231 137.181 8.55231Z" fill="#1A403B"/>
<path d="M164.469 43.8751C164.243 42.8468 163.443 41.8186 162.304 41.1406C162.078 41.0276 161.853 40.9146 161.627 40.8016C161.853 40.6886 162.078 40.5756 162.304 40.4626C163.443 39.7846 164.232 38.7563 164.469 37.7281C165.269 37.1631 165.495 36.2478 165.145 35.5585C164.807 34.8805 163.781 34.6433 162.868 35.1065C161.842 34.7676 160.59 34.9935 159.462 35.5585C159.237 35.6715 159.011 35.7845 158.898 36.0105C158.898 35.7845 159.011 35.5585 159.011 35.2082C159.011 33.841 158.56 32.6997 157.76 32.0217C157.647 31.1064 156.959 30.3154 156.17 30.3154C155.38 30.3154 154.805 30.9934 154.58 32.0217C153.779 32.6997 153.328 33.841 153.328 35.2082C153.328 35.4342 153.328 35.6602 153.441 36.0105C153.215 35.7845 152.99 35.6715 152.764 35.5585C151.625 34.8805 150.374 34.7563 149.359 35.1065C148.445 34.7676 147.543 34.8805 147.081 35.5585C146.743 36.2365 146.968 37.1518 147.758 37.7281C147.983 38.7563 148.784 39.7733 149.923 40.4626C150.148 40.5756 150.374 40.6886 150.599 40.8016C150.374 40.9146 150.148 41.0276 149.923 41.1406C148.784 41.8186 147.994 42.8468 147.758 43.8751C146.957 44.4401 146.619 45.3554 147.081 46.0334C147.419 46.7227 148.445 46.9487 149.359 46.4854C150.385 46.8244 151.637 46.5984 152.764 46.0334C152.99 45.9204 153.215 45.8074 153.328 45.5814C153.328 45.8074 153.215 46.0334 153.215 46.3837C153.215 47.7509 153.666 48.8922 154.467 49.5702C154.58 50.4855 155.268 51.2765 156.057 51.2765C156.846 51.2765 157.421 50.5985 157.647 49.5702C158.447 48.8809 158.898 47.7509 158.898 46.3837C158.898 46.1577 158.898 45.9317 158.786 45.5814C159.011 45.8074 159.124 45.9204 159.35 46.0334C160.488 46.7227 161.74 46.8357 162.755 46.4854C163.668 46.8244 164.57 46.7114 165.033 46.0334C165.484 45.4684 165.145 44.5531 164.469 43.8751Z" fill="#1F8D71"/>
<path d="M194.937 53.096C195.163 53.322 195.388 53.661 195.388 54.1243C195.388 54.5876 195.275 54.9266 194.937 55.1526C194.711 55.3786 194.373 55.6046 193.911 55.6046C193.11 55.6046 192.434 54.9153 192.434 54.1243C192.434 53.7853 192.546 53.322 192.885 53.096C193.11 52.87 193.449 52.644 193.911 52.644C194.362 52.757 194.711 52.87 194.937 53.096Z" fill="#1A403B"/>
<path d="M192.095 27.4684C192.321 27.6944 192.546 28.0334 192.546 28.4967C192.546 28.96 192.434 29.299 192.095 29.525C191.87 29.751 191.532 29.9769 191.069 29.9769C190.269 29.9769 189.592 29.299 189.592 28.4967C189.592 28.1577 189.705 27.6944 190.043 27.4684C190.269 27.2424 190.607 27.0164 191.069 27.0164C191.52 27.1294 191.87 27.2424 192.095 27.4684Z" fill="#1A403B"/>
<path d="M170.84 41.7052C171.065 41.9312 171.291 42.2701 171.291 42.7334C171.291 43.1967 171.178 43.5357 170.84 43.7617C170.614 43.9877 170.276 44.2137 169.814 44.2137C169.013 44.2137 168.336 43.5244 168.336 42.7334C168.336 42.3944 168.449 41.9312 168.787 41.7052C169.013 41.4792 169.351 41.2532 169.814 41.2532C170.152 41.3662 170.614 41.4792 170.84 41.7052Z" fill="#23B890"/>
<path d="M170.84 46.0325C171.065 46.2585 171.291 46.5975 171.291 47.0608C171.291 47.5241 171.178 47.8631 170.84 48.0891C170.614 48.315 170.276 48.541 169.814 48.541C169.013 48.541 168.336 47.8518 168.336 47.0608C168.336 46.7218 168.449 46.2585 168.787 46.0325C169.013 45.8065 169.351 45.5805 169.814 45.5805C170.152 45.5805 170.614 45.6935 170.84 46.0325Z" fill="#23B890"/>
<path d="M170.84 50.249C171.065 50.475 171.291 50.814 171.291 51.2773C171.291 51.7406 171.178 52.0795 170.84 52.3055C170.614 52.5315 170.276 52.7575 169.814 52.7575C169.013 52.7575 168.336 52.0682 168.336 51.2773C168.336 50.9383 168.449 50.475 168.787 50.249C169.013 50.023 169.351 49.797 169.814 49.797C170.152 49.91 170.614 50.023 170.84 50.249Z" fill="#23B890"/>
<path d="M170.84 54.5764C171.065 54.8024 171.291 55.1414 171.291 55.6047C171.291 55.9436 171.178 56.4069 170.84 56.6329C170.614 56.8589 170.276 57.0849 169.814 57.0849C169.013 57.0849 168.336 56.3956 168.336 55.6047C168.336 55.2657 168.449 54.8024 168.787 54.5764C169.013 54.3504 169.351 54.1244 169.814 54.1244C170.152 54.1244 170.614 54.2374 170.84 54.5764Z" fill="#23B890"/>
<path d="M166.521 54.5764C166.747 54.8024 166.972 55.1414 166.972 55.6047C166.972 55.9436 166.859 56.4069 166.521 56.6329C166.296 56.8589 165.957 57.0849 165.495 57.0849C164.694 57.0849 164.018 56.3956 164.018 55.6047C164.018 55.2657 164.13 54.8024 164.469 54.5764C164.694 54.3504 165.033 54.1244 165.495 54.1244C165.957 54.1244 166.296 54.2374 166.521 54.5764Z" fill="#23B890"/>
<path d="M162.315 54.5759C162.541 54.8018 162.766 55.1408 162.766 55.6041C162.766 55.9431 162.653 56.4064 162.315 56.6324C162.09 56.8584 161.639 56.9714 161.289 56.9714C160.488 56.9714 159.812 56.2934 159.812 55.4911C159.812 55.1521 159.925 54.6889 160.263 54.4629C160.488 54.2369 160.827 54.0109 161.289 54.0109C161.627 54.1239 162.09 54.2369 162.315 54.5759Z" fill="#23B890"/>
<path d="M139.571 65.9762C139.797 66.2022 140.022 66.5412 140.022 67.0045C140.022 67.4678 139.909 67.7955 139.571 68.0328C139.346 68.2588 138.883 68.3718 138.545 68.3718C137.744 68.3718 137.068 67.6825 137.068 66.8916C137.068 66.5526 137.181 66.0893 137.519 65.8633C137.744 65.6373 138.083 65.4113 138.545 65.4113C138.883 65.5243 139.346 65.6372 139.571 65.9762Z" fill="#1A403B"/>
<path d="M138.094 20.4063C138.319 20.6323 138.545 20.9713 138.545 21.4345C138.545 21.8978 138.432 22.2368 138.094 22.4628C137.868 22.6888 137.53 22.9148 137.068 22.9148C136.267 22.9148 135.591 22.2368 135.591 21.4345C135.591 21.0956 135.703 20.6323 136.042 20.4063C136.267 20.1803 136.605 19.9543 137.068 19.9543C137.53 19.9543 137.857 20.0673 138.094 20.4063Z" fill="#1A403B"/>
<path d="M156.17 43.7628C154.58 43.7628 153.328 42.5085 153.328 40.9153C153.328 39.322 154.58 38.0677 156.17 38.0677C157.76 38.0677 159.011 39.322 159.011 40.9153C159.011 42.5085 157.76 43.7628 156.17 43.7628Z" fill="#23B890"/>
<path d="M161.966 66.9931C149.122 66.9931 138.545 56.3939 138.545 43.4105C138.545 40.563 138.996 37.7154 140.022 35.0939C140.248 34.4159 141.161 33.9526 141.838 34.2916C142.514 34.5176 142.977 35.4329 142.638 36.1109C141.725 38.3934 141.274 40.8907 141.274 43.3992C141.274 54.7894 150.486 64.0213 161.853 64.0213C173.219 64.0213 182.432 54.7894 182.432 43.3992C182.432 38.6194 180.729 33.9413 177.662 30.1785C175.384 27.444 172.43 25.2744 169.137 24.0314C166.972 23.2292 164.48 22.7772 161.977 22.7772C159.022 22.7772 156.181 23.3422 153.565 24.5964C151.637 25.5117 149.81 26.6417 148.22 28.1219C147.656 28.6869 146.743 28.574 146.179 28.009C145.615 27.444 145.728 26.5287 146.292 25.9637C148.107 24.2575 150.159 23.0032 152.426 21.9749C155.493 20.6076 158.673 19.9296 161.977 19.9296C164.818 19.9296 167.66 20.4946 170.276 21.4099C174.031 22.8902 177.436 25.2857 179.94 28.3593C183.458 32.5741 185.397 37.9301 185.397 43.3992C185.51 56.3826 174.933 66.9818 161.977 66.9818L161.966 66.9931Z" fill="#23B890"/>
<path d="M169.926 39.773C169.588 39.773 169.25 39.66 168.9 39.321C168.336 38.756 168.336 37.8407 168.9 37.2758L187.664 18.473C188.228 17.908 189.141 17.908 189.705 18.473C190.268 19.038 190.268 19.9533 189.705 20.5182L170.953 39.434C170.614 39.66 170.265 39.773 169.926 39.773Z" fill="#1D6656"/>
<path d="M198.117 10.1446C196.64 8.66436 194.249 8.66436 192.772 10.1446L188.791 14.1334C187.314 15.6137 187.314 18.0092 188.791 19.4895C190.269 20.9698 192.659 20.9698 194.136 19.4895L194.249 19.3765L198.229 15.3877C199.03 14.5854 199.368 13.6814 199.368 12.6532C199.256 11.8509 198.805 10.8339 198.117 10.1446Z" fill="#1F8D71"/>
<path d="M106.533 30.1245C106.307 29.411 106.464 28.6822 106.771 28.0899C106.104 27.8176 105.633 27.279 105.407 26.5654C105.182 25.8518 105.339 25.123 105.645 24.5308C104.978 24.2585 104.507 23.7198 104.282 23.0062C104.056 22.2926 104.213 21.5639 104.52 20.9717C103.852 20.6993 103.382 20.1607 103.156 19.4471C102.93 18.7335 103.087 18.0047 103.394 17.4125C102.727 17.1401 102.256 16.6016 102.03 15.888C101.805 15.1744 101.962 14.4456 102.268 13.8534C99.8551 13.9429 97.6067 12.409 96.846 10.0039L54.6917 23.4242C55.4217 25.7324 54.5351 28.1673 52.6306 29.5591C53.2981 29.8314 53.8568 30.342 54.1103 31.1437C54.336 31.8573 54.179 32.5861 53.8722 33.1783C54.5396 33.4506 55.0103 33.9893 55.236 34.7029C55.4617 35.4165 55.3047 36.1452 54.9979 36.7375C55.6653 37.0098 56.136 37.5484 56.3617 38.262C56.5874 38.9756 56.4303 39.7044 56.1235 40.2966C56.791 40.5689 57.2617 41.1076 57.4874 41.8212C57.7131 42.5348 57.556 43.2635 57.2492 43.8557C57.9167 44.1281 58.3873 44.6667 58.613 45.3803C58.8387 46.0939 58.7095 46.9108 58.3147 47.531C60.6706 47.5664 62.7916 49.0342 63.5244 51.3512L105.679 37.931C104.921 35.5347 105.868 32.9836 107.897 31.6491C107.317 31.3488 106.759 30.8381 106.533 30.1245Z" fill="#4A3354"/>
<path d="M61.9356 11.442C63.177 11.0468 64.4636 11.7139 64.8566 12.9564C65.2495 14.1989 64.5816 15.4882 63.3402 15.8835C62.0988 16.2787 60.8122 15.6117 60.4192 14.3692C60.0263 13.1266 60.6942 11.8373 61.9356 11.442Z" fill="#30273A"/>
<path d="M96.9528 46.7852C98.4583 46.3059 100.093 47.1532 100.569 48.6601C101.046 50.167 100.2 51.8136 98.6946 52.2929C97.1891 52.7723 95.546 51.9278 95.0666 50.412C94.5873 48.8963 95.3504 47.2954 96.9528 46.7852Z" fill="#30273A"/>
<path d="M89.2193 22.3424L80.3486 25.1664C78.1923 25.8528 76.9974 28.1584 77.6799 30.316C78.3623 32.4736 80.6636 33.6663 82.82 32.9798L91.6906 30.1559C93.847 29.4694 95.0418 27.1638 94.3594 25.0062C93.6769 22.8486 91.3757 21.656 89.2193 22.3424Z" fill="#7A4D89"/>
<path d="M72.9908 30.6246L70.8024 33.5716L72.9072 36.5194L69.505 35.3523L67.3166 38.2993L67.3424 34.6732L63.9402 33.5062L67.4002 32.4046L67.426 28.7785L69.5308 31.7262L72.9908 30.6246Z" fill="#7A4D89"/>
<path d="M109.123 42.0323C109.354 42.1525 109.614 42.3608 109.728 42.7221C109.812 42.9865 109.838 43.3758 109.63 43.6361C109.509 43.8685 109.301 44.1288 108.94 44.2437C108.315 44.4428 107.617 44.0734 107.422 43.4565C107.338 43.1922 107.312 42.8028 107.52 42.5425C107.641 42.3102 107.849 42.0498 108.21 41.9349C108.502 41.9389 108.794 41.9429 109.123 42.0323Z" fill="#30273A"/>
<path d="M96.2117 31.1715L93.993 31.8779L94.6954 34.0987L96.914 33.3923L96.2117 31.1715Z" fill="white"/>
<path d="M87.2501 3.7887C87.4819 3.90889 87.7416 4.11718 87.8559 4.47849C87.9702 4.8398 87.847 5.06328 87.7573 5.39253C87.637 5.62485 87.4286 5.88521 87.0676 6.00014C86.4425 6.19917 85.8351 5.81058 85.6372 5.18489C85.5536 4.92052 85.5274 4.53119 85.7358 4.27085C85.8561 4.03854 86.0645 3.77817 86.4255 3.66324C86.6016 3.60717 86.9214 3.69935 87.2501 3.7887Z" fill="#30273A"/>
<path d="M92.9298 32.2151L90.7111 32.9214L91.4134 35.1422L93.6321 34.4358L92.9298 32.2151Z" fill="white"/>
<path d="M89.5596 33.2859L87.3409 33.9923L88.0433 36.213L90.2619 35.5067L89.5596 33.2859Z" fill="white"/>
<path d="M86.2776 34.3294L84.059 35.0358L84.7613 37.2566L86.9799 36.5502L86.2776 34.3294Z" fill="white"/>
<path d="M82.9077 35.4016L80.689 36.108L81.3913 38.3288L83.61 37.6224L82.9077 35.4016Z" fill="white"/>
<path d="M87.6465 51.3171C87.8784 51.4373 88.138 51.6455 88.2523 52.0069C88.3359 52.2712 88.3621 52.6606 88.1538 52.9209C88.0334 53.1532 87.825 53.4135 87.464 53.5285C86.8389 53.7275 86.1407 53.3581 85.9456 52.7413C85.862 52.4769 85.8358 52.0876 86.0442 51.8272C86.1645 51.5949 86.3729 51.3346 86.7339 51.2196C87.0948 51.1047 87.3179 51.2277 87.6465 51.3171Z" fill="#30273A"/>
<path d="M72.4236 10.9489C72.6554 11.069 72.9151 11.2774 73.0294 11.6387C73.113 11.9031 73.1392 12.2924 72.9308 12.5527C72.8104 12.785 72.6021 13.0454 72.2411 13.1603C71.616 13.3593 70.9205 12.9988 70.7226 12.3731C70.639 12.1087 70.6128 11.7194 70.8212 11.459C70.9415 11.2267 71.1499 10.9664 71.5109 10.8515C71.8719 10.7365 72.0949 10.8595 72.4236 10.9489Z" fill="#30273A"/>
<path d="M73.3008 52.2578C73.5326 52.378 73.7923 52.5863 73.9065 52.9476C73.9901 53.212 74.0136 53.5925 73.808 53.8617C73.6876 54.094 73.4792 54.3543 73.1183 54.4692C72.4932 54.6682 71.7949 54.2989 71.5998 53.682C71.5162 53.4176 71.49 53.0283 71.6984 52.768C71.8187 52.5357 72.0271 52.2753 72.3881 52.1604C72.7491 52.0455 72.9721 52.1685 73.3008 52.2578Z" fill="#30273A"/>
<path d="M55.3835 15.0955C55.6153 15.2157 55.875 15.424 55.9892 15.7854C56.1035 16.1467 56.0991 16.439 55.8907 16.6994C55.6823 16.9597 55.5619 17.1921 55.201 17.307C54.5759 17.506 53.8804 17.1455 53.6825 16.5198C53.5989 16.2554 53.5727 15.866 53.7811 15.6057C53.9014 15.3734 54.1098 15.1131 54.4708 14.9981C54.8318 14.8832 55.1516 14.9753 55.3835 15.0955Z" fill="#30273A"/>
<path d="M101.326 35.6069L65.8373 46.8955C65.2126 47.0942 64.5175 46.7342 64.3197 46.1094C64.122 45.4846 64.4828 44.7887 65.1076 44.59L100.596 33.3014C101.221 33.1027 101.919 33.4715 102.114 34.0875C102.309 34.7035 101.95 35.4082 101.326 35.6069Z" fill="#7A4D89"/>
<path d="M95.359 16.7635L59.8707 28.052C59.2459 28.2508 58.5508 27.8907 58.353 27.266C58.1553 26.6412 58.5161 25.9453 59.1409 25.7465L94.6292 14.458C95.254 14.2593 95.9491 14.6193 96.1469 15.244C96.2566 15.8968 95.9838 16.5647 95.359 16.7635Z" fill="#7A4D89"/>
<path d="M98.1677 21.9391C97.5425 22.1382 96.8469 21.7776 96.649 21.1518L96.2838 19.9972C96.0859 19.3714 96.447 18.6744 97.0722 18.4753C97.6974 18.2763 98.3931 18.6369 98.591 19.2627L98.9561 20.4173C99.1819 21.1312 98.7929 21.7401 98.1677 21.9391Z" fill="#7A4D89"/>
<path d="M99.575 26.3828C98.9498 26.5818 98.2542 26.2212 98.0562 25.5955L97.6911 24.4409C97.4932 23.8151 97.8543 23.118 98.4795 22.919C99.1047 22.7199 99.8003 23.0805 99.9983 23.7063L100.363 24.8609C100.589 25.5748 100.2 26.1837 99.575 26.3828Z" fill="#7A4D89"/>
<path d="M100.982 30.8266C100.357 31.0256 99.6612 30.665 99.4633 30.0392L99.0981 28.8846C98.9002 28.2589 99.2613 27.5618 99.8866 27.3628C100.512 27.1637 101.207 27.5243 101.405 28.1501L101.77 29.3047C101.996 30.0186 101.607 30.6275 100.982 30.8266Z" fill="#7A4D89"/>
<path d="M60.4638 33.9283C59.8386 34.1273 59.143 33.7667 58.9451 33.1409L58.5799 31.9863C58.382 31.3606 58.7519 30.6607 59.3684 30.4645C59.9848 30.2682 60.6892 30.626 60.8871 31.2518L61.2523 32.4064C61.4781 33.1203 61.0803 33.732 60.4638 33.9283Z" fill="#7A4D89"/>
<path d="M61.8711 38.3722C61.2459 38.5712 60.5503 38.2106 60.3524 37.5848L59.9872 36.4302C59.7893 35.8045 60.1592 35.1046 60.7757 34.9084C61.3921 34.7121 62.0965 35.0699 62.2944 35.6957L62.6596 36.8503C62.8853 37.5642 62.4876 38.1759 61.8711 38.3722Z" fill="#7A4D89"/>
<path d="M63.2782 42.816C62.653 43.0151 61.9574 42.6545 61.7595 42.0287L61.3943 40.8741C61.1964 40.2483 61.5663 39.5485 62.1828 39.3522C62.7992 39.156 63.5036 39.5138 63.7015 40.1395L64.0667 41.2942C64.2924 42.0081 63.8947 42.6198 63.2782 42.816Z" fill="#7A4D89"/>
</svg>
