<svg width="24" height="24" viewBox="0 0 24 24" fill="none" xmlns="http://www.w3.org/2000/svg">
<path opacity="0.4" d="M11.7759 21.8374C9.49286 20.4273 7.37056 18.7645 5.44782 16.8796C4.09044 15.5338 3.0538 13.8905 2.4171 12.0753C1.27947 8.53523 2.60374 4.48948 6.30105 3.2884C8.25256 2.67553 10.375 3.05175 12.007 4.29983C13.6396 3.05315 15.7613 2.67705 17.7129 3.2884C21.4102 4.48948 22.7434 8.53523 21.6058 12.0753C20.9742 13.8888 19.9438 15.5319 18.5928 16.8796C16.6683 18.7625 14.5463 20.4251 12.2647 21.8374L12.0159 22L11.7759 21.8374Z" fill="#212121"/>
<path d="M12.0109 22.0001L11.776 21.8375C9.49013 20.4275 7.36487 18.7648 5.43902 16.8797C4.0752 15.5357 3.03238 13.8923 2.39052 12.0754C1.26177 8.53532 2.58605 4.48957 6.28335 3.28849C8.23486 2.67562 10.3853 3.05213 12.0109 4.31067V22.0001Z" fill="#212121"/>
</svg>
