<svg width="24" height="24" viewBox="0 0 24 24" fill="none" xmlns="http://www.w3.org/2000/svg">
<path d="M21.2354 5.99382C20.4771 4.45775 19.1348 3.30469 17.5206 2.8027C15.6647 2.21871 13.6511 2.48784 12.0059 3.53981C10.3607 2.48784 8.34706 2.21871 6.49115 2.8027C4.87695 3.30469 3.5347 4.45775 2.77642 5.99382C1.8902 7.84437 1.75701 9.97655 2.40583 11.9266C3.02208 13.7276 4.03993 15.3583 5.37938 16.6908C7.20077 18.4723 9.21007 20.0429 11.3706 21.3741C11.4903 21.457 11.6318 21.5008 11.7765 21.5C12.0974 21.4927 12.3773 21.2757 12.4697 20.9625C12.5621 20.6493 12.4461 20.3111 12.1824 20.1246C10.1083 18.8465 8.179 17.3392 6.42938 15.6301C5.24529 14.4645 4.33967 13.0376 3.78231 11.4592C3.25377 9.88955 3.35526 8.17077 4.06466 6.67699C4.65663 5.4988 5.69596 4.61862 6.94115 4.24096C8.5187 3.73684 10.2382 4.04164 11.5559 5.05896C11.818 5.25674 12.1762 5.25674 12.4382 5.05896C13.7565 4.04305 15.4753 3.73838 17.053 4.24096C18.2899 4.62715 19.3189 5.51 19.903 6.68598C20.6288 8.18086 20.7368 9.90956 20.203 11.4861C19.648 13.0683 18.7421 14.4987 17.5559 15.6661C16.7323 16.5088 15.8474 17.2871 14.9088 17.9942C14.7473 18.1067 14.6373 18.2811 14.6041 18.4776C14.5708 18.674 14.6171 18.8759 14.7324 19.037C14.9591 19.3706 15.406 19.4584 15.7383 19.2347L15.7912 19.1898C16.7914 18.442 17.7325 17.6155 18.6059 16.7178C19.938 15.3809 20.9521 13.7513 21.5707 11.9536C22.2427 10.0008 22.122 7.85558 21.2354 5.99382Z" fill="#212121"/>
</svg>
